<svg xmlns="http://www.w3.org/2000/svg" xmlns:xlink="http://www.w3.org/1999/xlink" version="1.1" viewBox="0 0 3508 2480" style="background: #ffffff"><defs><style>@import url(https://fonts.googleapis.com/css?family=Open+Sans:400,700);</style></defs><defs joint-selector="defs"></defs><g  joint-selector="layers" transform="matrix(1,0,0,1,0,0)"><g ></g><g ><g   id="j_2"  transform="translate(20,2442.5)"><g id="v-5"><text  id="v-6" font-size="22px" xml:space="preserve" y="0.8em" font-weight="normal" text-anchor="start" fill="#aaaaaa" pointer-events="none" display="block" font-family="Open Sans"><tspan  dy="0" display="block">Tuesday, 5 March 2024 at 11:58 Greenwich Mean Time</tspan></text></g></g><g   id="j_1"  transform="translate(20,2397.5)"><g id="v-3"><text  id="v-4" font-size="36px" xml:space="preserve" y="0.8em" font-weight="normal" text-anchor="start" fill="#000000" pointer-events="none" display="block" font-family="Open Sans"><tspan  dy="0" display="block">[Container] Central Digital Platform</tspan></text></g></g><g   id="j_3"  transform="translate(95,70)" style=""><g  id="v-7" style="opacity: 1;"><rect  x="0" y="160" width="400" height="240" rx="70" id="v-9" stroke="#073b6f" stroke-width="2" pointer-events="visiblePainted" fill="#08427b" style="fill: rgb(8, 66, 123); stroke: rgb(7, 59, 111);"></rect><circle  cx="200" cy="88.88888888888889" r="88.88888888888889" id="v-8" stroke="#073b6f" stroke-width="2" pointer-events="visiblePainted" fill="#08427b" style="fill: rgb(8, 66, 123); stroke: rgb(7, 59, 111);"></circle><line  x1="80" y1="266.6666666666667" x2="80" y2="400" id="v-15" stroke="#073b6f" stroke-width="2" style="stroke: rgb(7, 59, 111);"></line><line  x1="320" y1="266.6666666666667" x2="320" y2="400" id="v-16" stroke="#073b6f" stroke-width="2" style="stroke: rgb(7, 59, 111);"></line><text  id="v-10" font-size="34" xml:space="preserve" y="0.8em" font-weight="bold" text-anchor="middle" pointer-events="visible" font-family="Open Sans" fill="#ffffff" transform="matrix(1,0,0,1,200,243.10000610351562)" style="fill: rgb(255, 255, 255);"><tspan  dy="0">Supplier</tspan></text><text  id="v-11" font-size="17" xml:space="preserve" y="0.8em" text-anchor="middle" font-family="Open Sans" fill="#ffffff" transform="matrix(1,0,0,1,200,285.6000061035156)" style="fill: rgb(255, 255, 255);"><tspan  dy="0">[Person]</tspan></text><text  id="v-12" font-size="24" xml:space="preserve" display="none" y="0.8em" text-anchor="middle" font-family="Open Sans" fill="#ffffff" transform="matrix(1,0,0,1,200,316.8999938964844)" style="fill: rgb(255, 255, 255);"><tspan style="fill-opacity: 0; stroke-opacity: 0;"  dy="0">-</tspan></text><g  id="v-13" font-weight="normal" text-anchor="middle" color="#ffffff" transform="matrix(1,0,0,1,197.5,326.8999938964844)" style="fill: rgb(255, 255, 255);" display="none"><g ></g><g ></g><g ></g><g ></g></g><image  id="v-14"></image></g></g><g   id="j_4"  transform="translate(70,785)" style=""><g  id="v-20" style="opacity: 1;"><rect  id="v-21" rx="20" ry="20" stroke="#0f5eaa" stroke-width="2" pointer-events="visiblePainted" fill="#1168bd" width="450" height="300" style="fill: rgb(17, 104, 189); stroke: rgb(15, 94, 170);"></rect><text  id="v-22" font-size="34" xml:space="preserve" y="0.8em" font-weight="bold" text-anchor="middle" pointer-events="visible" font-family="Open Sans" fill="#ffffff" transform="matrix(1,0,0,1,225,83.0999984741211)" style="fill: rgb(255, 255, 255);"><tspan  dy="0">eSender</tspan></text><text  id="v-23" font-size="17" xml:space="preserve" y="0.8em" text-anchor="middle" font-family="Open Sans" fill="#ffffff" transform="matrix(1,0,0,1,225,125.5999984741211)" style="fill: rgb(255, 255, 255);"><tspan  dy="0">[Software System]</tspan></text><text  id="v-24" font-size="24" xml:space="preserve" y="0.8em" text-anchor="middle" font-family="Open Sans" fill="#ffffff" transform="matrix(1,0,0,1,225,156.89999389648438)" style="fill: rgb(255, 255, 255);"><tspan  dy="0">Commercial Software that Buyers</tspan><tspan dy="1.2em" x="0" >use to manage tender processes</tspan></text><g  id="v-25" color="#ffffff" transform="matrix(1,0,0,1,222.5,226.89999389648438)" style="fill: rgb(255, 255, 255);" display="none"><g ></g><g ></g><g ></g><g ></g></g><image  id="v-26"></image></g></g><g   id="j_6"  transform="translate(855,105)" style=""><g id="v-42"><rect  id="v-43" width="2570" height="1741" rx="0" ry="0" fill="#ffffff" stroke="#0f5eaa" stroke-width="1" stroke-dasharray="20,20" pointer-events="none"></rect><text  id="v-44" font-size="24px" xml:space="preserve" y="1702" font-weight="normal" fill="#0f5eaa" text-anchor="start" pointer-events="visible" font-family="Open Sans" transform="matrix(1,0,0,1,15,0)"><tspan  dy="0">Central Digital Platform</tspan></text><text  id="v-45" font-size="17px" xml:space="preserve" y="1726" font-weight="normal" fill="#0f5eaa" text-anchor="start" pointer-events="visible" font-family="Open Sans" transform="matrix(1,0,0,1,15,0)"><tspan  dy="0">[Software System]</tspan></text><image  id="v-46" pointer-events="visible"></image></g></g><g   id="j_5"  transform="translate(1910,125)" style=""><g  id="v-30" style="opacity: 1;"><rect  id="v-31" rx="10" ry="10" stroke="#3c7fc0" stroke-width="2" pointer-events="visiblePainted" fill="#3c7fc0" width="450" height="300" style="fill: rgb(60, 127, 192); stroke: rgb(60, 127, 192);"></rect><rect  id="v-32" rx="10" ry="10" stroke="#3c7fc0" stroke-width="0" pointer-events="visiblePainted" fill="#438dd5" width="430" height="250" x="10" y="40" style="fill: rgb(67, 141, 213);"></rect><ellipse  id="v-39" fill="#438dd5" cx="20" cy="20" rx="10" ry="10" style="fill: rgb(67, 141, 213);"></ellipse><ellipse  id="v-40" fill="#438dd5" cx="50" cy="20" rx="10" ry="10" style="fill: rgb(67, 141, 213);"></ellipse><ellipse  id="v-41" fill="#438dd5" cx="80" cy="20" rx="10" ry="10" style="fill: rgb(67, 141, 213);"></ellipse><rect  id="v-33" rx="10" ry="10" stroke="#444444" stroke-width="0" pointer-events="visiblePainted" fill="#438dd5" width="340" height="20" x="100" y="10" style="fill: rgb(67, 141, 213);"></rect><text  id="v-34" font-size="34" xml:space="preserve" y="0.8em" font-weight="bold" text-anchor="middle" pointer-events="visible" font-family="Open Sans" fill="#ffffff" transform="matrix(1,0,0,1,225,113.0999984741211)" style="fill: rgb(255, 255, 255);"><tspan  dy="0">Web Application</tspan></text><text  id="v-35" font-size="17" xml:space="preserve" y="0.8em" text-anchor="middle" font-family="Open Sans" fill="#ffffff" transform="matrix(1,0,0,1,225,155.60000610351562)" style="fill: rgb(255, 255, 255);"><tspan  dy="0">[Container: Asp.Net Core MVC]</tspan></text><text  id="v-36" font-size="24" xml:space="preserve" y="0.8em" text-anchor="middle" font-family="Open Sans" fill="#ffffff" transform="matrix(1,0,0,1,225,186.89999389648438)" style="fill: rgb(255, 255, 255);"><tspan  dy="0">Account &amp; data capture frontend</tspan></text><g  id="v-37" font-weight="normal" text-anchor="middle" color="#ffffff" transform="matrix(1,0,0,1,222.5,226.89999389648438)" style="fill: rgb(255, 255, 255);" display="none"><g ></g><g ></g><g ></g><g ></g></g><image  id="v-38"></image></g></g><g   id="j_7"  transform="translate(1395,775)" style=""><g  id="v-47" style="opacity: 1;"><rect  id="v-48" rx="20" ry="20" stroke="#3c7fc0" stroke-width="2" pointer-events="visiblePainted" fill="#438dd5" width="450" height="300" style="fill: rgb(67, 141, 213); stroke: rgb(60, 127, 192);"></rect><text  id="v-49" font-size="34" xml:space="preserve" y="0.8em" font-weight="bold" text-anchor="middle" pointer-events="visible" font-family="Open Sans" fill="#ffffff" transform="matrix(1,0,0,1,225,113.0999984741211)" style="fill: rgb(255, 255, 255);"><tspan  dy="0">Tenant API</tspan></text><text  id="v-50" font-size="17" xml:space="preserve" y="0.8em" text-anchor="middle" font-family="Open Sans" fill="#ffffff" transform="matrix(1,0,0,1,225,155.60000610351562)" style="fill: rgb(255, 255, 255);"><tspan  dy="0">[Container: Asp.Net Core]</tspan></text><text  id="v-51" font-size="24" xml:space="preserve" display="none" y="0.8em" text-anchor="middle" font-family="Open Sans" fill="#ffffff" transform="matrix(1,0,0,1,225,186.89999389648438)" style="fill: rgb(255, 255, 255);"><tspan style="fill-opacity: 0; stroke-opacity: 0;"  dy="0">-</tspan></text><g  id="v-52" color="#ffffff" transform="matrix(1,0,0,1,222.5,196.89999389648438)" style="fill: rgb(255, 255, 255);" display="none"><g ></g><g ></g><g ></g><g ></g></g><image  id="v-53"></image></g></g><g   id="j_8"  transform="translate(2435,775)" style=""><g  id="v-54" style="opacity: 1;"><rect  id="v-55" rx="20" ry="20" stroke="#3c7fc0" stroke-width="2" pointer-events="visiblePainted" fill="#438dd5" width="450" height="300" style="fill: rgb(67, 141, 213); stroke: rgb(60, 127, 192);"></rect><text  id="v-56" font-size="34" xml:space="preserve" y="0.8em" font-weight="bold" text-anchor="middle" pointer-events="visible" font-family="Open Sans" fill="#ffffff" transform="matrix(1,0,0,1,225,113.0999984741211)" style="fill: rgb(255, 255, 255);"><tspan  dy="0">Person API</tspan></text><text  id="v-57" font-size="17" xml:space="preserve" y="0.8em" text-anchor="middle" font-family="Open Sans" fill="#ffffff" transform="matrix(1,0,0,1,225,155.60000610351562)" style="fill: rgb(255, 255, 255);"><tspan  dy="0">[Container: Asp.Net Core]</tspan></text><text  id="v-58" font-size="24" xml:space="preserve" display="none" y="0.8em" text-anchor="middle" font-family="Open Sans" fill="#ffffff" transform="matrix(1,0,0,1,225,186.89999389648438)" style="fill: rgb(255, 255, 255);"><tspan style="fill-opacity: 0; stroke-opacity: 0;"  dy="0">-</tspan></text><g  id="v-59" color="#ffffff" transform="matrix(1,0,0,1,222.5,196.89999389648438)" style="fill: rgb(255, 255, 255);" display="none"><g ></g><g ></g><g ></g><g ></g></g><image  id="v-60"></image></g></g><g   id="j_9"  transform="translate(2955,775)" style=""><g  id="v-64" style="opacity: 1;"><rect  id="v-65" rx="20" ry="20" stroke="#3c7fc0" stroke-width="2" pointer-events="visiblePainted" fill="#438dd5" width="450" height="300" style="fill: rgb(67, 141, 213); stroke: rgb(60, 127, 192);"></rect><text  id="v-66" font-size="34" xml:space="preserve" y="0.8em" font-weight="bold" text-anchor="middle" pointer-events="visible" font-family="Open Sans" fill="#ffffff" transform="matrix(1,0,0,1,225,113.0999984741211)" style="fill: rgb(255, 255, 255);"><tspan  dy="0">Organisation API</tspan></text><text  id="v-67" font-size="17" xml:space="preserve" y="0.8em" text-anchor="middle" font-family="Open Sans" fill="#ffffff" transform="matrix(1,0,0,1,225,155.60000610351562)" style="fill: rgb(255, 255, 255);"><tspan  dy="0">[Container: Asp.Net Core]</tspan></text><text  id="v-68" font-size="24" xml:space="preserve" display="none" y="0.8em" text-anchor="middle" font-family="Open Sans" fill="#ffffff" transform="matrix(1,0,0,1,225,186.89999389648438)" style="fill: rgb(255, 255, 255);"><tspan style="fill-opacity: 0; stroke-opacity: 0;"  dy="0">-</tspan></text><g  id="v-69" color="#ffffff" transform="matrix(1,0,0,1,222.5,196.89999389648438)" style="fill: rgb(255, 255, 255);" display="none"><g ></g><g ></g><g ></g><g ></g></g><image  id="v-70"></image></g></g><g   id="j_10"  transform="translate(1915,775)" style=""><g  id="v-74" style="opacity: 1;"><rect  id="v-75" rx="20" ry="20" stroke="#3c7fc0" stroke-width="2" pointer-events="visiblePainted" fill="#438dd5" width="450" height="300" style="fill: rgb(67, 141, 213); stroke: rgb(60, 127, 192);"></rect><text  id="v-76" font-size="34" xml:space="preserve" y="0.8em" font-weight="bold" text-anchor="middle" pointer-events="visible" font-family="Open Sans" fill="#ffffff" transform="matrix(1,0,0,1,225,113.0999984741211)" style="fill: rgb(255, 255, 255);"><tspan  dy="0">Data Capture API</tspan></text><text  id="v-77" font-size="17" xml:space="preserve" y="0.8em" text-anchor="middle" font-family="Open Sans" fill="#ffffff" transform="matrix(1,0,0,1,225,155.60000610351562)" style="fill: rgb(255, 255, 255);"><tspan  dy="0">[Container: Asp.Net Core]</tspan></text><text  id="v-78" font-size="24" xml:space="preserve" display="none" y="0.8em" text-anchor="middle" font-family="Open Sans" fill="#ffffff" transform="matrix(1,0,0,1,225,186.89999389648438)" style="fill: rgb(255, 255, 255);"><tspan style="fill-opacity: 0; stroke-opacity: 0;"  dy="0">-</tspan></text><g  id="v-79" color="#ffffff" transform="matrix(1,0,0,1,222.5,196.89999389648438)" style="fill: rgb(255, 255, 255);" display="none"><g ></g><g ></g><g ></g><g ></g></g><image  id="v-80"></image></g></g><g   id="j_11"  transform="translate(875,775)" style=""><g  id="v-84" style="opacity: 1;"><rect  id="v-85" rx="20" ry="20" stroke="#3c7fc0" stroke-width="2" pointer-events="visiblePainted" fill="#438dd5" width="450" height="300" style="fill: rgb(67, 141, 213); stroke: rgb(60, 127, 192);"></rect><text  id="v-86" font-size="34" xml:space="preserve" y="0.8em" font-weight="bold" text-anchor="middle" pointer-events="visible" font-family="Open Sans" fill="#ffffff" transform="matrix(1,0,0,1,225,113.0999984741211)" style="fill: rgb(255, 255, 255);"><tspan  dy="0">Data Sharing API</tspan></text><text  id="v-87" font-size="17" xml:space="preserve" y="0.8em" text-anchor="middle" font-family="Open Sans" fill="#ffffff" transform="matrix(1,0,0,1,225,155.60000610351562)" style="fill: rgb(255, 255, 255);"><tspan  dy="0">[Container: Asp.Net Core]</tspan></text><text  id="v-88" font-size="24" xml:space="preserve" display="none" y="0.8em" text-anchor="middle" font-family="Open Sans" fill="#ffffff" transform="matrix(1,0,0,1,225,186.89999389648438)" style="fill: rgb(255, 255, 255);"><tspan style="fill-opacity: 0; stroke-opacity: 0;"  dy="0">-</tspan></text><g  id="v-89" color="#ffffff" transform="matrix(1,0,0,1,222.5,196.89999389648438)" style="fill: rgb(255, 255, 255);" display="none"><g ></g><g ></g><g ></g><g ></g></g><image  id="v-90"></image></g></g><g   id="j_12"  transform="translate(1920,1455)" style=""><g  id="v-94" style="opacity: 1;"><path  d="M 0,30 a 225,30 0,0,0 450 0 a 225,30 0,0,0 -450 0 l 0,240 a 225,30 0,0,0 450 0 l 0,-240" id="v-95" stroke="#3c7fc0" stroke-width="2" pointer-events="visiblePainted" fill="#438dd5" style="fill: rgb(67, 141, 213); stroke: rgb(60, 127, 192);"></path><rect  id="v-96" stroke-width="0" pointer-events="visiblePainted" fill="none" stroke="none" width="450" height="270" x="0" y="30"></rect><text  id="v-97" font-size="34" xml:space="preserve" y="0.8em" font-weight="bold" text-anchor="middle" pointer-events="visible" font-family="Open Sans" fill="#ffffff" transform="matrix(1,0,0,1,225,121.9000015258789)" style="fill: rgb(255, 255, 255);"><tspan  dy="0">Organisation Information</tspan><tspan dy="1.2em" x="0" >Database</tspan></text><text  id="v-98" font-size="17" xml:space="preserve" y="0.8em" text-anchor="middle" font-family="Open Sans" fill="#ffffff" transform="matrix(1,0,0,1,225,206.89999389648438)" style="fill: rgb(255, 255, 255);"><tspan  dy="0">[Container: PostgreSQL]</tspan></text><text  id="v-99" font-size="24" xml:space="preserve" display="none" y="0.8em" text-anchor="middle" font-family="Open Sans" fill="#ffffff" transform="matrix(1,0,0,1,225,238.10000610351562)" style="fill: rgb(255, 255, 255);"><tspan style="fill-opacity: 0; stroke-opacity: 0;"  dy="0">-</tspan></text><g  id="v-100" font-weight="normal" text-anchor="middle" color="#ffffff" transform="matrix(1,0,0,1,222.5,248.10000610351562)" style="fill: rgb(255, 255, 255);" display="none"><g ></g><g ></g><g ></g><g ></g></g><image  id="v-101"></image></g></g><g   id="j_13" ><path  stroke="#707070" d="M 2016 425 L 1739 775" id="v-114" stroke-width="2" stroke-dasharray="30 30" fill="none" style="opacity: 1;"></path><path  fill="black" stroke="black" d="M 0 0 0 0" transform="matrix(-0.6210011839866638,0.7838096618652344,-0.7838096618652344,-0.6210011839866638,2016.1500244140625,425)"></path><path  fill="#707070" stroke="#707070" d="M 20 0 L 0 10 L 20 20 z" id="v-116" transform="matrix(0.6210011839866638,-0.7838096618652344,0.7838096618652344,0.6210011839866638,1731.011962890625,768.7900390625)" style="opacity: 1;"></path><path  d="M 2016 425 L 1739 775" id="v-115" fill="none" style="cursor: default;"></path><g ><g id="v-105"  label-idx="0" cursor="move" transform="matrix(1,0,0,1,1877.5,600)" style="cursor: default; opacity: 1;"><rect joint-selector="rect" id="v-109" fill="#ffffff" rx="3" ry="3" pointer-events="none" width="51.39999771118164" height="34.49999809265137" transform="matrix(1,0,0,1,-25.700000762939453,-17.299999237060547)"></rect><text joint-selector="text" id="v-108" font-size="24px" xml:space="preserve" y="0.8em" fill="#707070" text-anchor="middle" pointer-events="none" font-family="Open Sans" font-weight="normal" transform="matrix(1,0,0,1,0,-9.5)"><tspan  dy="0">calls</tspan></text></g><g id="v-106"  label-idx="1" cursor="move" transform="matrix(1,0,0,1,1877.5,627)" style="cursor: default; opacity: 1;"><rect joint-selector="rect" id="v-111" fill="#ffffff" rx="3" ry="3" pointer-events="none" width="103.31040954589844" height="24.4375" transform="matrix(1,0,0,1,-51.70000076293945,-12.199999809265137)"></rect><text joint-selector="text" id="v-110" font-size="17px" xml:space="preserve" y="0.8em" fill="#707070" text-anchor="middle" pointer-events="none" font-family="Open Sans" font-weight="normal" transform="matrix(1,0,0,1,0,-6.699999809265137)"><tspan  dy="0">[HTTPS/json]</tspan></text></g><g id="v-107"  label-idx="2" cursor="move" transform="matrix(1,0,0,1,1867.5,636.25)" style="cursor: default; opacity: 1;"><rect joint-selector="rect" id="v-113" fill="#ffffff" rx="3" ry="3"  width="0" height="0" transform="matrix(1,0,0,1,0,0)" display="none"></rect><text joint-selector="text" id="v-112" fill="#000000" font-size="14" text-anchor="middle" pointer-events="none"></text></g></g><g  display="none"></g><g  id="v-118" display="none"><g  id="v-103"><path  end="source" d="M 26 0 L 0 13 L 26 26 z"></path></g><g  id="v-104"><path  end="target" d="M 26 0 L 0 13 L 26 26 z"></path></g></g><g  id="v-117" display="none"><g  id="v-102" transform="translate(1991.1764732595313, 456.36546700059216) "><g  event="remove"><circle r="11"></circle><path transform="scale(.8) translate(-16, -16)" d="M24.778,21.419 19.276,15.917 24.777,10.415 21.949,7.585 16.447,13.087 10.945,7.585 8.117,10.415 13.618,15.917 8.116,21.419 10.946,24.248 16.447,18.746 21.948,24.248z"></path><title>Remove link.</title></g><g  event="link:options"><circle r="11" transform="translate(25)"></circle><path fill="white" transform="scale(.55) translate(29, -16)" d="M31.229,17.736c0.064-0.571,0.104-1.148,0.104-1.736s-0.04-1.166-0.104-1.737l-4.377-1.557c-0.218-0.716-0.504-1.401-0.851-2.05l1.993-4.192c-0.725-0.91-1.549-1.734-2.458-2.459l-4.193,1.994c-0.647-0.347-1.334-0.632-2.049-0.849l-1.558-4.378C17.165,0.708,16.588,0.667,16,0.667s-1.166,0.041-1.737,0.105L12.707,5.15c-0.716,0.217-1.401,0.502-2.05,0.849L6.464,4.005C5.554,4.73,4.73,5.554,4.005,6.464l1.994,4.192c-0.347,0.648-0.632,1.334-0.849,2.05l-4.378,1.557C0.708,14.834,0.667,15.412,0.667,16s0.041,1.165,0.105,1.736l4.378,1.558c0.217,0.715,0.502,1.401,0.849,2.049l-1.994,4.193c0.725,0.909,1.549,1.733,2.459,2.458l4.192-1.993c0.648,0.347,1.334,0.633,2.05,0.851l1.557,4.377c0.571,0.064,1.148,0.104,1.737,0.104c0.588,0,1.165-0.04,1.736-0.104l1.558-4.377c0.715-0.218,1.399-0.504,2.049-0.851l4.193,1.993c0.909-0.725,1.733-1.549,2.458-2.458l-1.993-4.193c0.347-0.647,0.633-1.334,0.851-2.049L31.229,17.736zM16,20.871c-2.69,0-4.872-2.182-4.872-4.871c0-2.69,2.182-4.872,4.872-4.872c2.689,0,4.871,2.182,4.871,4.872C20.871,18.689,18.689,20.871,16,20.871z"></path><title>Link options.</title></g></g></g></g><g   id="j_14" ><path  stroke="#707070" d="M 2256 425 L 2539 775" id="v-131" stroke-width="2" stroke-dasharray="30 30" fill="none" style="opacity: 1;"></path><path  fill="black" stroke="black" d="M 0 0 0 0" transform="matrix(0.6283474564552307,0.7779328227043152,-0.7779328227043152,0.6283474564552307,2256.14990234375,425)"></path><path  fill="#707070" stroke="#707070" d="M 20 0 L 0 10 L 20 20 z" id="v-133" transform="matrix(-0.6283473372459412,-0.77793288230896,0.77793288230896,-0.6283473372459412,2531.070556640625,781.283447265625)" style="opacity: 1;"></path><path  d="M 2256 425 L 2539 775" id="v-132" fill="none" style="cursor: default;"></path><g ><g id="v-122"  label-idx="0" cursor="move" transform="matrix(1,0,0,1,2397.5,600)" style="cursor: default; opacity: 1;"><rect joint-selector="rect" id="v-126" fill="#ffffff" rx="3" ry="3" pointer-events="none" width="51.39999771118164" height="34.49999809265137" transform="matrix(1,0,0,1,-25.700000762939453,-17.299999237060547)"></rect><text joint-selector="text" id="v-125" font-size="24px" xml:space="preserve" y="0.8em" fill="#707070" text-anchor="middle" pointer-events="none" font-family="Open Sans" font-weight="normal" transform="matrix(1,0,0,1,0,-9.5)"><tspan  dy="0">calls</tspan></text></g><g id="v-123"  label-idx="1" cursor="move" transform="matrix(1,0,0,1,2397.5,627)" style="cursor: default; opacity: 1;"><rect joint-selector="rect" id="v-128" fill="#ffffff" rx="3" ry="3" pointer-events="none" width="103.31040954589844" height="24.4375" transform="matrix(1,0,0,1,-51.70000076293945,-12.199999809265137)"></rect><text joint-selector="text" id="v-127" font-size="17px" xml:space="preserve" y="0.8em" fill="#707070" text-anchor="middle" pointer-events="none" font-family="Open Sans" font-weight="normal" transform="matrix(1,0,0,1,0,-6.699999809265137)"><tspan  dy="0">[HTTPS/json]</tspan></text></g><g id="v-124"  label-idx="2" cursor="move" transform="matrix(1,0,0,1,2387.5,636.25)" style="cursor: default; opacity: 1;"><rect joint-selector="rect" id="v-130" fill="#ffffff" rx="3" ry="3"  width="0" height="0" transform="matrix(1,0,0,1,0,0)" display="none"></rect><text joint-selector="text" id="v-129" fill="#000000" font-size="14" text-anchor="middle" pointer-events="none"></text></g></g><g  display="none"></g><g  id="v-135" display="none"><g  id="v-120"><path  end="source" d="M 26 0 L 0 13 L 26 26 z"></path></g><g  id="v-121"><path  end="target" d="M 26 0 L 0 13 L 26 26 z"></path></g></g><g  id="v-134" display="none"><g  id="v-119" transform="translate(2281.1500293661106, 456.10427660119694) "><g  event="remove"><circle r="11"></circle><path transform="scale(.8) translate(-16, -16)" d="M24.778,21.419 19.276,15.917 24.777,10.415 21.949,7.585 16.447,13.087 10.945,7.585 8.117,10.415 13.618,15.917 8.116,21.419 10.946,24.248 16.447,18.746 21.948,24.248z"></path><title>Remove link.</title></g><g  event="link:options"><circle r="11" transform="translate(25)"></circle><path fill="white" transform="scale(.55) translate(29, -16)" d="M31.229,17.736c0.064-0.571,0.104-1.148,0.104-1.736s-0.04-1.166-0.104-1.737l-4.377-1.557c-0.218-0.716-0.504-1.401-0.851-2.05l1.993-4.192c-0.725-0.91-1.549-1.734-2.458-2.459l-4.193,1.994c-0.647-0.347-1.334-0.632-2.049-0.849l-1.558-4.378C17.165,0.708,16.588,0.667,16,0.667s-1.166,0.041-1.737,0.105L12.707,5.15c-0.716,0.217-1.401,0.502-2.05,0.849L6.464,4.005C5.554,4.73,4.73,5.554,4.005,6.464l1.994,4.192c-0.347,0.648-0.632,1.334-0.849,2.05l-4.378,1.557C0.708,14.834,0.667,15.412,0.667,16s0.041,1.165,0.105,1.736l4.378,1.558c0.217,0.715,0.502,1.401,0.849,2.049l-1.994,4.193c0.725,0.909,1.549,1.733,2.459,2.458l4.192-1.993c0.648,0.347,1.334,0.633,2.05,0.851l1.557,4.377c0.571,0.064,1.148,0.104,1.737,0.104c0.588,0,1.165-0.04,1.736-0.104l1.558-4.377c0.715-0.218,1.399-0.504,2.049-0.851l4.193,1.993c0.909-0.725,1.733-1.549,2.458-2.458l-1.993-4.193c0.347-0.647,0.633-1.334,0.851-2.049L31.229,17.736zM16,20.871c-2.69,0-4.872-2.182-4.872-4.871c0-2.69,2.182-4.872,4.872-4.872c2.689,0,4.871,2.182,4.871,4.872C20.871,18.689,18.689,20.871,16,20.871z"></path><title>Link options.</title></g></g></g></g><g   id="j_15" ><path  stroke="#707070" d="M 2360 415 L 2955 785" id="v-148" stroke-width="2" stroke-dasharray="30 30" fill="none" style="opacity: 1;"></path><path  fill="black" stroke="black" d="M 0 0 0 0" transform="matrix(0.8491348028182983,0.5281761288642883,-0.5281761288642883,0.8491348028182983,2360,414.95001220703125)"></path><path  fill="#707070" stroke="#707070" d="M 20 0 L 0 10 L 20 20 z" id="v-150" transform="matrix(-0.8491348028182983,-0.5281761884689331,0.5281761884689331,-0.8491348028182983,2949.718017578125,793.5413818359375)" style="opacity: 1;"></path><path  d="M 2360 415 L 2955 785" id="v-149" fill="none" style="cursor: default;"></path><g ><g id="v-139"  label-idx="0" cursor="move" transform="matrix(1,0,0,1,2657.5,600)" style="cursor: default; opacity: 1;"><rect joint-selector="rect" id="v-143" fill="#ffffff" rx="3" ry="3" pointer-events="none" width="51.39999771118164" height="34.49999809265137" transform="matrix(1,0,0,1,-25.700000762939453,-17.299999237060547)"></rect><text joint-selector="text" id="v-142" font-size="24px" xml:space="preserve" y="0.8em" fill="#707070" text-anchor="middle" pointer-events="none" font-family="Open Sans" font-weight="normal" transform="matrix(1,0,0,1,0,-9.5)"><tspan  dy="0">calls</tspan></text></g><g id="v-140"  label-idx="1" cursor="move" transform="matrix(1,0,0,1,2657.5,627)" style="cursor: default; opacity: 1;"><rect joint-selector="rect" id="v-145" fill="#ffffff" rx="3" ry="3" pointer-events="none" width="103.31040954589844" height="24.4375" transform="matrix(1,0,0,1,-51.70000076293945,-12.199999809265137)"></rect><text joint-selector="text" id="v-144" font-size="17px" xml:space="preserve" y="0.8em" fill="#707070" text-anchor="middle" pointer-events="none" font-family="Open Sans" font-weight="normal" transform="matrix(1,0,0,1,0,-6.699999809265137)"><tspan  dy="0">[HTTPS/json]</tspan></text></g><g id="v-141"  label-idx="2" cursor="move" transform="matrix(1,0,0,1,2647.5,636.25)" style="cursor: default; opacity: 1;"><rect joint-selector="rect" id="v-147" fill="#ffffff" rx="3" ry="3"  width="0" height="0" transform="matrix(1,0,0,1,0,0)" display="none"></rect><text joint-selector="text" id="v-146" fill="#000000" font-size="14" text-anchor="middle" pointer-events="none"></text></g></g><g  display="none"></g><g  id="v-152" display="none"><g  id="v-137"><path  end="source" d="M 26 0 L 0 13 L 26 26 z"></path></g><g  id="v-138"><path  end="target" d="M 26 0 L 0 13 L 26 26 z"></path></g></g><g  id="v-151" display="none"><g  id="v-136" transform="translate(2393.9679535280525, 436.1229290846714) "><g  event="remove"><circle r="11"></circle><path transform="scale(.8) translate(-16, -16)" d="M24.778,21.419 19.276,15.917 24.777,10.415 21.949,7.585 16.447,13.087 10.945,7.585 8.117,10.415 13.618,15.917 8.116,21.419 10.946,24.248 16.447,18.746 21.948,24.248z"></path><title>Remove link.</title></g><g  event="link:options"><circle r="11" transform="translate(25)"></circle><path fill="white" transform="scale(.55) translate(29, -16)" d="M31.229,17.736c0.064-0.571,0.104-1.148,0.104-1.736s-0.04-1.166-0.104-1.737l-4.377-1.557c-0.218-0.716-0.504-1.401-0.851-2.05l1.993-4.192c-0.725-0.91-1.549-1.734-2.458-2.459l-4.193,1.994c-0.647-0.347-1.334-0.632-2.049-0.849l-1.558-4.378C17.165,0.708,16.588,0.667,16,0.667s-1.166,0.041-1.737,0.105L12.707,5.15c-0.716,0.217-1.401,0.502-2.05,0.849L6.464,4.005C5.554,4.73,4.73,5.554,4.005,6.464l1.994,4.192c-0.347,0.648-0.632,1.334-0.849,2.05l-4.378,1.557C0.708,14.834,0.667,15.412,0.667,16s0.041,1.165,0.105,1.736l4.378,1.558c0.217,0.715,0.502,1.401,0.849,2.049l-1.994,4.193c0.725,0.909,1.549,1.733,2.459,2.458l4.192-1.993c0.648,0.347,1.334,0.633,2.05,0.851l1.557,4.377c0.571,0.064,1.148,0.104,1.737,0.104c0.588,0,1.165-0.04,1.736-0.104l1.558-4.377c0.715-0.218,1.399-0.504,2.049-0.851l4.193,1.993c0.909-0.725,1.733-1.549,2.458-2.458l-1.993-4.193c0.347-0.647,0.633-1.334,0.851-2.049L31.229,17.736zM16,20.871c-2.69,0-4.872-2.182-4.872-4.871c0-2.69,2.182-4.872,4.872-4.872c2.689,0,4.871,2.182,4.871,4.872C20.871,18.689,18.689,20.871,16,20.871z"></path><title>Link options.</title></g></g></g></g><g   id="j_16" ><path  stroke="#707070" d="M 2136 425 L 2139 775" id="v-165" stroke-width="2" stroke-dasharray="30 30" fill="none" style="opacity: 1;"></path><path  fill="black" stroke="black" d="M 0 0 0 0" transform="matrix(0.0077140359207987785,0.9999702572822571,-0.9999702572822571,0.0077140359207987785,2136.14990234375,425)"></path><path  fill="#707070" stroke="#707070" d="M 20 0 L 0 10 L 20 20 z" id="v-167" transform="matrix(-0.0077140359207987785,-0.9999702572822571,0.9999702572822571,-0.0077140359207987785,2128.850341796875,775.0771484375)" style="opacity: 1;"></path><path  d="M 2136 425 L 2139 775" id="v-166" fill="none" style="cursor: default;"></path><g ><g id="v-156"  label-idx="0" cursor="move" transform="matrix(1,0,0,1,2137.5,600)" style="cursor: default; opacity: 1;"><rect joint-selector="rect" id="v-160" fill="#ffffff" rx="3" ry="3" pointer-events="none" width="51.39999771118164" height="34.49999809265137" transform="matrix(1,0,0,1,-25.700000762939453,-17.299999237060547)"></rect><text joint-selector="text" id="v-159" font-size="24px" xml:space="preserve" y="0.8em" fill="#707070" text-anchor="middle" pointer-events="none" font-family="Open Sans" font-weight="normal" transform="matrix(1,0,0,1,0,-9.5)"><tspan  dy="0">calls</tspan></text></g><g id="v-157"  label-idx="1" cursor="move" transform="matrix(1,0,0,1,2137.5,627)" style="cursor: default; opacity: 1;"><rect joint-selector="rect" id="v-162" fill="#ffffff" rx="3" ry="3" pointer-events="none" width="103.31040954589844" height="24.4375" transform="matrix(1,0,0,1,-51.70000076293945,-12.199999809265137)"></rect><text joint-selector="text" id="v-161" font-size="17px" xml:space="preserve" y="0.8em" fill="#707070" text-anchor="middle" pointer-events="none" font-family="Open Sans" font-weight="normal" transform="matrix(1,0,0,1,0,-6.699999809265137)"><tspan  dy="0">[HTTPS/json]</tspan></text></g><g id="v-158"  label-idx="2" cursor="move" transform="matrix(1,0,0,1,2127.5,636.25)" style="cursor: default; opacity: 1;"><rect joint-selector="rect" id="v-164" fill="#ffffff" rx="3" ry="3"  width="0" height="0" transform="matrix(1,0,0,1,0,0)" display="none"></rect><text joint-selector="text" id="v-163" fill="#000000" font-size="14" text-anchor="middle" pointer-events="none"></text></g></g><g  display="none"></g><g  id="v-169" display="none"><g  id="v-154"><path  end="source" d="M 26 0 L 0 13 L 26 26 z"></path></g><g  id="v-155"><path  end="target" d="M 26 0 L 0 13 L 26 26 z"></path></g></g><g  id="v-168" display="none"><g  id="v-153" transform="translate(2136.342844548799, 464.9985306932062) "><g  event="remove"><circle r="11"></circle><path transform="scale(.8) translate(-16, -16)" d="M24.778,21.419 19.276,15.917 24.777,10.415 21.949,7.585 16.447,13.087 10.945,7.585 8.117,10.415 13.618,15.917 8.116,21.419 10.946,24.248 16.447,18.746 21.948,24.248z"></path><title>Remove link.</title></g><g  event="link:options"><circle r="11" transform="translate(25)"></circle><path fill="white" transform="scale(.55) translate(29, -16)" d="M31.229,17.736c0.064-0.571,0.104-1.148,0.104-1.736s-0.04-1.166-0.104-1.737l-4.377-1.557c-0.218-0.716-0.504-1.401-0.851-2.05l1.993-4.192c-0.725-0.91-1.549-1.734-2.458-2.459l-4.193,1.994c-0.647-0.347-1.334-0.632-2.049-0.849l-1.558-4.378C17.165,0.708,16.588,0.667,16,0.667s-1.166,0.041-1.737,0.105L12.707,5.15c-0.716,0.217-1.401,0.502-2.05,0.849L6.464,4.005C5.554,4.73,4.73,5.554,4.005,6.464l1.994,4.192c-0.347,0.648-0.632,1.334-0.849,2.05l-4.378,1.557C0.708,14.834,0.667,15.412,0.667,16s0.041,1.165,0.105,1.736l4.378,1.558c0.217,0.715,0.502,1.401,0.849,2.049l-1.994,4.193c0.725,0.909,1.549,1.733,2.459,2.458l4.192-1.993c0.648,0.347,1.334,0.633,2.05,0.851l1.557,4.377c0.571,0.064,1.148,0.104,1.737,0.104c0.588,0,1.165-0.04,1.736-0.104l1.558-4.377c0.715-0.218,1.399-0.504,2.049-0.851l4.193,1.993c0.909-0.725,1.733-1.549,2.458-2.458l-1.993-4.193c0.347-0.647,0.633-1.334,0.851-2.049L31.229,17.736zM16,20.871c-2.69,0-4.872-2.182-4.872-4.871c0-2.69,2.182-4.872,4.872-4.872c2.689,0,4.871,2.182,4.871,4.872C20.871,18.689,18.689,20.871,16,20.871z"></path><title>Link options.</title></g></g></g></g><g   id="j_17" ><path  stroke="#707070" d="M 1736 1075 L 2029 1455" id="v-185" stroke-width="2" stroke-dasharray="30 30" fill="none" style="opacity: 1;"></path><path  fill="black" stroke="black" d="M 0 0 0 0" transform="matrix(0.6111130714416504,0.7915433049201965,-0.7915433049201965,0.6111130714416504,1735.81005859375,1075)"></path><path  fill="#707070" stroke="#707070" d="M 20 0 L 0 10 L 20 20 z" id="v-187" transform="matrix(-0.6111130714416504,-0.7915433049201965,0.7915433049201965,-0.6111130714416504,2021.2745361328125,1461.1112060546875)" style="opacity: 1;"></path><path  d="M 1736 1075 L 2029 1455" id="v-186" fill="none" style="cursor: default;"></path><g ><g id="v-176"  label-idx="0" cursor="move" transform="matrix(1,0,0,1,1882.5,1265)" style="cursor: default; opacity: 1;"><rect joint-selector="rect" id="v-180" fill="#ffffff" rx="3" ry="3" pointer-events="none" width="142.54998779296875" height="34.49999809265137" transform="matrix(1,0,0,1,-71.30000305175781,-17.299999237060547)"></rect><text joint-selector="text" id="v-179" font-size="24px" xml:space="preserve" y="0.8em" fill="#707070" text-anchor="middle" pointer-events="none" font-family="Open Sans" font-weight="normal" transform="matrix(1,0,0,1,0,-9.5)"><tspan  dy="0">reads/writes</tspan></text></g><g id="v-177"  label-idx="1" cursor="move" transform="matrix(1,0,0,1,1882.5,1292)" style="cursor: default; opacity: 1;"><rect joint-selector="rect" id="v-182" fill="#ffffff" rx="3" ry="3" pointer-events="none" width="44.66041564941406" height="24.4375" transform="matrix(1,0,0,1,-22.299999237060547,-12.199999809265137)"></rect><text joint-selector="text" id="v-181" font-size="17px" xml:space="preserve" y="0.8em" fill="#707070" text-anchor="middle" pointer-events="none" font-family="Open Sans" font-weight="normal" transform="matrix(1,0,0,1,0,-6.699999809265137)"><tspan  dy="0">[SQL]</tspan></text></g><g id="v-178"  label-idx="2" cursor="move" transform="matrix(1,0,0,1,1872.5,1301.25)" style="cursor: default; opacity: 1;"><rect joint-selector="rect" id="v-184" fill="#ffffff" rx="3" ry="3"  width="0" height="0" transform="matrix(1,0,0,1,0,0)" display="none"></rect><text joint-selector="text" id="v-183" fill="#000000" font-size="14" text-anchor="middle" pointer-events="none"></text></g></g><g  display="none"></g><g  id="v-189" display="none"><g  id="v-174"><path  end="source" d="M 26 0 L 0 13 L 26 26 z"></path></g><g  id="v-175"><path  end="target" d="M 26 0 L 0 13 L 26 26 z"></path></g></g><g  id="v-188" display="none"><g  id="v-173" transform="translate(1760.4246717228968, 1106.6770486508562) "><g  event="remove"><circle r="11"></circle><path transform="scale(.8) translate(-16, -16)" d="M24.778,21.419 19.276,15.917 24.777,10.415 21.949,7.585 16.447,13.087 10.945,7.585 8.117,10.415 13.618,15.917 8.116,21.419 10.946,24.248 16.447,18.746 21.948,24.248z"></path><title>Remove link.</title></g><g  event="link:options"><circle r="11" transform="translate(25)"></circle><path fill="white" transform="scale(.55) translate(29, -16)" d="M31.229,17.736c0.064-0.571,0.104-1.148,0.104-1.736s-0.04-1.166-0.104-1.737l-4.377-1.557c-0.218-0.716-0.504-1.401-0.851-2.05l1.993-4.192c-0.725-0.91-1.549-1.734-2.458-2.459l-4.193,1.994c-0.647-0.347-1.334-0.632-2.049-0.849l-1.558-4.378C17.165,0.708,16.588,0.667,16,0.667s-1.166,0.041-1.737,0.105L12.707,5.15c-0.716,0.217-1.401,0.502-2.05,0.849L6.464,4.005C5.554,4.73,4.73,5.554,4.005,6.464l1.994,4.192c-0.347,0.648-0.632,1.334-0.849,2.05l-4.378,1.557C0.708,14.834,0.667,15.412,0.667,16s0.041,1.165,0.105,1.736l4.378,1.558c0.217,0.715,0.502,1.401,0.849,2.049l-1.994,4.193c0.725,0.909,1.549,1.733,2.459,2.458l4.192-1.993c0.648,0.347,1.334,0.633,2.05,0.851l1.557,4.377c0.571,0.064,1.148,0.104,1.737,0.104c0.588,0,1.165-0.04,1.736-0.104l1.558-4.377c0.715-0.218,1.399-0.504,2.049-0.851l4.193,1.993c0.909-0.725,1.733-1.549,2.458-2.458l-1.993-4.193c0.347-0.647,0.633-1.334,0.851-2.049L31.229,17.736zM16,20.871c-2.69,0-4.872-2.182-4.872-4.871c0-2.69,2.182-4.872,4.872-4.872c2.689,0,4.871,2.182,4.871,4.872C20.871,18.689,18.689,20.871,16,20.871z"></path><title>Link options.</title></g></g></g></g><g   id="j_18" ><path  stroke="#707070" d="M 2546 1075 L 2259 1455" id="v-205" stroke-width="2" stroke-dasharray="30 30" fill="none" style="opacity: 1;"></path><path  fill="black" stroke="black" d="M 0 0 0 0" transform="matrix(-0.6037526726722717,0.7971717119216919,-0.7971717119216919,-0.6037526726722717,2546.39990234375,1075)"></path><path  fill="#707070" stroke="#707070" d="M 20 0 L 0 10 L 20 20 z" id="v-207" transform="matrix(0.6037525534629822,-0.7971717715263367,0.7971717715263367,0.6037525534629822,2250.628173828125,1448.9625244140625)" style="opacity: 1;"></path><path  d="M 2546 1075 L 2259 1455" id="v-206" fill="none" style="cursor: default;"></path><g ><g id="v-196"  label-idx="0" cursor="move" transform="matrix(1,0,0,1,2402.5,1265)" style="cursor: default; opacity: 1;"><rect joint-selector="rect" id="v-200" fill="#ffffff" rx="3" ry="3" pointer-events="none" width="142.54998779296875" height="34.49999809265137" transform="matrix(1,0,0,1,-71.30000305175781,-17.299999237060547)"></rect><text joint-selector="text" id="v-199" font-size="24px" xml:space="preserve" y="0.8em" fill="#707070" text-anchor="middle" pointer-events="none" font-family="Open Sans" font-weight="normal" transform="matrix(1,0,0,1,0,-9.5)"><tspan  dy="0">reads/writes</tspan></text></g><g id="v-197"  label-idx="1" cursor="move" transform="matrix(1,0,0,1,2402.5,1292)" style="cursor: default; opacity: 1;"><rect joint-selector="rect" id="v-202" fill="#ffffff" rx="3" ry="3" pointer-events="none" width="44.66041564941406" height="24.4375" transform="matrix(1,0,0,1,-22.299999237060547,-12.199999809265137)"></rect><text joint-selector="text" id="v-201" font-size="17px" xml:space="preserve" y="0.8em" fill="#707070" text-anchor="middle" pointer-events="none" font-family="Open Sans" font-weight="normal" transform="matrix(1,0,0,1,0,-6.699999809265137)"><tspan  dy="0">[SQL]</tspan></text></g><g id="v-198"  label-idx="2" cursor="move" transform="matrix(1,0,0,1,2392.5,1301.25)" style="cursor: default; opacity: 1;"><rect joint-selector="rect" id="v-204" fill="#ffffff" rx="3" ry="3"  width="0" height="0" transform="matrix(1,0,0,1,0,0)" display="none"></rect><text joint-selector="text" id="v-203" fill="#000000" font-size="14" text-anchor="middle" pointer-events="none"></text></g></g><g  display="none"></g><g  id="v-209" display="none"><g  id="v-194"><path  end="source" d="M 26 0 L 0 13 L 26 26 z"></path></g><g  id="v-195"><path  end="target" d="M 26 0 L 0 13 L 26 26 z"></path></g></g><g  id="v-208" display="none"><g  id="v-193" transform="translate(2521.8926182258783, 1106.9191814430876) "><g  event="remove"><circle r="11"></circle><path transform="scale(.8) translate(-16, -16)" d="M24.778,21.419 19.276,15.917 24.777,10.415 21.949,7.585 16.447,13.087 10.945,7.585 8.117,10.415 13.618,15.917 8.116,21.419 10.946,24.248 16.447,18.746 21.948,24.248z"></path><title>Remove link.</title></g><g  event="link:options"><circle r="11" transform="translate(25)"></circle><path fill="white" transform="scale(.55) translate(29, -16)" d="M31.229,17.736c0.064-0.571,0.104-1.148,0.104-1.736s-0.04-1.166-0.104-1.737l-4.377-1.557c-0.218-0.716-0.504-1.401-0.851-2.05l1.993-4.192c-0.725-0.91-1.549-1.734-2.458-2.459l-4.193,1.994c-0.647-0.347-1.334-0.632-2.049-0.849l-1.558-4.378C17.165,0.708,16.588,0.667,16,0.667s-1.166,0.041-1.737,0.105L12.707,5.15c-0.716,0.217-1.401,0.502-2.05,0.849L6.464,4.005C5.554,4.73,4.73,5.554,4.005,6.464l1.994,4.192c-0.347,0.648-0.632,1.334-0.849,2.05l-4.378,1.557C0.708,14.834,0.667,15.412,0.667,16s0.041,1.165,0.105,1.736l4.378,1.558c0.217,0.715,0.502,1.401,0.849,2.049l-1.994,4.193c0.725,0.909,1.549,1.733,2.459,2.458l4.192-1.993c0.648,0.347,1.334,0.633,2.05,0.851l1.557,4.377c0.571,0.064,1.148,0.104,1.737,0.104c0.588,0,1.165-0.04,1.736-0.104l1.558-4.377c0.715-0.218,1.399-0.504,2.049-0.851l4.193,1.993c0.909-0.725,1.733-1.549,2.458-2.458l-1.993-4.193c0.347-0.647,0.633-1.334,0.851-2.049L31.229,17.736zM16,20.871c-2.69,0-4.872-2.182-4.872-4.871c0-2.69,2.182-4.872,4.872-4.872c2.689,0,4.871,2.182,4.871,4.872C20.871,18.689,18.689,20.871,16,20.871z"></path><title>Link options.</title></g></g></g></g><g   id="j_19" ><path  stroke="#707070" d="M 2955 1073 L 2370 1457" id="v-225" stroke-width="2" stroke-dasharray="30 30" fill="none" style="opacity: 1;"></path><path  fill="black" stroke="black" d="M 0 0 0 0" transform="matrix(-0.8357636332511902,0.5490894317626953,-0.5490894317626953,-0.8357636332511902,2955,1072.8299560546875)"></path><path  fill="#707070" stroke="#707070" d="M 20 0 L 0 10 L 20 20 z" id="v-227" transform="matrix(0.8357636332511902,-0.5490894317626953,0.5490894317626953,0.8357636332511902,2364.509033203125,1448.8123779296875)" style="opacity: 1;"></path><path  d="M 2955 1073 L 2370 1457" id="v-226" fill="none" style="cursor: default;"></path><g ><g id="v-216"  label-idx="0" cursor="move" transform="matrix(1,0,0,1,2662.5,1265)" style="cursor: default; opacity: 1;"><rect joint-selector="rect" id="v-220" fill="#ffffff" rx="3" ry="3" pointer-events="none" width="142.54998779296875" height="34.49999809265137" transform="matrix(1,0,0,1,-71.30000305175781,-17.299999237060547)"></rect><text joint-selector="text" id="v-219" font-size="24px" xml:space="preserve" y="0.8em" fill="#707070" text-anchor="middle" pointer-events="none" font-family="Open Sans" font-weight="normal" transform="matrix(1,0,0,1,0,-9.5)"><tspan  dy="0">reads/writes</tspan></text></g><g id="v-217"  label-idx="1" cursor="move" transform="matrix(1,0,0,1,2662.5,1292)" style="cursor: default; opacity: 1;"><rect joint-selector="rect" id="v-222" fill="#ffffff" rx="3" ry="3" pointer-events="none" width="44.66041564941406" height="24.4375" transform="matrix(1,0,0,1,-22.299999237060547,-12.199999809265137)"></rect><text joint-selector="text" id="v-221" font-size="17px" xml:space="preserve" y="0.8em" fill="#707070" text-anchor="middle" pointer-events="none" font-family="Open Sans" font-weight="normal" transform="matrix(1,0,0,1,0,-6.699999809265137)"><tspan  dy="0">[SQL]</tspan></text></g><g id="v-218"  label-idx="2" cursor="move" transform="matrix(1,0,0,1,2652.5,1301.25)" style="cursor: default; opacity: 1;"><rect joint-selector="rect" id="v-224" fill="#ffffff" rx="3" ry="3"  width="0" height="0" transform="matrix(1,0,0,1,0,0)" display="none"></rect><text joint-selector="text" id="v-223" fill="#000000" font-size="14" text-anchor="middle" pointer-events="none"></text></g></g><g  display="none"></g><g  id="v-229" display="none"><g  id="v-214"><path  end="source" d="M 26 0 L 0 13 L 26 26 z"></path></g><g  id="v-215"><path  end="target" d="M 26 0 L 0 13 L 26 26 z"></path></g></g><g  id="v-228" display="none"><g  id="v-213" transform="translate(2921.5605419144554, 1094.9500032561523) "><g  event="remove"><circle r="11"></circle><path transform="scale(.8) translate(-16, -16)" d="M24.778,21.419 19.276,15.917 24.777,10.415 21.949,7.585 16.447,13.087 10.945,7.585 8.117,10.415 13.618,15.917 8.116,21.419 10.946,24.248 16.447,18.746 21.948,24.248z"></path><title>Remove link.</title></g><g  event="link:options"><circle r="11" transform="translate(25)"></circle><path fill="white" transform="scale(.55) translate(29, -16)" d="M31.229,17.736c0.064-0.571,0.104-1.148,0.104-1.736s-0.04-1.166-0.104-1.737l-4.377-1.557c-0.218-0.716-0.504-1.401-0.851-2.05l1.993-4.192c-0.725-0.91-1.549-1.734-2.458-2.459l-4.193,1.994c-0.647-0.347-1.334-0.632-2.049-0.849l-1.558-4.378C17.165,0.708,16.588,0.667,16,0.667s-1.166,0.041-1.737,0.105L12.707,5.15c-0.716,0.217-1.401,0.502-2.05,0.849L6.464,4.005C5.554,4.73,4.73,5.554,4.005,6.464l1.994,4.192c-0.347,0.648-0.632,1.334-0.849,2.05l-4.378,1.557C0.708,14.834,0.667,15.412,0.667,16s0.041,1.165,0.105,1.736l4.378,1.558c0.217,0.715,0.502,1.401,0.849,2.049l-1.994,4.193c0.725,0.909,1.549,1.733,2.459,2.458l4.192-1.993c0.648,0.347,1.334,0.633,2.05,0.851l1.557,4.377c0.571,0.064,1.148,0.104,1.737,0.104c0.588,0,1.165-0.04,1.736-0.104l1.558-4.377c0.715-0.218,1.399-0.504,2.049-0.851l4.193,1.993c0.909-0.725,1.733-1.549,2.458-2.458l-1.993-4.193c0.347-0.647,0.633-1.334,0.851-2.049L31.229,17.736zM16,20.871c-2.69,0-4.872-2.182-4.872-4.871c0-2.69,2.182-4.872,4.872-4.872c2.689,0,4.871,2.182,4.871,4.872C20.871,18.689,18.689,20.871,16,20.871z"></path><title>Link options.</title></g></g></g></g><g   id="j_20" ><path  stroke="#707070" d="M 2141 1075 L 2144 1455" id="v-245" stroke-width="2" stroke-dasharray="30 30" fill="none" style="opacity: 1;"></path><path  fill="black" stroke="black" d="M 0 0 0 0" transform="matrix(0.0073682344518601894,0.9999728798866272,-0.9999728798866272,0.0073682344518601894,2141.10009765625,1075)"></path><path  fill="#707070" stroke="#707070" d="M 20 0 L 0 10 L 20 20 z" id="v-247" transform="matrix(-0.0073683676309883595,-0.9999728798866272,0.9999728798866272,-0.0073683676309883595,2133.900390625,1455.0736083984375)" style="opacity: 1;"></path><path  d="M 2141 1075 L 2144 1455" id="v-246" fill="none" style="cursor: default;"></path><g ><g id="v-236"  label-idx="0" cursor="move" transform="matrix(1,0,0,1,2142.5,1265)" style="cursor: default; opacity: 1;"><rect joint-selector="rect" id="v-240" fill="#ffffff" rx="3" ry="3" pointer-events="none" width="142.54998779296875" height="34.49999809265137" transform="matrix(1,0,0,1,-71.30000305175781,-17.299999237060547)"></rect><text joint-selector="text" id="v-239" font-size="24px" xml:space="preserve" y="0.8em" fill="#707070" text-anchor="middle" pointer-events="none" font-family="Open Sans" font-weight="normal" transform="matrix(1,0,0,1,0,-9.5)"><tspan  dy="0">reads/writes</tspan></text></g><g id="v-237"  label-idx="1" cursor="move" transform="matrix(1,0,0,1,2142.5,1292)" style="cursor: default; opacity: 1;"><rect joint-selector="rect" id="v-242" fill="#ffffff" rx="3" ry="3" pointer-events="none" width="44.66041564941406" height="24.4375" transform="matrix(1,0,0,1,-22.299999237060547,-12.199999809265137)"></rect><text joint-selector="text" id="v-241" font-size="17px" xml:space="preserve" y="0.8em" fill="#707070" text-anchor="middle" pointer-events="none" font-family="Open Sans" font-weight="normal" transform="matrix(1,0,0,1,0,-6.699999809265137)"><tspan  dy="0">[SQL]</tspan></text></g><g id="v-238"  label-idx="2" cursor="move" transform="matrix(1,0,0,1,2132.5,1301.25)" style="cursor: default; opacity: 1;"><rect joint-selector="rect" id="v-244" fill="#ffffff" rx="3" ry="3"  width="0" height="0" transform="matrix(1,0,0,1,0,0)" display="none"></rect><text joint-selector="text" id="v-243" fill="#000000" font-size="14" text-anchor="middle" pointer-events="none"></text></g></g><g  display="none"></g><g  id="v-249" display="none"><g  id="v-234"><path  end="source" d="M 26 0 L 0 13 L 26 26 z"></path></g><g  id="v-235"><path  end="target" d="M 26 0 L 0 13 L 26 26 z"></path></g></g><g  id="v-248" display="none"><g  id="v-233" transform="translate(2141.3157796330593, 1114.9987535208704) "><g  event="remove"><circle r="11"></circle><path transform="scale(.8) translate(-16, -16)" d="M24.778,21.419 19.276,15.917 24.777,10.415 21.949,7.585 16.447,13.087 10.945,7.585 8.117,10.415 13.618,15.917 8.116,21.419 10.946,24.248 16.447,18.746 21.948,24.248z"></path><title>Remove link.</title></g><g  event="link:options"><circle r="11" transform="translate(25)"></circle><path fill="white" transform="scale(.55) translate(29, -16)" d="M31.229,17.736c0.064-0.571,0.104-1.148,0.104-1.736s-0.04-1.166-0.104-1.737l-4.377-1.557c-0.218-0.716-0.504-1.401-0.851-2.05l1.993-4.192c-0.725-0.91-1.549-1.734-2.458-2.459l-4.193,1.994c-0.647-0.347-1.334-0.632-2.049-0.849l-1.558-4.378C17.165,0.708,16.588,0.667,16,0.667s-1.166,0.041-1.737,0.105L12.707,5.15c-0.716,0.217-1.401,0.502-2.05,0.849L6.464,4.005C5.554,4.73,4.73,5.554,4.005,6.464l1.994,4.192c-0.347,0.648-0.632,1.334-0.849,2.05l-4.378,1.557C0.708,14.834,0.667,15.412,0.667,16s0.041,1.165,0.105,1.736l4.378,1.558c0.217,0.715,0.502,1.401,0.849,2.049l-1.994,4.193c0.725,0.909,1.549,1.733,2.459,2.458l4.192-1.993c0.648,0.347,1.334,0.633,2.05,0.851l1.557,4.377c0.571,0.064,1.148,0.104,1.737,0.104c0.588,0,1.165-0.04,1.736-0.104l1.558-4.377c0.715-0.218,1.399-0.504,2.049-0.851l4.193,1.993c0.909-0.725,1.733-1.549,2.458-2.458l-1.993-4.193c0.347-0.647,0.633-1.334,0.851-2.049L31.229,17.736zM16,20.871c-2.69,0-4.872-2.182-4.872-4.871c0-2.69,2.182-4.872,4.872-4.872c2.689,0,4.871,2.182,4.871,4.872C20.871,18.689,18.689,20.871,16,20.871z"></path><title>Link options.</title></g></g></g></g><g   id="j_21" ><path  stroke="#707070" d="M 1325 1071 L 1920 1459" id="v-265" stroke-width="2" stroke-dasharray="30 30" fill="none" style="opacity: 1;"></path><path  fill="black" stroke="black" d="M 0 0 0 0" transform="matrix(0.8381667137145996,0.5454140901565552,-0.5454140901565552,0.8381667137145996,1325,1071.4100341796875)"></path><path  fill="#707070" stroke="#707070" d="M 20 0 L 0 10 L 20 20 z" id="v-267" transform="matrix(-0.8381667733192444,-0.5454140305519104,0.5454140305519104,-0.8381667733192444,1914.5457763671875,1466.9716796875)" style="opacity: 1;"></path><path  d="M 1325 1071 L 1920 1459" id="v-266" fill="none" style="cursor: default;"></path><g ><g id="v-256"  label-idx="0" cursor="move" transform="matrix(1,0,0,1,1622.5,1265)" style="cursor: default; opacity: 1;"><rect joint-selector="rect" id="v-260" fill="#ffffff" rx="3" ry="3" pointer-events="none" width="142.54998779296875" height="34.49999809265137" transform="matrix(1,0,0,1,-71.30000305175781,-17.299999237060547)"></rect><text joint-selector="text" id="v-259" font-size="24px" xml:space="preserve" y="0.8em" fill="#707070" text-anchor="middle" pointer-events="none" font-family="Open Sans" font-weight="normal" transform="matrix(1,0,0,1,0,-9.5)"><tspan  dy="0">reads/writes</tspan></text></g><g id="v-257"  label-idx="1" cursor="move" transform="matrix(1,0,0,1,1622.5,1292)" style="cursor: default; opacity: 1;"><rect joint-selector="rect" id="v-262" fill="#ffffff" rx="3" ry="3" pointer-events="none" width="44.66041564941406" height="24.4375" transform="matrix(1,0,0,1,-22.299999237060547,-12.199999809265137)"></rect><text joint-selector="text" id="v-261" font-size="17px" xml:space="preserve" y="0.8em" fill="#707070" text-anchor="middle" pointer-events="none" font-family="Open Sans" font-weight="normal" transform="matrix(1,0,0,1,0,-6.699999809265137)"><tspan  dy="0">[SQL]</tspan></text></g><g id="v-258"  label-idx="2" cursor="move" transform="matrix(1,0,0,1,1612.5,1301.25)" style="cursor: default; opacity: 1;"><rect joint-selector="rect" id="v-264" fill="#ffffff" rx="3" ry="3"  width="0" height="0" transform="matrix(1,0,0,1,0,0)" display="none"></rect><text joint-selector="text" id="v-263" fill="#000000" font-size="14" text-anchor="middle" pointer-events="none"></text></g></g><g  display="none"></g><g  id="v-269" display="none"><g  id="v-254"><path  end="source" d="M 26 0 L 0 13 L 26 26 z"></path></g><g  id="v-255"><path  end="target" d="M 26 0 L 0 13 L 26 26 z"></path></g></g><g  id="v-268" display="none"><g  id="v-253" transform="translate(1358.5055440915567, 1092.8489934580234) "><g  event="remove"><circle r="11"></circle><path transform="scale(.8) translate(-16, -16)" d="M24.778,21.419 19.276,15.917 24.777,10.415 21.949,7.585 16.447,13.087 10.945,7.585 8.117,10.415 13.618,15.917 8.116,21.419 10.946,24.248 16.447,18.746 21.948,24.248z"></path><title>Remove link.</title></g><g  event="link:options"><circle r="11" transform="translate(25)"></circle><path fill="white" transform="scale(.55) translate(29, -16)" d="M31.229,17.736c0.064-0.571,0.104-1.148,0.104-1.736s-0.04-1.166-0.104-1.737l-4.377-1.557c-0.218-0.716-0.504-1.401-0.851-2.05l1.993-4.192c-0.725-0.91-1.549-1.734-2.458-2.459l-4.193,1.994c-0.647-0.347-1.334-0.632-2.049-0.849l-1.558-4.378C17.165,0.708,16.588,0.667,16,0.667s-1.166,0.041-1.737,0.105L12.707,5.15c-0.716,0.217-1.401,0.502-2.05,0.849L6.464,4.005C5.554,4.73,4.73,5.554,4.005,6.464l1.994,4.192c-0.347,0.648-0.632,1.334-0.849,2.05l-4.378,1.557C0.708,14.834,0.667,15.412,0.667,16s0.041,1.165,0.105,1.736l4.378,1.558c0.217,0.715,0.502,1.401,0.849,2.049l-1.994,4.193c0.725,0.909,1.549,1.733,2.459,2.458l4.192-1.993c0.648,0.347,1.334,0.633,2.05,0.851l1.557,4.377c0.571,0.064,1.148,0.104,1.737,0.104c0.588,0,1.165-0.04,1.736-0.104l1.558-4.377c0.715-0.218,1.399-0.504,2.049-0.851l4.193,1.993c0.909-0.725,1.733-1.549,2.458-2.458l-1.993-4.193c0.347-0.647,0.633-1.334,0.851-2.049L31.229,17.736zM16,20.871c-2.69,0-4.872-2.182-4.872-4.871c0-2.69,2.182-4.872,4.872-4.872c2.689,0,4.871,2.182,4.871,4.872C20.871,18.689,18.689,20.871,16,20.871z"></path><title>Link options.</title></g></g></g></g><g   id="j_22" ><path  stroke="#707070" d="M 495 271 L 1910 274" id="v-282" stroke-width="2" stroke-dasharray="30 30" fill="none" style="opacity: 1;"></path><path  fill="black" stroke="black" d="M 0 0 0 0" transform="matrix(0.9999963045120239,0.0027208379469811916,-0.0027208379469811916,0.9999963045120239,495,270.5400085449219)"></path><path  fill="#707070" stroke="#707070" d="M 20 0 L 0 10 L 20 20 z" id="v-284" transform="matrix(-0.9999963045120239,-0.0027209483087062836,0.0027209483087062836,-0.9999963045120239,1909.9727783203125,284.38995361328125)" style="opacity: 1;"></path><path  d="M 495 271 L 1910 274" id="v-283" fill="none" style="cursor: default;"></path><g ><g id="v-273"  label-idx="0" cursor="move" transform="matrix(1,0,0,1,1202.5,272.5)" style="cursor: default; opacity: 1;"><rect joint-selector="rect" id="v-277" fill="#ffffff" rx="3" ry="3" pointer-events="none" width="56.900001525878906" height="34.49999809265137" transform="matrix(1,0,0,1,-28.5,-17.299999237060547)"></rect><text joint-selector="text" id="v-276" font-size="24px" xml:space="preserve" y="0.8em" fill="#707070" text-anchor="middle" pointer-events="none" font-family="Open Sans" font-weight="normal" transform="matrix(1,0,0,1,0,-9.5)"><tspan  dy="0">Uses</tspan></text></g><g id="v-274"  label-idx="1" cursor="move" transform="matrix(1,0,0,1,1202.5,299.5)" style="cursor: default; opacity: 1;"><rect joint-selector="rect" id="v-279" fill="#ffffff" rx="3" ry="3" pointer-events="none" width="64.03333282470703" height="24.4375" transform="matrix(1,0,0,1,-32,-12.199999809265137)"></rect><text joint-selector="text" id="v-278" font-size="17px" xml:space="preserve" y="0.8em" fill="#707070" text-anchor="middle" pointer-events="none" font-family="Open Sans" font-weight="normal" transform="matrix(1,0,0,1,0,-6.699999809265137)"><tspan  dy="0">[HTTPS]</tspan></text></g><g id="v-275"  label-idx="2" cursor="move" transform="matrix(1,0,0,1,1192.5,308.75)" style="cursor: default; opacity: 1;"><rect joint-selector="rect" id="v-281" fill="#ffffff" rx="3" ry="3"  width="0" height="0" transform="matrix(1,0,0,1,0,0)" display="none"></rect><text joint-selector="text" id="v-280" fill="#000000" font-size="14" text-anchor="middle" pointer-events="none"></text></g></g><g  display="none"></g><g  id="v-286" display="none"><g  id="v-271"><path  end="source" d="M 26 0 L 0 13 L 26 26 z"></path></g><g  id="v-272"><path  end="target" d="M 26 0 L 0 13 L 26 26 z"></path></g></g><g  id="v-285" display="none"><g  id="v-270" transform="translate(534.9999101003168, 271.0848054631102) "><g  event="remove"><circle r="11"></circle><path transform="scale(.8) translate(-16, -16)" d="M24.778,21.419 19.276,15.917 24.777,10.415 21.949,7.585 16.447,13.087 10.945,7.585 8.117,10.415 13.618,15.917 8.116,21.419 10.946,24.248 16.447,18.746 21.948,24.248z"></path><title>Remove link.</title></g><g  event="link:options"><circle r="11" transform="translate(25)"></circle><path fill="white" transform="scale(.55) translate(29, -16)" d="M31.229,17.736c0.064-0.571,0.104-1.148,0.104-1.736s-0.04-1.166-0.104-1.737l-4.377-1.557c-0.218-0.716-0.504-1.401-0.851-2.05l1.993-4.192c-0.725-0.91-1.549-1.734-2.458-2.459l-4.193,1.994c-0.647-0.347-1.334-0.632-2.049-0.849l-1.558-4.378C17.165,0.708,16.588,0.667,16,0.667s-1.166,0.041-1.737,0.105L12.707,5.15c-0.716,0.217-1.401,0.502-2.05,0.849L6.464,4.005C5.554,4.73,4.73,5.554,4.005,6.464l1.994,4.192c-0.347,0.648-0.632,1.334-0.849,2.05l-4.378,1.557C0.708,14.834,0.667,15.412,0.667,16s0.041,1.165,0.105,1.736l4.378,1.558c0.217,0.715,0.502,1.401,0.849,2.049l-1.994,4.193c0.725,0.909,1.549,1.733,2.459,2.458l4.192-1.993c0.648,0.347,1.334,0.633,2.05,0.851l1.557,4.377c0.571,0.064,1.148,0.104,1.737,0.104c0.588,0,1.165-0.04,1.736-0.104l1.558-4.377c0.715-0.218,1.399-0.504,2.049-0.851l4.193,1.993c0.909-0.725,1.733-1.549,2.458-2.458l-1.993-4.193c0.347-0.647,0.633-1.334,0.851-2.049L31.229,17.736zM16,20.871c-2.69,0-4.872-2.182-4.872-4.871c0-2.69,2.182-4.872,4.872-4.872c2.689,0,4.871,2.182,4.871,4.872C20.871,18.689,18.689,20.871,16,20.871z"></path><title>Link options.</title></g></g></g></g><g   id="j_23" ><path  stroke="#707070" d="M 520 932 L 875 928" id="v-302" stroke-width="2" stroke-dasharray="30 30" fill="none" style="opacity: 1;"></path><path  fill="black" stroke="black" d="M 0 0 0 0" transform="matrix(0.9999231696128845,-0.012393501587212086,0.012393501587212086,0.9999231696128845,520,932.2000122070312)"></path><path  fill="#707070" stroke="#707070" d="M 20 0 L 0 10 L 20 20 z" id="v-304" transform="matrix(-0.9999231696128845,0.012393501587212086,-0.012393501587212086,-0.9999231696128845,875.1239624023438,937.7992553710938)" style="opacity: 1;"></path><path  d="M 520 932 L 875 928" id="v-303" fill="none" style="cursor: default;"></path><g ><g id="v-293"  label-idx="0" cursor="move" transform="matrix(1,0,0,1,697.5,930)" style="cursor: default; opacity: 1;"><rect joint-selector="rect" id="v-297" fill="#ffffff" rx="3" ry="3" pointer-events="none" width="201.35000610351562" height="63.29999923706055" transform="matrix(1,0,0,1,-100.69999694824219,-31.700000762939453)"></rect><text joint-selector="text" id="v-296" font-size="24px" xml:space="preserve" y="0.8em" fill="#707070" text-anchor="middle" pointer-events="none" font-family="Open Sans" font-weight="normal" transform="matrix(1,0,0,1,0,-23.899999618530273)"><tspan  dy="0">Looks up supplier</tspan><tspan dy="1.2em" x="0" >information</tspan></text></g><g id="v-294"  label-idx="1" cursor="move" transform="matrix(1,0,0,1,697.5,972)" style="cursor: default; opacity: 1;"><rect joint-selector="rect" id="v-299" fill="#ffffff" rx="3" ry="3" pointer-events="none" width="103.31040954589844" height="24.4375" transform="matrix(1,0,0,1,-51.70000076293945,-12.199999809265137)"></rect><text joint-selector="text" id="v-298" font-size="17px" xml:space="preserve" y="0.8em" fill="#707070" text-anchor="middle" pointer-events="none" font-family="Open Sans" font-weight="normal" transform="matrix(1,0,0,1,0,-6.699999809265137)"><tspan  dy="0">[HTTPS/json]</tspan></text></g><g id="v-295"  label-idx="2" cursor="move" transform="matrix(1,0,0,1,687.5,981.25)" style="cursor: default; opacity: 1;"><rect joint-selector="rect" id="v-301" fill="#ffffff" rx="3" ry="3"  width="0" height="0" transform="matrix(1,0,0,1,0,0)" display="none"></rect><text joint-selector="text" id="v-300" fill="#000000" font-size="14" text-anchor="middle" pointer-events="none"></text></g></g><g  display="none"></g><g  id="v-306" display="none"><g  id="v-291"><path  end="source" d="M 26 0 L 0 13 L 26 26 z"></path></g><g  id="v-292"><path  end="target" d="M 26 0 L 0 13 L 26 26 z"></path></g></g><g  id="v-305" display="none"><g  id="v-290" transform="translate(559.9974610630186, 931.5493243823885) "><g  event="remove"><circle r="11"></circle><path transform="scale(.8) translate(-16, -16)" d="M24.778,21.419 19.276,15.917 24.777,10.415 21.949,7.585 16.447,13.087 10.945,7.585 8.117,10.415 13.618,15.917 8.116,21.419 10.946,24.248 16.447,18.746 21.948,24.248z"></path><title>Remove link.</title></g><g  event="link:options"><circle r="11" transform="translate(25)"></circle><path fill="white" transform="scale(.55) translate(29, -16)" d="M31.229,17.736c0.064-0.571,0.104-1.148,0.104-1.736s-0.04-1.166-0.104-1.737l-4.377-1.557c-0.218-0.716-0.504-1.401-0.851-2.05l1.993-4.192c-0.725-0.91-1.549-1.734-2.458-2.459l-4.193,1.994c-0.647-0.347-1.334-0.632-2.049-0.849l-1.558-4.378C17.165,0.708,16.588,0.667,16,0.667s-1.166,0.041-1.737,0.105L12.707,5.15c-0.716,0.217-1.401,0.502-2.05,0.849L6.464,4.005C5.554,4.73,4.73,5.554,4.005,6.464l1.994,4.192c-0.347,0.648-0.632,1.334-0.849,2.05l-4.378,1.557C0.708,14.834,0.667,15.412,0.667,16s0.041,1.165,0.105,1.736l4.378,1.558c0.217,0.715,0.502,1.401,0.849,2.049l-1.994,4.193c0.725,0.909,1.549,1.733,2.459,2.458l4.192-1.993c0.648,0.347,1.334,0.633,2.05,0.851l1.557,4.377c0.571,0.064,1.148,0.104,1.737,0.104c0.588,0,1.165-0.04,1.736-0.104l1.558-4.377c0.715-0.218,1.399-0.504,2.049-0.851l4.193,1.993c0.909-0.725,1.733-1.549,2.458-2.458l-1.993-4.193c0.347-0.647,0.633-1.334,0.851-2.049L31.229,17.736zM16,20.871c-2.69,0-4.872-2.182-4.872-4.871c0-2.69,2.182-4.872,4.872-4.872c2.689,0,4.871,2.182,4.871,4.872C20.871,18.689,18.689,20.871,16,20.871z"></path><title>Link options.</title></g></g></g></g></g><g ></g><g ></g><g ></g></g></svg>