<svg xmlns="http://www.w3.org/2000/svg" xmlns:xlink="http://www.w3.org/1999/xlink" version="1.1" viewBox="0 0 2480 1748" style="background: #ffffff"><defs><style>@import url(https://fonts.googleapis.com/css?family=Open+Sans:400,700);</style></defs><defs joint-selector="defs"></defs><g  joint-selector="layers" transform="matrix(1,0,0,1,0,0)"><g ></g><g ><g   id="j_356"  transform="translate(20,1710.5)"><g id="v-4272"><text  id="v-4273" font-size="22px" xml:space="preserve" y="0.8em" font-weight="normal" text-anchor="start" fill="#aaaaaa" pointer-events="none" display="block" font-family="Open Sans"><tspan  dy="0">Tuesday, 5 March 2024 at 15:48 Greenwich Mean Time</tspan></text></g></g><g   id="j_355"  transform="translate(20,1683)"><g id="v-4270"><text  id="v-4271" font-size="22px" xml:space="preserve" y="0.8em" font-weight="normal" text-anchor="start" fill="#aaaaaa" pointer-events="none" display="block" font-family="Open Sans"><tspan  dy="0">The component diagram for the Data Capture API.</tspan></text></g></g><g   id="j_354"  transform="translate(20,1638)"><g id="v-4268"><text  id="v-4269" font-size="36px" xml:space="preserve" y="0.8em" font-weight="normal" text-anchor="start" fill="#000000" pointer-events="none" display="block" font-family="Open Sans"><tspan  dy="0">[Component] Central Digital Platform - Data Capture API</tspan></text></g></g><g   id="j_358"  transform="translate(670,25)" style=""><g id="v-4287"><rect  id="v-4288" width="490" height="411" rx="0" ry="0" fill="#ffffff" stroke="#3c7fc0" stroke-width="1" stroke-dasharray="20,20" pointer-events="none"></rect><text  id="v-4289" font-size="24px" xml:space="preserve" y="372" font-weight="normal" fill="#3c7fc0" text-anchor="start" pointer-events="visible" font-family="Open Sans" transform="matrix(1,0,0,1,15,0)"><tspan  dy="0">Data Capture API</tspan></text><text  id="v-4290" font-size="17px" xml:space="preserve" y="396" font-weight="normal" fill="#3c7fc0" text-anchor="start" pointer-events="visible" font-family="Open Sans" transform="matrix(1,0,0,1,15,0)"><tspan  dy="0">[Container]</tspan></text><image  id="v-4291" pointer-events="visible"></image></g></g><g   id="j_357"  transform="translate(690,45)" style=""><g  id="v-4280" style="opacity: 1;"><rect  id="v-4281" rx="20" ry="20" stroke="#78a8d8" stroke-width="2" pointer-events="visiblePainted" fill="#85bbf0" width="450" height="300" style="fill: rgb(133, 187, 240); stroke: rgb(120, 168, 216);"></rect><text  id="v-4282" font-size="34" xml:space="preserve" y="0.8em" font-weight="bold" text-anchor="middle" pointer-events="visible" font-family="Open Sans" fill="#000000" transform="matrix(1,0,0,1,225,113.0999984741211)" style="fill: rgb(0, 0, 0);"><tspan  dy="0">Data Capture Endpoint</tspan></text><text  id="v-4283" font-size="17" xml:space="preserve" y="0.8em" text-anchor="middle" font-family="Open Sans" fill="#000000" transform="matrix(1,0,0,1,225,155.60000610351562)" style="fill: rgb(0, 0, 0);"><tspan  dy="0">[Component: Asp.Net Core Web API]</tspan></text><text  id="v-4284" font-size="24" xml:space="preserve" display="none" y="0.8em" text-anchor="middle" font-family="Open Sans" fill="#000000" transform="matrix(1,0,0,1,225,186.89999389648438)" style="fill: rgb(0, 0, 0);"><tspan style="fill-opacity: 0; stroke-opacity: 0;"  dy="0">-</tspan></text><g  id="v-4285" color="#000000" transform="matrix(1,0,0,1,222.5,196.89999389648438)" style="fill: rgb(0, 0, 0);" display="none"><g ></g><g ></g><g ></g><g ></g></g><image  id="v-4286"></image></g></g><g   id="j_359"  transform="translate(40,45)" style=""><g  id="v-4295" style="opacity: 1;"><rect  id="v-4296" rx="10" ry="10" stroke="#3c7fc0" stroke-width="2" pointer-events="visiblePainted" fill="#3c7fc0" width="450" height="300" style="fill: rgb(60, 127, 192); stroke: rgb(60, 127, 192);"></rect><rect  id="v-4297" rx="10" ry="10" stroke="#3c7fc0" stroke-width="0" pointer-events="visiblePainted" fill="#438dd5" width="430" height="250" x="10" y="40" style="fill: rgb(67, 141, 213);"></rect><ellipse  id="v-4304" fill="#438dd5" cx="20" cy="20" rx="10" ry="10" style="fill: rgb(67, 141, 213);"></ellipse><ellipse  id="v-4305" fill="#438dd5" cx="50" cy="20" rx="10" ry="10" style="fill: rgb(67, 141, 213);"></ellipse><ellipse  id="v-4306" fill="#438dd5" cx="80" cy="20" rx="10" ry="10" style="fill: rgb(67, 141, 213);"></ellipse><rect  id="v-4298" rx="10" ry="10" stroke="#444444" stroke-width="0" pointer-events="visiblePainted" fill="#438dd5" width="340" height="20" x="100" y="10" style="fill: rgb(67, 141, 213);"></rect><text  id="v-4299" font-size="34" xml:space="preserve" y="0.8em" font-weight="bold" text-anchor="middle" pointer-events="visible" font-family="Open Sans" fill="#ffffff" transform="matrix(1,0,0,1,225,113.0999984741211)" style="fill: rgb(255, 255, 255);"><tspan  dy="0">Web Application</tspan></text><text  id="v-4300" font-size="17" xml:space="preserve" y="0.8em" text-anchor="middle" font-family="Open Sans" fill="#ffffff" transform="matrix(1,0,0,1,225,155.60000610351562)" style="fill: rgb(255, 255, 255);"><tspan  dy="0">[Container: Asp.Net Core MVC]</tspan></text><text  id="v-4301" font-size="24" xml:space="preserve" y="0.8em" text-anchor="middle" font-family="Open Sans" fill="#ffffff" transform="matrix(1,0,0,1,225,186.89999389648438)" style="fill: rgb(255, 255, 255);"><tspan  dy="0">Account &amp; data capture frontend</tspan></text><g  id="v-4302" font-weight="normal" text-anchor="middle" color="#ffffff" transform="matrix(1,0,0,1,210,226.89999389648438)" style="fill: rgb(255, 255, 255);" display="none"><g  transform="translate(5 0)"><svg xmlns="http://www.w3.org/2000/svg" width="20" height="20" fill="currentColor" viewBox="0 0 16 16"><path fill-rule="evenodd" d="M6.5 12a5.5 5.5 0 1 0 0-11 5.5 5.5 0 0 0 0 11zM13 6.5a6.5 6.5 0 1 1-13 0 6.5 6.5 0 0 1 13 0z"></path><path d="M10.344 11.742c.03.04.062.078.098.115l3.85 3.85a1 1 0 0 0 1.415-1.414l-3.85-3.85a1.007 1.007 0 0 0-.115-.1 6.538 6.538 0 0 1-1.398 1.4z"></path><path fill-rule="evenodd" d="M6.5 3a.5.5 0 0 1 .5.5V6h2.5a.5.5 0 0 1 0 1H7v2.5a.5.5 0 0 1-1 0V7H3.5a.5.5 0 0 1 0-1H6V3.5a.5.5 0 0 1 .5-.5z"></path></svg></g><g ></g><g ></g><g ></g></g><image  id="v-4303"></image></g></g><g   id="j_360" ><path  stroke="#707070" d="M 490 195 L 690 195" id="v-4319" stroke-width="2" stroke-dasharray="30 30" fill="none" style="opacity: 1;"></path><path  fill="black" stroke="black" d="M 0 0 0 0" transform="matrix(1,0,0,1,490,195)"></path><path  fill="#707070" stroke="#707070" d="M 20 0 L 0 10 L 20 20 z" id="v-4321" transform="matrix(-1,1.2246468525851679e-16,-1.2246468525851679e-16,-1,690,205)" style="opacity: 1;"></path><path  d="M 490 195 L 690 195" id="v-4320" fill="none" style="cursor: default;"></path><g ><g id="v-4310"  label-idx="0" cursor="move" transform="matrix(1,0,0,1,590,195)" style="cursor: default; opacity: 1;"><rect joint-selector="rect" id="v-4314" fill="#ffffff" rx="3" ry="3" pointer-events="none" width="54.836524963378906" height="34.30141067504883" transform="matrix(1,0,0,1,-27.399999618530273,-17.200000762939453)"></rect><text joint-selector="text" id="v-4313" font-size="24px" xml:space="preserve" y="0.8em" fill="#707070" text-anchor="middle" pointer-events="none" font-family="Open Sans" font-weight="normal" transform="matrix(1,0,0,1,0,-10.300000190734863)"><tspan  dy="0">Calls</tspan></text></g><g id="v-4311"  label-idx="1" cursor="move" transform="matrix(1,0,0,1,590,222)" style="cursor: default; opacity: 1;"><rect joint-selector="rect" id="v-4316" fill="#ffffff" rx="3" ry="3" pointer-events="none" width="103.31040954589844" height="24.4375" transform="matrix(1,0,0,1,-51.70000076293945,-12.199999809265137)"></rect><text joint-selector="text" id="v-4315" font-size="17px" xml:space="preserve" y="0.8em" fill="#707070" text-anchor="middle" pointer-events="none" font-family="Open Sans" font-weight="normal" transform="matrix(1,0,0,1,0,-6.699999809265137)"><tspan  dy="0">[HTTPS/json]</tspan></text></g><g id="v-4312"  label-idx="2" cursor="move" transform="matrix(1,0,0,1,580,231.25)" style="cursor: default; opacity: 1;"><rect joint-selector="rect" id="v-4318" fill="#ffffff" rx="3" ry="3"  width="0" height="0" transform="matrix(1,0,0,1,0,0)" display="none"></rect><text joint-selector="text" id="v-4317" fill="#000000" font-size="14" text-anchor="middle" pointer-events="none"></text></g></g><g  display="none"></g><g  id="v-4323" display="none"><g  id="v-4308"><path  end="source" d="M 26 0 L 0 13 L 26 26 z"></path></g><g  id="v-4309"><path  end="target" d="M 26 0 L 0 13 L 26 26 z"></path></g></g><g  id="v-4322" display="none"><g  id="v-4307" transform="translate(530, 195) "><g  event="remove"><circle r="11"></circle><path transform="scale(.8) translate(-16, -16)" d="M24.778,21.419 19.276,15.917 24.777,10.415 21.949,7.585 16.447,13.087 10.945,7.585 8.117,10.415 13.618,15.917 8.116,21.419 10.946,24.248 16.447,18.746 21.948,24.248z"></path><title>Remove link.</title></g><g  event="link:options"><circle r="11" transform="translate(25)"></circle><path fill="white" transform="scale(.55) translate(29, -16)" d="M31.229,17.736c0.064-0.571,0.104-1.148,0.104-1.736s-0.04-1.166-0.104-1.737l-4.377-1.557c-0.218-0.716-0.504-1.401-0.851-2.05l1.993-4.192c-0.725-0.91-1.549-1.734-2.458-2.459l-4.193,1.994c-0.647-0.347-1.334-0.632-2.049-0.849l-1.558-4.378C17.165,0.708,16.588,0.667,16,0.667s-1.166,0.041-1.737,0.105L12.707,5.15c-0.716,0.217-1.401,0.502-2.05,0.849L6.464,4.005C5.554,4.73,4.73,5.554,4.005,6.464l1.994,4.192c-0.347,0.648-0.632,1.334-0.849,2.05l-4.378,1.557C0.708,14.834,0.667,15.412,0.667,16s0.041,1.165,0.105,1.736l4.378,1.558c0.217,0.715,0.502,1.401,0.849,2.049l-1.994,4.193c0.725,0.909,1.549,1.733,2.459,2.458l4.192-1.993c0.648,0.347,1.334,0.633,2.05,0.851l1.557,4.377c0.571,0.064,1.148,0.104,1.737,0.104c0.588,0,1.165-0.04,1.736-0.104l1.558-4.377c0.715-0.218,1.399-0.504,2.049-0.851l4.193,1.993c0.909-0.725,1.733-1.549,2.458-2.458l-1.993-4.193c0.347-0.647,0.633-1.334,0.851-2.049L31.229,17.736zM16,20.871c-2.69,0-4.872-2.182-4.872-4.871c0-2.69,2.182-4.872,4.872-4.872c2.689,0,4.871,2.182,4.871,4.872C20.871,18.689,18.689,20.871,16,20.871z"></path><title>Link options.</title></g></g></g></g></g><g ></g><g ></g><g ></g></g></svg>