<svg xmlns="http://www.w3.org/2000/svg" xmlns:xlink="http://www.w3.org/1999/xlink" version="1.1" viewBox="0 0 4330 2176" style="background: #ffffff"><defs><style>@import url(https://fonts.googleapis.com/css?family=Open+Sans:400,700);</style></defs><defs joint-selector="defs"></defs><g  joint-selector="layers" transform="matrix(1,0,0,1,0,0)"><g ></g><g ><g   id="j_103"  transform="translate(20,2138.5)"><g id="v-1280"><text  id="v-1281" font-size="22px" xml:space="preserve" y="0.8em" font-weight="normal" text-anchor="start" fill="#aaaaaa" pointer-events="none" display="block" font-family="Open Sans"><tspan  dy="0">Tuesday, 5 March 2024 at 15:30 Greenwich Mean Time</tspan></text></g></g><g   id="j_102"  transform="translate(20,2111)"><g id="v-1278"><text  id="v-1279" font-size="22px" xml:space="preserve" y="0.8em" font-weight="normal" text-anchor="start" fill="#aaaaaa" pointer-events="none" display="block" font-family="Open Sans"><tspan  dy="0">The container diagram for the Central Digital Platform.</tspan></text></g></g><g   id="j_101"  transform="translate(20,2066)"><g id="v-1276"><text  id="v-1277" font-size="36px" xml:space="preserve" y="0.8em" font-weight="normal" text-anchor="start" fill="#000000" pointer-events="none" display="block" font-family="Open Sans"><tspan  dy="0">[Container] Central Digital Platform</tspan></text></g></g><g   id="j_104"  transform="translate(224,199)" style=""><g  id="v-1282" style="opacity: 1;"><rect  x="0" y="160" width="400" height="240" rx="70" id="v-1284" stroke="#073b6f" stroke-width="2" pointer-events="visiblePainted" fill="#08427b" style="fill: rgb(8, 66, 123); stroke: rgb(7, 59, 111);"></rect><circle  cx="200" cy="88.88888888888889" r="88.88888888888889" id="v-1283" stroke="#073b6f" stroke-width="2" pointer-events="visiblePainted" fill="#08427b" style="fill: rgb(8, 66, 123); stroke: rgb(7, 59, 111);"></circle><line  x1="80" y1="266.6666666666667" x2="80" y2="400" id="v-1290" stroke="#073b6f" stroke-width="2" style="stroke: rgb(7, 59, 111);"></line><line  x1="320" y1="266.6666666666667" x2="320" y2="400" id="v-1291" stroke="#073b6f" stroke-width="2" style="stroke: rgb(7, 59, 111);"></line><text  id="v-1285" font-size="34" xml:space="preserve" y="0.8em" font-weight="bold" text-anchor="middle" pointer-events="visible" font-family="Open Sans" fill="#ffffff" transform="matrix(1,0,0,1,200,243.10000610351562)" style="fill: rgb(255, 255, 255);"><tspan  dy="0">Supplier</tspan></text><text  id="v-1286" font-size="17" xml:space="preserve" y="0.8em" text-anchor="middle" font-family="Open Sans" fill="#ffffff" transform="matrix(1,0,0,1,200,285.6000061035156)" style="fill: rgb(255, 255, 255);"><tspan  dy="0">[Person]</tspan></text><text  id="v-1287" font-size="24" xml:space="preserve" display="none" y="0.8em" text-anchor="middle" font-family="Open Sans" fill="#ffffff" transform="matrix(1,0,0,1,200,316.8999938964844)" style="fill: rgb(255, 255, 255);"><tspan style="fill-opacity: 0; stroke-opacity: 0;"  dy="0">-</tspan></text><g  id="v-1288" font-weight="normal" text-anchor="middle" color="#ffffff" transform="matrix(1,0,0,1,197.5,326.8999938964844)" style="fill: rgb(255, 255, 255);" display="none"><g ></g><g ></g><g ></g><g ></g></g><image  id="v-1289"></image></g></g><g   id="j_105"  transform="translate(199,914)" style=""><g  id="v-1295" style="opacity: 1;"><rect  id="v-1296" rx="20" ry="20" stroke="#0f5eaa" stroke-width="2" pointer-events="visiblePainted" fill="#1168bd" width="450" height="300" style="fill: rgb(17, 104, 189); stroke: rgb(15, 94, 170);"></rect><text  id="v-1297" font-size="34" xml:space="preserve" y="0.8em" font-weight="bold" text-anchor="middle" pointer-events="visible" font-family="Open Sans" fill="#ffffff" transform="matrix(1,0,0,1,225,83.0999984741211)" style="fill: rgb(255, 255, 255);"><tspan  dy="0">eSender</tspan></text><text  id="v-1298" font-size="17" xml:space="preserve" y="0.8em" text-anchor="middle" font-family="Open Sans" fill="#ffffff" transform="matrix(1,0,0,1,225,125.5999984741211)" style="fill: rgb(255, 255, 255);"><tspan  dy="0">[Software System]</tspan></text><text  id="v-1299" font-size="24" xml:space="preserve" y="0.8em" text-anchor="middle" font-family="Open Sans" fill="#ffffff" transform="matrix(1,0,0,1,225,156.89999389648438)" style="fill: rgb(255, 255, 255);"><tspan  dy="0">Commercial Software that Buyers</tspan><tspan dy="1.2em" x="0" >use to manage tender processes</tspan></text><g  id="v-1300" color="#ffffff" transform="matrix(1,0,0,1,222.5,226.89999389648438)" style="fill: rgb(255, 255, 255);" display="none"><g ></g><g ></g><g ></g><g ></g></g><image  id="v-1301"></image></g></g><g   id="j_106"  transform="translate(3679,249)" style=""><g  id="v-1308" style="opacity: 1;"><rect  id="v-1309" rx="20" ry="20" stroke="#0f5eaa" stroke-width="2" pointer-events="visiblePainted" fill="#1168bd" width="450" height="300" style="fill: rgb(17, 104, 189); stroke: rgb(15, 94, 170);"></rect><text  id="v-1310" font-size="34" xml:space="preserve" y="0.8em" font-weight="bold" text-anchor="middle" pointer-events="visible" font-family="Open Sans" fill="#ffffff" transform="matrix(1,0,0,1,225,83.0999984741211)" style="fill: rgb(255, 255, 255);"><tspan  dy="0">Gov.uk One Login</tspan></text><text  id="v-1311" font-size="17" xml:space="preserve" y="0.8em" text-anchor="middle" font-family="Open Sans" fill="#ffffff" transform="matrix(1,0,0,1,225,125.5999984741211)" style="fill: rgb(255, 255, 255);"><tspan  dy="0">[Software System]</tspan></text><text  id="v-1312" font-size="24" xml:space="preserve" y="0.8em" text-anchor="middle" font-family="Open Sans" fill="#ffffff" transform="matrix(1,0,0,1,225,156.89999389648438)" style="fill: rgb(255, 255, 255);"><tspan  dy="0">Let users sign in and prove their</tspan><tspan dy="1.2em" x="0" >identities to use your service</tspan></text><g  id="v-1313" color="#ffffff" transform="matrix(1,0,0,1,222.5,226.89999389648438)" style="fill: rgb(255, 255, 255);" display="none"><g ></g><g ></g><g ></g><g ></g></g><image  id="v-1314"></image></g></g><g   id="j_108"  transform="translate(984,229)" style=""><g id="v-1322"><rect  id="v-1323" width="2570" height="1746" rx="0" ry="0" fill="#ffffff" stroke="#0f5eaa" stroke-width="1" stroke-dasharray="20,20" pointer-events="none"></rect><text  id="v-1324" font-size="24px" xml:space="preserve" y="1707" font-weight="normal" fill="#0f5eaa" text-anchor="start" pointer-events="visible" font-family="Open Sans" transform="matrix(1,0,0,1,15,0)"><tspan  dy="0">Central Digital Platform</tspan></text><text  id="v-1325" font-size="17px" xml:space="preserve" y="1731" font-weight="normal" fill="#0f5eaa" text-anchor="start" pointer-events="visible" font-family="Open Sans" transform="matrix(1,0,0,1,15,0)"><tspan  dy="0">[Software System]</tspan></text><image  id="v-1326" pointer-events="visible"></image></g></g><g   id="j_107"  transform="translate(1524,904)" style=""><g  id="v-1315" style="opacity: 1;"><rect  id="v-1316" rx="20" ry="20" stroke="#3c7fc0" stroke-width="2" pointer-events="visiblePainted" fill="#438dd5" width="450" height="300" style="fill: rgb(67, 141, 213); stroke: rgb(60, 127, 192);"></rect><text  id="v-1317" font-size="34" xml:space="preserve" y="0.8em" font-weight="bold" text-anchor="middle" pointer-events="visible" font-family="Open Sans" fill="#ffffff" transform="matrix(1,0,0,1,225,113.0999984741211)" style="fill: rgb(255, 255, 255);"><tspan  dy="0">Tenant API</tspan></text><text  id="v-1318" font-size="17" xml:space="preserve" y="0.8em" text-anchor="middle" font-family="Open Sans" fill="#ffffff" transform="matrix(1,0,0,1,225,155.60000610351562)" style="fill: rgb(255, 255, 255);"><tspan  dy="0">[Container: Asp.Net Core]</tspan></text><text  id="v-1319" font-size="24" xml:space="preserve" display="none" y="0.8em" text-anchor="middle" font-family="Open Sans" fill="#ffffff" transform="matrix(1,0,0,1,225,186.89999389648438)" style="fill: rgb(255, 255, 255);"><tspan style="fill-opacity: 0; stroke-opacity: 0;"  dy="0">-</tspan></text><g  id="v-1320" color="#ffffff" transform="matrix(1,0,0,1,222.5,196.89999389648438)" style="fill: rgb(255, 255, 255);" display="none"><g ></g><g ></g><g ></g><g ></g></g><image  id="v-1321"></image></g></g><g   id="j_109"  transform="translate(2564,904)" style=""><g  id="v-1327" style="opacity: 1;"><rect  id="v-1328" rx="20" ry="20" stroke="#3c7fc0" stroke-width="2" pointer-events="visiblePainted" fill="#438dd5" width="450" height="300" style="fill: rgb(67, 141, 213); stroke: rgb(60, 127, 192);"></rect><text  id="v-1329" font-size="34" xml:space="preserve" y="0.8em" font-weight="bold" text-anchor="middle" pointer-events="visible" font-family="Open Sans" fill="#ffffff" transform="matrix(1,0,0,1,225,113.0999984741211)" style="fill: rgb(255, 255, 255);"><tspan  dy="0">Person API</tspan></text><text  id="v-1330" font-size="17" xml:space="preserve" y="0.8em" text-anchor="middle" font-family="Open Sans" fill="#ffffff" transform="matrix(1,0,0,1,225,155.60000610351562)" style="fill: rgb(255, 255, 255);"><tspan  dy="0">[Container: Asp.Net Core]</tspan></text><text  id="v-1331" font-size="24" xml:space="preserve" display="none" y="0.8em" text-anchor="middle" font-family="Open Sans" fill="#ffffff" transform="matrix(1,0,0,1,225,186.89999389648438)" style="fill: rgb(255, 255, 255);"><tspan style="fill-opacity: 0; stroke-opacity: 0;"  dy="0">-</tspan></text><g  id="v-1332" color="#ffffff" transform="matrix(1,0,0,1,222.5,196.89999389648438)" style="fill: rgb(255, 255, 255);" display="none"><g ></g><g ></g><g ></g><g ></g></g><image  id="v-1333"></image></g></g><g   id="j_110"  transform="translate(3084,904)" style=""><g  id="v-1337" style="opacity: 1;"><rect  id="v-1338" rx="20" ry="20" stroke="#3c7fc0" stroke-width="2" pointer-events="visiblePainted" fill="#438dd5" width="450" height="300" style="fill: rgb(67, 141, 213); stroke: rgb(60, 127, 192);"></rect><text  id="v-1339" font-size="34" xml:space="preserve" y="0.8em" font-weight="bold" text-anchor="middle" pointer-events="visible" font-family="Open Sans" fill="#ffffff" transform="matrix(1,0,0,1,225,113.0999984741211)" style="fill: rgb(255, 255, 255);"><tspan  dy="0">Organisation API</tspan></text><text  id="v-1340" font-size="17" xml:space="preserve" y="0.8em" text-anchor="middle" font-family="Open Sans" fill="#ffffff" transform="matrix(1,0,0,1,225,155.60000610351562)" style="fill: rgb(255, 255, 255);"><tspan  dy="0">[Container: Asp.Net Core]</tspan></text><text  id="v-1341" font-size="24" xml:space="preserve" display="none" y="0.8em" text-anchor="middle" font-family="Open Sans" fill="#ffffff" transform="matrix(1,0,0,1,225,186.89999389648438)" style="fill: rgb(255, 255, 255);"><tspan style="fill-opacity: 0; stroke-opacity: 0;"  dy="0">-</tspan></text><g  id="v-1342" color="#ffffff" transform="matrix(1,0,0,1,222.5,196.89999389648438)" style="fill: rgb(255, 255, 255);" display="none"><g ></g><g ></g><g ></g><g ></g></g><image  id="v-1343"></image></g></g><g   id="j_111"  transform="translate(2044,904)" style=""><g  id="v-1347" style="opacity: 1;"><rect  id="v-1348" rx="20" ry="20" stroke="#3c7fc0" stroke-width="2" pointer-events="visiblePainted" fill="#438dd5" width="450" height="300" style="fill: rgb(67, 141, 213); stroke: rgb(60, 127, 192);"></rect><text  id="v-1349" font-size="34" xml:space="preserve" y="0.8em" font-weight="bold" text-anchor="middle" pointer-events="visible" font-family="Open Sans" fill="#ffffff" transform="matrix(1,0,0,1,225,113.0999984741211)" style="fill: rgb(255, 255, 255);"><tspan  dy="0">Data Capture API</tspan></text><text  id="v-1350" font-size="17" xml:space="preserve" y="0.8em" text-anchor="middle" font-family="Open Sans" fill="#ffffff" transform="matrix(1,0,0,1,225,155.60000610351562)" style="fill: rgb(255, 255, 255);"><tspan  dy="0">[Container: Asp.Net Core]</tspan></text><text  id="v-1351" font-size="24" xml:space="preserve" display="none" y="0.8em" text-anchor="middle" font-family="Open Sans" fill="#ffffff" transform="matrix(1,0,0,1,225,186.89999389648438)" style="fill: rgb(255, 255, 255);"><tspan style="fill-opacity: 0; stroke-opacity: 0;"  dy="0">-</tspan></text><g  id="v-1352" color="#ffffff" transform="matrix(1,0,0,1,222.5,196.89999389648438)" style="fill: rgb(255, 255, 255);" display="none"><g ></g><g ></g><g ></g><g ></g></g><image  id="v-1353"></image></g></g><g   id="j_112"  transform="translate(1004,904)" style=""><g  id="v-1357" style="opacity: 1;"><rect  id="v-1358" rx="20" ry="20" stroke="#3c7fc0" stroke-width="2" pointer-events="visiblePainted" fill="#438dd5" width="450" height="300" style="fill: rgb(67, 141, 213); stroke: rgb(60, 127, 192);"></rect><text  id="v-1359" font-size="34" xml:space="preserve" y="0.8em" font-weight="bold" text-anchor="middle" pointer-events="visible" font-family="Open Sans" fill="#ffffff" transform="matrix(1,0,0,1,225,113.0999984741211)" style="fill: rgb(255, 255, 255);"><tspan  dy="0">Data Sharing API</tspan></text><text  id="v-1360" font-size="17" xml:space="preserve" y="0.8em" text-anchor="middle" font-family="Open Sans" fill="#ffffff" transform="matrix(1,0,0,1,225,155.60000610351562)" style="fill: rgb(255, 255, 255);"><tspan  dy="0">[Container: Asp.Net Core]</tspan></text><text  id="v-1361" font-size="24" xml:space="preserve" display="none" y="0.8em" text-anchor="middle" font-family="Open Sans" fill="#ffffff" transform="matrix(1,0,0,1,225,186.89999389648438)" style="fill: rgb(255, 255, 255);"><tspan style="fill-opacity: 0; stroke-opacity: 0;"  dy="0">-</tspan></text><g  id="v-1362" color="#ffffff" transform="matrix(1,0,0,1,222.5,196.89999389648438)" style="fill: rgb(255, 255, 255);" display="none"><g ></g><g ></g><g ></g><g ></g></g><image  id="v-1363"></image></g></g><g   id="j_113"  transform="translate(2049,1584)" style=""><g  id="v-1367" style="opacity: 1;"><path  d="M 0,30 a 225,30 0,0,0 450 0 a 225,30 0,0,0 -450 0 l 0,240 a 225,30 0,0,0 450 0 l 0,-240" id="v-1368" stroke="#3c7fc0" stroke-width="2" pointer-events="visiblePainted" fill="#438dd5" style="fill: rgb(67, 141, 213); stroke: rgb(60, 127, 192);"></path><rect  id="v-1369" stroke-width="0" pointer-events="visiblePainted" fill="none" stroke="none" width="450" height="270" x="0" y="30"></rect><text  id="v-1370" font-size="34" xml:space="preserve" y="0.8em" font-weight="bold" text-anchor="middle" pointer-events="visible" font-family="Open Sans" fill="#ffffff" transform="matrix(1,0,0,1,225,121.9000015258789)" style="fill: rgb(255, 255, 255);"><tspan  dy="0">Organisation Information</tspan><tspan dy="1.2em" x="0" >Database</tspan></text><text  id="v-1371" font-size="17" xml:space="preserve" y="0.8em" text-anchor="middle" font-family="Open Sans" fill="#ffffff" transform="matrix(1,0,0,1,225,206.89999389648438)" style="fill: rgb(255, 255, 255);"><tspan  dy="0">[Container: PostgreSQL]</tspan></text><text  id="v-1372" font-size="24" xml:space="preserve" display="none" y="0.8em" text-anchor="middle" font-family="Open Sans" fill="#ffffff" transform="matrix(1,0,0,1,225,238.10000610351562)" style="fill: rgb(255, 255, 255);"><tspan style="fill-opacity: 0; stroke-opacity: 0;"  dy="0">-</tspan></text><g  id="v-1373" font-weight="normal" text-anchor="middle" color="#ffffff" transform="matrix(1,0,0,1,222.5,248.10000610351562)" style="fill: rgb(255, 255, 255);" display="none"><g ></g><g ></g><g ></g><g ></g></g><image  id="v-1374"></image></g></g><g   id="j_114"  transform="translate(2039,249)" style=""><g  id="v-1378" style="opacity: 1;"><rect  id="v-1379" rx="10" ry="10" stroke="#3c7fc0" stroke-width="2" pointer-events="visiblePainted" fill="#3c7fc0" width="450" height="300" style="fill: rgb(60, 127, 192); stroke: rgb(60, 127, 192);"></rect><rect  id="v-1380" rx="10" ry="10" stroke="#3c7fc0" stroke-width="0" pointer-events="visiblePainted" fill="#438dd5" width="430" height="250" x="10" y="40" style="fill: rgb(67, 141, 213);"></rect><ellipse  id="v-1387" fill="#438dd5" cx="20" cy="20" rx="10" ry="10" style="fill: rgb(67, 141, 213);"></ellipse><ellipse  id="v-1388" fill="#438dd5" cx="50" cy="20" rx="10" ry="10" style="fill: rgb(67, 141, 213);"></ellipse><ellipse  id="v-1389" fill="#438dd5" cx="80" cy="20" rx="10" ry="10" style="fill: rgb(67, 141, 213);"></ellipse><rect  id="v-1381" rx="10" ry="10" stroke="#444444" stroke-width="0" pointer-events="visiblePainted" fill="#438dd5" width="340" height="20" x="100" y="10" style="fill: rgb(67, 141, 213);"></rect><text  id="v-1382" font-size="34" xml:space="preserve" y="0.8em" font-weight="bold" text-anchor="middle" pointer-events="visible" font-family="Open Sans" fill="#ffffff" transform="matrix(1,0,0,1,225,113.0999984741211)" style="fill: rgb(255, 255, 255);"><tspan  dy="0">Web Application</tspan></text><text  id="v-1383" font-size="17" xml:space="preserve" y="0.8em" text-anchor="middle" font-family="Open Sans" fill="#ffffff" transform="matrix(1,0,0,1,225,155.60000610351562)" style="fill: rgb(255, 255, 255);"><tspan  dy="0">[Container: Asp.Net Core MVC]</tspan></text><text  id="v-1384" font-size="24" xml:space="preserve" y="0.8em" text-anchor="middle" font-family="Open Sans" fill="#ffffff" transform="matrix(1,0,0,1,225,186.89999389648438)" style="fill: rgb(255, 255, 255);"><tspan  dy="0">Account &amp; data capture frontend</tspan></text><g  id="v-1385" font-weight="normal" text-anchor="middle" color="#ffffff" transform="matrix(1,0,0,1,210,226.89999389648438)" style="fill: rgb(255, 255, 255);" display="none"><g  transform="translate(5 0)"><svg xmlns="http://www.w3.org/2000/svg" width="20" height="20" fill="currentColor" viewBox="0 0 16 16"><path fill-rule="evenodd" d="M6.5 12a5.5 5.5 0 1 0 0-11 5.5 5.5 0 0 0 0 11zM13 6.5a6.5 6.5 0 1 1-13 0 6.5 6.5 0 0 1 13 0z"></path><path d="M10.344 11.742c.03.04.062.078.098.115l3.85 3.85a1 1 0 0 0 1.415-1.414l-3.85-3.85a1.007 1.007 0 0 0-.115-.1 6.538 6.538 0 0 1-1.398 1.4z"></path><path fill-rule="evenodd" d="M6.5 3a.5.5 0 0 1 .5.5V6h2.5a.5.5 0 0 1 0 1H7v2.5a.5.5 0 0 1-1 0V7H3.5a.5.5 0 0 1 0-1H6V3.5a.5.5 0 0 1 .5-.5z"></path></svg></g><g ></g><g ></g><g ></g></g><image  id="v-1386"></image></g></g><g   id="j_115" ><path  stroke="#707070" d="M 624 399 L 2039 399" id="v-1402" stroke-width="2" stroke-dasharray="30 30" fill="none" style="opacity: 1;"></path><path  fill="black" stroke="black" d="M 0 0 0 0" transform="matrix(1,0,0,1,624,399)"></path><path  fill="#707070" stroke="#707070" d="M 20 0 L 0 10 L 20 20 z" id="v-1404" transform="matrix(-1,1.2246468525851679e-16,-1.2246468525851679e-16,-1,2039,409)" style="opacity: 1;"></path><path  d="M 624 399 L 2039 399" id="v-1403" fill="none" style="cursor: default;"></path><g ><g id="v-1393"  label-idx="0" cursor="move" transform="matrix(1,0,0,1,1331.5,399)" style="cursor: default; opacity: 1;"><rect joint-selector="rect" id="v-1397" fill="#ffffff" rx="3" ry="3" pointer-events="none" width="56.900001525878906" height="34.49999809265137" transform="matrix(1,0,0,1,-28.5,-17.299999237060547)"></rect><text joint-selector="text" id="v-1396" font-size="24px" xml:space="preserve" y="0.8em" fill="#707070" text-anchor="middle" pointer-events="none" font-family="Open Sans" font-weight="normal" transform="matrix(1,0,0,1,0,-9.5)"><tspan  dy="0">Uses</tspan></text></g><g id="v-1394"  label-idx="1" cursor="move" transform="matrix(1,0,0,1,1331.5,426)" style="cursor: default; opacity: 1;"><rect joint-selector="rect" id="v-1399" fill="#ffffff" rx="3" ry="3" pointer-events="none" width="64.03333282470703" height="24.4375" transform="matrix(1,0,0,1,-32,-12.199999809265137)"></rect><text joint-selector="text" id="v-1398" font-size="17px" xml:space="preserve" y="0.8em" fill="#707070" text-anchor="middle" pointer-events="none" font-family="Open Sans" font-weight="normal" transform="matrix(1,0,0,1,0,-6.699999809265137)"><tspan  dy="0">[HTTPS]</tspan></text></g><g id="v-1395"  label-idx="2" cursor="move" transform="matrix(1,0,0,1,1321.5,435.25)" style="cursor: default; opacity: 1;"><rect joint-selector="rect" id="v-1401" fill="#ffffff" rx="3" ry="3"  width="0" height="0" transform="matrix(1,0,0,1,0,0)" display="none"></rect><text joint-selector="text" id="v-1400" fill="#000000" font-size="14" text-anchor="middle" pointer-events="none"></text></g></g><g  display="none"></g><g  id="v-1406" display="none"><g  id="v-1391"><path  end="source" d="M 26 0 L 0 13 L 26 26 z"></path></g><g  id="v-1392"><path  end="target" d="M 26 0 L 0 13 L 26 26 z"></path></g></g><g  id="v-1405" display="none"><g  id="v-1390" transform="translate(664, 399.00000000000006) "><g  event="remove"><circle r="11"></circle><path transform="scale(.8) translate(-16, -16)" d="M24.778,21.419 19.276,15.917 24.777,10.415 21.949,7.585 16.447,13.087 10.945,7.585 8.117,10.415 13.618,15.917 8.116,21.419 10.946,24.248 16.447,18.746 21.948,24.248z"></path><title>Remove link.</title></g><g  event="link:options"><circle r="11" transform="translate(25)"></circle><path fill="white" transform="scale(.55) translate(29, -16)" d="M31.229,17.736c0.064-0.571,0.104-1.148,0.104-1.736s-0.04-1.166-0.104-1.737l-4.377-1.557c-0.218-0.716-0.504-1.401-0.851-2.05l1.993-4.192c-0.725-0.91-1.549-1.734-2.458-2.459l-4.193,1.994c-0.647-0.347-1.334-0.632-2.049-0.849l-1.558-4.378C17.165,0.708,16.588,0.667,16,0.667s-1.166,0.041-1.737,0.105L12.707,5.15c-0.716,0.217-1.401,0.502-2.05,0.849L6.464,4.005C5.554,4.73,4.73,5.554,4.005,6.464l1.994,4.192c-0.347,0.648-0.632,1.334-0.849,2.05l-4.378,1.557C0.708,14.834,0.667,15.412,0.667,16s0.041,1.165,0.105,1.736l4.378,1.558c0.217,0.715,0.502,1.401,0.849,2.049l-1.994,4.193c0.725,0.909,1.549,1.733,2.459,2.458l4.192-1.993c0.648,0.347,1.334,0.633,2.05,0.851l1.557,4.377c0.571,0.064,1.148,0.104,1.737,0.104c0.588,0,1.165-0.04,1.736-0.104l1.558-4.377c0.715-0.218,1.399-0.504,2.049-0.851l4.193,1.993c0.909-0.725,1.733-1.549,2.458-2.458l-1.993-4.193c0.347-0.647,0.633-1.334,0.851-2.049L31.229,17.736zM16,20.871c-2.69,0-4.872-2.182-4.872-4.871c0-2.69,2.182-4.872,4.872-4.872c2.689,0,4.871,2.182,4.871,4.872C20.871,18.689,18.689,20.871,16,20.871z"></path><title>Link options.</title></g></g></g></g><g   id="j_116" ><path  stroke="#707070" d="M 2489 399 L 3679 399" id="v-1422" stroke-width="2" stroke-dasharray="30 30" fill="none" style="opacity: 1;"></path><path  fill="black" stroke="black" d="M 0 0 0 0" transform="matrix(1,0,0,1,2489,399)"></path><path  fill="#707070" stroke="#707070" d="M 20 0 L 0 10 L 20 20 z" id="v-1424" transform="matrix(-1,1.2246468525851679e-16,-1.2246468525851679e-16,-1,3679,409)" style="opacity: 1;"></path><path  d="M 2489 399 L 3679 399" id="v-1423" fill="none" style="cursor: default;"></path><g ><g id="v-1413"  label-idx="0" cursor="move" transform="matrix(1,0,0,1,3084,399)" style="cursor: default; opacity: 1;"><rect joint-selector="rect" id="v-1417" fill="#ffffff" rx="3" ry="3" pointer-events="none" width="157.3000030517578" height="63.29999923706055" transform="matrix(1,0,0,1,-78.69999694824219,-31.700000762939453)"></rect><text joint-selector="text" id="v-1416" font-size="24px" xml:space="preserve" y="0.8em" fill="#707070" text-anchor="middle" pointer-events="none" font-family="Open Sans" font-weight="normal" transform="matrix(1,0,0,1,0,-23.899999618530273)"><tspan  dy="0">Authenticates</tspan><tspan dy="1.2em" x="0" >with</tspan></text></g><g id="v-1414"  label-idx="1" cursor="move" transform="matrix(1,0,0,1,3084,441)" style="cursor: default; opacity: 1;"><rect joint-selector="rect" id="v-1419" fill="#ffffff" rx="3" ry="3" pointer-events="none" width="64.03333282470703" height="24.4375" transform="matrix(1,0,0,1,-32,-12.199999809265137)"></rect><text joint-selector="text" id="v-1418" font-size="17px" xml:space="preserve" y="0.8em" fill="#707070" text-anchor="middle" pointer-events="none" font-family="Open Sans" font-weight="normal" transform="matrix(1,0,0,1,0,-6.699999809265137)"><tspan  dy="0">[HTTPS]</tspan></text></g><g id="v-1415"  label-idx="2" cursor="move" transform="matrix(1,0,0,1,3074,450.25)" style="cursor: default; opacity: 1;"><rect joint-selector="rect" id="v-1421" fill="#ffffff" rx="3" ry="3"  width="0" height="0" transform="matrix(1,0,0,1,0,0)" display="none"></rect><text joint-selector="text" id="v-1420" fill="#000000" font-size="14" text-anchor="middle" pointer-events="none"></text></g></g><g  display="none"></g><g  id="v-1426" display="none"><g  id="v-1411"><path  end="source" d="M 26 0 L 0 13 L 26 26 z"></path></g><g  id="v-1412"><path  end="target" d="M 26 0 L 0 13 L 26 26 z"></path></g></g><g  id="v-1425" display="none"><g  id="v-1410" transform="translate(2529, 399) "><g  event="remove"><circle r="11"></circle><path transform="scale(.8) translate(-16, -16)" d="M24.778,21.419 19.276,15.917 24.777,10.415 21.949,7.585 16.447,13.087 10.945,7.585 8.117,10.415 13.618,15.917 8.116,21.419 10.946,24.248 16.447,18.746 21.948,24.248z"></path><title>Remove link.</title></g><g  event="link:options"><circle r="11" transform="translate(25)"></circle><path fill="white" transform="scale(.55) translate(29, -16)" d="M31.229,17.736c0.064-0.571,0.104-1.148,0.104-1.736s-0.04-1.166-0.104-1.737l-4.377-1.557c-0.218-0.716-0.504-1.401-0.851-2.05l1.993-4.192c-0.725-0.91-1.549-1.734-2.458-2.459l-4.193,1.994c-0.647-0.347-1.334-0.632-2.049-0.849l-1.558-4.378C17.165,0.708,16.588,0.667,16,0.667s-1.166,0.041-1.737,0.105L12.707,5.15c-0.716,0.217-1.401,0.502-2.05,0.849L6.464,4.005C5.554,4.73,4.73,5.554,4.005,6.464l1.994,4.192c-0.347,0.648-0.632,1.334-0.849,2.05l-4.378,1.557C0.708,14.834,0.667,15.412,0.667,16s0.041,1.165,0.105,1.736l4.378,1.558c0.217,0.715,0.502,1.401,0.849,2.049l-1.994,4.193c0.725,0.909,1.549,1.733,2.459,2.458l4.192-1.993c0.648,0.347,1.334,0.633,2.05,0.851l1.557,4.377c0.571,0.064,1.148,0.104,1.737,0.104c0.588,0,1.165-0.04,1.736-0.104l1.558-4.377c0.715-0.218,1.399-0.504,2.049-0.851l4.193,1.993c0.909-0.725,1.733-1.549,2.458-2.458l-1.993-4.193c0.347-0.647,0.633-1.334,0.851-2.049L31.229,17.736zM16,20.871c-2.69,0-4.872-2.182-4.872-4.871c0-2.69,2.182-4.872,4.872-4.872c2.689,0,4.871,2.182,4.871,4.872C20.871,18.689,18.689,20.871,16,20.871z"></path><title>Link options.</title></g></g></g></g><g   id="j_117" ><path  stroke="#707070" d="M 2143 549 L 2036 681 C 2032 686.3333333333333 2028 691.6666666666666 2024 697 L 1864 904" id="v-1440" stroke-width="2" stroke-dasharray="30 30" fill="none" style="opacity: 1;"></path><path  fill="black" stroke="black" d="M 0 0 0 0" transform="matrix(-0.6279772520065308,0.778231680393219,-0.778231680393219,-0.6279772520065308,2142.969970703125,549)"></path><path  fill="#707070" stroke="#707070" d="M 20 0 L 0 10 L 20 20 z" id="v-1442" transform="matrix(0.6100241541862488,-0.7923828363418579,0.7923828363418579,0.6100241541862488,1856.55615234375,897.8997802734375)" style="opacity: 1;"></path><path  d="M 2143 549 L 2036 681 C 2032 686.3333333333333 2028 691.6666666666666 2024 697 L 1864 904" id="v-1441" fill="none" style="cursor: default;"></path><g ><g id="v-1431"  label-idx="0" cursor="move" transform="matrix(1,0,0,1,2002.0736083984375,725.3673095703125)" style="cursor: default; opacity: 1;"><rect joint-selector="rect" id="v-1435" fill="#ffffff" rx="3" ry="3" pointer-events="none" width="55" height="34.49999809265137" transform="matrix(1,0,0,1,-27.5,-17.299999237060547)"></rect><text joint-selector="text" id="v-1434" font-size="24px" xml:space="preserve" y="0.8em" fill="#707070" text-anchor="middle" pointer-events="none" font-family="Open Sans" font-weight="normal" transform="matrix(1,0,0,1,0,-9.5)"><tspan  dy="0">Calls</tspan></text></g><g id="v-1432"  label-idx="1" cursor="move" transform="matrix(1,0,0,1,2002.0736083984375,752.3673095703125)" style="cursor: default; opacity: 1;"><rect joint-selector="rect" id="v-1437" fill="#ffffff" rx="3" ry="3" pointer-events="none" width="103.31040954589844" height="24.4375" transform="matrix(1,0,0,1,-51.70000076293945,-12.199999809265137)"></rect><text joint-selector="text" id="v-1436" font-size="17px" xml:space="preserve" y="0.8em" fill="#707070" text-anchor="middle" pointer-events="none" font-family="Open Sans" font-weight="normal" transform="matrix(1,0,0,1,0,-6.699999809265137)"><tspan  dy="0">[HTTPS/json]</tspan></text></g><g id="v-1433"  label-idx="2" cursor="move" transform="matrix(1,0,0,1,1992.0736083984375,761.6173095703125)" style="cursor: default; opacity: 1;"><rect joint-selector="rect" id="v-1439" fill="#ffffff" rx="3" ry="3"  width="0" height="0" transform="matrix(1,0,0,1,0,0)" display="none"></rect><text joint-selector="text" id="v-1438" fill="#000000" font-size="14" text-anchor="middle" pointer-events="none"></text></g></g><g  display="none"><g  transform="translate(2030, 689)" id="v-1428"><circle  idx="0" r="10"></circle><path  idx="0" d="M16,5.333c-7.732,0-14,4.701-14,10.5c0,1.982,0.741,3.833,2.016,5.414L2,25.667l5.613-1.441c2.339,1.317,5.237,2.107,8.387,2.107c7.732,0,14-4.701,14-10.5C30,10.034,23.732,5.333,16,5.333z" transform="translate(5, -33)"></path><path  idx="0" transform="scale(.8) translate(9.5, -37)" d="M24.778,21.419 19.276,15.917 24.777,10.415 21.949,7.585 16.447,13.087 10.945,7.585 8.117,10.415 13.618,15.917 8.116,21.419 10.946,24.248 16.447,18.746 21.948,24.248z"><title>Remove vertex.</title></path></g></g><g  id="v-1444" display="none"><g  id="v-1429"><path  end="source" d="M 26 0 L 0 13 L 26 26 z"></path></g><g  id="v-1430"><path  end="target" d="M 26 0 L 0 13 L 26 26 z"></path></g></g><g  id="v-1443" display="none"><g  id="v-1427" transform="translate(2117.8117605297107, 580.0733421502637) "><g  event="remove"><circle r="11"></circle><path transform="scale(.8) translate(-16, -16)" d="M24.778,21.419 19.276,15.917 24.777,10.415 21.949,7.585 16.447,13.087 10.945,7.585 8.117,10.415 13.618,15.917 8.116,21.419 10.946,24.248 16.447,18.746 21.948,24.248z"></path><title>Remove link.</title></g><g  event="link:options"><circle r="11" transform="translate(25)"></circle><path fill="white" transform="scale(.55) translate(29, -16)" d="M31.229,17.736c0.064-0.571,0.104-1.148,0.104-1.736s-0.04-1.166-0.104-1.737l-4.377-1.557c-0.218-0.716-0.504-1.401-0.851-2.05l1.993-4.192c-0.725-0.91-1.549-1.734-2.458-2.459l-4.193,1.994c-0.647-0.347-1.334-0.632-2.049-0.849l-1.558-4.378C17.165,0.708,16.588,0.667,16,0.667s-1.166,0.041-1.737,0.105L12.707,5.15c-0.716,0.217-1.401,0.502-2.05,0.849L6.464,4.005C5.554,4.73,4.73,5.554,4.005,6.464l1.994,4.192c-0.347,0.648-0.632,1.334-0.849,2.05l-4.378,1.557C0.708,14.834,0.667,15.412,0.667,16s0.041,1.165,0.105,1.736l4.378,1.558c0.217,0.715,0.502,1.401,0.849,2.049l-1.994,4.193c0.725,0.909,1.549,1.733,2.459,2.458l4.192-1.993c0.648,0.347,1.334,0.633,2.05,0.851l1.557,4.377c0.571,0.064,1.148,0.104,1.737,0.104c0.588,0,1.165-0.04,1.736-0.104l1.558-4.377c0.715-0.218,1.399-0.504,2.049-0.851l4.193,1.993c0.909-0.725,1.733-1.549,2.458-2.458l-1.993-4.193c0.347-0.647,0.633-1.334,0.851-2.049L31.229,17.736zM16,20.871c-2.69,0-4.872-2.182-4.872-4.871c0-2.69,2.182-4.872,4.872-4.872c2.689,0,4.871,2.182,4.871,4.872C20.871,18.689,18.689,20.871,16,20.871z"></path><title>Link options.</title></g></g></g></g><g   id="j_118" ><path  stroke="#707070" d="M 2384 549 L 2669 904" id="v-1457" stroke-width="2" stroke-dasharray="30 30" fill="none" style="opacity: 1;"></path><path  fill="black" stroke="black" d="M 0 0 0 0" transform="matrix(0.6254185438156128,0.7802894711494446,-0.7802894711494446,0.6254185438156128,2384.22998046875,549)"></path><path  fill="#707070" stroke="#707070" d="M 20 0 L 0 10 L 20 20 z" id="v-1459" transform="matrix(-0.6254184246063232,-0.7802895307540894,0.7802895307540894,-0.6254184246063232,2660.967041015625,910.254150390625)" style="opacity: 1;"></path><path  d="M 2384 549 L 2669 904" id="v-1458" fill="none" style="cursor: default;"></path><g ><g id="v-1448"  label-idx="0" cursor="move" transform="matrix(1,0,0,1,2526.5,726.5)" style="cursor: default; opacity: 1;"><rect joint-selector="rect" id="v-1452" fill="#ffffff" rx="3" ry="3" pointer-events="none" width="55" height="34.49999809265137" transform="matrix(1,0,0,1,-27.5,-17.299999237060547)"></rect><text joint-selector="text" id="v-1451" font-size="24px" xml:space="preserve" y="0.8em" fill="#707070" text-anchor="middle" pointer-events="none" font-family="Open Sans" font-weight="normal" transform="matrix(1,0,0,1,0,-9.5)"><tspan  dy="0">Calls</tspan></text></g><g id="v-1449"  label-idx="1" cursor="move" transform="matrix(1,0,0,1,2526.5,753.5)" style="cursor: default; opacity: 1;"><rect joint-selector="rect" id="v-1454" fill="#ffffff" rx="3" ry="3" pointer-events="none" width="103.31040954589844" height="24.4375" transform="matrix(1,0,0,1,-51.70000076293945,-12.199999809265137)"></rect><text joint-selector="text" id="v-1453" font-size="17px" xml:space="preserve" y="0.8em" fill="#707070" text-anchor="middle" pointer-events="none" font-family="Open Sans" font-weight="normal" transform="matrix(1,0,0,1,0,-6.699999809265137)"><tspan  dy="0">[HTTPS/json]</tspan></text></g><g id="v-1450"  label-idx="2" cursor="move" transform="matrix(1,0,0,1,2516.5,762.75)" style="cursor: default; opacity: 1;"><rect joint-selector="rect" id="v-1456" fill="#ffffff" rx="3" ry="3"  width="0" height="0" transform="matrix(1,0,0,1,0,0)" display="none"></rect><text joint-selector="text" id="v-1455" fill="#000000" font-size="14" text-anchor="middle" pointer-events="none"></text></g></g><g  display="none"></g><g  id="v-1461" display="none"><g  id="v-1446"><path  end="source" d="M 26 0 L 0 13 L 26 26 z"></path></g><g  id="v-1447"><path  end="target" d="M 26 0 L 0 13 L 26 26 z"></path></g></g><g  id="v-1460" display="none"><g  id="v-1445" transform="translate(2409.041340969269, 580.191845768739) "><g  event="remove"><circle r="11"></circle><path transform="scale(.8) translate(-16, -16)" d="M24.778,21.419 19.276,15.917 24.777,10.415 21.949,7.585 16.447,13.087 10.945,7.585 8.117,10.415 13.618,15.917 8.116,21.419 10.946,24.248 16.447,18.746 21.948,24.248z"></path><title>Remove link.</title></g><g  event="link:options"><circle r="11" transform="translate(25)"></circle><path fill="white" transform="scale(.55) translate(29, -16)" d="M31.229,17.736c0.064-0.571,0.104-1.148,0.104-1.736s-0.04-1.166-0.104-1.737l-4.377-1.557c-0.218-0.716-0.504-1.401-0.851-2.05l1.993-4.192c-0.725-0.91-1.549-1.734-2.458-2.459l-4.193,1.994c-0.647-0.347-1.334-0.632-2.049-0.849l-1.558-4.378C17.165,0.708,16.588,0.667,16,0.667s-1.166,0.041-1.737,0.105L12.707,5.15c-0.716,0.217-1.401,0.502-2.05,0.849L6.464,4.005C5.554,4.73,4.73,5.554,4.005,6.464l1.994,4.192c-0.347,0.648-0.632,1.334-0.849,2.05l-4.378,1.557C0.708,14.834,0.667,15.412,0.667,16s0.041,1.165,0.105,1.736l4.378,1.558c0.217,0.715,0.502,1.401,0.849,2.049l-1.994,4.193c0.725,0.909,1.549,1.733,2.459,2.458l4.192-1.993c0.648,0.347,1.334,0.633,2.05,0.851l1.557,4.377c0.571,0.064,1.148,0.104,1.737,0.104c0.588,0,1.165-0.04,1.736-0.104l1.558-4.377c0.715-0.218,1.399-0.504,2.049-0.851l4.193,1.993c0.909-0.725,1.733-1.549,2.458-2.458l-1.993-4.193c0.347-0.647,0.633-1.334,0.851-2.049L31.229,17.736zM16,20.871c-2.69,0-4.872-2.182-4.872-4.871c0-2.69,2.182-4.872,4.872-4.872c2.689,0,4.871,2.182,4.871,4.872C20.871,18.689,18.689,20.871,16,20.871z"></path><title>Link options.</title></g></g></g></g><g   id="j_119" ><path  stroke="#707070" d="M 2489 540 L 3084 913" id="v-1474" stroke-width="2" stroke-dasharray="30 30" fill="none" style="opacity: 1;"></path><path  fill="black" stroke="black" d="M 0 0 0 0" transform="matrix(0.8473159670829773,0.5310891270637512,-0.5310891270637512,0.8473159670829773,2489,540.030029296875)"></path><path  fill="#707070" stroke="#707070" d="M 20 0 L 0 10 L 20 20 z" id="v-1476" transform="matrix(-0.8473159670829773,-0.5310891270637512,0.5310891270637512,-0.8473159670829773,3078.689208984375,921.4431762695312)" style="opacity: 1;"></path><path  d="M 2489 540 L 3084 913" id="v-1475" fill="none" style="cursor: default;"></path><g ><g id="v-1465"  label-idx="0" cursor="move" transform="matrix(1,0,0,1,2786.5,726.5)" style="cursor: default; opacity: 1;"><rect joint-selector="rect" id="v-1469" fill="#ffffff" rx="3" ry="3" pointer-events="none" width="55" height="34.49999809265137" transform="matrix(1,0,0,1,-27.5,-17.299999237060547)"></rect><text joint-selector="text" id="v-1468" font-size="24px" xml:space="preserve" y="0.8em" fill="#707070" text-anchor="middle" pointer-events="none" font-family="Open Sans" font-weight="normal" transform="matrix(1,0,0,1,0,-9.5)"><tspan  dy="0">Calls</tspan></text></g><g id="v-1466"  label-idx="1" cursor="move" transform="matrix(1,0,0,1,2786.5,753.5)" style="cursor: default; opacity: 1;"><rect joint-selector="rect" id="v-1471" fill="#ffffff" rx="3" ry="3" pointer-events="none" width="103.31040954589844" height="24.4375" transform="matrix(1,0,0,1,-51.70000076293945,-12.199999809265137)"></rect><text joint-selector="text" id="v-1470" font-size="17px" xml:space="preserve" y="0.8em" fill="#707070" text-anchor="middle" pointer-events="none" font-family="Open Sans" font-weight="normal" transform="matrix(1,0,0,1,0,-6.699999809265137)"><tspan  dy="0">[HTTPS/json]</tspan></text></g><g id="v-1467"  label-idx="2" cursor="move" transform="matrix(1,0,0,1,2776.5,762.75)" style="cursor: default; opacity: 1;"><rect joint-selector="rect" id="v-1473" fill="#ffffff" rx="3" ry="3"  width="0" height="0" transform="matrix(1,0,0,1,0,0)" display="none"></rect><text joint-selector="text" id="v-1472" fill="#000000" font-size="14" text-anchor="middle" pointer-events="none"></text></g></g><g  display="none"></g><g  id="v-1478" display="none"><g  id="v-1463"><path  end="source" d="M 26 0 L 0 13 L 26 26 z"></path></g><g  id="v-1464"><path  end="target" d="M 26 0 L 0 13 L 26 26 z"></path></g></g><g  id="v-1477" display="none"><g  id="v-1462" transform="translate(2522.891100944862, 561.2460179032494) "><g  event="remove"><circle r="11"></circle><path transform="scale(.8) translate(-16, -16)" d="M24.778,21.419 19.276,15.917 24.777,10.415 21.949,7.585 16.447,13.087 10.945,7.585 8.117,10.415 13.618,15.917 8.116,21.419 10.946,24.248 16.447,18.746 21.948,24.248z"></path><title>Remove link.</title></g><g  event="link:options"><circle r="11" transform="translate(25)"></circle><path fill="white" transform="scale(.55) translate(29, -16)" d="M31.229,17.736c0.064-0.571,0.104-1.148,0.104-1.736s-0.04-1.166-0.104-1.737l-4.377-1.557c-0.218-0.716-0.504-1.401-0.851-2.05l1.993-4.192c-0.725-0.91-1.549-1.734-2.458-2.459l-4.193,1.994c-0.647-0.347-1.334-0.632-2.049-0.849l-1.558-4.378C17.165,0.708,16.588,0.667,16,0.667s-1.166,0.041-1.737,0.105L12.707,5.15c-0.716,0.217-1.401,0.502-2.05,0.849L6.464,4.005C5.554,4.73,4.73,5.554,4.005,6.464l1.994,4.192c-0.347,0.648-0.632,1.334-0.849,2.05l-4.378,1.557C0.708,14.834,0.667,15.412,0.667,16s0.041,1.165,0.105,1.736l4.378,1.558c0.217,0.715,0.502,1.401,0.849,2.049l-1.994,4.193c0.725,0.909,1.549,1.733,2.459,2.458l4.192-1.993c0.648,0.347,1.334,0.633,2.05,0.851l1.557,4.377c0.571,0.064,1.148,0.104,1.737,0.104c0.588,0,1.165-0.04,1.736-0.104l1.558-4.377c0.715-0.218,1.399-0.504,2.049-0.851l4.193,1.993c0.909-0.725,1.733-1.549,2.458-2.458l-1.993-4.193c0.347-0.647,0.633-1.334,0.851-2.049L31.229,17.736zM16,20.871c-2.69,0-4.872-2.182-4.872-4.871c0-2.69,2.182-4.872,4.872-4.872c2.689,0,4.871,2.182,4.871,4.872C20.871,18.689,18.689,20.871,16,20.871z"></path><title>Link options.</title></g></g></g></g><g   id="j_120" ><path  stroke="#707070" d="M 2265 549 L 2268 904" id="v-1491" stroke-width="2" stroke-dasharray="30 30" fill="none" style="opacity: 1;"></path><path  fill="black" stroke="black" d="M 0 0 0 0" transform="matrix(0.007605382241308689,0.9999710917472839,-0.9999710917472839,0.007605382241308689,2265.14990234375,549)"></path><path  fill="#707070" stroke="#707070" d="M 20 0 L 0 10 L 20 20 z" id="v-1493" transform="matrix(-0.007605382241308689,-0.9999710917472839,0.9999710917472839,-0.007605382241308689,2257.850341796875,904.0760498046875)" style="opacity: 1;"></path><path  d="M 2265 549 L 2268 904" id="v-1492" fill="none" style="cursor: default;"></path><g ><g id="v-1482"  label-idx="0" cursor="move" transform="matrix(1,0,0,1,2266.5,726.5)" style="cursor: default; opacity: 1;"><rect joint-selector="rect" id="v-1486" fill="#ffffff" rx="3" ry="3" pointer-events="none" width="55" height="34.49999809265137" transform="matrix(1,0,0,1,-27.5,-17.299999237060547)"></rect><text joint-selector="text" id="v-1485" font-size="24px" xml:space="preserve" y="0.8em" fill="#707070" text-anchor="middle" pointer-events="none" font-family="Open Sans" font-weight="normal" transform="matrix(1,0,0,1,0,-9.5)"><tspan  dy="0">Calls</tspan></text></g><g id="v-1483"  label-idx="1" cursor="move" transform="matrix(1,0,0,1,2266.5,753.5)" style="cursor: default; opacity: 1;"><rect joint-selector="rect" id="v-1488" fill="#ffffff" rx="3" ry="3" pointer-events="none" width="103.31040954589844" height="24.4375" transform="matrix(1,0,0,1,-51.70000076293945,-12.199999809265137)"></rect><text joint-selector="text" id="v-1487" font-size="17px" xml:space="preserve" y="0.8em" fill="#707070" text-anchor="middle" pointer-events="none" font-family="Open Sans" font-weight="normal" transform="matrix(1,0,0,1,0,-6.699999809265137)"><tspan  dy="0">[HTTPS/json]</tspan></text></g><g id="v-1484"  label-idx="2" cursor="move" transform="matrix(1,0,0,1,2256.5,762.75)" style="cursor: default; opacity: 1;"><rect joint-selector="rect" id="v-1490" fill="#ffffff" rx="3" ry="3"  width="0" height="0" transform="matrix(1,0,0,1,0,0)" display="none"></rect><text joint-selector="text" id="v-1489" fill="#000000" font-size="14" text-anchor="middle" pointer-events="none"></text></g></g><g  display="none"></g><g  id="v-1495" display="none"><g  id="v-1480"><path  end="source" d="M 26 0 L 0 13 L 26 26 z"></path></g><g  id="v-1481"><path  end="target" d="M 26 0 L 0 13 L 26 26 z"></path></g></g><g  id="v-1494" display="none"><g  id="v-1479" transform="translate(2265.3380160996207, 588.9985717884576) "><g  event="remove"><circle r="11"></circle><path transform="scale(.8) translate(-16, -16)" d="M24.778,21.419 19.276,15.917 24.777,10.415 21.949,7.585 16.447,13.087 10.945,7.585 8.117,10.415 13.618,15.917 8.116,21.419 10.946,24.248 16.447,18.746 21.948,24.248z"></path><title>Remove link.</title></g><g  event="link:options"><circle r="11" transform="translate(25)"></circle><path fill="white" transform="scale(.55) translate(29, -16)" d="M31.229,17.736c0.064-0.571,0.104-1.148,0.104-1.736s-0.04-1.166-0.104-1.737l-4.377-1.557c-0.218-0.716-0.504-1.401-0.851-2.05l1.993-4.192c-0.725-0.91-1.549-1.734-2.458-2.459l-4.193,1.994c-0.647-0.347-1.334-0.632-2.049-0.849l-1.558-4.378C17.165,0.708,16.588,0.667,16,0.667s-1.166,0.041-1.737,0.105L12.707,5.15c-0.716,0.217-1.401,0.502-2.05,0.849L6.464,4.005C5.554,4.73,4.73,5.554,4.005,6.464l1.994,4.192c-0.347,0.648-0.632,1.334-0.849,2.05l-4.378,1.557C0.708,14.834,0.667,15.412,0.667,16s0.041,1.165,0.105,1.736l4.378,1.558c0.217,0.715,0.502,1.401,0.849,2.049l-1.994,4.193c0.725,0.909,1.549,1.733,2.459,2.458l4.192-1.993c0.648,0.347,1.334,0.633,2.05,0.851l1.557,4.377c0.571,0.064,1.148,0.104,1.737,0.104c0.588,0,1.165-0.04,1.736-0.104l1.558-4.377c0.715-0.218,1.399-0.504,2.049-0.851l4.193,1.993c0.909-0.725,1.733-1.549,2.458-2.458l-1.993-4.193c0.347-0.647,0.633-1.334,0.851-2.049L31.229,17.736zM16,20.871c-2.69,0-4.872-2.182-4.872-4.871c0-2.69,2.182-4.872,4.872-4.872c2.689,0,4.871,2.182,4.871,4.872C20.871,18.689,18.689,20.871,16,20.871z"></path><title>Link options.</title></g></g></g></g><g   id="j_121" ><path  stroke="#707070" d="M 2039 541 L 1454 912" id="v-1508" stroke-width="2" stroke-dasharray="30 30" fill="none" style="opacity: 1;"></path><path  fill="black" stroke="black" d="M 0 0 0 0" transform="matrix(-0.8450018763542175,0.5347633957862854,-0.5347633957862854,-0.8450018763542175,2039,541.3900146484375)"></path><path  fill="#707070" stroke="#707070" d="M 20 0 L 0 10 L 20 20 z" id="v-1510" transform="matrix(0.8450016975402832,-0.5347635746002197,0.5347635746002197,0.8450016975402832,1448.6524658203125,903.1600341796875)" style="opacity: 1;"></path><path  d="M 2039 541 L 1454 912" id="v-1509" fill="none" style="cursor: default;"></path><g ><g id="v-1499"  label-idx="0" cursor="move" transform="matrix(1,0,0,1,1746.5,726.5)" style="cursor: default; opacity: 1;"><rect joint-selector="rect" id="v-1503" fill="#ffffff" rx="3" ry="3" pointer-events="none" width="55" height="34.49999809265137" transform="matrix(1,0,0,1,-27.5,-17.299999237060547)"></rect><text joint-selector="text" id="v-1502" font-size="24px" xml:space="preserve" y="0.8em" fill="#707070" text-anchor="middle" pointer-events="none" font-family="Open Sans" font-weight="normal" transform="matrix(1,0,0,1,0,-9.5)"><tspan  dy="0">Calls</tspan></text></g><g id="v-1500"  label-idx="1" cursor="move" transform="matrix(1,0,0,1,1746.5,753.5)" style="cursor: default; opacity: 1;"><rect joint-selector="rect" id="v-1505" fill="#ffffff" rx="3" ry="3" pointer-events="none" width="103.31040954589844" height="24.4375" transform="matrix(1,0,0,1,-51.70000076293945,-12.199999809265137)"></rect><text joint-selector="text" id="v-1504" font-size="17px" xml:space="preserve" y="0.8em" fill="#707070" text-anchor="middle" pointer-events="none" font-family="Open Sans" font-weight="normal" transform="matrix(1,0,0,1,0,-6.699999809265137)"><tspan  dy="0">[HTTPS/json]</tspan></text></g><g id="v-1501"  label-idx="2" cursor="move" transform="matrix(1,0,0,1,1736.5,762.75)" style="cursor: default; opacity: 1;"><rect joint-selector="rect" id="v-1507" fill="#ffffff" rx="3" ry="3"  width="0" height="0" transform="matrix(1,0,0,1,0,0)" display="none"></rect><text joint-selector="text" id="v-1506" fill="#000000" font-size="14" text-anchor="middle" pointer-events="none"></text></g></g><g  display="none"></g><g  id="v-1512" display="none"><g  id="v-1497"><path  end="source" d="M 26 0 L 0 13 L 26 26 z"></path></g><g  id="v-1498"><path  end="target" d="M 26 0 L 0 13 L 26 26 z"></path></g></g><g  id="v-1511" display="none"><g  id="v-1496" transform="translate(2005.2202938393023, 562.4226854455021) "><g  event="remove"><circle r="11"></circle><path transform="scale(.8) translate(-16, -16)" d="M24.778,21.419 19.276,15.917 24.777,10.415 21.949,7.585 16.447,13.087 10.945,7.585 8.117,10.415 13.618,15.917 8.116,21.419 10.946,24.248 16.447,18.746 21.948,24.248z"></path><title>Remove link.</title></g><g  event="link:options"><circle r="11" transform="translate(25)"></circle><path fill="white" transform="scale(.55) translate(29, -16)" d="M31.229,17.736c0.064-0.571,0.104-1.148,0.104-1.736s-0.04-1.166-0.104-1.737l-4.377-1.557c-0.218-0.716-0.504-1.401-0.851-2.05l1.993-4.192c-0.725-0.91-1.549-1.734-2.458-2.459l-4.193,1.994c-0.647-0.347-1.334-0.632-2.049-0.849l-1.558-4.378C17.165,0.708,16.588,0.667,16,0.667s-1.166,0.041-1.737,0.105L12.707,5.15c-0.716,0.217-1.401,0.502-2.05,0.849L6.464,4.005C5.554,4.73,4.73,5.554,4.005,6.464l1.994,4.192c-0.347,0.648-0.632,1.334-0.849,2.05l-4.378,1.557C0.708,14.834,0.667,15.412,0.667,16s0.041,1.165,0.105,1.736l4.378,1.558c0.217,0.715,0.502,1.401,0.849,2.049l-1.994,4.193c0.725,0.909,1.549,1.733,2.459,2.458l4.192-1.993c0.648,0.347,1.334,0.633,2.05,0.851l1.557,4.377c0.571,0.064,1.148,0.104,1.737,0.104c0.588,0,1.165-0.04,1.736-0.104l1.558-4.377c0.715-0.218,1.399-0.504,2.049-0.851l4.193,1.993c0.909-0.725,1.733-1.549,2.458-2.458l-1.993-4.193c0.347-0.647,0.633-1.334,0.851-2.049L31.229,17.736zM16,20.871c-2.69,0-4.872-2.182-4.872-4.871c0-2.69,2.182-4.872,4.872-4.872c2.689,0,4.871,2.182,4.871,4.872C20.871,18.689,18.689,20.871,16,20.871z"></path><title>Link options.</title></g></g></g></g><g   id="j_122" ><path  stroke="#707070" d="M 1865 1204 L 2158 1584" id="v-1528" stroke-width="2" stroke-dasharray="30 30" fill="none" style="opacity: 1;"></path><path  fill="black" stroke="black" d="M 0 0 0 0" transform="matrix(0.6111130714416504,0.7915433049201965,-0.7915433049201965,0.6111130714416504,1864.81005859375,1204)"></path><path  fill="#707070" stroke="#707070" d="M 20 0 L 0 10 L 20 20 z" id="v-1530" transform="matrix(-0.6111130714416504,-0.7915433049201965,0.7915433049201965,-0.6111130714416504,2150.274658203125,1590.1112060546875)" style="opacity: 1;"></path><path  d="M 1865 1204 L 2158 1584" id="v-1529" fill="none" style="cursor: default;"></path><g ><g id="v-1519"  label-idx="0" cursor="move" transform="matrix(1,0,0,1,2011.5,1394)" style="cursor: default; opacity: 1;"><rect joint-selector="rect" id="v-1523" fill="#ffffff" rx="3" ry="3" pointer-events="none" width="142.54998779296875" height="34.49999809265137" transform="matrix(1,0,0,1,-71.30000305175781,-17.299999237060547)"></rect><text joint-selector="text" id="v-1522" font-size="24px" xml:space="preserve" y="0.8em" fill="#707070" text-anchor="middle" pointer-events="none" font-family="Open Sans" font-weight="normal" transform="matrix(1,0,0,1,0,-9.5)"><tspan  dy="0">reads/writes</tspan></text></g><g id="v-1520"  label-idx="1" cursor="move" transform="matrix(1,0,0,1,2011.5,1421)" style="cursor: default; opacity: 1;"><rect joint-selector="rect" id="v-1525" fill="#ffffff" rx="3" ry="3" pointer-events="none" width="44.66041564941406" height="24.4375" transform="matrix(1,0,0,1,-22.299999237060547,-12.199999809265137)"></rect><text joint-selector="text" id="v-1524" font-size="17px" xml:space="preserve" y="0.8em" fill="#707070" text-anchor="middle" pointer-events="none" font-family="Open Sans" font-weight="normal" transform="matrix(1,0,0,1,0,-6.699999809265137)"><tspan  dy="0">[SQL]</tspan></text></g><g id="v-1521"  label-idx="2" cursor="move" transform="matrix(1,0,0,1,2001.5,1430.25)" style="cursor: default; opacity: 1;"><rect joint-selector="rect" id="v-1527" fill="#ffffff" rx="3" ry="3"  width="0" height="0" transform="matrix(1,0,0,1,0,0)" display="none"></rect><text joint-selector="text" id="v-1526" fill="#000000" font-size="14" text-anchor="middle" pointer-events="none"></text></g></g><g  display="none"></g><g  id="v-1532" display="none"><g  id="v-1517"><path  end="source" d="M 26 0 L 0 13 L 26 26 z"></path></g><g  id="v-1518"><path  end="target" d="M 26 0 L 0 13 L 26 26 z"></path></g></g><g  id="v-1531" display="none"><g  id="v-1516" transform="translate(1889.4246717228968, 1235.6770486508562) "><g  event="remove"><circle r="11"></circle><path transform="scale(.8) translate(-16, -16)" d="M24.778,21.419 19.276,15.917 24.777,10.415 21.949,7.585 16.447,13.087 10.945,7.585 8.117,10.415 13.618,15.917 8.116,21.419 10.946,24.248 16.447,18.746 21.948,24.248z"></path><title>Remove link.</title></g><g  event="link:options"><circle r="11" transform="translate(25)"></circle><path fill="white" transform="scale(.55) translate(29, -16)" d="M31.229,17.736c0.064-0.571,0.104-1.148,0.104-1.736s-0.04-1.166-0.104-1.737l-4.377-1.557c-0.218-0.716-0.504-1.401-0.851-2.05l1.993-4.192c-0.725-0.91-1.549-1.734-2.458-2.459l-4.193,1.994c-0.647-0.347-1.334-0.632-2.049-0.849l-1.558-4.378C17.165,0.708,16.588,0.667,16,0.667s-1.166,0.041-1.737,0.105L12.707,5.15c-0.716,0.217-1.401,0.502-2.05,0.849L6.464,4.005C5.554,4.73,4.73,5.554,4.005,6.464l1.994,4.192c-0.347,0.648-0.632,1.334-0.849,2.05l-4.378,1.557C0.708,14.834,0.667,15.412,0.667,16s0.041,1.165,0.105,1.736l4.378,1.558c0.217,0.715,0.502,1.401,0.849,2.049l-1.994,4.193c0.725,0.909,1.549,1.733,2.459,2.458l4.192-1.993c0.648,0.347,1.334,0.633,2.05,0.851l1.557,4.377c0.571,0.064,1.148,0.104,1.737,0.104c0.588,0,1.165-0.04,1.736-0.104l1.558-4.377c0.715-0.218,1.399-0.504,2.049-0.851l4.193,1.993c0.909-0.725,1.733-1.549,2.458-2.458l-1.993-4.193c0.347-0.647,0.633-1.334,0.851-2.049L31.229,17.736zM16,20.871c-2.69,0-4.872-2.182-4.872-4.871c0-2.69,2.182-4.872,4.872-4.872c2.689,0,4.871,2.182,4.871,4.872C20.871,18.689,18.689,20.871,16,20.871z"></path><title>Link options.</title></g></g></g></g><g   id="j_123" ><path  stroke="#707070" d="M 2675 1204 L 2388 1584" id="v-1548" stroke-width="2" stroke-dasharray="30 30" fill="none" style="opacity: 1;"></path><path  fill="black" stroke="black" d="M 0 0 0 0" transform="matrix(-0.6037526726722717,0.7971717119216919,-0.7971717119216919,-0.6037526726722717,2675.39990234375,1204)"></path><path  fill="#707070" stroke="#707070" d="M 20 0 L 0 10 L 20 20 z" id="v-1550" transform="matrix(0.6037525534629822,-0.7971717715263367,0.7971717715263367,0.6037525534629822,2379.628173828125,1577.9625244140625)" style="opacity: 1;"></path><path  d="M 2675 1204 L 2388 1584" id="v-1549" fill="none" style="cursor: default;"></path><g ><g id="v-1539"  label-idx="0" cursor="move" transform="matrix(1,0,0,1,2531.5,1394)" style="cursor: default; opacity: 1;"><rect joint-selector="rect" id="v-1543" fill="#ffffff" rx="3" ry="3" pointer-events="none" width="142.54998779296875" height="34.49999809265137" transform="matrix(1,0,0,1,-71.30000305175781,-17.299999237060547)"></rect><text joint-selector="text" id="v-1542" font-size="24px" xml:space="preserve" y="0.8em" fill="#707070" text-anchor="middle" pointer-events="none" font-family="Open Sans" font-weight="normal" transform="matrix(1,0,0,1,0,-9.5)"><tspan  dy="0">reads/writes</tspan></text></g><g id="v-1540"  label-idx="1" cursor="move" transform="matrix(1,0,0,1,2531.5,1421)" style="cursor: default; opacity: 1;"><rect joint-selector="rect" id="v-1545" fill="#ffffff" rx="3" ry="3" pointer-events="none" width="44.66041564941406" height="24.4375" transform="matrix(1,0,0,1,-22.299999237060547,-12.199999809265137)"></rect><text joint-selector="text" id="v-1544" font-size="17px" xml:space="preserve" y="0.8em" fill="#707070" text-anchor="middle" pointer-events="none" font-family="Open Sans" font-weight="normal" transform="matrix(1,0,0,1,0,-6.699999809265137)"><tspan  dy="0">[SQL]</tspan></text></g><g id="v-1541"  label-idx="2" cursor="move" transform="matrix(1,0,0,1,2521.5,1430.25)" style="cursor: default; opacity: 1;"><rect joint-selector="rect" id="v-1547" fill="#ffffff" rx="3" ry="3"  width="0" height="0" transform="matrix(1,0,0,1,0,0)" display="none"></rect><text joint-selector="text" id="v-1546" fill="#000000" font-size="14" text-anchor="middle" pointer-events="none"></text></g></g><g  display="none"></g><g  id="v-1552" display="none"><g  id="v-1537"><path  end="source" d="M 26 0 L 0 13 L 26 26 z"></path></g><g  id="v-1538"><path  end="target" d="M 26 0 L 0 13 L 26 26 z"></path></g></g><g  id="v-1551" display="none"><g  id="v-1536" transform="translate(2650.8926182258783, 1235.9191814430876) "><g  event="remove"><circle r="11"></circle><path transform="scale(.8) translate(-16, -16)" d="M24.778,21.419 19.276,15.917 24.777,10.415 21.949,7.585 16.447,13.087 10.945,7.585 8.117,10.415 13.618,15.917 8.116,21.419 10.946,24.248 16.447,18.746 21.948,24.248z"></path><title>Remove link.</title></g><g  event="link:options"><circle r="11" transform="translate(25)"></circle><path fill="white" transform="scale(.55) translate(29, -16)" d="M31.229,17.736c0.064-0.571,0.104-1.148,0.104-1.736s-0.04-1.166-0.104-1.737l-4.377-1.557c-0.218-0.716-0.504-1.401-0.851-2.05l1.993-4.192c-0.725-0.91-1.549-1.734-2.458-2.459l-4.193,1.994c-0.647-0.347-1.334-0.632-2.049-0.849l-1.558-4.378C17.165,0.708,16.588,0.667,16,0.667s-1.166,0.041-1.737,0.105L12.707,5.15c-0.716,0.217-1.401,0.502-2.05,0.849L6.464,4.005C5.554,4.73,4.73,5.554,4.005,6.464l1.994,4.192c-0.347,0.648-0.632,1.334-0.849,2.05l-4.378,1.557C0.708,14.834,0.667,15.412,0.667,16s0.041,1.165,0.105,1.736l4.378,1.558c0.217,0.715,0.502,1.401,0.849,2.049l-1.994,4.193c0.725,0.909,1.549,1.733,2.459,2.458l4.192-1.993c0.648,0.347,1.334,0.633,2.05,0.851l1.557,4.377c0.571,0.064,1.148,0.104,1.737,0.104c0.588,0,1.165-0.04,1.736-0.104l1.558-4.377c0.715-0.218,1.399-0.504,2.049-0.851l4.193,1.993c0.909-0.725,1.733-1.549,2.458-2.458l-1.993-4.193c0.347-0.647,0.633-1.334,0.851-2.049L31.229,17.736zM16,20.871c-2.69,0-4.872-2.182-4.872-4.871c0-2.69,2.182-4.872,4.872-4.872c2.689,0,4.871,2.182,4.871,4.872C20.871,18.689,18.689,20.871,16,20.871z"></path><title>Link options.</title></g></g></g></g><g   id="j_124" ><path  stroke="#707070" d="M 3084 1202 L 2499 1586" id="v-1568" stroke-width="2" stroke-dasharray="30 30" fill="none" style="opacity: 1;"></path><path  fill="black" stroke="black" d="M 0 0 0 0" transform="matrix(-0.8357636332511902,0.5490894317626953,-0.5490894317626953,-0.8357636332511902,3084,1201.8299560546875)"></path><path  fill="#707070" stroke="#707070" d="M 20 0 L 0 10 L 20 20 z" id="v-1570" transform="matrix(0.8357636332511902,-0.5490894317626953,0.5490894317626953,0.8357636332511902,2493.509033203125,1577.8123779296875)" style="opacity: 1;"></path><path  d="M 3084 1202 L 2499 1586" id="v-1569" fill="none" style="cursor: default;"></path><g ><g id="v-1559"  label-idx="0" cursor="move" transform="matrix(1,0,0,1,2791.5,1394)" style="cursor: default; opacity: 1;"><rect joint-selector="rect" id="v-1563" fill="#ffffff" rx="3" ry="3" pointer-events="none" width="142.54998779296875" height="34.49999809265137" transform="matrix(1,0,0,1,-71.30000305175781,-17.299999237060547)"></rect><text joint-selector="text" id="v-1562" font-size="24px" xml:space="preserve" y="0.8em" fill="#707070" text-anchor="middle" pointer-events="none" font-family="Open Sans" font-weight="normal" transform="matrix(1,0,0,1,0,-9.5)"><tspan  dy="0">reads/writes</tspan></text></g><g id="v-1560"  label-idx="1" cursor="move" transform="matrix(1,0,0,1,2791.5,1421)" style="cursor: default; opacity: 1;"><rect joint-selector="rect" id="v-1565" fill="#ffffff" rx="3" ry="3" pointer-events="none" width="44.66041564941406" height="24.4375" transform="matrix(1,0,0,1,-22.299999237060547,-12.199999809265137)"></rect><text joint-selector="text" id="v-1564" font-size="17px" xml:space="preserve" y="0.8em" fill="#707070" text-anchor="middle" pointer-events="none" font-family="Open Sans" font-weight="normal" transform="matrix(1,0,0,1,0,-6.699999809265137)"><tspan  dy="0">[SQL]</tspan></text></g><g id="v-1561"  label-idx="2" cursor="move" transform="matrix(1,0,0,1,2781.5,1430.25)" style="cursor: default; opacity: 1;"><rect joint-selector="rect" id="v-1567" fill="#ffffff" rx="3" ry="3"  width="0" height="0" transform="matrix(1,0,0,1,0,0)" display="none"></rect><text joint-selector="text" id="v-1566" fill="#000000" font-size="14" text-anchor="middle" pointer-events="none"></text></g></g><g  display="none"></g><g  id="v-1572" display="none"><g  id="v-1557"><path  end="source" d="M 26 0 L 0 13 L 26 26 z"></path></g><g  id="v-1558"><path  end="target" d="M 26 0 L 0 13 L 26 26 z"></path></g></g><g  id="v-1571" display="none"><g  id="v-1556" transform="translate(3050.560541914455, 1223.9500032561523) "><g  event="remove"><circle r="11"></circle><path transform="scale(.8) translate(-16, -16)" d="M24.778,21.419 19.276,15.917 24.777,10.415 21.949,7.585 16.447,13.087 10.945,7.585 8.117,10.415 13.618,15.917 8.116,21.419 10.946,24.248 16.447,18.746 21.948,24.248z"></path><title>Remove link.</title></g><g  event="link:options"><circle r="11" transform="translate(25)"></circle><path fill="white" transform="scale(.55) translate(29, -16)" d="M31.229,17.736c0.064-0.571,0.104-1.148,0.104-1.736s-0.04-1.166-0.104-1.737l-4.377-1.557c-0.218-0.716-0.504-1.401-0.851-2.05l1.993-4.192c-0.725-0.91-1.549-1.734-2.458-2.459l-4.193,1.994c-0.647-0.347-1.334-0.632-2.049-0.849l-1.558-4.378C17.165,0.708,16.588,0.667,16,0.667s-1.166,0.041-1.737,0.105L12.707,5.15c-0.716,0.217-1.401,0.502-2.05,0.849L6.464,4.005C5.554,4.73,4.73,5.554,4.005,6.464l1.994,4.192c-0.347,0.648-0.632,1.334-0.849,2.05l-4.378,1.557C0.708,14.834,0.667,15.412,0.667,16s0.041,1.165,0.105,1.736l4.378,1.558c0.217,0.715,0.502,1.401,0.849,2.049l-1.994,4.193c0.725,0.909,1.549,1.733,2.459,2.458l4.192-1.993c0.648,0.347,1.334,0.633,2.05,0.851l1.557,4.377c0.571,0.064,1.148,0.104,1.737,0.104c0.588,0,1.165-0.04,1.736-0.104l1.558-4.377c0.715-0.218,1.399-0.504,2.049-0.851l4.193,1.993c0.909-0.725,1.733-1.549,2.458-2.458l-1.993-4.193c0.347-0.647,0.633-1.334,0.851-2.049L31.229,17.736zM16,20.871c-2.69,0-4.872-2.182-4.872-4.871c0-2.69,2.182-4.872,4.872-4.872c2.689,0,4.871,2.182,4.871,4.872C20.871,18.689,18.689,20.871,16,20.871z"></path><title>Link options.</title></g></g></g></g><g   id="j_125" ><path  stroke="#707070" d="M 2270 1204 L 2273 1584" id="v-1588" stroke-width="2" stroke-dasharray="30 30" fill="none" style="opacity: 1;"></path><path  fill="black" stroke="black" d="M 0 0 0 0" transform="matrix(0.0073682344518601894,0.9999728798866272,-0.9999728798866272,0.0073682344518601894,2270.10009765625,1204)"></path><path  fill="#707070" stroke="#707070" d="M 20 0 L 0 10 L 20 20 z" id="v-1590" transform="matrix(-0.0073683676309883595,-0.9999728798866272,0.9999728798866272,-0.0073683676309883595,2262.900390625,1584.0736083984375)" style="opacity: 1;"></path><path  d="M 2270 1204 L 2273 1584" id="v-1589" fill="none" style="cursor: default;"></path><g ><g id="v-1579"  label-idx="0" cursor="move" transform="matrix(1,0,0,1,2271.5,1394)" style="cursor: default; opacity: 1;"><rect joint-selector="rect" id="v-1583" fill="#ffffff" rx="3" ry="3" pointer-events="none" width="142.54998779296875" height="34.49999809265137" transform="matrix(1,0,0,1,-71.30000305175781,-17.299999237060547)"></rect><text joint-selector="text" id="v-1582" font-size="24px" xml:space="preserve" y="0.8em" fill="#707070" text-anchor="middle" pointer-events="none" font-family="Open Sans" font-weight="normal" transform="matrix(1,0,0,1,0,-9.5)"><tspan  dy="0">reads/writes</tspan></text></g><g id="v-1580"  label-idx="1" cursor="move" transform="matrix(1,0,0,1,2271.5,1421)" style="cursor: default; opacity: 1;"><rect joint-selector="rect" id="v-1585" fill="#ffffff" rx="3" ry="3" pointer-events="none" width="44.66041564941406" height="24.4375" transform="matrix(1,0,0,1,-22.299999237060547,-12.199999809265137)"></rect><text joint-selector="text" id="v-1584" font-size="17px" xml:space="preserve" y="0.8em" fill="#707070" text-anchor="middle" pointer-events="none" font-family="Open Sans" font-weight="normal" transform="matrix(1,0,0,1,0,-6.699999809265137)"><tspan  dy="0">[SQL]</tspan></text></g><g id="v-1581"  label-idx="2" cursor="move" transform="matrix(1,0,0,1,2261.5,1430.25)" style="cursor: default; opacity: 1;"><rect joint-selector="rect" id="v-1587" fill="#ffffff" rx="3" ry="3"  width="0" height="0" transform="matrix(1,0,0,1,0,0)" display="none"></rect><text joint-selector="text" id="v-1586" fill="#000000" font-size="14" text-anchor="middle" pointer-events="none"></text></g></g><g  display="none"></g><g  id="v-1592" display="none"><g  id="v-1577"><path  end="source" d="M 26 0 L 0 13 L 26 26 z"></path></g><g  id="v-1578"><path  end="target" d="M 26 0 L 0 13 L 26 26 z"></path></g></g><g  id="v-1591" display="none"><g  id="v-1576" transform="translate(2270.3157796330593, 1243.9987535208702) "><g  event="remove"><circle r="11"></circle><path transform="scale(.8) translate(-16, -16)" d="M24.778,21.419 19.276,15.917 24.777,10.415 21.949,7.585 16.447,13.087 10.945,7.585 8.117,10.415 13.618,15.917 8.116,21.419 10.946,24.248 16.447,18.746 21.948,24.248z"></path><title>Remove link.</title></g><g  event="link:options"><circle r="11" transform="translate(25)"></circle><path fill="white" transform="scale(.55) translate(29, -16)" d="M31.229,17.736c0.064-0.571,0.104-1.148,0.104-1.736s-0.04-1.166-0.104-1.737l-4.377-1.557c-0.218-0.716-0.504-1.401-0.851-2.05l1.993-4.192c-0.725-0.91-1.549-1.734-2.458-2.459l-4.193,1.994c-0.647-0.347-1.334-0.632-2.049-0.849l-1.558-4.378C17.165,0.708,16.588,0.667,16,0.667s-1.166,0.041-1.737,0.105L12.707,5.15c-0.716,0.217-1.401,0.502-2.05,0.849L6.464,4.005C5.554,4.73,4.73,5.554,4.005,6.464l1.994,4.192c-0.347,0.648-0.632,1.334-0.849,2.05l-4.378,1.557C0.708,14.834,0.667,15.412,0.667,16s0.041,1.165,0.105,1.736l4.378,1.558c0.217,0.715,0.502,1.401,0.849,2.049l-1.994,4.193c0.725,0.909,1.549,1.733,2.459,2.458l4.192-1.993c0.648,0.347,1.334,0.633,2.05,0.851l1.557,4.377c0.571,0.064,1.148,0.104,1.737,0.104c0.588,0,1.165-0.04,1.736-0.104l1.558-4.377c0.715-0.218,1.399-0.504,2.049-0.851l4.193,1.993c0.909-0.725,1.733-1.549,2.458-2.458l-1.993-4.193c0.347-0.647,0.633-1.334,0.851-2.049L31.229,17.736zM16,20.871c-2.69,0-4.872-2.182-4.872-4.871c0-2.69,2.182-4.872,4.872-4.872c2.689,0,4.871,2.182,4.871,4.872C20.871,18.689,18.689,20.871,16,20.871z"></path><title>Link options.</title></g></g></g></g><g   id="j_126" ><path  stroke="#707070" d="M 1454 1200 L 2049 1588" id="v-1608" stroke-width="2" stroke-dasharray="30 30" fill="none" style="opacity: 1;"></path><path  fill="black" stroke="black" d="M 0 0 0 0" transform="matrix(0.8381667137145996,0.5454140901565552,-0.5454140901565552,0.8381667137145996,1454,1200.4100341796875)"></path><path  fill="#707070" stroke="#707070" d="M 20 0 L 0 10 L 20 20 z" id="v-1610" transform="matrix(-0.8381667733192444,-0.5454140305519104,0.5454140305519104,-0.8381667733192444,2043.5457763671875,1595.9716796875)" style="opacity: 1;"></path><path  d="M 1454 1200 L 2049 1588" id="v-1609" fill="none" style="cursor: default;"></path><g ><g id="v-1599"  label-idx="0" cursor="move" transform="matrix(1,0,0,1,1751.5,1394)" style="cursor: default; opacity: 1;"><rect joint-selector="rect" id="v-1603" fill="#ffffff" rx="3" ry="3" pointer-events="none" width="142.54998779296875" height="34.49999809265137" transform="matrix(1,0,0,1,-71.30000305175781,-17.299999237060547)"></rect><text joint-selector="text" id="v-1602" font-size="24px" xml:space="preserve" y="0.8em" fill="#707070" text-anchor="middle" pointer-events="none" font-family="Open Sans" font-weight="normal" transform="matrix(1,0,0,1,0,-9.5)"><tspan  dy="0">reads/writes</tspan></text></g><g id="v-1600"  label-idx="1" cursor="move" transform="matrix(1,0,0,1,1751.5,1421)" style="cursor: default; opacity: 1;"><rect joint-selector="rect" id="v-1605" fill="#ffffff" rx="3" ry="3" pointer-events="none" width="44.66041564941406" height="24.4375" transform="matrix(1,0,0,1,-22.299999237060547,-12.199999809265137)"></rect><text joint-selector="text" id="v-1604" font-size="17px" xml:space="preserve" y="0.8em" fill="#707070" text-anchor="middle" pointer-events="none" font-family="Open Sans" font-weight="normal" transform="matrix(1,0,0,1,0,-6.699999809265137)"><tspan  dy="0">[SQL]</tspan></text></g><g id="v-1601"  label-idx="2" cursor="move" transform="matrix(1,0,0,1,1741.5,1430.25)" style="cursor: default; opacity: 1;"><rect joint-selector="rect" id="v-1607" fill="#ffffff" rx="3" ry="3"  width="0" height="0" transform="matrix(1,0,0,1,0,0)" display="none"></rect><text joint-selector="text" id="v-1606" fill="#000000" font-size="14" text-anchor="middle" pointer-events="none"></text></g></g><g  display="none"></g><g  id="v-1612" display="none"><g  id="v-1597"><path  end="source" d="M 26 0 L 0 13 L 26 26 z"></path></g><g  id="v-1598"><path  end="target" d="M 26 0 L 0 13 L 26 26 z"></path></g></g><g  id="v-1611" display="none"><g  id="v-1596" transform="translate(1487.5055440915567, 1221.8489934580236) "><g  event="remove"><circle r="11"></circle><path transform="scale(.8) translate(-16, -16)" d="M24.778,21.419 19.276,15.917 24.777,10.415 21.949,7.585 16.447,13.087 10.945,7.585 8.117,10.415 13.618,15.917 8.116,21.419 10.946,24.248 16.447,18.746 21.948,24.248z"></path><title>Remove link.</title></g><g  event="link:options"><circle r="11" transform="translate(25)"></circle><path fill="white" transform="scale(.55) translate(29, -16)" d="M31.229,17.736c0.064-0.571,0.104-1.148,0.104-1.736s-0.04-1.166-0.104-1.737l-4.377-1.557c-0.218-0.716-0.504-1.401-0.851-2.05l1.993-4.192c-0.725-0.91-1.549-1.734-2.458-2.459l-4.193,1.994c-0.647-0.347-1.334-0.632-2.049-0.849l-1.558-4.378C17.165,0.708,16.588,0.667,16,0.667s-1.166,0.041-1.737,0.105L12.707,5.15c-0.716,0.217-1.401,0.502-2.05,0.849L6.464,4.005C5.554,4.73,4.73,5.554,4.005,6.464l1.994,4.192c-0.347,0.648-0.632,1.334-0.849,2.05l-4.378,1.557C0.708,14.834,0.667,15.412,0.667,16s0.041,1.165,0.105,1.736l4.378,1.558c0.217,0.715,0.502,1.401,0.849,2.049l-1.994,4.193c0.725,0.909,1.549,1.733,2.459,2.458l4.192-1.993c0.648,0.347,1.334,0.633,2.05,0.851l1.557,4.377c0.571,0.064,1.148,0.104,1.737,0.104c0.588,0,1.165-0.04,1.736-0.104l1.558-4.377c0.715-0.218,1.399-0.504,2.049-0.851l4.193,1.993c0.909-0.725,1.733-1.549,2.458-2.458l-1.993-4.193c0.347-0.647,0.633-1.334,0.851-2.049L31.229,17.736zM16,20.871c-2.69,0-4.872-2.182-4.872-4.871c0-2.69,2.182-4.872,4.872-4.872c2.689,0,4.871,2.182,4.871,4.872C20.871,18.689,18.689,20.871,16,20.871z"></path><title>Link options.</title></g></g></g></g><g   id="j_127" ><path  stroke="#707070" d="M 649 1061 L 1004 1057" id="v-1628" stroke-width="2" stroke-dasharray="30 30" fill="none" style="opacity: 1;"></path><path  fill="black" stroke="black" d="M 0 0 0 0" transform="matrix(0.9999231696128845,-0.012393501587212086,0.012393501587212086,0.9999231696128845,649,1061.199951171875)"></path><path  fill="#707070" stroke="#707070" d="M 20 0 L 0 10 L 20 20 z" id="v-1630" transform="matrix(-0.9999231696128845,0.012393501587212086,-0.012393501587212086,-0.9999231696128845,1004.1239624023438,1066.7991943359375)" style="opacity: 1;"></path><path  d="M 649 1061 L 1004 1057" id="v-1629" fill="none" style="cursor: default;"></path><g ><g id="v-1619"  label-idx="0" cursor="move" transform="matrix(1,0,0,1,826.5,1059)" style="cursor: default; opacity: 1;"><rect joint-selector="rect" id="v-1623" fill="#ffffff" rx="3" ry="3" pointer-events="none" width="201.35000610351562" height="63.29999923706055" transform="matrix(1,0,0,1,-100.69999694824219,-31.700000762939453)"></rect><text joint-selector="text" id="v-1622" font-size="24px" xml:space="preserve" y="0.8em" fill="#707070" text-anchor="middle" pointer-events="none" font-family="Open Sans" font-weight="normal" transform="matrix(1,0,0,1,0,-23.899999618530273)"><tspan  dy="0">Looks up supplier</tspan><tspan dy="1.2em" x="0" >information</tspan></text></g><g id="v-1620"  label-idx="1" cursor="move" transform="matrix(1,0,0,1,826.5,1101)" style="cursor: default; opacity: 1;"><rect joint-selector="rect" id="v-1625" fill="#ffffff" rx="3" ry="3" pointer-events="none" width="103.31040954589844" height="24.4375" transform="matrix(1,0,0,1,-51.70000076293945,-12.199999809265137)"></rect><text joint-selector="text" id="v-1624" font-size="17px" xml:space="preserve" y="0.8em" fill="#707070" text-anchor="middle" pointer-events="none" font-family="Open Sans" font-weight="normal" transform="matrix(1,0,0,1,0,-6.699999809265137)"><tspan  dy="0">[HTTPS/json]</tspan></text></g><g id="v-1621"  label-idx="2" cursor="move" transform="matrix(1,0,0,1,816.5,1110.25)" style="cursor: default; opacity: 1;"><rect joint-selector="rect" id="v-1627" fill="#ffffff" rx="3" ry="3"  width="0" height="0" transform="matrix(1,0,0,1,0,0)" display="none"></rect><text joint-selector="text" id="v-1626" fill="#000000" font-size="14" text-anchor="middle" pointer-events="none"></text></g></g><g  display="none"></g><g  id="v-1632" display="none"><g  id="v-1617"><path  end="source" d="M 26 0 L 0 13 L 26 26 z"></path></g><g  id="v-1618"><path  end="target" d="M 26 0 L 0 13 L 26 26 z"></path></g></g><g  id="v-1631" display="none"><g  id="v-1616" transform="translate(688.9974610630186, 1060.5493243823885) "><g  event="remove"><circle r="11"></circle><path transform="scale(.8) translate(-16, -16)" d="M24.778,21.419 19.276,15.917 24.777,10.415 21.949,7.585 16.447,13.087 10.945,7.585 8.117,10.415 13.618,15.917 8.116,21.419 10.946,24.248 16.447,18.746 21.948,24.248z"></path><title>Remove link.</title></g><g  event="link:options"><circle r="11" transform="translate(25)"></circle><path fill="white" transform="scale(.55) translate(29, -16)" d="M31.229,17.736c0.064-0.571,0.104-1.148,0.104-1.736s-0.04-1.166-0.104-1.737l-4.377-1.557c-0.218-0.716-0.504-1.401-0.851-2.05l1.993-4.192c-0.725-0.91-1.549-1.734-2.458-2.459l-4.193,1.994c-0.647-0.347-1.334-0.632-2.049-0.849l-1.558-4.378C17.165,0.708,16.588,0.667,16,0.667s-1.166,0.041-1.737,0.105L12.707,5.15c-0.716,0.217-1.401,0.502-2.05,0.849L6.464,4.005C5.554,4.73,4.73,5.554,4.005,6.464l1.994,4.192c-0.347,0.648-0.632,1.334-0.849,2.05l-4.378,1.557C0.708,14.834,0.667,15.412,0.667,16s0.041,1.165,0.105,1.736l4.378,1.558c0.217,0.715,0.502,1.401,0.849,2.049l-1.994,4.193c0.725,0.909,1.549,1.733,2.459,2.458l4.192-1.993c0.648,0.347,1.334,0.633,2.05,0.851l1.557,4.377c0.571,0.064,1.148,0.104,1.737,0.104c0.588,0,1.165-0.04,1.736-0.104l1.558-4.377c0.715-0.218,1.399-0.504,2.049-0.851l4.193,1.993c0.909-0.725,1.733-1.549,2.458-2.458l-1.993-4.193c0.347-0.647,0.633-1.334,0.851-2.049L31.229,17.736zM16,20.871c-2.69,0-4.872-2.182-4.872-4.871c0-2.69,2.182-4.872,4.872-4.872c2.689,0,4.871,2.182,4.871,4.872C20.871,18.689,18.689,20.871,16,20.871z"></path><title>Link options.</title></g></g></g></g></g><g ></g><g ></g><g ></g></g></svg>