<svg xmlns="http://www.w3.org/2000/svg" xmlns:xlink="http://www.w3.org/1999/xlink" version="1.1" viewBox="0 0 4961 3508" style="background: #ffffff"><defs><style>@import url(https://fonts.googleapis.com/css?family=Open+Sans:400,700);</style></defs><defs joint-selector="defs"></defs><g  joint-selector="layers" transform="matrix(1,0,0,1,0,0)"><g ></g><g ><g   id="j_122"  transform="translate(20,3470.5)"><g id="v-1544"><text  id="v-1545" font-size="22px" xml:space="preserve" y="0.8em" font-weight="normal" text-anchor="start" fill="#aaaaaa" pointer-events="none" display="block" font-family="Open Sans"><tspan  dy="0">Thursday, 6 June 2024 at 12:24 British Summer Time</tspan></text></g></g><g   id="j_121"  transform="translate(20,3443)"><g id="v-1542"><text  id="v-1543" font-size="22px" xml:space="preserve" y="0.8em" font-weight="normal" text-anchor="start" fill="#aaaaaa" pointer-events="none" display="block" font-family="Open Sans"><tspan  dy="0">The component diagram for the Web Application.</tspan></text></g></g><g   id="j_120"  transform="translate(20,3398)"><g id="v-1540"><text  id="v-1541" font-size="36px" xml:space="preserve" y="0.8em" font-weight="normal" text-anchor="start" fill="#000000" pointer-events="none" display="block" font-family="Open Sans"><tspan  dy="0">[Component] Central Digital Platform - Web Application</tspan></text></g></g><g   id="j_123"  transform="translate(2420,45)" style=""><g  id="v-1546" style="opacity: 1;"><rect  x="0" y="160" width="400" height="240" rx="70" id="v-1548" stroke="#073b6f" stroke-width="2" pointer-events="visiblePainted" fill="#08427b" style="fill: rgb(8, 66, 123); stroke: rgb(7, 59, 111);"></rect><circle  cx="200" cy="88.88888888888889" r="88.88888888888889" id="v-1547" stroke="#073b6f" stroke-width="2" pointer-events="visiblePainted" fill="#08427b" style="fill: rgb(8, 66, 123); stroke: rgb(7, 59, 111);"></circle><line  x1="80" y1="266.6666666666667" x2="80" y2="400" id="v-1554" stroke="#073b6f" stroke-width="2" style="stroke: rgb(7, 59, 111);"></line><line  x1="320" y1="266.6666666666667" x2="320" y2="400" id="v-1555" stroke="#073b6f" stroke-width="2" style="stroke: rgb(7, 59, 111);"></line><text  id="v-1549" font-size="34" xml:space="preserve" y="0.8em" font-weight="bold" text-anchor="middle" pointer-events="visible" font-family="Open Sans" fill="#ffffff" transform="matrix(1,0,0,1,200,243.10000610351562)" style="fill: rgb(255, 255, 255);"><tspan  dy="0">Supplier</tspan></text><text  id="v-1550" font-size="17" xml:space="preserve" y="0.8em" text-anchor="middle" font-family="Open Sans" fill="#ffffff" transform="matrix(1,0,0,1,200,285.6000061035156)" style="fill: rgb(255, 255, 255);"><tspan  dy="0">[Person]</tspan></text><text  id="v-1551" font-size="24" xml:space="preserve" display="none" y="0.8em" text-anchor="middle" font-family="Open Sans" fill="#ffffff" transform="matrix(1,0,0,1,200,316.8999938964844)" style="fill: rgb(255, 255, 255);"><tspan style="fill-opacity: 0; stroke-opacity: 0;"  dy="0">-</tspan></text><g  id="v-1552" font-weight="normal" text-anchor="middle" color="#ffffff" transform="matrix(1,0,0,1,197.5,326.8999938964844)" style="fill: rgb(255, 255, 255);" display="none"><g ></g><g ></g><g ></g><g ></g></g><image  id="v-1553"></image></g></g><g   id="j_124"  transform="translate(120,705)" style=""><g  id="v-1562" style="opacity: 1;"><rect  id="v-1563" rx="20" ry="20" stroke="#0f5eaa" stroke-width="2" pointer-events="visiblePainted" fill="#1168bd" width="450" height="300" style="fill: rgb(17, 104, 189); stroke: rgb(15, 94, 170);"></rect><text  id="v-1564" font-size="34" xml:space="preserve" y="0.8em" font-weight="bold" text-anchor="middle" pointer-events="visible" font-family="Open Sans" fill="#ffffff" transform="matrix(1,0,0,1,225,83.0999984741211)" style="fill: rgb(255, 255, 255);"><tspan  dy="0">Gov.uk One Login</tspan></text><text  id="v-1565" font-size="17" xml:space="preserve" y="0.8em" text-anchor="middle" font-family="Open Sans" fill="#ffffff" transform="matrix(1,0,0,1,225,125.5999984741211)" style="fill: rgb(255, 255, 255);"><tspan  dy="0">[Software System]</tspan></text><text  id="v-1566" font-size="24" xml:space="preserve" y="0.8em" text-anchor="middle" font-family="Open Sans" fill="#ffffff" transform="matrix(1,0,0,1,225,156.89999389648438)" style="fill: rgb(255, 255, 255);"><tspan  dy="0">Let users sign in and prove their</tspan><tspan dy="1.2em" x="0" >identities to use your service</tspan></text><g  id="v-1567" color="#ffffff" transform="matrix(1,0,0,1,222.5,226.89999389648438)" style="fill: rgb(255, 255, 255);" display="none"><g ></g><g ></g><g ></g><g ></g></g><image  id="v-1568"></image></g></g><g   id="j_125"  transform="translate(4390,670)" style=""><g  id="v-1569" style="opacity: 1;"><rect  id="v-1570" rx="20" ry="20" stroke="#3c7fc0" stroke-width="2" pointer-events="visiblePainted" fill="#438dd5" width="450" height="300" style="fill: rgb(67, 141, 213); stroke: rgb(60, 127, 192);"></rect><text  id="v-1571" font-size="34" xml:space="preserve" y="0.8em" font-weight="bold" text-anchor="middle" pointer-events="visible" font-family="Open Sans" fill="#ffffff" transform="matrix(1,0,0,1,225,113.0999984741211)" style="fill: rgb(255, 255, 255);"><tspan  dy="0">Authority</tspan></text><text  id="v-1572" font-size="17" xml:space="preserve" y="0.8em" text-anchor="middle" font-family="Open Sans" fill="#ffffff" transform="matrix(1,0,0,1,225,155.60000610351562)" style="fill: rgb(255, 255, 255);"><tspan  dy="0">[Container: Asp.Net Core]</tspan></text><text  id="v-1573" font-size="24" xml:space="preserve" display="none" y="0.8em" text-anchor="middle" font-family="Open Sans" fill="#ffffff" transform="matrix(1,0,0,1,225,186.89999389648438)" style="fill: rgb(255, 255, 255);"><tspan style="fill-opacity: 0; stroke-opacity: 0;"  dy="0">-</tspan></text><g  id="v-1574" color="#ffffff" transform="matrix(1,0,0,1,210,196.89999389648438)" style="fill: rgb(255, 255, 255);" display="none"><g  transform="translate(5 0)"><svg xmlns="http://www.w3.org/2000/svg" width="20" height="20" fill="currentColor" viewBox="0 0 16 16"><path fill-rule="evenodd" d="M6.5 12a5.5 5.5 0 1 0 0-11 5.5 5.5 0 0 0 0 11zM13 6.5a6.5 6.5 0 1 1-13 0 6.5 6.5 0 0 1 13 0z"></path><path d="M10.344 11.742c.03.04.062.078.098.115l3.85 3.85a1 1 0 0 0 1.415-1.414l-3.85-3.85a1.007 1.007 0 0 0-.115-.1 6.538 6.538 0 0 1-1.398 1.4z"></path><path fill-rule="evenodd" d="M6.5 3a.5.5 0 0 1 .5.5V6h2.5a.5.5 0 0 1 0 1H7v2.5a.5.5 0 0 1-1 0V7H3.5a.5.5 0 0 1 0-1H6V3.5a.5.5 0 0 1 .5-.5z"></path></svg></g><g ></g><g ></g><g ></g></g><image  id="v-1575"></image></g></g><g   id="j_126"  transform="translate(960,1900)" style=""><g  id="v-1576" style="opacity: 1;"><rect  id="v-1577" rx="20" ry="20" stroke="#3c7fc0" stroke-width="2" pointer-events="visiblePainted" fill="#438dd5" width="450" height="300" style="fill: rgb(67, 141, 213); stroke: rgb(60, 127, 192);"></rect><text  id="v-1578" font-size="34" xml:space="preserve" y="0.8em" font-weight="bold" text-anchor="middle" pointer-events="visible" font-family="Open Sans" fill="#ffffff" transform="matrix(1,0,0,1,225,113.0999984741211)" style="fill: rgb(255, 255, 255);"><tspan  dy="0">Tenant API</tspan></text><text  id="v-1579" font-size="17" xml:space="preserve" y="0.8em" text-anchor="middle" font-family="Open Sans" fill="#ffffff" transform="matrix(1,0,0,1,225,155.60000610351562)" style="fill: rgb(255, 255, 255);"><tspan  dy="0">[Container: Asp.Net Core]</tspan></text><text  id="v-1580" font-size="24" xml:space="preserve" display="none" y="0.8em" text-anchor="middle" font-family="Open Sans" fill="#ffffff" transform="matrix(1,0,0,1,225,186.89999389648438)" style="fill: rgb(255, 255, 255);"><tspan style="fill-opacity: 0; stroke-opacity: 0;"  dy="0">-</tspan></text><g  id="v-1581" color="#ffffff" transform="matrix(1,0,0,1,210,196.89999389648438)" style="fill: rgb(255, 255, 255);" display="none"><g  transform="translate(5 0)"><svg xmlns="http://www.w3.org/2000/svg" width="20" height="20" fill="currentColor" viewBox="0 0 16 16"><path fill-rule="evenodd" d="M6.5 12a5.5 5.5 0 1 0 0-11 5.5 5.5 0 0 0 0 11zM13 6.5a6.5 6.5 0 1 1-13 0 6.5 6.5 0 0 1 13 0z"></path><path d="M10.344 11.742c.03.04.062.078.098.115l3.85 3.85a1 1 0 0 0 1.415-1.414l-3.85-3.85a1.007 1.007 0 0 0-.115-.1 6.538 6.538 0 0 1-1.398 1.4z"></path><path fill-rule="evenodd" d="M6.5 3a.5.5 0 0 1 .5.5V6h2.5a.5.5 0 0 1 0 1H7v2.5a.5.5 0 0 1-1 0V7H3.5a.5.5 0 0 1 0-1H6V3.5a.5.5 0 0 1 .5-.5z"></path></svg></g><g ></g><g ></g><g ></g></g><image  id="v-1582"></image></g></g><g   id="j_127"  transform="translate(1670,1900)" style=""><g  id="v-1583" style="opacity: 1;"><rect  id="v-1584" rx="20" ry="20" stroke="#3c7fc0" stroke-width="2" pointer-events="visiblePainted" fill="#438dd5" width="450" height="300" style="fill: rgb(67, 141, 213); stroke: rgb(60, 127, 192);"></rect><text  id="v-1585" font-size="34" xml:space="preserve" y="0.8em" font-weight="bold" text-anchor="middle" pointer-events="visible" font-family="Open Sans" fill="#ffffff" transform="matrix(1,0,0,1,225,113.0999984741211)" style="fill: rgb(255, 255, 255);"><tspan  dy="0">Person API</tspan></text><text  id="v-1586" font-size="17" xml:space="preserve" y="0.8em" text-anchor="middle" font-family="Open Sans" fill="#ffffff" transform="matrix(1,0,0,1,225,155.60000610351562)" style="fill: rgb(255, 255, 255);"><tspan  dy="0">[Container: Asp.Net Core]</tspan></text><text  id="v-1587" font-size="24" xml:space="preserve" display="none" y="0.8em" text-anchor="middle" font-family="Open Sans" fill="#ffffff" transform="matrix(1,0,0,1,225,186.89999389648438)" style="fill: rgb(255, 255, 255);"><tspan style="fill-opacity: 0; stroke-opacity: 0;"  dy="0">-</tspan></text><g  id="v-1588" color="#ffffff" transform="matrix(1,0,0,1,210,196.89999389648438)" style="fill: rgb(255, 255, 255);" display="none"><g  transform="translate(5 0)"><svg xmlns="http://www.w3.org/2000/svg" width="20" height="20" fill="currentColor" viewBox="0 0 16 16"><path fill-rule="evenodd" d="M6.5 12a5.5 5.5 0 1 0 0-11 5.5 5.5 0 0 0 0 11zM13 6.5a6.5 6.5 0 1 1-13 0 6.5 6.5 0 0 1 13 0z"></path><path d="M10.344 11.742c.03.04.062.078.098.115l3.85 3.85a1 1 0 0 0 1.415-1.414l-3.85-3.85a1.007 1.007 0 0 0-.115-.1 6.538 6.538 0 0 1-1.398 1.4z"></path><path fill-rule="evenodd" d="M6.5 3a.5.5 0 0 1 .5.5V6h2.5a.5.5 0 0 1 0 1H7v2.5a.5.5 0 0 1-1 0V7H3.5a.5.5 0 0 1 0-1H6V3.5a.5.5 0 0 1 .5-.5z"></path></svg></g><g ></g><g ></g><g ></g></g><image  id="v-1589"></image></g></g><g   id="j_128"  transform="translate(2395,1900)" style=""><g  id="v-1593" style="opacity: 1;"><rect  id="v-1594" rx="20" ry="20" stroke="#3c7fc0" stroke-width="2" pointer-events="visiblePainted" fill="#438dd5" width="450" height="300" style="fill: rgb(67, 141, 213); stroke: rgb(60, 127, 192);"></rect><text  id="v-1595" font-size="34" xml:space="preserve" y="0.8em" font-weight="bold" text-anchor="middle" pointer-events="visible" font-family="Open Sans" fill="#ffffff" transform="matrix(1,0,0,1,225,113.0999984741211)" style="fill: rgb(255, 255, 255);"><tspan  dy="0">Organisation API</tspan></text><text  id="v-1596" font-size="17" xml:space="preserve" y="0.8em" text-anchor="middle" font-family="Open Sans" fill="#ffffff" transform="matrix(1,0,0,1,225,155.60000610351562)" style="fill: rgb(255, 255, 255);"><tspan  dy="0">[Container: Asp.Net Core]</tspan></text><text  id="v-1597" font-size="24" xml:space="preserve" display="none" y="0.8em" text-anchor="middle" font-family="Open Sans" fill="#ffffff" transform="matrix(1,0,0,1,225,186.89999389648438)" style="fill: rgb(255, 255, 255);"><tspan style="fill-opacity: 0; stroke-opacity: 0;"  dy="0">-</tspan></text><g  id="v-1598" color="#ffffff" transform="matrix(1,0,0,1,210,196.89999389648438)" style="fill: rgb(255, 255, 255);" display="none"><g  transform="translate(5 0)"><svg xmlns="http://www.w3.org/2000/svg" width="20" height="20" fill="currentColor" viewBox="0 0 16 16"><path fill-rule="evenodd" d="M6.5 12a5.5 5.5 0 1 0 0-11 5.5 5.5 0 0 0 0 11zM13 6.5a6.5 6.5 0 1 1-13 0 6.5 6.5 0 0 1 13 0z"></path><path d="M10.344 11.742c.03.04.062.078.098.115l3.85 3.85a1 1 0 0 0 1.415-1.414l-3.85-3.85a1.007 1.007 0 0 0-.115-.1 6.538 6.538 0 0 1-1.398 1.4z"></path><path fill-rule="evenodd" d="M6.5 3a.5.5 0 0 1 .5.5V6h2.5a.5.5 0 0 1 0 1H7v2.5a.5.5 0 0 1-1 0V7H3.5a.5.5 0 0 1 0-1H6V3.5a.5.5 0 0 1 .5-.5z"></path></svg></g><g ></g><g ></g><g ></g></g><image  id="v-1599"></image></g></g><g   id="j_129"  transform="translate(3100,1900)" style=""><g  id="v-1600" style="opacity: 1;"><rect  id="v-1601" rx="20" ry="20" stroke="#3c7fc0" stroke-width="2" pointer-events="visiblePainted" fill="#438dd5" width="450" height="300" style="fill: rgb(67, 141, 213); stroke: rgb(60, 127, 192);"></rect><text  id="v-1602" font-size="34" xml:space="preserve" y="0.8em" font-weight="bold" text-anchor="middle" pointer-events="visible" font-family="Open Sans" fill="#ffffff" transform="matrix(1,0,0,1,225,113.0999984741211)" style="fill: rgb(255, 255, 255);"><tspan  dy="0">Forms API</tspan></text><text  id="v-1603" font-size="17" xml:space="preserve" y="0.8em" text-anchor="middle" font-family="Open Sans" fill="#ffffff" transform="matrix(1,0,0,1,225,155.60000610351562)" style="fill: rgb(255, 255, 255);"><tspan  dy="0">[Container: Asp.Net Core]</tspan></text><text  id="v-1604" font-size="24" xml:space="preserve" display="none" y="0.8em" text-anchor="middle" font-family="Open Sans" fill="#ffffff" transform="matrix(1,0,0,1,225,186.89999389648438)" style="fill: rgb(255, 255, 255);"><tspan style="fill-opacity: 0; stroke-opacity: 0;"  dy="0">-</tspan></text><g  id="v-1605" color="#ffffff" transform="matrix(1,0,0,1,210,196.89999389648438)" style="fill: rgb(255, 255, 255);" display="none"><g  transform="translate(5 0)"><svg xmlns="http://www.w3.org/2000/svg" width="20" height="20" fill="currentColor" viewBox="0 0 16 16"><path fill-rule="evenodd" d="M6.5 12a5.5 5.5 0 1 0 0-11 5.5 5.5 0 0 0 0 11zM13 6.5a6.5 6.5 0 1 1-13 0 6.5 6.5 0 0 1 13 0z"></path><path d="M10.344 11.742c.03.04.062.078.098.115l3.85 3.85a1 1 0 0 0 1.415-1.414l-3.85-3.85a1.007 1.007 0 0 0-.115-.1 6.538 6.538 0 0 1-1.398 1.4z"></path><path fill-rule="evenodd" d="M6.5 3a.5.5 0 0 1 .5.5V6h2.5a.5.5 0 0 1 0 1H7v2.5a.5.5 0 0 1-1 0V7H3.5a.5.5 0 0 1 0-1H6V3.5a.5.5 0 0 1 .5-.5z"></path></svg></g><g ></g><g ></g><g ></g></g><image  id="v-1606"></image></g></g><g   id="j_130"  transform="translate(3795,1900)" style=""><g  id="v-1610" style="opacity: 1;"><rect  id="v-1611" rx="20" ry="20" stroke="#3c7fc0" stroke-width="2" pointer-events="visiblePainted" fill="#438dd5" width="450" height="300" style="fill: rgb(67, 141, 213); stroke: rgb(60, 127, 192);"></rect><text  id="v-1612" font-size="34" xml:space="preserve" y="0.8em" font-weight="bold" text-anchor="middle" pointer-events="visible" font-family="Open Sans" fill="#ffffff" transform="matrix(1,0,0,1,225,113.0999984741211)" style="fill: rgb(255, 255, 255);"><tspan  dy="0">Data Sharing API</tspan></text><text  id="v-1613" font-size="17" xml:space="preserve" y="0.8em" text-anchor="middle" font-family="Open Sans" fill="#ffffff" transform="matrix(1,0,0,1,225,155.60000610351562)" style="fill: rgb(255, 255, 255);"><tspan  dy="0">[Container: Asp.Net Core]</tspan></text><text  id="v-1614" font-size="24" xml:space="preserve" display="none" y="0.8em" text-anchor="middle" font-family="Open Sans" fill="#ffffff" transform="matrix(1,0,0,1,225,186.89999389648438)" style="fill: rgb(255, 255, 255);"><tspan style="fill-opacity: 0; stroke-opacity: 0;"  dy="0">-</tspan></text><g  id="v-1615" color="#ffffff" transform="matrix(1,0,0,1,210,196.89999389648438)" style="fill: rgb(255, 255, 255);" display="none"><g  transform="translate(5 0)"><svg xmlns="http://www.w3.org/2000/svg" width="20" height="20" fill="currentColor" viewBox="0 0 16 16"><path fill-rule="evenodd" d="M6.5 12a5.5 5.5 0 1 0 0-11 5.5 5.5 0 0 0 0 11zM13 6.5a6.5 6.5 0 1 1-13 0 6.5 6.5 0 0 1 13 0z"></path><path d="M10.344 11.742c.03.04.062.078.098.115l3.85 3.85a1 1 0 0 0 1.415-1.414l-3.85-3.85a1.007 1.007 0 0 0-.115-.1 6.538 6.538 0 0 1-1.398 1.4z"></path><path fill-rule="evenodd" d="M6.5 3a.5.5 0 0 1 .5.5V6h2.5a.5.5 0 0 1 0 1H7v2.5a.5.5 0 0 1-1 0V7H3.5a.5.5 0 0 1 0-1H6V3.5a.5.5 0 0 1 .5-.5z"></path></svg></g><g ></g><g ></g><g ></g></g><image  id="v-1616"></image></g></g><g   id="j_132"  transform="translate(940,660)" style=""><g id="v-1630"><rect  id="v-1631" width="3325" height="1036" rx="0" ry="0" fill="#ffffff" stroke="#3c7fc0" stroke-width="1" stroke-dasharray="20,20" pointer-events="none"></rect><text  id="v-1632" font-size="24px" xml:space="preserve" y="997" font-weight="normal" fill="#3c7fc0" text-anchor="start" pointer-events="visible" font-family="Open Sans" transform="matrix(1,0,0,1,15,0)"><tspan  dy="0">Web Application</tspan></text><text  id="v-1633" font-size="17px" xml:space="preserve" y="1021" font-weight="normal" fill="#3c7fc0" text-anchor="start" pointer-events="visible" font-family="Open Sans" transform="matrix(1,0,0,1,15,0)"><tspan  dy="0">[Container]</tspan></text><image  id="v-1634" pointer-events="visible"></image></g></g><g   id="j_131"  transform="translate(2395,680)" style=""><g  id="v-1623" style="opacity: 1;"><rect  id="v-1624" rx="20" ry="20" stroke="#78a8d8" stroke-width="2" pointer-events="visiblePainted" fill="#85bbf0" width="450" height="300" style="fill: rgb(133, 187, 240); stroke: rgb(120, 168, 216);"></rect><text  id="v-1625" font-size="34" xml:space="preserve" y="0.8em" font-weight="bold" text-anchor="middle" pointer-events="visible" font-family="Open Sans" fill="#000000" transform="matrix(1,0,0,1,225,83.0999984741211)" style="fill: rgb(0, 0, 0);"><tspan  dy="0">MVC Controller</tspan></text><text  id="v-1626" font-size="17" xml:space="preserve" y="0.8em" text-anchor="middle" font-family="Open Sans" fill="#000000" transform="matrix(1,0,0,1,225,125.5999984741211)" style="fill: rgb(0, 0, 0);"><tspan  dy="0">[Component: Asp.Net Core MVC Controller]</tspan></text><text  id="v-1627" font-size="24" xml:space="preserve" y="0.8em" text-anchor="middle" font-family="Open Sans" fill="#000000" transform="matrix(1,0,0,1,225,156.89999389648438)" style="fill: rgb(0, 0, 0);"><tspan  dy="0">Enables web users to perform</tspan><tspan dy="1.2em" x="0" >tasks.</tspan></text><g  id="v-1628" color="#000000" transform="matrix(1,0,0,1,222.5,226.89999389648438)" style="fill: rgb(0, 0, 0);" display="none"><g ></g><g ></g><g ></g><g ></g></g><image  id="v-1629"></image></g></g><g   id="j_133"  transform="translate(960,1305)" style=""><g  id="v-1638" style="opacity: 1;"><rect  id="v-1639" rx="20" ry="20" stroke="#78a8d8" stroke-width="2" pointer-events="visiblePainted" fill="#85bbf0" width="450" height="300" style="fill: rgb(133, 187, 240); stroke: rgb(120, 168, 216);"></rect><text  id="v-1640" font-size="34" xml:space="preserve" y="0.8em" font-weight="bold" text-anchor="middle" pointer-events="visible" font-family="Open Sans" fill="#000000" transform="matrix(1,0,0,1,225,98.0999984741211)" style="fill: rgb(0, 0, 0);"><tspan  dy="0">Tenant Client</tspan></text><text  id="v-1641" font-size="17" xml:space="preserve" y="0.8em" text-anchor="middle" font-family="Open Sans" fill="#000000" transform="matrix(1,0,0,1,225,140.60000610351562)" style="fill: rgb(0, 0, 0);"><tspan  dy="0">[Component: library]</tspan></text><text  id="v-1642" font-size="24" xml:space="preserve" y="0.8em" text-anchor="middle" font-family="Open Sans" fill="#000000" transform="matrix(1,0,0,1,225,171.89999389648438)" style="fill: rgb(0, 0, 0);"><tspan  dy="0">Makes API calls to the Tenant API</tspan></text><g  id="v-1643" color="#000000" transform="matrix(1,0,0,1,222.5,211.89999389648438)" style="fill: rgb(0, 0, 0);" display="none"><g ></g><g ></g><g ></g><g ></g></g><image  id="v-1644"></image></g></g><g   id="j_134"  transform="translate(1670,1305)" style=""><g  id="v-1648" style="opacity: 1;"><rect  id="v-1649" rx="20" ry="20" stroke="#78a8d8" stroke-width="2" pointer-events="visiblePainted" fill="#85bbf0" width="450" height="300" style="fill: rgb(133, 187, 240); stroke: rgb(120, 168, 216);"></rect><text  id="v-1650" font-size="34" xml:space="preserve" y="0.8em" font-weight="bold" text-anchor="middle" pointer-events="visible" font-family="Open Sans" fill="#000000" transform="matrix(1,0,0,1,225,98.0999984741211)" style="fill: rgb(0, 0, 0);"><tspan  dy="0">Person Client</tspan></text><text  id="v-1651" font-size="17" xml:space="preserve" y="0.8em" text-anchor="middle" font-family="Open Sans" fill="#000000" transform="matrix(1,0,0,1,225,140.60000610351562)" style="fill: rgb(0, 0, 0);"><tspan  dy="0">[Component: library]</tspan></text><text  id="v-1652" font-size="24" xml:space="preserve" y="0.8em" text-anchor="middle" font-family="Open Sans" fill="#000000" transform="matrix(1,0,0,1,225,171.89999389648438)" style="fill: rgb(0, 0, 0);"><tspan  dy="0">Makes API calls to the Person API</tspan></text><g  id="v-1653" color="#000000" transform="matrix(1,0,0,1,222.5,211.89999389648438)" style="fill: rgb(0, 0, 0);" display="none"><g ></g><g ></g><g ></g><g ></g></g><image  id="v-1654"></image></g></g><g   id="j_135"  transform="translate(2395,1305)" style=""><g  id="v-1661" style="opacity: 1;"><rect  id="v-1662" rx="20" ry="20" stroke="#78a8d8" stroke-width="2" pointer-events="visiblePainted" fill="#85bbf0" width="450" height="300" style="fill: rgb(133, 187, 240); stroke: rgb(120, 168, 216);"></rect><text  id="v-1663" font-size="34" xml:space="preserve" y="0.8em" font-weight="bold" text-anchor="middle" pointer-events="visible" font-family="Open Sans" fill="#000000" transform="matrix(1,0,0,1,225,83.0999984741211)" style="fill: rgb(0, 0, 0);"><tspan  dy="0">Organisation Client</tspan></text><text  id="v-1664" font-size="17" xml:space="preserve" y="0.8em" text-anchor="middle" font-family="Open Sans" fill="#000000" transform="matrix(1,0,0,1,225,125.5999984741211)" style="fill: rgb(0, 0, 0);"><tspan  dy="0">[Component: library]</tspan></text><text  id="v-1665" font-size="24" xml:space="preserve" y="0.8em" text-anchor="middle" font-family="Open Sans" fill="#000000" transform="matrix(1,0,0,1,225,156.89999389648438)" style="fill: rgb(0, 0, 0);"><tspan  dy="0">Makes API calls to the Organisation</tspan><tspan dy="1.2em" x="0" >API</tspan></text><g  id="v-1666" color="#000000" transform="matrix(1,0,0,1,222.5,226.89999389648438)" style="fill: rgb(0, 0, 0);" display="none"><g ></g><g ></g><g ></g><g ></g></g><image  id="v-1667"></image></g></g><g   id="j_136"  transform="translate(3100,1305)" style=""><g  id="v-1671" style="opacity: 1;"><rect  id="v-1672" rx="20" ry="20" stroke="#78a8d8" stroke-width="2" pointer-events="visiblePainted" fill="#85bbf0" width="450" height="300" style="fill: rgb(133, 187, 240); stroke: rgb(120, 168, 216);"></rect><text  id="v-1673" font-size="34" xml:space="preserve" y="0.8em" font-weight="bold" text-anchor="middle" pointer-events="visible" font-family="Open Sans" fill="#000000" transform="matrix(1,0,0,1,225,98.0999984741211)" style="fill: rgb(0, 0, 0);"><tspan  dy="0">Forms Client</tspan></text><text  id="v-1674" font-size="17" xml:space="preserve" y="0.8em" text-anchor="middle" font-family="Open Sans" fill="#000000" transform="matrix(1,0,0,1,225,140.60000610351562)" style="fill: rgb(0, 0, 0);"><tspan  dy="0">[Component: library]</tspan></text><text  id="v-1675" font-size="24" xml:space="preserve" y="0.8em" text-anchor="middle" font-family="Open Sans" fill="#000000" transform="matrix(1,0,0,1,225,171.89999389648438)" style="fill: rgb(0, 0, 0);"><tspan  dy="0">Makes API calls to the Forms API</tspan></text><g  id="v-1676" color="#000000" transform="matrix(1,0,0,1,222.5,211.89999389648438)" style="fill: rgb(0, 0, 0);" display="none"><g ></g><g ></g><g ></g><g ></g></g><image  id="v-1677"></image></g></g><g   id="j_137"  transform="translate(3795,1305)" style=""><g  id="v-1684" style="opacity: 1;"><rect  id="v-1685" rx="20" ry="20" stroke="#78a8d8" stroke-width="2" pointer-events="visiblePainted" fill="#85bbf0" width="450" height="300" style="fill: rgb(133, 187, 240); stroke: rgb(120, 168, 216);"></rect><text  id="v-1686" font-size="34" xml:space="preserve" y="0.8em" font-weight="bold" text-anchor="middle" pointer-events="visible" font-family="Open Sans" fill="#000000" transform="matrix(1,0,0,1,225,83.0999984741211)" style="fill: rgb(0, 0, 0);"><tspan  dy="0">Data Sharing Client</tspan></text><text  id="v-1687" font-size="17" xml:space="preserve" y="0.8em" text-anchor="middle" font-family="Open Sans" fill="#000000" transform="matrix(1,0,0,1,225,125.5999984741211)" style="fill: rgb(0, 0, 0);"><tspan  dy="0">[Component: library]</tspan></text><text  id="v-1688" font-size="24" xml:space="preserve" y="0.8em" text-anchor="middle" font-family="Open Sans" fill="#000000" transform="matrix(1,0,0,1,225,156.89999389648438)" style="fill: rgb(0, 0, 0);"><tspan  dy="0">Makes API calls to the Data Sharing</tspan><tspan dy="1.2em" x="0" >API</tspan></text><g  id="v-1689" color="#000000" transform="matrix(1,0,0,1,222.5,226.89999389648438)" style="fill: rgb(0, 0, 0);" display="none"><g ></g><g ></g><g ></g><g ></g></g><image  id="v-1690"></image></g></g><g   id="j_138" ><path  stroke="#707070" d="M 2613 445 L 2610 540 C 2610 546.6666666666666 2610 553.3333333333333 2610 560 L 2615 680" id="v-1704" stroke-width="2" stroke-dasharray="30 30" fill="none" style="opacity: 1;"></path><path  fill="black" stroke="black" d="M 0 0 0 0" transform="matrix(-0.03274437040090561,0.9994637370109558,-0.9994637370109558,-0.03274437040090561,2613.43994140625,445)"></path><path  fill="#707070" stroke="#707070" d="M 20 0 L 0 10 L 20 20 z" id="v-1706" transform="matrix(-0.03566973656415939,-0.9993636608123779,0.9993636608123779,-0.03566973656415939,2604.646240234375,680.356689453125)" style="opacity: 1;"></path><path  d="M 2613 445 L 2610 540 C 2610 546.6666666666666 2610 553.3333333333333 2610 560 L 2615 680" id="v-1705" fill="none" style="cursor: default;"></path><g ><g id="v-1695"  label-idx="0" cursor="move" transform="matrix(1,0,0,1,2610.105224609375,562.5261840820312)" style="cursor: default; opacity: 1;"><rect joint-selector="rect" id="v-1699" fill="#ffffff" rx="3" ry="3" pointer-events="none" width="59.900001525878906" height="34.49999809265137" transform="matrix(1,0,0,1,-30,-17.299999237060547)"></rect><text joint-selector="text" id="v-1698" font-size="24px" xml:space="preserve" y="0.8em" fill="#707070" text-anchor="middle" pointer-events="none" font-family="Open Sans" font-weight="normal" transform="matrix(1,0,0,1,0,-9.5)"><tspan  dy="0">Uses</tspan></text></g><g id="v-1696"  label-idx="1" cursor="move" transform="matrix(1,0,0,1,2610.105224609375,589.5261840820312)" style="cursor: default; opacity: 1;"><rect joint-selector="rect" id="v-1701" fill="#ffffff" rx="3" ry="3" pointer-events="none" width="66.15833282470703" height="24.4375" transform="matrix(1,0,0,1,-33.099998474121094,-12.199999809265137)"></rect><text joint-selector="text" id="v-1700" font-size="17px" xml:space="preserve" y="0.8em" fill="#707070" text-anchor="middle" pointer-events="none" font-family="Open Sans" font-weight="normal" transform="matrix(1,0,0,1,0,-6.699999809265137)"><tspan  dy="0">[HTTPS]</tspan></text></g><g id="v-1697"  label-idx="2" cursor="move" transform="matrix(1,0,0,1,2600.105224609375,598.7761840820312)" style="cursor: default; opacity: 1;"><rect joint-selector="rect" id="v-1703" fill="#ffffff" rx="3" ry="3"  width="0" height="0" transform="matrix(1,0,0,1,0,0)" display="none"></rect><text joint-selector="text" id="v-1702" fill="#000000" font-size="14" text-anchor="middle" pointer-events="none"></text></g></g><g  display="none"><g  transform="translate(2610, 550)" id="v-1692"><circle  idx="0" r="10"></circle><path  idx="0" d="M16,5.333c-7.732,0-14,4.701-14,10.5c0,1.982,0.741,3.833,2.016,5.414L2,25.667l5.613-1.441c2.339,1.317,5.237,2.107,8.387,2.107c7.732,0,14-4.701,14-10.5C30,10.034,23.732,5.333,16,5.333z" transform="translate(5, -33)"></path><path  idx="0" transform="scale(.8) translate(9.5, -37)" d="M24.778,21.419 19.276,15.917 24.777,10.415 21.949,7.585 16.447,13.087 10.945,7.585 8.117,10.415 13.618,15.917 8.116,21.419 10.946,24.248 16.447,18.746 21.948,24.248z"><title>Remove vertex.</title></path></g></g><g  id="v-1708" display="none"><g  id="v-1693"><path  end="source" d="M 26 0 L 0 13 L 26 26 z"></path></g><g  id="v-1694"><path  end="target" d="M 26 0 L 0 13 L 26 26 z"></path></g></g><g  id="v-1707" display="none"><g  id="v-1691" transform="translate(2611.737471464012, 484.98007030628906) "><g  event="remove"><circle r="11"></circle><path transform="scale(.8) translate(-16, -16)" d="M24.778,21.419 19.276,15.917 24.777,10.415 21.949,7.585 16.447,13.087 10.945,7.585 8.117,10.415 13.618,15.917 8.116,21.419 10.946,24.248 16.447,18.746 21.948,24.248z"></path><title>Remove link.</title></g><g  event="link:options"><circle r="11" transform="translate(25)"></circle><path fill="white" transform="scale(.55) translate(29, -16)" d="M31.229,17.736c0.064-0.571,0.104-1.148,0.104-1.736s-0.04-1.166-0.104-1.737l-4.377-1.557c-0.218-0.716-0.504-1.401-0.851-2.05l1.993-4.192c-0.725-0.91-1.549-1.734-2.458-2.459l-4.193,1.994c-0.647-0.347-1.334-0.632-2.049-0.849l-1.558-4.378C17.165,0.708,16.588,0.667,16,0.667s-1.166,0.041-1.737,0.105L12.707,5.15c-0.716,0.217-1.401,0.502-2.05,0.849L6.464,4.005C5.554,4.73,4.73,5.554,4.005,6.464l1.994,4.192c-0.347,0.648-0.632,1.334-0.849,2.05l-4.378,1.557C0.708,14.834,0.667,15.412,0.667,16s0.041,1.165,0.105,1.736l4.378,1.558c0.217,0.715,0.502,1.401,0.849,2.049l-1.994,4.193c0.725,0.909,1.549,1.733,2.459,2.458l4.192-1.993c0.648,0.347,1.334,0.633,2.05,0.851l1.557,4.377c0.571,0.064,1.148,0.104,1.737,0.104c0.588,0,1.165-0.04,1.736-0.104l1.558-4.377c0.715-0.218,1.399-0.504,2.049-0.851l4.193,1.993c0.909-0.725,1.733-1.549,2.458-2.458l-1.993-4.193c0.347-0.647,0.633-1.334,0.851-2.049L31.229,17.736zM16,20.871c-2.69,0-4.872-2.182-4.872-4.871c0-2.69,2.182-4.872,4.872-4.872c2.689,0,4.871,2.182,4.871,4.872C20.871,18.689,18.689,20.871,16,20.871z"></path><title>Link options.</title></g></g></g></g><g   id="j_139" ><path  stroke="#707070" d="M 2395 832 L 570 853" id="v-1724" stroke-width="2" stroke-dasharray="30 30" fill="none" style="opacity: 1;"></path><path  fill="black" stroke="black" d="M 0 0 0 0" transform="matrix(-0.9999396204948425,0.010991177521646023,-0.010991177521646023,-0.9999396204948425,2395,832.469970703125)"></path><path  fill="#707070" stroke="#707070" d="M 20 0 L 0 10 L 20 20 z" id="v-1726" transform="matrix(0.9999396204948425,-0.010991177521646023,0.010991177521646023,0.9999396204948425,569.8900756835938,842.5306396484375)" style="opacity: 1;"></path><path  d="M 2395 832 L 570 853" id="v-1725" fill="none" style="cursor: default;"></path><g ><g id="v-1715"  label-idx="0" cursor="move" transform="matrix(1,0,0,1,1482.5,842.5)" style="cursor: default; opacity: 1;"><rect joint-selector="rect" id="v-1719" fill="#ffffff" rx="3" ry="3" pointer-events="none" width="160.3000030517578" height="63.299997329711914" transform="matrix(1,0,0,1,-80.19999694824219,-31.700000762939453)"></rect><text joint-selector="text" id="v-1718" font-size="24px" xml:space="preserve" y="0.8em" fill="#707070" text-anchor="middle" pointer-events="none" font-family="Open Sans" font-weight="normal" transform="matrix(1,0,0,1,0,-23.899999618530273)"><tspan  dy="0">Authenticates</tspan><tspan dy="1.2em" x="0" >with</tspan></text></g><g id="v-1716"  label-idx="1" cursor="move" transform="matrix(1,0,0,1,1482.5,884.5)" style="cursor: default; opacity: 1;"><rect joint-selector="rect" id="v-1721" fill="#ffffff" rx="3" ry="3" pointer-events="none" width="66.15833282470703" height="24.4375" transform="matrix(1,0,0,1,-33.099998474121094,-12.199999809265137)"></rect><text joint-selector="text" id="v-1720" font-size="17px" xml:space="preserve" y="0.8em" fill="#707070" text-anchor="middle" pointer-events="none" font-family="Open Sans" font-weight="normal" transform="matrix(1,0,0,1,0,-6.699999809265137)"><tspan  dy="0">[HTTPS]</tspan></text></g><g id="v-1717"  label-idx="2" cursor="move" transform="matrix(1,0,0,1,1472.5,893.75)" style="cursor: default; opacity: 1;"><rect joint-selector="rect" id="v-1723" fill="#ffffff" rx="3" ry="3"  width="0" height="0" transform="matrix(1,0,0,1,0,0)" display="none"></rect><text joint-selector="text" id="v-1722" fill="#000000" font-size="14" text-anchor="middle" pointer-events="none"></text></g></g><g  display="none"></g><g  id="v-1728" display="none"><g  id="v-1713"><path  end="source" d="M 26 0 L 0 13 L 26 26 z"></path></g><g  id="v-1714"><path  end="target" d="M 26 0 L 0 13 L 26 26 z"></path></g></g><g  id="v-1727" display="none"><g  id="v-1712" transform="translate(2355.0026478886757, 832.4602435037467) "><g  event="remove"><circle r="11"></circle><path transform="scale(.8) translate(-16, -16)" d="M24.778,21.419 19.276,15.917 24.777,10.415 21.949,7.585 16.447,13.087 10.945,7.585 8.117,10.415 13.618,15.917 8.116,21.419 10.946,24.248 16.447,18.746 21.948,24.248z"></path><title>Remove link.</title></g><g  event="link:options"><circle r="11" transform="translate(25)"></circle><path fill="white" transform="scale(.55) translate(29, -16)" d="M31.229,17.736c0.064-0.571,0.104-1.148,0.104-1.736s-0.04-1.166-0.104-1.737l-4.377-1.557c-0.218-0.716-0.504-1.401-0.851-2.05l1.993-4.192c-0.725-0.91-1.549-1.734-2.458-2.459l-4.193,1.994c-0.647-0.347-1.334-0.632-2.049-0.849l-1.558-4.378C17.165,0.708,16.588,0.667,16,0.667s-1.166,0.041-1.737,0.105L12.707,5.15c-0.716,0.217-1.401,0.502-2.05,0.849L6.464,4.005C5.554,4.73,4.73,5.554,4.005,6.464l1.994,4.192c-0.347,0.648-0.632,1.334-0.849,2.05l-4.378,1.557C0.708,14.834,0.667,15.412,0.667,16s0.041,1.165,0.105,1.736l4.378,1.558c0.217,0.715,0.502,1.401,0.849,2.049l-1.994,4.193c0.725,0.909,1.549,1.733,2.459,2.458l4.192-1.993c0.648,0.347,1.334,0.633,2.05,0.851l1.557,4.377c0.571,0.064,1.148,0.104,1.737,0.104c0.588,0,1.165-0.04,1.736-0.104l1.558-4.377c0.715-0.218,1.399-0.504,2.049-0.851l4.193,1.993c0.909-0.725,1.733-1.549,2.458-2.458l-1.993-4.193c0.347-0.647,0.633-1.334,0.851-2.049L31.229,17.736zM16,20.871c-2.69,0-4.872-2.182-4.872-4.871c0-2.69,2.182-4.872,4.872-4.872c2.689,0,4.871,2.182,4.871,4.872C20.871,18.689,18.689,20.871,16,20.871z"></path><title>Link options.</title></g></g></g></g><g   id="j_140" ><path  stroke="#707070" d="M 2845 829 L 4390 821" id="v-1744" stroke-width="2" stroke-dasharray="30 30" fill="none" style="opacity: 1;"></path><path  fill="black" stroke="black" d="M 0 0 0 0" transform="matrix(0.9999874234199524,-0.0050093852914869785,0.0050093852914869785,0.9999874234199524,2845,828.8699951171875)"></path><path  fill="#707070" stroke="#707070" d="M 20 0 L 0 10 L 20 20 z" id="v-1746" transform="matrix(-0.9999874234199524,0.005009651184082031,-0.005009651184082031,-0.9999874234199524,4390.0498046875,831.1298828125)" style="opacity: 1;"></path><path  d="M 2845 829 L 4390 821" id="v-1745" fill="none" style="cursor: default;"></path><g ><g id="v-1735"  label-idx="0" cursor="move" transform="matrix(1,0,0,1,3617.5,825)" style="cursor: default; opacity: 1;"><rect joint-selector="rect" id="v-1739" fill="#ffffff" rx="3" ry="3" pointer-events="none" width="173" height="92.10000228881836" transform="matrix(1,0,0,1,-86.5,-46.099998474121094)"></rect><text joint-selector="text" id="v-1738" font-size="24px" xml:space="preserve" y="0.8em" fill="#707070" text-anchor="middle" pointer-events="none" font-family="Open Sans" font-weight="normal" transform="matrix(1,0,0,1,0,-38.29999923706055)"><tspan  dy="0">Authenticates</tspan><tspan dy="1.2em" x="0" >and authorises</tspan><tspan dy="1.2em" x="0" >with</tspan></text></g><g id="v-1736"  label-idx="1" cursor="move" transform="matrix(1,0,0,1,3617.5,882)" style="cursor: default; opacity: 1;"><rect joint-selector="rect" id="v-1741" fill="#ffffff" rx="3" ry="3" pointer-events="none" width="66.15833282470703" height="24.4375" transform="matrix(1,0,0,1,-33.099998474121094,-12.199999809265137)"></rect><text joint-selector="text" id="v-1740" font-size="17px" xml:space="preserve" y="0.8em" fill="#707070" text-anchor="middle" pointer-events="none" font-family="Open Sans" font-weight="normal" transform="matrix(1,0,0,1,0,-6.699999809265137)"><tspan  dy="0">[HTTPS]</tspan></text></g><g id="v-1737"  label-idx="2" cursor="move" transform="matrix(1,0,0,1,3607.5,891.25)" style="cursor: default; opacity: 1;"><rect joint-selector="rect" id="v-1743" fill="#ffffff" rx="3" ry="3"  width="0" height="0" transform="matrix(1,0,0,1,0,0)" display="none"></rect><text joint-selector="text" id="v-1742" fill="#000000" font-size="14" text-anchor="middle" pointer-events="none"></text></g></g><g  display="none"></g><g  id="v-1748" display="none"><g  id="v-1733"><path  end="source" d="M 26 0 L 0 13 L 26 26 z"></path></g><g  id="v-1734"><path  end="target" d="M 26 0 L 0 13 L 26 26 z"></path></g></g><g  id="v-1747" display="none"><g  id="v-1732" transform="translate(2884.9994637784434, 828.7928830354514) "><g  event="remove"><circle r="11"></circle><path transform="scale(.8) translate(-16, -16)" d="M24.778,21.419 19.276,15.917 24.777,10.415 21.949,7.585 16.447,13.087 10.945,7.585 8.117,10.415 13.618,15.917 8.116,21.419 10.946,24.248 16.447,18.746 21.948,24.248z"></path><title>Remove link.</title></g><g  event="link:options"><circle r="11" transform="translate(25)"></circle><path fill="white" transform="scale(.55) translate(29, -16)" d="M31.229,17.736c0.064-0.571,0.104-1.148,0.104-1.736s-0.04-1.166-0.104-1.737l-4.377-1.557c-0.218-0.716-0.504-1.401-0.851-2.05l1.993-4.192c-0.725-0.91-1.549-1.734-2.458-2.459l-4.193,1.994c-0.647-0.347-1.334-0.632-2.049-0.849l-1.558-4.378C17.165,0.708,16.588,0.667,16,0.667s-1.166,0.041-1.737,0.105L12.707,5.15c-0.716,0.217-1.401,0.502-2.05,0.849L6.464,4.005C5.554,4.73,4.73,5.554,4.005,6.464l1.994,4.192c-0.347,0.648-0.632,1.334-0.849,2.05l-4.378,1.557C0.708,14.834,0.667,15.412,0.667,16s0.041,1.165,0.105,1.736l4.378,1.558c0.217,0.715,0.502,1.401,0.849,2.049l-1.994,4.193c0.725,0.909,1.549,1.733,2.459,2.458l4.192-1.993c0.648,0.347,1.334,0.633,2.05,0.851l1.557,4.377c0.571,0.064,1.148,0.104,1.737,0.104c0.588,0,1.165-0.04,1.736-0.104l1.558-4.377c0.715-0.218,1.399-0.504,2.049-0.851l4.193,1.993c0.909-0.725,1.733-1.549,2.458-2.458l-1.993-4.193c0.347-0.647,0.633-1.334,0.851-2.049L31.229,17.736zM16,20.871c-2.69,0-4.872-2.182-4.872-4.871c0-2.69,2.182-4.872,4.872-4.872c2.689,0,4.871,2.182,4.871,4.872C20.871,18.689,18.689,20.871,16,20.871z"></path><title>Link options.</title></g></g></g></g><g   id="j_141" ><path  stroke="#707070" d="M 2395 928 L 1410 1357" id="v-1758" stroke-width="2" stroke-dasharray="30 30" fill="none" style="opacity: 1;"></path><path  fill="black" stroke="black" d="M 0 0 0 0" transform="matrix(-0.9168183207511902,0.3993046283721924,-0.3993046283721924,-0.9168183207511902,2395,928)"></path><path  fill="#707070" stroke="#707070" d="M 20 0 L 0 10 L 20 20 z" id="v-1760" transform="matrix(0.9168182015419006,-0.3993048667907715,0.3993048667907715,0.9168182015419006,1406.0069580078125,1347.831787109375)" style="opacity: 1;"></path><path  d="M 2395 928 L 1410 1357" id="v-1759" fill="none" style="cursor: default;"></path><g ><g id="v-1752"  label-idx="0" cursor="move" transform="matrix(1,0,0,1,1902.5,1142.5)" style="cursor: default; opacity: 1;"><rect joint-selector="rect" id="v-1755" fill="#ffffff" rx="3" ry="3" pointer-events="none" width="59.900001525878906" height="34.49999809265137" transform="matrix(1,0,0,1,-30,-17.299999237060547)"></rect><text joint-selector="text" id="v-1754" font-size="24px" xml:space="preserve" y="0.8em" fill="#707070" text-anchor="middle" pointer-events="none" font-family="Open Sans" font-weight="normal" transform="matrix(1,0,0,1,0,-9.5)"><tspan  dy="0">Uses</tspan></text></g><g id="v-1753"  label-idx="1" cursor="move" transform="matrix(1,0,0,1,1892.5,1169.5)" style="cursor: default; opacity: 1;"><rect joint-selector="rect" id="v-1757" fill="#ffffff" rx="3" ry="3"  width="0" height="0" transform="matrix(1,0,0,1,0,0)" display="none"></rect><text joint-selector="text" id="v-1756" fill="#000000" font-size="14" text-anchor="middle" pointer-events="none"></text></g></g><g  display="none"></g><g  id="v-1762" display="none"><g  id="v-1750"><path  end="source" d="M 26 0 L 0 13 L 26 26 z"></path></g><g  id="v-1751"><path  end="target" d="M 26 0 L 0 13 L 26 26 z"></path></g></g><g  id="v-1761" display="none"><g  id="v-1749" transform="translate(2358.327267537341, 943.9721850015032) "><g  event="remove"><circle r="11"></circle><path transform="scale(.8) translate(-16, -16)" d="M24.778,21.419 19.276,15.917 24.777,10.415 21.949,7.585 16.447,13.087 10.945,7.585 8.117,10.415 13.618,15.917 8.116,21.419 10.946,24.248 16.447,18.746 21.948,24.248z"></path><title>Remove link.</title></g><g  event="link:options"><circle r="11" transform="translate(25)"></circle><path fill="white" transform="scale(.55) translate(29, -16)" d="M31.229,17.736c0.064-0.571,0.104-1.148,0.104-1.736s-0.04-1.166-0.104-1.737l-4.377-1.557c-0.218-0.716-0.504-1.401-0.851-2.05l1.993-4.192c-0.725-0.91-1.549-1.734-2.458-2.459l-4.193,1.994c-0.647-0.347-1.334-0.632-2.049-0.849l-1.558-4.378C17.165,0.708,16.588,0.667,16,0.667s-1.166,0.041-1.737,0.105L12.707,5.15c-0.716,0.217-1.401,0.502-2.05,0.849L6.464,4.005C5.554,4.73,4.73,5.554,4.005,6.464l1.994,4.192c-0.347,0.648-0.632,1.334-0.849,2.05l-4.378,1.557C0.708,14.834,0.667,15.412,0.667,16s0.041,1.165,0.105,1.736l4.378,1.558c0.217,0.715,0.502,1.401,0.849,2.049l-1.994,4.193c0.725,0.909,1.549,1.733,2.459,2.458l4.192-1.993c0.648,0.347,1.334,0.633,2.05,0.851l1.557,4.377c0.571,0.064,1.148,0.104,1.737,0.104c0.588,0,1.165-0.04,1.736-0.104l1.558-4.377c0.715-0.218,1.399-0.504,2.049-0.851l4.193,1.993c0.909-0.725,1.733-1.549,2.458-2.458l-1.993-4.193c0.347-0.647,0.633-1.334,0.851-2.049L31.229,17.736zM16,20.871c-2.69,0-4.872-2.182-4.872-4.871c0-2.69,2.182-4.872,4.872-4.872c2.689,0,4.871,2.182,4.871,4.872C20.871,18.689,18.689,20.871,16,20.871z"></path><title>Link options.</title></g></g></g></g><g   id="j_142" ><path  stroke="#707070" d="M 2446 980 L 2069 1305" id="v-1772" stroke-width="2" stroke-dasharray="30 30" fill="none" style="opacity: 1;"></path><path  fill="black" stroke="black" d="M 0 0 0 0" transform="matrix(-0.7574098706245422,0.6529396772384644,-0.6529396772384644,-0.7574098706245422,2446,980)"></path><path  fill="#707070" stroke="#707070" d="M 20 0 L 0 10 L 20 20 z" id="v-1774" transform="matrix(0.7574098706245422,-0.6529396772384644,0.6529396772384644,0.7574098706245422,2062.470703125,1297.4259033203125)" style="opacity: 1;"></path><path  d="M 2446 980 L 2069 1305" id="v-1773" fill="none" style="cursor: default;"></path><g ><g id="v-1766"  label-idx="0" cursor="move" transform="matrix(1,0,0,1,2257.5,1142.5)" style="cursor: default; opacity: 1;"><rect joint-selector="rect" id="v-1769" fill="#ffffff" rx="3" ry="3" pointer-events="none" width="59.900001525878906" height="34.49999809265137" transform="matrix(1,0,0,1,-30,-17.299999237060547)"></rect><text joint-selector="text" id="v-1768" font-size="24px" xml:space="preserve" y="0.8em" fill="#707070" text-anchor="middle" pointer-events="none" font-family="Open Sans" font-weight="normal" transform="matrix(1,0,0,1,0,-9.5)"><tspan  dy="0">Uses</tspan></text></g><g id="v-1767"  label-idx="1" cursor="move" transform="matrix(1,0,0,1,2247.5,1169.5)" style="cursor: default; opacity: 1;"><rect joint-selector="rect" id="v-1771" fill="#ffffff" rx="3" ry="3"  width="0" height="0" transform="matrix(1,0,0,1,0,0)" display="none"></rect><text joint-selector="text" id="v-1770" fill="#000000" font-size="14" text-anchor="middle" pointer-events="none"></text></g></g><g  display="none"></g><g  id="v-1776" display="none"><g  id="v-1764"><path  end="source" d="M 26 0 L 0 13 L 26 26 z"></path></g><g  id="v-1765"><path  end="target" d="M 26 0 L 0 13 L 26 26 z"></path></g></g><g  id="v-1775" display="none"><g  id="v-1763" transform="translate(2415.703601535977, 1006.1175848827785) "><g  event="remove"><circle r="11"></circle><path transform="scale(.8) translate(-16, -16)" d="M24.778,21.419 19.276,15.917 24.777,10.415 21.949,7.585 16.447,13.087 10.945,7.585 8.117,10.415 13.618,15.917 8.116,21.419 10.946,24.248 16.447,18.746 21.948,24.248z"></path><title>Remove link.</title></g><g  event="link:options"><circle r="11" transform="translate(25)"></circle><path fill="white" transform="scale(.55) translate(29, -16)" d="M31.229,17.736c0.064-0.571,0.104-1.148,0.104-1.736s-0.04-1.166-0.104-1.737l-4.377-1.557c-0.218-0.716-0.504-1.401-0.851-2.05l1.993-4.192c-0.725-0.91-1.549-1.734-2.458-2.459l-4.193,1.994c-0.647-0.347-1.334-0.632-2.049-0.849l-1.558-4.378C17.165,0.708,16.588,0.667,16,0.667s-1.166,0.041-1.737,0.105L12.707,5.15c-0.716,0.217-1.401,0.502-2.05,0.849L6.464,4.005C5.554,4.73,4.73,5.554,4.005,6.464l1.994,4.192c-0.347,0.648-0.632,1.334-0.849,2.05l-4.378,1.557C0.708,14.834,0.667,15.412,0.667,16s0.041,1.165,0.105,1.736l4.378,1.558c0.217,0.715,0.502,1.401,0.849,2.049l-1.994,4.193c0.725,0.909,1.549,1.733,2.459,2.458l4.192-1.993c0.648,0.347,1.334,0.633,2.05,0.851l1.557,4.377c0.571,0.064,1.148,0.104,1.737,0.104c0.588,0,1.165-0.04,1.736-0.104l1.558-4.377c0.715-0.218,1.399-0.504,2.049-0.851l4.193,1.993c0.909-0.725,1.733-1.549,2.458-2.458l-1.993-4.193c0.347-0.647,0.633-1.334,0.851-2.049L31.229,17.736zM16,20.871c-2.69,0-4.872-2.182-4.872-4.871c0-2.69,2.182-4.872,4.872-4.872c2.689,0,4.871,2.182,4.871,4.872C20.871,18.689,18.689,20.871,16,20.871z"></path><title>Link options.</title></g></g></g></g><g   id="j_143" ><path  stroke="#707070" d="M 2620 980 L 2620 1305" id="v-1786" stroke-width="2" stroke-dasharray="30 30" fill="none" style="opacity: 1;"></path><path  fill="black" stroke="black" d="M 0 0 0 0" transform="matrix(6.123234262925839e-17,1,-1,6.123234262925839e-17,2620,980)"></path><path  fill="#707070" stroke="#707070" d="M 20 0 L 0 10 L 20 20 z" id="v-1788" transform="matrix(-1.8369701465288538e-16,-1,1,-1.8369701465288538e-16,2610,1305)" style="opacity: 1;"></path><path  d="M 2620 980 L 2620 1305" id="v-1787" fill="none" style="cursor: default;"></path><g ><g id="v-1780"  label-idx="0" cursor="move" transform="matrix(1,0,0,1,2620,1142.5)" style="cursor: default; opacity: 1;"><rect joint-selector="rect" id="v-1783" fill="#ffffff" rx="3" ry="3" pointer-events="none" width="59.900001525878906" height="34.49999809265137" transform="matrix(1,0,0,1,-30,-17.299999237060547)"></rect><text joint-selector="text" id="v-1782" font-size="24px" xml:space="preserve" y="0.8em" fill="#707070" text-anchor="middle" pointer-events="none" font-family="Open Sans" font-weight="normal" transform="matrix(1,0,0,1,0,-9.5)"><tspan  dy="0">Uses</tspan></text></g><g id="v-1781"  label-idx="1" cursor="move" transform="matrix(1,0,0,1,2610,1169.5)" style="cursor: default; opacity: 1;"><rect joint-selector="rect" id="v-1785" fill="#ffffff" rx="3" ry="3"  width="0" height="0" transform="matrix(1,0,0,1,0,0)" display="none"></rect><text joint-selector="text" id="v-1784" fill="#000000" font-size="14" text-anchor="middle" pointer-events="none"></text></g></g><g  display="none"></g><g  id="v-1790" display="none"><g  id="v-1778"><path  end="source" d="M 26 0 L 0 13 L 26 26 z"></path></g><g  id="v-1779"><path  end="target" d="M 26 0 L 0 13 L 26 26 z"></path></g></g><g  id="v-1789" display="none"><g  id="v-1777" transform="translate(2620, 1020) "><g  event="remove"><circle r="11"></circle><path transform="scale(.8) translate(-16, -16)" d="M24.778,21.419 19.276,15.917 24.777,10.415 21.949,7.585 16.447,13.087 10.945,7.585 8.117,10.415 13.618,15.917 8.116,21.419 10.946,24.248 16.447,18.746 21.948,24.248z"></path><title>Remove link.</title></g><g  event="link:options"><circle r="11" transform="translate(25)"></circle><path fill="white" transform="scale(.55) translate(29, -16)" d="M31.229,17.736c0.064-0.571,0.104-1.148,0.104-1.736s-0.04-1.166-0.104-1.737l-4.377-1.557c-0.218-0.716-0.504-1.401-0.851-2.05l1.993-4.192c-0.725-0.91-1.549-1.734-2.458-2.459l-4.193,1.994c-0.647-0.347-1.334-0.632-2.049-0.849l-1.558-4.378C17.165,0.708,16.588,0.667,16,0.667s-1.166,0.041-1.737,0.105L12.707,5.15c-0.716,0.217-1.401,0.502-2.05,0.849L6.464,4.005C5.554,4.73,4.73,5.554,4.005,6.464l1.994,4.192c-0.347,0.648-0.632,1.334-0.849,2.05l-4.378,1.557C0.708,14.834,0.667,15.412,0.667,16s0.041,1.165,0.105,1.736l4.378,1.558c0.217,0.715,0.502,1.401,0.849,2.049l-1.994,4.193c0.725,0.909,1.549,1.733,2.459,2.458l4.192-1.993c0.648,0.347,1.334,0.633,2.05,0.851l1.557,4.377c0.571,0.064,1.148,0.104,1.737,0.104c0.588,0,1.165-0.04,1.736-0.104l1.558-4.377c0.715-0.218,1.399-0.504,2.049-0.851l4.193,1.993c0.909-0.725,1.733-1.549,2.458-2.458l-1.993-4.193c0.347-0.647,0.633-1.334,0.851-2.049L31.229,17.736zM16,20.871c-2.69,0-4.872-2.182-4.872-4.871c0-2.69,2.182-4.872,4.872-4.872c2.689,0,4.871,2.182,4.871,4.872C20.871,18.689,18.689,20.871,16,20.871z"></path><title>Link options.</title></g></g></g></g><g   id="j_144" ><path  stroke="#707070" d="M 2789 980 L 3156 1305" id="v-1800" stroke-width="2" stroke-dasharray="30 30" fill="none" style="opacity: 1;"></path><path  fill="black" stroke="black" d="M 0 0 0 0" transform="matrix(0.7482870817184448,0.6633750796318054,-0.6633750796318054,0.7482870817184448,2789.199951171875,980)"></path><path  fill="#707070" stroke="#707070" d="M 20 0 L 0 10 L 20 20 z" id="v-1802" transform="matrix(-0.7482870817184448,-0.6633750796318054,0.6633750796318054,-0.7482870817184448,3149.166259765625,1312.4827880859375)" style="opacity: 1;"></path><path  d="M 2789 980 L 3156 1305" id="v-1801" fill="none" style="cursor: default;"></path><g ><g id="v-1794"  label-idx="0" cursor="move" transform="matrix(1,0,0,1,2972.5,1142.5)" style="cursor: default; opacity: 1;"><rect joint-selector="rect" id="v-1797" fill="#ffffff" rx="3" ry="3" pointer-events="none" width="59.900001525878906" height="34.49999809265137" transform="matrix(1,0,0,1,-30,-17.299999237060547)"></rect><text joint-selector="text" id="v-1796" font-size="24px" xml:space="preserve" y="0.8em" fill="#707070" text-anchor="middle" pointer-events="none" font-family="Open Sans" font-weight="normal" transform="matrix(1,0,0,1,0,-9.5)"><tspan  dy="0">Uses</tspan></text></g><g id="v-1795"  label-idx="1" cursor="move" transform="matrix(1,0,0,1,2962.5,1169.5)" style="cursor: default; opacity: 1;"><rect joint-selector="rect" id="v-1799" fill="#ffffff" rx="3" ry="3"  width="0" height="0" transform="matrix(1,0,0,1,0,0)" display="none"></rect><text joint-selector="text" id="v-1798" fill="#000000" font-size="14" text-anchor="middle" pointer-events="none"></text></g></g><g  display="none"></g><g  id="v-1804" display="none"><g  id="v-1792"><path  end="source" d="M 26 0 L 0 13 L 26 26 z"></path></g><g  id="v-1793"><path  end="target" d="M 26 0 L 0 13 L 26 26 z"></path></g></g><g  id="v-1803" display="none"><g  id="v-1791" transform="translate(2818.945841352064, 1006.5187968376588) "><g  event="remove"><circle r="11"></circle><path transform="scale(.8) translate(-16, -16)" d="M24.778,21.419 19.276,15.917 24.777,10.415 21.949,7.585 16.447,13.087 10.945,7.585 8.117,10.415 13.618,15.917 8.116,21.419 10.946,24.248 16.447,18.746 21.948,24.248z"></path><title>Remove link.</title></g><g  event="link:options"><circle r="11" transform="translate(25)"></circle><path fill="white" transform="scale(.55) translate(29, -16)" d="M31.229,17.736c0.064-0.571,0.104-1.148,0.104-1.736s-0.04-1.166-0.104-1.737l-4.377-1.557c-0.218-0.716-0.504-1.401-0.851-2.05l1.993-4.192c-0.725-0.91-1.549-1.734-2.458-2.459l-4.193,1.994c-0.647-0.347-1.334-0.632-2.049-0.849l-1.558-4.378C17.165,0.708,16.588,0.667,16,0.667s-1.166,0.041-1.737,0.105L12.707,5.15c-0.716,0.217-1.401,0.502-2.05,0.849L6.464,4.005C5.554,4.73,4.73,5.554,4.005,6.464l1.994,4.192c-0.347,0.648-0.632,1.334-0.849,2.05l-4.378,1.557C0.708,14.834,0.667,15.412,0.667,16s0.041,1.165,0.105,1.736l4.378,1.558c0.217,0.715,0.502,1.401,0.849,2.049l-1.994,4.193c0.725,0.909,1.549,1.733,2.459,2.458l4.192-1.993c0.648,0.347,1.334,0.633,2.05,0.851l1.557,4.377c0.571,0.064,1.148,0.104,1.737,0.104c0.588,0,1.165-0.04,1.736-0.104l1.558-4.377c0.715-0.218,1.399-0.504,2.049-0.851l4.193,1.993c0.909-0.725,1.733-1.549,2.458-2.458l-1.993-4.193c0.347-0.647,0.633-1.334,0.851-2.049L31.229,17.736zM16,20.871c-2.69,0-4.872-2.182-4.872-4.871c0-2.69,2.182-4.872,4.872-4.872c2.689,0,4.871,2.182,4.871,4.872C20.871,18.689,18.689,20.871,16,20.871z"></path><title>Link options.</title></g></g></g></g><g   id="j_145" ><path  stroke="#707070" d="M 2845 930 L 3795 1355" id="v-1814" stroke-width="2" stroke-dasharray="30 30" fill="none" style="opacity: 1;"></path><path  fill="black" stroke="black" d="M 0 0 0 0" transform="matrix(0.9131404161453247,0.4076451063156128,-0.4076451063156128,0.9131404161453247,2845,930.4500122070312)"></path><path  fill="#707070" stroke="#707070" d="M 20 0 L 0 10 L 20 20 z" id="v-1816" transform="matrix(-0.9131404161453247,-0.4076451361179352,0.4076451361179352,-0.9131404161453247,3790.923583984375,1363.681396484375)" style="opacity: 1;"></path><path  d="M 2845 930 L 3795 1355" id="v-1815" fill="none" style="cursor: default;"></path><g ><g id="v-1808"  label-idx="0" cursor="move" transform="matrix(1,0,0,1,3320,1142.5)" style="cursor: default; opacity: 1;"><rect joint-selector="rect" id="v-1811" fill="#ffffff" rx="3" ry="3" pointer-events="none" width="59.900001525878906" height="34.49999809265137" transform="matrix(1,0,0,1,-30,-17.299999237060547)"></rect><text joint-selector="text" id="v-1810" font-size="24px" xml:space="preserve" y="0.8em" fill="#707070" text-anchor="middle" pointer-events="none" font-family="Open Sans" font-weight="normal" transform="matrix(1,0,0,1,0,-9.5)"><tspan  dy="0">Uses</tspan></text></g><g id="v-1809"  label-idx="1" cursor="move" transform="matrix(1,0,0,1,3310,1169.5)" style="cursor: default; opacity: 1;"><rect joint-selector="rect" id="v-1813" fill="#ffffff" rx="3" ry="3"  width="0" height="0" transform="matrix(1,0,0,1,0,0)" display="none"></rect><text joint-selector="text" id="v-1812" fill="#000000" font-size="14" text-anchor="middle" pointer-events="none"></text></g></g><g  display="none"></g><g  id="v-1818" display="none"><g  id="v-1806"><path  end="source" d="M 26 0 L 0 13 L 26 26 z"></path></g><g  id="v-1807"><path  end="target" d="M 26 0 L 0 13 L 26 26 z"></path></g></g><g  id="v-1817" display="none"><g  id="v-1805" transform="translate(2881.5127300757968, 946.3346424023301) "><g  event="remove"><circle r="11"></circle><path transform="scale(.8) translate(-16, -16)" d="M24.778,21.419 19.276,15.917 24.777,10.415 21.949,7.585 16.447,13.087 10.945,7.585 8.117,10.415 13.618,15.917 8.116,21.419 10.946,24.248 16.447,18.746 21.948,24.248z"></path><title>Remove link.</title></g><g  event="link:options"><circle r="11" transform="translate(25)"></circle><path fill="white" transform="scale(.55) translate(29, -16)" d="M31.229,17.736c0.064-0.571,0.104-1.148,0.104-1.736s-0.04-1.166-0.104-1.737l-4.377-1.557c-0.218-0.716-0.504-1.401-0.851-2.05l1.993-4.192c-0.725-0.91-1.549-1.734-2.458-2.459l-4.193,1.994c-0.647-0.347-1.334-0.632-2.049-0.849l-1.558-4.378C17.165,0.708,16.588,0.667,16,0.667s-1.166,0.041-1.737,0.105L12.707,5.15c-0.716,0.217-1.401,0.502-2.05,0.849L6.464,4.005C5.554,4.73,4.73,5.554,4.005,6.464l1.994,4.192c-0.347,0.648-0.632,1.334-0.849,2.05l-4.378,1.557C0.708,14.834,0.667,15.412,0.667,16s0.041,1.165,0.105,1.736l4.378,1.558c0.217,0.715,0.502,1.401,0.849,2.049l-1.994,4.193c0.725,0.909,1.549,1.733,2.459,2.458l4.192-1.993c0.648,0.347,1.334,0.633,2.05,0.851l1.557,4.377c0.571,0.064,1.148,0.104,1.737,0.104c0.588,0,1.165-0.04,1.736-0.104l1.558-4.377c0.715-0.218,1.399-0.504,2.049-0.851l4.193,1.993c0.909-0.725,1.733-1.549,2.458-2.458l-1.993-4.193c0.347-0.647,0.633-1.334,0.851-2.049L31.229,17.736zM16,20.871c-2.69,0-4.872-2.182-4.872-4.871c0-2.69,2.182-4.872,4.872-4.872c2.689,0,4.871,2.182,4.871,4.872C20.871,18.689,18.689,20.871,16,20.871z"></path><title>Link options.</title></g></g></g></g><g   id="j_146" ><path  stroke="#707070" d="M 1185 1605 L 1185 1900" id="v-1831" stroke-width="2" stroke-dasharray="30 30" fill="none" style="opacity: 1;"></path><path  fill="black" stroke="black" d="M 0 0 0 0" transform="matrix(6.123234262925839e-17,1,-1,6.123234262925839e-17,1185,1605)"></path><path  fill="#707070" stroke="#707070" d="M 20 0 L 0 10 L 20 20 z" id="v-1833" transform="matrix(-1.8369701465288538e-16,-1,1,-1.8369701465288538e-16,1175,1900)" style="opacity: 1;"></path><path  d="M 1185 1605 L 1185 1900" id="v-1832" fill="none" style="cursor: default;"></path><g ><g id="v-1822"  label-idx="0" cursor="move" transform="matrix(1,0,0,1,1185,1752.5)" style="cursor: default; opacity: 1;"><rect joint-selector="rect" id="v-1826" fill="#ffffff" rx="3" ry="3" pointer-events="none" width="58" height="34.49999809265137" transform="matrix(1,0,0,1,-29,-17.299999237060547)"></rect><text joint-selector="text" id="v-1825" font-size="24px" xml:space="preserve" y="0.8em" fill="#707070" text-anchor="middle" pointer-events="none" font-family="Open Sans" font-weight="normal" transform="matrix(1,0,0,1,0,-9.5)"><tspan  dy="0">Calls</tspan></text></g><g id="v-1823"  label-idx="1" cursor="move" transform="matrix(1,0,0,1,1185,1779.5)" style="cursor: default; opacity: 1;"><rect joint-selector="rect" id="v-1828" fill="#ffffff" rx="3" ry="3" pointer-events="none" width="105.43540954589844" height="24.4375" transform="matrix(1,0,0,1,-52.70000076293945,-12.199999809265137)"></rect><text joint-selector="text" id="v-1827" font-size="17px" xml:space="preserve" y="0.8em" fill="#707070" text-anchor="middle" pointer-events="none" font-family="Open Sans" font-weight="normal" transform="matrix(1,0,0,1,0,-6.699999809265137)"><tspan  dy="0">[HTTPS/json]</tspan></text></g><g id="v-1824"  label-idx="2" cursor="move" transform="matrix(1,0,0,1,1175,1788.75)" style="cursor: default; opacity: 1;"><rect joint-selector="rect" id="v-1830" fill="#ffffff" rx="3" ry="3"  width="0" height="0" transform="matrix(1,0,0,1,0,0)" display="none"></rect><text joint-selector="text" id="v-1829" fill="#000000" font-size="14" text-anchor="middle" pointer-events="none"></text></g></g><g  display="none"></g><g  id="v-1835" display="none"><g  id="v-1820"><path  end="source" d="M 26 0 L 0 13 L 26 26 z"></path></g><g  id="v-1821"><path  end="target" d="M 26 0 L 0 13 L 26 26 z"></path></g></g><g  id="v-1834" display="none"><g  id="v-1819" transform="translate(1185, 1645.0000000000002) "><g  event="remove"><circle r="11"></circle><path transform="scale(.8) translate(-16, -16)" d="M24.778,21.419 19.276,15.917 24.777,10.415 21.949,7.585 16.447,13.087 10.945,7.585 8.117,10.415 13.618,15.917 8.116,21.419 10.946,24.248 16.447,18.746 21.948,24.248z"></path><title>Remove link.</title></g><g  event="link:options"><circle r="11" transform="translate(25)"></circle><path fill="white" transform="scale(.55) translate(29, -16)" d="M31.229,17.736c0.064-0.571,0.104-1.148,0.104-1.736s-0.04-1.166-0.104-1.737l-4.377-1.557c-0.218-0.716-0.504-1.401-0.851-2.05l1.993-4.192c-0.725-0.91-1.549-1.734-2.458-2.459l-4.193,1.994c-0.647-0.347-1.334-0.632-2.049-0.849l-1.558-4.378C17.165,0.708,16.588,0.667,16,0.667s-1.166,0.041-1.737,0.105L12.707,5.15c-0.716,0.217-1.401,0.502-2.05,0.849L6.464,4.005C5.554,4.73,4.73,5.554,4.005,6.464l1.994,4.192c-0.347,0.648-0.632,1.334-0.849,2.05l-4.378,1.557C0.708,14.834,0.667,15.412,0.667,16s0.041,1.165,0.105,1.736l4.378,1.558c0.217,0.715,0.502,1.401,0.849,2.049l-1.994,4.193c0.725,0.909,1.549,1.733,2.459,2.458l4.192-1.993c0.648,0.347,1.334,0.633,2.05,0.851l1.557,4.377c0.571,0.064,1.148,0.104,1.737,0.104c0.588,0,1.165-0.04,1.736-0.104l1.558-4.377c0.715-0.218,1.399-0.504,2.049-0.851l4.193,1.993c0.909-0.725,1.733-1.549,2.458-2.458l-1.993-4.193c0.347-0.647,0.633-1.334,0.851-2.049L31.229,17.736zM16,20.871c-2.69,0-4.872-2.182-4.872-4.871c0-2.69,2.182-4.872,4.872-4.872c2.689,0,4.871,2.182,4.871,4.872C20.871,18.689,18.689,20.871,16,20.871z"></path><title>Link options.</title></g></g></g></g><g   id="j_147" ><path  stroke="#707070" d="M 1895 1605 L 1895 1900" id="v-1848" stroke-width="2" stroke-dasharray="30 30" fill="none" style="opacity: 1;"></path><path  fill="black" stroke="black" d="M 0 0 0 0" transform="matrix(6.123234262925839e-17,1,-1,6.123234262925839e-17,1895,1605)"></path><path  fill="#707070" stroke="#707070" d="M 20 0 L 0 10 L 20 20 z" id="v-1850" transform="matrix(-1.8369701465288538e-16,-1,1,-1.8369701465288538e-16,1885,1900)" style="opacity: 1;"></path><path  d="M 1895 1605 L 1895 1900" id="v-1849" fill="none" style="cursor: default;"></path><g ><g id="v-1839"  label-idx="0" cursor="move" transform="matrix(1,0,0,1,1895,1752.5)" style="cursor: default; opacity: 1;"><rect joint-selector="rect" id="v-1843" fill="#ffffff" rx="3" ry="3" pointer-events="none" width="58" height="34.49999809265137" transform="matrix(1,0,0,1,-29,-17.299999237060547)"></rect><text joint-selector="text" id="v-1842" font-size="24px" xml:space="preserve" y="0.8em" fill="#707070" text-anchor="middle" pointer-events="none" font-family="Open Sans" font-weight="normal" transform="matrix(1,0,0,1,0,-9.5)"><tspan  dy="0">Calls</tspan></text></g><g id="v-1840"  label-idx="1" cursor="move" transform="matrix(1,0,0,1,1895,1779.5)" style="cursor: default; opacity: 1;"><rect joint-selector="rect" id="v-1845" fill="#ffffff" rx="3" ry="3" pointer-events="none" width="105.43540954589844" height="24.4375" transform="matrix(1,0,0,1,-52.70000076293945,-12.199999809265137)"></rect><text joint-selector="text" id="v-1844" font-size="17px" xml:space="preserve" y="0.8em" fill="#707070" text-anchor="middle" pointer-events="none" font-family="Open Sans" font-weight="normal" transform="matrix(1,0,0,1,0,-6.699999809265137)"><tspan  dy="0">[HTTPS/json]</tspan></text></g><g id="v-1841"  label-idx="2" cursor="move" transform="matrix(1,0,0,1,1885,1788.75)" style="cursor: default; opacity: 1;"><rect joint-selector="rect" id="v-1847" fill="#ffffff" rx="3" ry="3"  width="0" height="0" transform="matrix(1,0,0,1,0,0)" display="none"></rect><text joint-selector="text" id="v-1846" fill="#000000" font-size="14" text-anchor="middle" pointer-events="none"></text></g></g><g  display="none"></g><g  id="v-1852" display="none"><g  id="v-1837"><path  end="source" d="M 26 0 L 0 13 L 26 26 z"></path></g><g  id="v-1838"><path  end="target" d="M 26 0 L 0 13 L 26 26 z"></path></g></g><g  id="v-1851" display="none"><g  id="v-1836" transform="translate(1895, 1645.0000000000002) "><g  event="remove"><circle r="11"></circle><path transform="scale(.8) translate(-16, -16)" d="M24.778,21.419 19.276,15.917 24.777,10.415 21.949,7.585 16.447,13.087 10.945,7.585 8.117,10.415 13.618,15.917 8.116,21.419 10.946,24.248 16.447,18.746 21.948,24.248z"></path><title>Remove link.</title></g><g  event="link:options"><circle r="11" transform="translate(25)"></circle><path fill="white" transform="scale(.55) translate(29, -16)" d="M31.229,17.736c0.064-0.571,0.104-1.148,0.104-1.736s-0.04-1.166-0.104-1.737l-4.377-1.557c-0.218-0.716-0.504-1.401-0.851-2.05l1.993-4.192c-0.725-0.91-1.549-1.734-2.458-2.459l-4.193,1.994c-0.647-0.347-1.334-0.632-2.049-0.849l-1.558-4.378C17.165,0.708,16.588,0.667,16,0.667s-1.166,0.041-1.737,0.105L12.707,5.15c-0.716,0.217-1.401,0.502-2.05,0.849L6.464,4.005C5.554,4.73,4.73,5.554,4.005,6.464l1.994,4.192c-0.347,0.648-0.632,1.334-0.849,2.05l-4.378,1.557C0.708,14.834,0.667,15.412,0.667,16s0.041,1.165,0.105,1.736l4.378,1.558c0.217,0.715,0.502,1.401,0.849,2.049l-1.994,4.193c0.725,0.909,1.549,1.733,2.459,2.458l4.192-1.993c0.648,0.347,1.334,0.633,2.05,0.851l1.557,4.377c0.571,0.064,1.148,0.104,1.737,0.104c0.588,0,1.165-0.04,1.736-0.104l1.558-4.377c0.715-0.218,1.399-0.504,2.049-0.851l4.193,1.993c0.909-0.725,1.733-1.549,2.458-2.458l-1.993-4.193c0.347-0.647,0.633-1.334,0.851-2.049L31.229,17.736zM16,20.871c-2.69,0-4.872-2.182-4.872-4.871c0-2.69,2.182-4.872,4.872-4.872c2.689,0,4.871,2.182,4.871,4.872C20.871,18.689,18.689,20.871,16,20.871z"></path><title>Link options.</title></g></g></g></g><g   id="j_148" ><path  stroke="#707070" d="M 2620 1605 L 2620 1900" id="v-1865" stroke-width="2" stroke-dasharray="30 30" fill="none" style="opacity: 1;"></path><path  fill="black" stroke="black" d="M 0 0 0 0" transform="matrix(6.123234262925839e-17,1,-1,6.123234262925839e-17,2620,1605)"></path><path  fill="#707070" stroke="#707070" d="M 20 0 L 0 10 L 20 20 z" id="v-1867" transform="matrix(-1.8369701465288538e-16,-1,1,-1.8369701465288538e-16,2610,1900)" style="opacity: 1;"></path><path  d="M 2620 1605 L 2620 1900" id="v-1866" fill="none" style="cursor: default;"></path><g ><g id="v-1856"  label-idx="0" cursor="move" transform="matrix(1,0,0,1,2620,1752.5)" style="cursor: default; opacity: 1;"><rect joint-selector="rect" id="v-1860" fill="#ffffff" rx="3" ry="3" pointer-events="none" width="58" height="34.49999809265137" transform="matrix(1,0,0,1,-29,-17.299999237060547)"></rect><text joint-selector="text" id="v-1859" font-size="24px" xml:space="preserve" y="0.8em" fill="#707070" text-anchor="middle" pointer-events="none" font-family="Open Sans" font-weight="normal" transform="matrix(1,0,0,1,0,-9.5)"><tspan  dy="0">Calls</tspan></text></g><g id="v-1857"  label-idx="1" cursor="move" transform="matrix(1,0,0,1,2620,1779.5)" style="cursor: default; opacity: 1;"><rect joint-selector="rect" id="v-1862" fill="#ffffff" rx="3" ry="3" pointer-events="none" width="105.43540954589844" height="24.4375" transform="matrix(1,0,0,1,-52.70000076293945,-12.199999809265137)"></rect><text joint-selector="text" id="v-1861" font-size="17px" xml:space="preserve" y="0.8em" fill="#707070" text-anchor="middle" pointer-events="none" font-family="Open Sans" font-weight="normal" transform="matrix(1,0,0,1,0,-6.699999809265137)"><tspan  dy="0">[HTTPS/json]</tspan></text></g><g id="v-1858"  label-idx="2" cursor="move" transform="matrix(1,0,0,1,2610,1788.75)" style="cursor: default; opacity: 1;"><rect joint-selector="rect" id="v-1864" fill="#ffffff" rx="3" ry="3"  width="0" height="0" transform="matrix(1,0,0,1,0,0)" display="none"></rect><text joint-selector="text" id="v-1863" fill="#000000" font-size="14" text-anchor="middle" pointer-events="none"></text></g></g><g  display="none"></g><g  id="v-1869" display="none"><g  id="v-1854"><path  end="source" d="M 26 0 L 0 13 L 26 26 z"></path></g><g  id="v-1855"><path  end="target" d="M 26 0 L 0 13 L 26 26 z"></path></g></g><g  id="v-1868" display="none"><g  id="v-1853" transform="translate(2620.0000000000005, 1645.0000000000002) "><g  event="remove"><circle r="11"></circle><path transform="scale(.8) translate(-16, -16)" d="M24.778,21.419 19.276,15.917 24.777,10.415 21.949,7.585 16.447,13.087 10.945,7.585 8.117,10.415 13.618,15.917 8.116,21.419 10.946,24.248 16.447,18.746 21.948,24.248z"></path><title>Remove link.</title></g><g  event="link:options"><circle r="11" transform="translate(25)"></circle><path fill="white" transform="scale(.55) translate(29, -16)" d="M31.229,17.736c0.064-0.571,0.104-1.148,0.104-1.736s-0.04-1.166-0.104-1.737l-4.377-1.557c-0.218-0.716-0.504-1.401-0.851-2.05l1.993-4.192c-0.725-0.91-1.549-1.734-2.458-2.459l-4.193,1.994c-0.647-0.347-1.334-0.632-2.049-0.849l-1.558-4.378C17.165,0.708,16.588,0.667,16,0.667s-1.166,0.041-1.737,0.105L12.707,5.15c-0.716,0.217-1.401,0.502-2.05,0.849L6.464,4.005C5.554,4.73,4.73,5.554,4.005,6.464l1.994,4.192c-0.347,0.648-0.632,1.334-0.849,2.05l-4.378,1.557C0.708,14.834,0.667,15.412,0.667,16s0.041,1.165,0.105,1.736l4.378,1.558c0.217,0.715,0.502,1.401,0.849,2.049l-1.994,4.193c0.725,0.909,1.549,1.733,2.459,2.458l4.192-1.993c0.648,0.347,1.334,0.633,2.05,0.851l1.557,4.377c0.571,0.064,1.148,0.104,1.737,0.104c0.588,0,1.165-0.04,1.736-0.104l1.558-4.377c0.715-0.218,1.399-0.504,2.049-0.851l4.193,1.993c0.909-0.725,1.733-1.549,2.458-2.458l-1.993-4.193c0.347-0.647,0.633-1.334,0.851-2.049L31.229,17.736zM16,20.871c-2.69,0-4.872-2.182-4.872-4.871c0-2.69,2.182-4.872,4.872-4.872c2.689,0,4.871,2.182,4.871,4.872C20.871,18.689,18.689,20.871,16,20.871z"></path><title>Link options.</title></g></g></g></g><g   id="j_149" ><path  stroke="#707070" d="M 3325 1605 L 3325 1900" id="v-1882" stroke-width="2" stroke-dasharray="30 30" fill="none" style="opacity: 1;"></path><path  fill="black" stroke="black" d="M 0 0 0 0" transform="matrix(6.123234262925839e-17,1,-1,6.123234262925839e-17,3325,1605)"></path><path  fill="#707070" stroke="#707070" d="M 20 0 L 0 10 L 20 20 z" id="v-1884" transform="matrix(-1.8369701465288538e-16,-1,1,-1.8369701465288538e-16,3315,1900)" style="opacity: 1;"></path><path  d="M 3325 1605 L 3325 1900" id="v-1883" fill="none" style="cursor: default;"></path><g ><g id="v-1873"  label-idx="0" cursor="move" transform="matrix(1,0,0,1,3325,1752.5)" style="cursor: default; opacity: 1;"><rect joint-selector="rect" id="v-1877" fill="#ffffff" rx="3" ry="3" pointer-events="none" width="58" height="34.49999809265137" transform="matrix(1,0,0,1,-29,-17.299999237060547)"></rect><text joint-selector="text" id="v-1876" font-size="24px" xml:space="preserve" y="0.8em" fill="#707070" text-anchor="middle" pointer-events="none" font-family="Open Sans" font-weight="normal" transform="matrix(1,0,0,1,0,-9.5)"><tspan  dy="0">Calls</tspan></text></g><g id="v-1874"  label-idx="1" cursor="move" transform="matrix(1,0,0,1,3325,1779.5)" style="cursor: default; opacity: 1;"><rect joint-selector="rect" id="v-1879" fill="#ffffff" rx="3" ry="3" pointer-events="none" width="105.43540954589844" height="24.4375" transform="matrix(1,0,0,1,-52.70000076293945,-12.199999809265137)"></rect><text joint-selector="text" id="v-1878" font-size="17px" xml:space="preserve" y="0.8em" fill="#707070" text-anchor="middle" pointer-events="none" font-family="Open Sans" font-weight="normal" transform="matrix(1,0,0,1,0,-6.699999809265137)"><tspan  dy="0">[HTTPS/json]</tspan></text></g><g id="v-1875"  label-idx="2" cursor="move" transform="matrix(1,0,0,1,3315,1788.75)" style="cursor: default; opacity: 1;"><rect joint-selector="rect" id="v-1881" fill="#ffffff" rx="3" ry="3"  width="0" height="0" transform="matrix(1,0,0,1,0,0)" display="none"></rect><text joint-selector="text" id="v-1880" fill="#000000" font-size="14" text-anchor="middle" pointer-events="none"></text></g></g><g  display="none"></g><g  id="v-1886" display="none"><g  id="v-1871"><path  end="source" d="M 26 0 L 0 13 L 26 26 z"></path></g><g  id="v-1872"><path  end="target" d="M 26 0 L 0 13 L 26 26 z"></path></g></g><g  id="v-1885" display="none"><g  id="v-1870" transform="translate(3325, 1645.0000000000002) "><g  event="remove"><circle r="11"></circle><path transform="scale(.8) translate(-16, -16)" d="M24.778,21.419 19.276,15.917 24.777,10.415 21.949,7.585 16.447,13.087 10.945,7.585 8.117,10.415 13.618,15.917 8.116,21.419 10.946,24.248 16.447,18.746 21.948,24.248z"></path><title>Remove link.</title></g><g  event="link:options"><circle r="11" transform="translate(25)"></circle><path fill="white" transform="scale(.55) translate(29, -16)" d="M31.229,17.736c0.064-0.571,0.104-1.148,0.104-1.736s-0.04-1.166-0.104-1.737l-4.377-1.557c-0.218-0.716-0.504-1.401-0.851-2.05l1.993-4.192c-0.725-0.91-1.549-1.734-2.458-2.459l-4.193,1.994c-0.647-0.347-1.334-0.632-2.049-0.849l-1.558-4.378C17.165,0.708,16.588,0.667,16,0.667s-1.166,0.041-1.737,0.105L12.707,5.15c-0.716,0.217-1.401,0.502-2.05,0.849L6.464,4.005C5.554,4.73,4.73,5.554,4.005,6.464l1.994,4.192c-0.347,0.648-0.632,1.334-0.849,2.05l-4.378,1.557C0.708,14.834,0.667,15.412,0.667,16s0.041,1.165,0.105,1.736l4.378,1.558c0.217,0.715,0.502,1.401,0.849,2.049l-1.994,4.193c0.725,0.909,1.549,1.733,2.459,2.458l4.192-1.993c0.648,0.347,1.334,0.633,2.05,0.851l1.557,4.377c0.571,0.064,1.148,0.104,1.737,0.104c0.588,0,1.165-0.04,1.736-0.104l1.558-4.377c0.715-0.218,1.399-0.504,2.049-0.851l4.193,1.993c0.909-0.725,1.733-1.549,2.458-2.458l-1.993-4.193c0.347-0.647,0.633-1.334,0.851-2.049L31.229,17.736zM16,20.871c-2.69,0-4.872-2.182-4.872-4.871c0-2.69,2.182-4.872,4.872-4.872c2.689,0,4.871,2.182,4.871,4.872C20.871,18.689,18.689,20.871,16,20.871z"></path><title>Link options.</title></g></g></g></g><g   id="j_150" ><path  stroke="#707070" d="M 4020 1605 L 4020 1900" id="v-1899" stroke-width="2" stroke-dasharray="30 30" fill="none" style="opacity: 1;"></path><path  fill="black" stroke="black" d="M 0 0 0 0" transform="matrix(6.123234262925839e-17,1,-1,6.123234262925839e-17,4020,1605)"></path><path  fill="#707070" stroke="#707070" d="M 20 0 L 0 10 L 20 20 z" id="v-1901" transform="matrix(-1.8369701465288538e-16,-1,1,-1.8369701465288538e-16,4010,1900)" style="opacity: 1;"></path><path  d="M 4020 1605 L 4020 1900" id="v-1900" fill="none" style="cursor: default;"></path><g ><g id="v-1890"  label-idx="0" cursor="move" transform="matrix(1,0,0,1,4020,1752.5)" style="cursor: default; opacity: 1;"><rect joint-selector="rect" id="v-1894" fill="#ffffff" rx="3" ry="3" pointer-events="none" width="58" height="34.49999809265137" transform="matrix(1,0,0,1,-29,-17.299999237060547)"></rect><text joint-selector="text" id="v-1893" font-size="24px" xml:space="preserve" y="0.8em" fill="#707070" text-anchor="middle" pointer-events="none" font-family="Open Sans" font-weight="normal" transform="matrix(1,0,0,1,0,-9.5)"><tspan  dy="0">Calls</tspan></text></g><g id="v-1891"  label-idx="1" cursor="move" transform="matrix(1,0,0,1,4020,1779.5)" style="cursor: default; opacity: 1;"><rect joint-selector="rect" id="v-1896" fill="#ffffff" rx="3" ry="3" pointer-events="none" width="105.43540954589844" height="24.4375" transform="matrix(1,0,0,1,-52.70000076293945,-12.199999809265137)"></rect><text joint-selector="text" id="v-1895" font-size="17px" xml:space="preserve" y="0.8em" fill="#707070" text-anchor="middle" pointer-events="none" font-family="Open Sans" font-weight="normal" transform="matrix(1,0,0,1,0,-6.699999809265137)"><tspan  dy="0">[HTTPS/json]</tspan></text></g><g id="v-1892"  label-idx="2" cursor="move" transform="matrix(1,0,0,1,4010,1788.75)" style="cursor: default; opacity: 1;"><rect joint-selector="rect" id="v-1898" fill="#ffffff" rx="3" ry="3"  width="0" height="0" transform="matrix(1,0,0,1,0,0)" display="none"></rect><text joint-selector="text" id="v-1897" fill="#000000" font-size="14" text-anchor="middle" pointer-events="none"></text></g></g><g  display="none"></g><g  id="v-1903" display="none"><g  id="v-1888"><path  end="source" d="M 26 0 L 0 13 L 26 26 z"></path></g><g  id="v-1889"><path  end="target" d="M 26 0 L 0 13 L 26 26 z"></path></g></g><g  id="v-1902" display="none"><g  id="v-1887" transform="translate(4020, 1645.0000000000002) "><g  event="remove"><circle r="11"></circle><path transform="scale(.8) translate(-16, -16)" d="M24.778,21.419 19.276,15.917 24.777,10.415 21.949,7.585 16.447,13.087 10.945,7.585 8.117,10.415 13.618,15.917 8.116,21.419 10.946,24.248 16.447,18.746 21.948,24.248z"></path><title>Remove link.</title></g><g  event="link:options"><circle r="11" transform="translate(25)"></circle><path fill="white" transform="scale(.55) translate(29, -16)" d="M31.229,17.736c0.064-0.571,0.104-1.148,0.104-1.736s-0.04-1.166-0.104-1.737l-4.377-1.557c-0.218-0.716-0.504-1.401-0.851-2.05l1.993-4.192c-0.725-0.91-1.549-1.734-2.458-2.459l-4.193,1.994c-0.647-0.347-1.334-0.632-2.049-0.849l-1.558-4.378C17.165,0.708,16.588,0.667,16,0.667s-1.166,0.041-1.737,0.105L12.707,5.15c-0.716,0.217-1.401,0.502-2.05,0.849L6.464,4.005C5.554,4.73,4.73,5.554,4.005,6.464l1.994,4.192c-0.347,0.648-0.632,1.334-0.849,2.05l-4.378,1.557C0.708,14.834,0.667,15.412,0.667,16s0.041,1.165,0.105,1.736l4.378,1.558c0.217,0.715,0.502,1.401,0.849,2.049l-1.994,4.193c0.725,0.909,1.549,1.733,2.459,2.458l4.192-1.993c0.648,0.347,1.334,0.633,2.05,0.851l1.557,4.377c0.571,0.064,1.148,0.104,1.737,0.104c0.588,0,1.165-0.04,1.736-0.104l1.558-4.377c0.715-0.218,1.399-0.504,2.049-0.851l4.193,1.993c0.909-0.725,1.733-1.549,2.458-2.458l-1.993-4.193c0.347-0.647,0.633-1.334,0.851-2.049L31.229,17.736zM16,20.871c-2.69,0-4.872-2.182-4.872-4.871c0-2.69,2.182-4.872,4.872-4.872c2.689,0,4.871,2.182,4.871,4.872C20.871,18.689,18.689,20.871,16,20.871z"></path><title>Link options.</title></g></g></g></g></g><g ></g><g ></g><g ></g></g></svg>