<svg xmlns="http://www.w3.org/2000/svg" xmlns:xlink="http://www.w3.org/1999/xlink" version="1.1" viewBox="0 0 2480 1748" style="background: #ffffff"><defs><style>@import url(https://fonts.googleapis.com/css?family=Open+Sans:400,700);</style></defs><defs joint-selector="defs"></defs><g  joint-selector="layers" transform="matrix(1,0,0,1,0,0)"><g ></g><g ><!--z-index:0--><!--z-index:1--><!--z-index:2--><!--z-index:3--><!--z-index:4--><!--z-index:5--><!--z-index:6--><!--z-index:7--><!--z-index:8--><!--z-index:9--><!--z-index:10--><!--z-index:11--><!--z-index:12--><!--z-index:13--><!--z-index:14--><!--z-index:15--><!--z-index:16--><!--z-index:17--><g   id="j_571"  transform="translate(20,1711.6)"><g id="v-7439"><text  id="v-7440" font-size="22px" xml:space="preserve" y="0.8em" font-weight="normal" text-anchor="start" fill="#aaaaaa" pointer-events="none" display="block" font-family="Open Sans"><tspan  dy="0">Wednesday, 2 October 2024 at 14:29 British Summer Time</tspan></text></g></g><!--z-index:18--><g   id="j_570"  transform="translate(20,1685.1999999999998)"><g id="v-7437"><text  id="v-7438" font-size="22px" xml:space="preserve" y="0.8em" font-weight="normal" text-anchor="start" fill="#aaaaaa" pointer-events="none" display="block" font-family="Open Sans"><tspan  dy="0">The component diagram for the Tenant API.</tspan></text></g></g><!--z-index:19--><g   id="j_569"  transform="translate(20,1641.9999999999998)"><g id="v-7435"><text  id="v-7436" font-size="36px" xml:space="preserve" y="0.8em" font-weight="normal" text-anchor="start" fill="#000000" pointer-events="none" display="block" font-family="Open Sans"><tspan  dy="0">[Component] Central Digital Platform - Tenant API</tspan></text></g></g><!--z-index:20--><g   id="j_572"  transform="translate(1365,1180)" style=""><g  id="v-7444" style="opacity: 1;"><path  d="M 0,30 a 225,30 0,0,0 450 0 a 225,30 0,0,0 -450 0 l 0,240 a 225,30 0,0,0 450 0 l 0,-240" id="v-7445" stroke="#3c7fc0" stroke-width="2" pointer-events="visiblePainted" fill="#438dd5" style="fill: rgb(67, 141, 213); stroke: rgb(60, 127, 192);"></path><rect  id="v-7446" stroke-width="0" pointer-events="visiblePainted" fill="none" stroke="none" width="450" height="270" x="0" y="30"></rect><text  id="v-7447" font-size="34" xml:space="preserve" y="0.8em" font-weight="bold" text-anchor="middle" pointer-events="visible" font-family="Open Sans" fill="#ffffff" transform="matrix(1,0,0,1,225,124)" style="fill: rgb(255, 255, 255);"><tspan  dy="0">Organisation Information</tspan><tspan dy="1.2em" x="0" >Database</tspan></text><text  id="v-7448" font-size="17" xml:space="preserve" y="0.8em" text-anchor="middle" font-family="Open Sans" fill="#ffffff" transform="matrix(1,0,0,1,225,205.60000610351562)" style="fill: rgb(255, 255, 255);"><tspan  dy="0">[Container: PostgreSQL]</tspan></text><text  id="v-7449" font-size="24" xml:space="preserve" display="none" y="0.8em" text-anchor="middle" font-family="Open Sans" fill="#ffffff" transform="matrix(1,0,0,1,225,226)" style="fill: rgb(255, 255, 255);"><tspan style="fill-opacity: 0; stroke-opacity: 0;"  dy="0">-</tspan></text><g  id="v-7450" font-weight="normal" text-anchor="middle" color="#ffffff" transform="matrix(1,0,0,1,222.5,268)" style="fill: rgb(255, 255, 255);" display="none"><g ></g><g ></g><g ></g><g ></g></g><image  id="v-7451"></image></g></g><!--z-index:21--><g   id="j_574"  transform="translate(715,65)" style=""><g id="v-7462"><rect  id="v-7463" width="1110" height="961" rx="0" ry="0" fill="#ffffff" stroke="#3c7fc0" stroke-width="1" stroke-dasharray="20,20" pointer-events="none"></rect><text  id="v-7464" font-size="24px" xml:space="preserve" y="922" font-weight="normal" fill="#3c7fc0" text-anchor="start" pointer-events="visible" font-family="Open Sans" transform="matrix(1,0,0,1,15,0)"><tspan  dy="0">Tenant API</tspan></text><text  id="v-7465" font-size="17px" xml:space="preserve" y="946" font-weight="normal" fill="#3c7fc0" text-anchor="start" pointer-events="visible" font-family="Open Sans" transform="matrix(1,0,0,1,15,0)"><tspan  dy="0">[Container]</tspan></text><image  id="v-7466" pointer-events="visible"></image></g></g><!--z-index:22--><g   id="j_573"  transform="translate(735,90)" style=""><g  id="v-7455" style="opacity: 1;"><rect  id="v-7456" rx="20" ry="20" stroke="#78a8d8" stroke-width="2" pointer-events="visiblePainted" fill="#85bbf0" width="450" height="300" style="fill: rgb(133, 187, 240); stroke: rgb(120, 168, 216);"></rect><text  id="v-7457" font-size="34" xml:space="preserve" y="0.8em" font-weight="bold" text-anchor="middle" pointer-events="visible" font-family="Open Sans" fill="#000000" transform="matrix(1,0,0,1,225,121.9000015258789)" style="fill: rgb(0, 0, 0);"><tspan  dy="0">Tenant Endpoint</tspan></text><text  id="v-7458" font-size="17" xml:space="preserve" y="0.8em" text-anchor="middle" font-family="Open Sans" fill="#000000" transform="matrix(1,0,0,1,225,162.6999969482422)" style="fill: rgb(0, 0, 0);"><tspan  dy="0">[Component: Asp.Net Core Web API]</tspan></text><text  id="v-7459" font-size="24" xml:space="preserve" display="none" y="0.8em" text-anchor="middle" font-family="Open Sans" fill="#000000" transform="matrix(1,0,0,1,225,183.10000610351562)" style="fill: rgb(0, 0, 0);"><tspan style="fill-opacity: 0; stroke-opacity: 0;"  dy="0">-</tspan></text><g  id="v-7460" color="#000000" transform="matrix(1,0,0,1,222.5,268)" style="fill: rgb(0, 0, 0);" display="none"><g ></g><g ></g><g ></g><g ></g></g><image  id="v-7461"></image></g></g><!--z-index:23--><g   id="j_575"  transform="translate(745,635)" style=""><g  id="v-7470" style="opacity: 1;"><rect  id="v-7471" rx="20" ry="20" stroke="#78a8d8" stroke-width="2" pointer-events="visiblePainted" fill="#85bbf0" width="450" height="300" style="fill: rgb(133, 187, 240); stroke: rgb(120, 168, 216);"></rect><text  id="v-7472" font-size="34" xml:space="preserve" y="0.8em" font-weight="bold" text-anchor="middle" pointer-events="visible" font-family="Open Sans" fill="#000000" transform="matrix(1,0,0,1,225,121.9000015258789)" style="fill: rgb(0, 0, 0);"><tspan  dy="0">Register Tenant Use Case</tspan></text><text  id="v-7473" font-size="17" xml:space="preserve" y="0.8em" text-anchor="middle" font-family="Open Sans" fill="#000000" transform="matrix(1,0,0,1,225,162.6999969482422)" style="fill: rgb(0, 0, 0);"><tspan  dy="0">[Component]</tspan></text><text  id="v-7474" font-size="24" xml:space="preserve" display="none" y="0.8em" text-anchor="middle" font-family="Open Sans" fill="#000000" transform="matrix(1,0,0,1,225,183.10000610351562)" style="fill: rgb(0, 0, 0);"><tspan style="fill-opacity: 0; stroke-opacity: 0;"  dy="0">-</tspan></text><g  id="v-7475" color="#000000" transform="matrix(1,0,0,1,222.5,268)" style="fill: rgb(0, 0, 0);" display="none"><g ></g><g ></g><g ></g><g ></g></g><image  id="v-7476"></image></g></g><!--z-index:24--><g   id="j_576"  transform="translate(1355,85)" style=""><g  id="v-7480" style="opacity: 1;"><rect  id="v-7481" rx="20" ry="20" stroke="#78a8d8" stroke-width="2" pointer-events="visiblePainted" fill="#85bbf0" width="450" height="300" style="fill: rgb(133, 187, 240); stroke: rgb(120, 168, 216);"></rect><text  id="v-7482" font-size="34" xml:space="preserve" y="0.8em" font-weight="bold" text-anchor="middle" pointer-events="visible" font-family="Open Sans" fill="#000000" transform="matrix(1,0,0,1,225,121.9000015258789)" style="fill: rgb(0, 0, 0);"><tspan  dy="0">Get Tenant Use Case</tspan></text><text  id="v-7483" font-size="17" xml:space="preserve" y="0.8em" text-anchor="middle" font-family="Open Sans" fill="#000000" transform="matrix(1,0,0,1,225,162.6999969482422)" style="fill: rgb(0, 0, 0);"><tspan  dy="0">[Component]</tspan></text><text  id="v-7484" font-size="24" xml:space="preserve" display="none" y="0.8em" text-anchor="middle" font-family="Open Sans" fill="#000000" transform="matrix(1,0,0,1,225,183.10000610351562)" style="fill: rgb(0, 0, 0);"><tspan style="fill-opacity: 0; stroke-opacity: 0;"  dy="0">-</tspan></text><g  id="v-7485" color="#000000" transform="matrix(1,0,0,1,222.5,268)" style="fill: rgb(0, 0, 0);" display="none"><g ></g><g ></g><g ></g><g ></g></g><image  id="v-7486"></image></g></g><!--z-index:25--><g   id="j_577"  transform="translate(1355,635)" style=""><g  id="v-7487" style="opacity: 1;"><rect  id="v-7488" rx="20" ry="20" stroke="#78a8d8" stroke-width="2" pointer-events="visiblePainted" fill="#85bbf0" width="450" height="300" style="fill: rgb(133, 187, 240); stroke: rgb(120, 168, 216);"></rect><text  id="v-7489" font-size="34" xml:space="preserve" y="0.8em" font-weight="bold" text-anchor="middle" pointer-events="visible" font-family="Open Sans" fill="#000000" transform="matrix(1,0,0,1,225,121.9000015258789)" style="fill: rgb(0, 0, 0);"><tspan  dy="0">Persistence</tspan></text><text  id="v-7490" font-size="17" xml:space="preserve" y="0.8em" text-anchor="middle" font-family="Open Sans" fill="#000000" transform="matrix(1,0,0,1,225,162.6999969482422)" style="fill: rgb(0, 0, 0);"><tspan  dy="0">[Component: Project]</tspan></text><text  id="v-7491" font-size="24" xml:space="preserve" display="none" y="0.8em" text-anchor="middle" font-family="Open Sans" fill="#000000" transform="matrix(1,0,0,1,225,183.10000610351562)" style="fill: rgb(0, 0, 0);"><tspan style="fill-opacity: 0; stroke-opacity: 0;"  dy="0">-</tspan></text><g  id="v-7492" color="#000000" transform="matrix(1,0,0,1,222.5,268)" style="fill: rgb(0, 0, 0);" display="none"><g ></g><g ></g><g ></g><g ></g></g><image  id="v-7493"></image></g></g><!--z-index:26--><g   id="j_578"  transform="translate(50,90)" style=""><g  id="v-7497" style="opacity: 1;"><rect  id="v-7498" rx="10" ry="10" stroke="#3c7fc0" stroke-width="2" pointer-events="visiblePainted" fill="#3c7fc0" width="450" height="300" style="fill: rgb(60, 127, 192); stroke: rgb(60, 127, 192);"></rect><rect  id="v-7499" rx="10" ry="10" stroke="#3c7fc0" stroke-width="0" pointer-events="visiblePainted" fill="#438dd5" width="430" height="250" x="10" y="40" style="fill: rgb(67, 141, 213);"></rect><ellipse  id="v-7506" fill="#438dd5" cx="20" cy="20" rx="10" ry="10" style="fill: rgb(67, 141, 213);"></ellipse><ellipse  id="v-7507" fill="#438dd5" cx="50" cy="20" rx="10" ry="10" style="fill: rgb(67, 141, 213);"></ellipse><ellipse  id="v-7508" fill="#438dd5" cx="80" cy="20" rx="10" ry="10" style="fill: rgb(67, 141, 213);"></ellipse><rect  id="v-7500" rx="10" ry="10" stroke="#444444" stroke-width="0" pointer-events="visiblePainted" fill="#438dd5" width="340" height="20" x="100" y="10" style="fill: rgb(67, 141, 213);"></rect><text  id="v-7501" font-size="34" xml:space="preserve" y="0.8em" font-weight="bold" text-anchor="middle" pointer-events="visible" font-family="Open Sans" fill="#ffffff" transform="matrix(1,0,0,1,225,117.5)" style="fill: rgb(255, 255, 255);"><tspan  dy="0">Web Application</tspan></text><text  id="v-7502" font-size="17" xml:space="preserve" y="0.8em" text-anchor="middle" font-family="Open Sans" fill="#ffffff" transform="matrix(1,0,0,1,225,158.3000030517578)" style="fill: rgb(255, 255, 255);"><tspan  dy="0">[Container: Asp.Net Core MVC]</tspan></text><text  id="v-7503" font-size="24" xml:space="preserve" y="0.8em" text-anchor="middle" font-family="Open Sans" fill="#ffffff" transform="matrix(1,0,0,1,225,188.6999969482422)" style="fill: rgb(255, 255, 255);"><tspan  dy="0">Account &amp; data capture frontend</tspan></text><g  id="v-7504" font-weight="normal" text-anchor="middle" color="#ffffff" transform="matrix(1,0,0,1,210,258)" style="fill: rgb(255, 255, 255);" display="none"><g  transform="translate(5 0)"><svg xmlns="http://www.w3.org/2000/svg" width="20" height="20" fill="currentColor" viewBox="0 0 16 16"><path fill-rule="evenodd" d="M6.5 12a5.5 5.5 0 1 0 0-11 5.5 5.5 0 0 0 0 11zM13 6.5a6.5 6.5 0 1 1-13 0 6.5 6.5 0 0 1 13 0z"></path><path d="M10.344 11.742c.03.04.062.078.098.115l3.85 3.85a1 1 0 0 0 1.415-1.414l-3.85-3.85a1.007 1.007 0 0 0-.115-.1 6.538 6.538 0 0 1-1.398 1.4z"></path><path fill-rule="evenodd" d="M6.5 3a.5.5 0 0 1 .5.5V6h2.5a.5.5 0 0 1 0 1H7v2.5a.5.5 0 0 1-1 0V7H3.5a.5.5 0 0 1 0-1H6V3.5a.5.5 0 0 1 .5-.5z"></path></svg></g><g ></g><g ></g><g ></g></g><image  id="v-7505"></image></g></g><!--z-index:27--><g   id="j_579" ><path  stroke="#707070" d="M 963 390 L 967 635" id="v-7518" stroke-width="2" stroke-dasharray="30 30" fill="none" style="opacity: 1;"></path><path  fill="black" stroke="black" d="M 0 0 0 0" transform="matrix(0.018364259973168373,0.9998313784599304,-0.9998313784599304,0.018364259973168373,962.75,390)"></path><path  fill="#707070" stroke="#707070" d="M 20 0 L 0 10 L 20 20 z" id="v-7520" transform="matrix(-0.01836412586271763,-0.9998313784599304,0.9998313784599304,-0.01836412586271763,957.2516479492188,635.1836547851562)" style="opacity: 1;"></path><path  d="M 963 390 L 967 635" id="v-7519" fill="none" style="cursor: default;"></path><g ><g id="v-7512"  label-idx="0" cursor="move" transform="matrix(1,0,0,1,965,512.5)" style="cursor: default; opacity: 1;"><rect joint-selector="rect" id="v-7515" fill="#ffffff" rx="3" ry="3" pointer-events="none" width="103.53941345214844" height="33.70179748535156" transform="matrix(1,0,0,1,-51.79999923706055,-16.799999237060547)"></rect><text joint-selector="text" id="v-7514" font-size="24px" xml:space="preserve" y="0.8em" fill="#707070" text-anchor="middle" pointer-events="none" font-family="Open Sans" font-weight="normal" transform="matrix(1,0,0,1,0,-10.199999809265137)"><tspan  dy="0">Executes</tspan></text></g><g id="v-7513"  label-idx="1" cursor="move" transform="matrix(1,0,0,1,955,538.9000244140625)" style="cursor: default; opacity: 1;"><rect joint-selector="rect" id="v-7517" fill="#ffffff" rx="3" ry="3"  width="0" height="0" transform="matrix(1,0,0,1,0,0)" display="none"></rect><text joint-selector="text" id="v-7516" fill="#000000" font-size="14" text-anchor="middle" pointer-events="none"></text></g></g><g  display="none"></g><g  id="v-7522" display="none"><g  id="v-7510"><path  end="source" d="M 26 0 L 0 13 L 26 26 z"></path></g><g  id="v-7511"><path  end="target" d="M 26 0 L 0 13 L 26 26 z"></path></g></g><g  id="v-7521" display="none"><g  id="v-7509" transform="translate(963.6529742033225, 429.99466995350497) "><g  event="remove"><circle r="11"></circle><path transform="scale(.8) translate(-16, -16)" d="M24.778,21.419 19.276,15.917 24.777,10.415 21.949,7.585 16.447,13.087 10.945,7.585 8.117,10.415 13.618,15.917 8.116,21.419 10.946,24.248 16.447,18.746 21.948,24.248z"></path><title>Remove link.</title></g><g  event="link:options"><circle r="11" transform="translate(25)"></circle><path fill="white" transform="scale(.55) translate(29, -16)" d="M31.229,17.736c0.064-0.571,0.104-1.148,0.104-1.736s-0.04-1.166-0.104-1.737l-4.377-1.557c-0.218-0.716-0.504-1.401-0.851-2.05l1.993-4.192c-0.725-0.91-1.549-1.734-2.458-2.459l-4.193,1.994c-0.647-0.347-1.334-0.632-2.049-0.849l-1.558-4.378C17.165,0.708,16.588,0.667,16,0.667s-1.166,0.041-1.737,0.105L12.707,5.15c-0.716,0.217-1.401,0.502-2.05,0.849L6.464,4.005C5.554,4.73,4.73,5.554,4.005,6.464l1.994,4.192c-0.347,0.648-0.632,1.334-0.849,2.05l-4.378,1.557C0.708,14.834,0.667,15.412,0.667,16s0.041,1.165,0.105,1.736l4.378,1.558c0.217,0.715,0.502,1.401,0.849,2.049l-1.994,4.193c0.725,0.909,1.549,1.733,2.459,2.458l4.192-1.993c0.648,0.347,1.334,0.633,2.05,0.851l1.557,4.377c0.571,0.064,1.148,0.104,1.737,0.104c0.588,0,1.165-0.04,1.736-0.104l1.558-4.377c0.715-0.218,1.399-0.504,2.049-0.851l4.193,1.993c0.909-0.725,1.733-1.549,2.458-2.458l-1.993-4.193c0.347-0.647,0.633-1.334,0.851-2.049L31.229,17.736zM16,20.871c-2.69,0-4.872-2.182-4.872-4.871c0-2.69,2.182-4.872,4.872-4.872c2.689,0,4.871,2.182,4.871,4.872C20.871,18.689,18.689,20.871,16,20.871z"></path><title>Link options.</title></g></g></g></g><!--z-index:28--><g   id="j_580" ><path  stroke="#707070" d="M 1185 238 L 1355 237" id="v-7532" stroke-width="2" stroke-dasharray="30 30" fill="none" style="opacity: 1;"></path><path  fill="black" stroke="black" d="M 0 0 0 0" transform="matrix(0.9999670386314392,-0.00811722595244646,0.00811722595244646,0.9999670386314392,1185,238.19000244140625)"></path><path  fill="#707070" stroke="#707070" d="M 20 0 L 0 10 L 20 20 z" id="v-7534" transform="matrix(-0.9999670386314392,0.0081174923107028,-0.0081174923107028,-0.9999670386314392,1355.0811767578125,246.80967712402344)" style="opacity: 1;"></path><path  d="M 1185 238 L 1355 237" id="v-7533" fill="none" style="cursor: default;"></path><g ><g id="v-7526"  label-idx="0" cursor="move" transform="matrix(1,0,0,1,1270,237.5)" style="cursor: default; opacity: 1;"><rect joint-selector="rect" id="v-7529" fill="#ffffff" rx="3" ry="3" pointer-events="none" width="103.53941345214844" height="33.70179748535156" transform="matrix(1,0,0,1,-51.79999923706055,-16.799999237060547)"></rect><text joint-selector="text" id="v-7528" font-size="24px" xml:space="preserve" y="0.8em" fill="#707070" text-anchor="middle" pointer-events="none" font-family="Open Sans" font-weight="normal" transform="matrix(1,0,0,1,0,-10.199999809265137)"><tspan  dy="0">Executes</tspan></text></g><g id="v-7527"  label-idx="1" cursor="move" transform="matrix(1,0,0,1,1260,263.8999938964844)" style="cursor: default; opacity: 1;"><rect joint-selector="rect" id="v-7531" fill="#ffffff" rx="3" ry="3"  width="0" height="0" transform="matrix(1,0,0,1,0,0)" display="none"></rect><text joint-selector="text" id="v-7530" fill="#000000" font-size="14" text-anchor="middle" pointer-events="none"></text></g></g><g  display="none"></g><g  id="v-7536" display="none"><g  id="v-7524"><path  end="source" d="M 26 0 L 0 13 L 26 26 z"></path></g><g  id="v-7525"><path  end="target" d="M 26 0 L 0 13 L 26 26 z"></path></g></g><g  id="v-7535" display="none"><g  id="v-7523" transform="translate(1224.9993079764365, 237.76470995307977) "><g  event="remove"><circle r="11"></circle><path transform="scale(.8) translate(-16, -16)" d="M24.778,21.419 19.276,15.917 24.777,10.415 21.949,7.585 16.447,13.087 10.945,7.585 8.117,10.415 13.618,15.917 8.116,21.419 10.946,24.248 16.447,18.746 21.948,24.248z"></path><title>Remove link.</title></g><g  event="link:options"><circle r="11" transform="translate(25)"></circle><path fill="white" transform="scale(.55) translate(29, -16)" d="M31.229,17.736c0.064-0.571,0.104-1.148,0.104-1.736s-0.04-1.166-0.104-1.737l-4.377-1.557c-0.218-0.716-0.504-1.401-0.851-2.05l1.993-4.192c-0.725-0.91-1.549-1.734-2.458-2.459l-4.193,1.994c-0.647-0.347-1.334-0.632-2.049-0.849l-1.558-4.378C17.165,0.708,16.588,0.667,16,0.667s-1.166,0.041-1.737,0.105L12.707,5.15c-0.716,0.217-1.401,0.502-2.05,0.849L6.464,4.005C5.554,4.73,4.73,5.554,4.005,6.464l1.994,4.192c-0.347,0.648-0.632,1.334-0.849,2.05l-4.378,1.557C0.708,14.834,0.667,15.412,0.667,16s0.041,1.165,0.105,1.736l4.378,1.558c0.217,0.715,0.502,1.401,0.849,2.049l-1.994,4.193c0.725,0.909,1.549,1.733,2.459,2.458l4.192-1.993c0.648,0.347,1.334,0.633,2.05,0.851l1.557,4.377c0.571,0.064,1.148,0.104,1.737,0.104c0.588,0,1.165-0.04,1.736-0.104l1.558-4.377c0.715-0.218,1.399-0.504,2.049-0.851l4.193,1.993c0.909-0.725,1.733-1.549,2.458-2.458l-1.993-4.193c0.347-0.647,0.633-1.334,0.851-2.049L31.229,17.736zM16,20.871c-2.69,0-4.872-2.182-4.872-4.871c0-2.69,2.182-4.872,4.872-4.872c2.689,0,4.871,2.182,4.871,4.872C20.871,18.689,18.689,20.871,16,20.871z"></path><title>Link options.</title></g></g></g></g><!--z-index:29--><g   id="j_581" ><path  stroke="#707070" d="M 1195 785 L 1355 785" id="v-7546" stroke-width="2" stroke-dasharray="30 30" fill="none" style="opacity: 1;"></path><path  fill="black" stroke="black" d="M 0 0 0 0" transform="matrix(1,0,0,1,1195,785)"></path><path  fill="#707070" stroke="#707070" d="M 20 0 L 0 10 L 20 20 z" id="v-7548" transform="matrix(-1,1.2246468525851679e-16,-1.2246468525851679e-16,-1,1355,795)" style="opacity: 1;"></path><path  d="M 1195 785 L 1355 785" id="v-7547" fill="none" style="cursor: default;"></path><g ><g id="v-7540"  label-idx="0" cursor="move" transform="matrix(1,0,0,1,1275,785)" style="cursor: default; opacity: 1;"><rect joint-selector="rect" id="v-7543" fill="#ffffff" rx="3" ry="3" pointer-events="none" width="56.506683349609375" height="33.70179748535156" transform="matrix(1,0,0,1,-28.299999237060547,-16.799999237060547)"></rect><text joint-selector="text" id="v-7542" font-size="24px" xml:space="preserve" y="0.8em" fill="#707070" text-anchor="middle" pointer-events="none" font-family="Open Sans" font-weight="normal" transform="matrix(1,0,0,1,0,-10.199999809265137)"><tspan  dy="0">Calls</tspan></text></g><g id="v-7541"  label-idx="1" cursor="move" transform="matrix(1,0,0,1,1265,811.4000244140625)" style="cursor: default; opacity: 1;"><rect joint-selector="rect" id="v-7545" fill="#ffffff" rx="3" ry="3"  width="0" height="0" transform="matrix(1,0,0,1,0,0)" display="none"></rect><text joint-selector="text" id="v-7544" fill="#000000" font-size="14" text-anchor="middle" pointer-events="none"></text></g></g><g  display="none"></g><g  id="v-7550" display="none"><g  id="v-7538"><path  end="source" d="M 26 0 L 0 13 L 26 26 z"></path></g><g  id="v-7539"><path  end="target" d="M 26 0 L 0 13 L 26 26 z"></path></g></g><g  id="v-7549" display="none"><g  id="v-7537" transform="translate(1235, 785) "><g  event="remove"><circle r="11"></circle><path transform="scale(.8) translate(-16, -16)" d="M24.778,21.419 19.276,15.917 24.777,10.415 21.949,7.585 16.447,13.087 10.945,7.585 8.117,10.415 13.618,15.917 8.116,21.419 10.946,24.248 16.447,18.746 21.948,24.248z"></path><title>Remove link.</title></g><g  event="link:options"><circle r="11" transform="translate(25)"></circle><path fill="white" transform="scale(.55) translate(29, -16)" d="M31.229,17.736c0.064-0.571,0.104-1.148,0.104-1.736s-0.04-1.166-0.104-1.737l-4.377-1.557c-0.218-0.716-0.504-1.401-0.851-2.05l1.993-4.192c-0.725-0.91-1.549-1.734-2.458-2.459l-4.193,1.994c-0.647-0.347-1.334-0.632-2.049-0.849l-1.558-4.378C17.165,0.708,16.588,0.667,16,0.667s-1.166,0.041-1.737,0.105L12.707,5.15c-0.716,0.217-1.401,0.502-2.05,0.849L6.464,4.005C5.554,4.73,4.73,5.554,4.005,6.464l1.994,4.192c-0.347,0.648-0.632,1.334-0.849,2.05l-4.378,1.557C0.708,14.834,0.667,15.412,0.667,16s0.041,1.165,0.105,1.736l4.378,1.558c0.217,0.715,0.502,1.401,0.849,2.049l-1.994,4.193c0.725,0.909,1.549,1.733,2.459,2.458l4.192-1.993c0.648,0.347,1.334,0.633,2.05,0.851l1.557,4.377c0.571,0.064,1.148,0.104,1.737,0.104c0.588,0,1.165-0.04,1.736-0.104l1.558-4.377c0.715-0.218,1.399-0.504,2.049-0.851l4.193,1.993c0.909-0.725,1.733-1.549,2.458-2.458l-1.993-4.193c0.347-0.647,0.633-1.334,0.851-2.049L31.229,17.736zM16,20.871c-2.69,0-4.872-2.182-4.872-4.871c0-2.69,2.182-4.872,4.872-4.872c2.689,0,4.871,2.182,4.871,4.872C20.871,18.689,18.689,20.871,16,20.871z"></path><title>Link options.</title></g></g></g></g><!--z-index:30--><g   id="j_582" ><path  stroke="#707070" d="M 1580 385 L 1580 635" id="v-7560" stroke-width="2" stroke-dasharray="30 30" fill="none" style="opacity: 1;"></path><path  fill="black" stroke="black" d="M 0 0 0 0" transform="matrix(6.123234262925839e-17,1,-1,6.123234262925839e-17,1580,385)"></path><path  fill="#707070" stroke="#707070" d="M 20 0 L 0 10 L 20 20 z" id="v-7562" transform="matrix(-1.8369701465288538e-16,-1,1,-1.8369701465288538e-16,1570,635)" style="opacity: 1;"></path><path  d="M 1580 385 L 1580 635" id="v-7561" fill="none" style="cursor: default;"></path><g ><g id="v-7554"  label-idx="0" cursor="move" transform="matrix(1,0,0,1,1580,510)" style="cursor: default; opacity: 1;"><rect joint-selector="rect" id="v-7557" fill="#ffffff" rx="3" ry="3" pointer-events="none" width="56.506683349609375" height="33.70179748535156" transform="matrix(1,0,0,1,-28.299999237060547,-16.799999237060547)"></rect><text joint-selector="text" id="v-7556" font-size="24px" xml:space="preserve" y="0.8em" fill="#707070" text-anchor="middle" pointer-events="none" font-family="Open Sans" font-weight="normal" transform="matrix(1,0,0,1,0,-10.199999809265137)"><tspan  dy="0">Calls</tspan></text></g><g id="v-7555"  label-idx="1" cursor="move" transform="matrix(1,0,0,1,1570,536.4000244140625)" style="cursor: default; opacity: 1;"><rect joint-selector="rect" id="v-7559" fill="#ffffff" rx="3" ry="3"  width="0" height="0" transform="matrix(1,0,0,1,0,0)" display="none"></rect><text joint-selector="text" id="v-7558" fill="#000000" font-size="14" text-anchor="middle" pointer-events="none"></text></g></g><g  display="none"></g><g  id="v-7564" display="none"><g  id="v-7552"><path  end="source" d="M 26 0 L 0 13 L 26 26 z"></path></g><g  id="v-7553"><path  end="target" d="M 26 0 L 0 13 L 26 26 z"></path></g></g><g  id="v-7563" display="none"><g  id="v-7551" transform="translate(1580, 425) "><g  event="remove"><circle r="11"></circle><path transform="scale(.8) translate(-16, -16)" d="M24.778,21.419 19.276,15.917 24.777,10.415 21.949,7.585 16.447,13.087 10.945,7.585 8.117,10.415 13.618,15.917 8.116,21.419 10.946,24.248 16.447,18.746 21.948,24.248z"></path><title>Remove link.</title></g><g  event="link:options"><circle r="11" transform="translate(25)"></circle><path fill="white" transform="scale(.55) translate(29, -16)" d="M31.229,17.736c0.064-0.571,0.104-1.148,0.104-1.736s-0.04-1.166-0.104-1.737l-4.377-1.557c-0.218-0.716-0.504-1.401-0.851-2.05l1.993-4.192c-0.725-0.91-1.549-1.734-2.458-2.459l-4.193,1.994c-0.647-0.347-1.334-0.632-2.049-0.849l-1.558-4.378C17.165,0.708,16.588,0.667,16,0.667s-1.166,0.041-1.737,0.105L12.707,5.15c-0.716,0.217-1.401,0.502-2.05,0.849L6.464,4.005C5.554,4.73,4.73,5.554,4.005,6.464l1.994,4.192c-0.347,0.648-0.632,1.334-0.849,2.05l-4.378,1.557C0.708,14.834,0.667,15.412,0.667,16s0.041,1.165,0.105,1.736l4.378,1.558c0.217,0.715,0.502,1.401,0.849,2.049l-1.994,4.193c0.725,0.909,1.549,1.733,2.459,2.458l4.192-1.993c0.648,0.347,1.334,0.633,2.05,0.851l1.557,4.377c0.571,0.064,1.148,0.104,1.737,0.104c0.588,0,1.165-0.04,1.736-0.104l1.558-4.377c0.715-0.218,1.399-0.504,2.049-0.851l4.193,1.993c0.909-0.725,1.733-1.549,2.458-2.458l-1.993-4.193c0.347-0.647,0.633-1.334,0.851-2.049L31.229,17.736zM16,20.871c-2.69,0-4.872-2.182-4.872-4.871c0-2.69,2.182-4.872,4.872-4.872c2.689,0,4.871,2.182,4.871,4.872C20.871,18.689,18.689,20.871,16,20.871z"></path><title>Link options.</title></g></g></g></g><!--z-index:31--><g   id="j_583" ><path  stroke="#707070" d="M 1583 935 L 1587 1180" id="v-7580" stroke-width="2" stroke-dasharray="30 30" fill="none" style="opacity: 1;"></path><path  fill="black" stroke="black" d="M 0 0 0 0" transform="matrix(0.018364259973168373,0.9998313784599304,-0.9998313784599304,0.018364259973168373,1582.75,935)"></path><path  fill="#707070" stroke="#707070" d="M 20 0 L 0 10 L 20 20 z" id="v-7582" transform="matrix(-0.01836412586271763,-0.9998313784599304,0.9998313784599304,-0.01836412586271763,1577.251708984375,1180.1837158203125)" style="opacity: 1;"></path><path  d="M 1583 935 L 1587 1180" id="v-7581" fill="none" style="cursor: default;"></path><g ><g id="v-7571"  label-idx="0" cursor="move" transform="matrix(1,0,0,1,1585,1057.5)" style="cursor: default; opacity: 1;"><rect joint-selector="rect" id="v-7575" fill="#ffffff" rx="3" ry="3" pointer-events="none" width="143.94412231445312" height="33.70179748535156" transform="matrix(1,0,0,1,-72,-16.799999237060547)"></rect><text joint-selector="text" id="v-7574" font-size="24px" xml:space="preserve" y="0.8em" fill="#707070" text-anchor="middle" pointer-events="none" font-family="Open Sans" font-weight="normal" transform="matrix(1,0,0,1,0,-10.199999809265137)"><tspan  dy="0">reads/writes</tspan></text></g><g id="v-7572"  label-idx="1" cursor="move" transform="matrix(1,0,0,1,1585,1083.9000244140625)" style="cursor: default; opacity: 1;"><rect joint-selector="rect" id="v-7577" fill="#ffffff" rx="3" ry="3" pointer-events="none" width="46.78541564941406" height="24.4375" transform="matrix(1,0,0,1,-23.399999618530273,-12.199999809265137)"></rect><text joint-selector="text" id="v-7576" font-size="17px" xml:space="preserve" y="0.8em" fill="#707070" text-anchor="middle" pointer-events="none" font-family="Open Sans" font-weight="normal" transform="matrix(1,0,0,1,0,-6.699999809265137)"><tspan  dy="0">[SQL]</tspan></text></g><g id="v-7573"  label-idx="2" cursor="move" transform="matrix(1,0,0,1,1575,1092.300048828125)" style="cursor: default; opacity: 1;"><rect joint-selector="rect" id="v-7579" fill="#ffffff" rx="3" ry="3"  width="0" height="0" transform="matrix(1,0,0,1,0,0)" display="none"></rect><text joint-selector="text" id="v-7578" fill="#000000" font-size="14" text-anchor="middle" pointer-events="none"></text></g></g><g  display="none"></g><g  id="v-7584" display="none"><g  id="v-7569"><path  end="source" d="M 26 0 L 0 13 L 26 26 z"></path></g><g  id="v-7570"><path  end="target" d="M 26 0 L 0 13 L 26 26 z"></path></g></g><g  id="v-7583" display="none"><g  id="v-7568" transform="translate(1583.6529742033224, 974.994669953505) "><g  event="remove"><circle r="11"></circle><path transform="scale(.8) translate(-16, -16)" d="M24.778,21.419 19.276,15.917 24.777,10.415 21.949,7.585 16.447,13.087 10.945,7.585 8.117,10.415 13.618,15.917 8.116,21.419 10.946,24.248 16.447,18.746 21.948,24.248z"></path><title>Remove link.</title></g><g  event="link:options"><circle r="11" transform="translate(25)"></circle><path fill="white" transform="scale(.55) translate(29, -16)" d="M31.229,17.736c0.064-0.571,0.104-1.148,0.104-1.736s-0.04-1.166-0.104-1.737l-4.377-1.557c-0.218-0.716-0.504-1.401-0.851-2.05l1.993-4.192c-0.725-0.91-1.549-1.734-2.458-2.459l-4.193,1.994c-0.647-0.347-1.334-0.632-2.049-0.849l-1.558-4.378C17.165,0.708,16.588,0.667,16,0.667s-1.166,0.041-1.737,0.105L12.707,5.15c-0.716,0.217-1.401,0.502-2.05,0.849L6.464,4.005C5.554,4.73,4.73,5.554,4.005,6.464l1.994,4.192c-0.347,0.648-0.632,1.334-0.849,2.05l-4.378,1.557C0.708,14.834,0.667,15.412,0.667,16s0.041,1.165,0.105,1.736l4.378,1.558c0.217,0.715,0.502,1.401,0.849,2.049l-1.994,4.193c0.725,0.909,1.549,1.733,2.459,2.458l4.192-1.993c0.648,0.347,1.334,0.633,2.05,0.851l1.557,4.377c0.571,0.064,1.148,0.104,1.737,0.104c0.588,0,1.165-0.04,1.736-0.104l1.558-4.377c0.715-0.218,1.399-0.504,2.049-0.851l4.193,1.993c0.909-0.725,1.733-1.549,2.458-2.458l-1.993-4.193c0.347-0.647,0.633-1.334,0.851-2.049L31.229,17.736zM16,20.871c-2.69,0-4.872-2.182-4.872-4.871c0-2.69,2.182-4.872,4.872-4.872c2.689,0,4.871,2.182,4.871,4.872C20.871,18.689,18.689,20.871,16,20.871z"></path><title>Link options.</title></g></g></g></g><!--z-index:32--><g   id="j_584" ><path  stroke="#707070" d="M 500 240 L 735 240" id="v-7597" stroke-width="2" stroke-dasharray="30 30" fill="none" style="opacity: 1;"></path><path  fill="black" stroke="black" d="M 0 0 0 0" transform="matrix(1,0,0,1,500,240)"></path><path  fill="#707070" stroke="#707070" d="M 20 0 L 0 10 L 20 20 z" id="v-7599" transform="matrix(-1,1.2246468525851679e-16,-1.2246468525851679e-16,-1,735,250)" style="opacity: 1;"></path><path  d="M 500 240 L 735 240" id="v-7598" fill="none" style="cursor: default;"></path><g ><g id="v-7588"  label-idx="0" cursor="move" transform="matrix(1,0,0,1,617.5,240)" style="cursor: default; opacity: 1;"><rect joint-selector="rect" id="v-7592" fill="#ffffff" rx="3" ry="3" pointer-events="none" width="56.506683349609375" height="33.70179748535156" transform="matrix(1,0,0,1,-28.299999237060547,-16.799999237060547)"></rect><text joint-selector="text" id="v-7591" font-size="24px" xml:space="preserve" y="0.8em" fill="#707070" text-anchor="middle" pointer-events="none" font-family="Open Sans" font-weight="normal" transform="matrix(1,0,0,1,0,-10.199999809265137)"><tspan  dy="0">Calls</tspan></text></g><g id="v-7589"  label-idx="1" cursor="move" transform="matrix(1,0,0,1,617.5,266.3999938964844)" style="cursor: default; opacity: 1;"><rect joint-selector="rect" id="v-7594" fill="#ffffff" rx="3" ry="3" pointer-events="none" width="105.43540954589844" height="24.4375" transform="matrix(1,0,0,1,-52.70000076293945,-12.199999809265137)"></rect><text joint-selector="text" id="v-7593" font-size="17px" xml:space="preserve" y="0.8em" fill="#707070" text-anchor="middle" pointer-events="none" font-family="Open Sans" font-weight="normal" transform="matrix(1,0,0,1,0,-6.699999809265137)"><tspan  dy="0">[HTTPS/json]</tspan></text></g><g id="v-7590"  label-idx="2" cursor="move" transform="matrix(1,0,0,1,607.5,274.79998779296875)" style="cursor: default; opacity: 1;"><rect joint-selector="rect" id="v-7596" fill="#ffffff" rx="3" ry="3"  width="0" height="0" transform="matrix(1,0,0,1,0,0)" display="none"></rect><text joint-selector="text" id="v-7595" fill="#000000" font-size="14" text-anchor="middle" pointer-events="none"></text></g></g><g  display="none"></g><g  id="v-7601" display="none"><g  id="v-7586"><path  end="source" d="M 26 0 L 0 13 L 26 26 z"></path></g><g  id="v-7587"><path  end="target" d="M 26 0 L 0 13 L 26 26 z"></path></g></g><g  id="v-7600" display="none"><g  id="v-7585" transform="translate(540, 240) "><g  event="remove"><circle r="11"></circle><path transform="scale(.8) translate(-16, -16)" d="M24.778,21.419 19.276,15.917 24.777,10.415 21.949,7.585 16.447,13.087 10.945,7.585 8.117,10.415 13.618,15.917 8.116,21.419 10.946,24.248 16.447,18.746 21.948,24.248z"></path><title>Remove link.</title></g><g  event="link:options"><circle r="11" transform="translate(25)"></circle><path fill="white" transform="scale(.55) translate(29, -16)" d="M31.229,17.736c0.064-0.571,0.104-1.148,0.104-1.736s-0.04-1.166-0.104-1.737l-4.377-1.557c-0.218-0.716-0.504-1.401-0.851-2.05l1.993-4.192c-0.725-0.91-1.549-1.734-2.458-2.459l-4.193,1.994c-0.647-0.347-1.334-0.632-2.049-0.849l-1.558-4.378C17.165,0.708,16.588,0.667,16,0.667s-1.166,0.041-1.737,0.105L12.707,5.15c-0.716,0.217-1.401,0.502-2.05,0.849L6.464,4.005C5.554,4.73,4.73,5.554,4.005,6.464l1.994,4.192c-0.347,0.648-0.632,1.334-0.849,2.05l-4.378,1.557C0.708,14.834,0.667,15.412,0.667,16s0.041,1.165,0.105,1.736l4.378,1.558c0.217,0.715,0.502,1.401,0.849,2.049l-1.994,4.193c0.725,0.909,1.549,1.733,2.459,2.458l4.192-1.993c0.648,0.347,1.334,0.633,2.05,0.851l1.557,4.377c0.571,0.064,1.148,0.104,1.737,0.104c0.588,0,1.165-0.04,1.736-0.104l1.558-4.377c0.715-0.218,1.399-0.504,2.049-0.851l4.193,1.993c0.909-0.725,1.733-1.549,2.458-2.458l-1.993-4.193c0.347-0.647,0.633-1.334,0.851-2.049L31.229,17.736zM16,20.871c-2.69,0-4.872-2.182-4.872-4.871c0-2.69,2.182-4.872,4.872-4.872c2.689,0,4.871,2.182,4.871,4.872C20.871,18.689,18.689,20.871,16,20.871z"></path><title>Link options.</title></g></g></g></g><!--z-index:33--><!--z-index:34--><!--z-index:35--><!--z-index:36--><!--z-index:37--><!--z-index:38--><!--z-index:39--><!--z-index:40--><!--z-index:41--><!--z-index:42--><!--z-index:43--><!--z-index:44--><!--z-index:45--><!--z-index:46--><!--z-index:47--><!--z-index:48--><!--z-index:49--><!--z-index:50--><!--z-index:51--><!--z-index:52--><!--z-index:53--><!--z-index:54--><!--z-index:55--><!--z-index:56--><!--z-index:57--><!--z-index:58--><!--z-index:59--><!--z-index:60--><!--z-index:61--><!--z-index:62--><!--z-index:63--><!--z-index:64--><!--z-index:65--><!--z-index:66--><!--z-index:67--><!--z-index:68--><!--z-index:69--><!--z-index:70--><!--z-index:71--><!--z-index:72--><!--z-index:73--><!--z-index:74--><!--z-index:75--><!--z-index:76--><!--z-index:77--><!--z-index:78--><!--z-index:79--><!--z-index:80--><!--z-index:81--><!--z-index:82--><!--z-index:83--><!--z-index:84--><!--z-index:85--><!--z-index:86--><!--z-index:87--><!--z-index:88--><!--z-index:89--><!--z-index:90--><!--z-index:91--><!--z-index:92--><!--z-index:93--><!--z-index:94--><!--z-index:95--><!--z-index:96--><!--z-index:97--><!--z-index:98--><!--z-index:99--><!--z-index:100--><!--z-index:101--><!--z-index:102--><!--z-index:103--><!--z-index:104--><!--z-index:105--><!--z-index:106--><!--z-index:107--><!--z-index:108--><!--z-index:109--><!--z-index:110--><!--z-index:111--><!--z-index:112--><!--z-index:113--><!--z-index:114--><!--z-index:115--><!--z-index:116--><!--z-index:117--><!--z-index:118--><!--z-index:119--><!--z-index:120--><!--z-index:121--><!--z-index:122--><!--z-index:123--><!--z-index:124--><!--z-index:125--><!--z-index:126--><!--z-index:127--><!--z-index:128--><!--z-index:129--><!--z-index:130--></g><g ></g><g ></g><g ></g></g></svg>