<svg xmlns="http://www.w3.org/2000/svg" xmlns:xlink="http://www.w3.org/1999/xlink" version="1.1" viewBox="0 0 3051 2390" style="background: #ffffff"><defs><style>@import url(https://fonts.googleapis.com/css?family=Open+Sans:400,700);</style></defs><defs joint-selector="defs"></defs><g  joint-selector="layers" transform="matrix(1,0,0,1,0,0)"><g ></g><g ><!--z-index:0--><!--z-index:1--><!--z-index:2--><!--z-index:3--><!--z-index:4--><!--z-index:5--><!--z-index:6--><!--z-index:7--><!--z-index:8--><!--z-index:9--><!--z-index:10--><!--z-index:11--><!--z-index:12--><!--z-index:13--><!--z-index:14--><!--z-index:15--><!--z-index:16--><!--z-index:17--><!--z-index:18--><!--z-index:19--><!--z-index:20--><!--z-index:21--><!--z-index:22--><!--z-index:23--><!--z-index:24--><!--z-index:25--><!--z-index:26--><!--z-index:27--><!--z-index:28--><!--z-index:29--><!--z-index:30--><!--z-index:31--><!--z-index:32--><!--z-index:33--><!--z-index:34--><!--z-index:35--><!--z-index:36--><!--z-index:37--><!--z-index:38--><!--z-index:39--><!--z-index:40--><!--z-index:41--><!--z-index:42--><!--z-index:43--><!--z-index:44--><!--z-index:45--><!--z-index:46--><g   id="j_30"  transform="translate(20,2353.6)"><g id="v-321"><text  id="v-322" font-size="22px" xml:space="preserve" y="0.8em" font-weight="normal" text-anchor="start" fill="#aaaaaa" pointer-events="none" display="block" font-family="Open Sans"><tspan  dy="0" display="block">Thursday, 3 October 2024 at 16:37 British Summer Time</tspan></text></g></g><!--z-index:47--><g   id="j_29"  transform="translate(20,2327.2)"><g id="v-319"><text  id="v-320" font-size="22px" xml:space="preserve" y="0.8em" font-weight="normal" text-anchor="start" fill="#aaaaaa" pointer-events="none" display="block" font-family="Open Sans"><tspan  dy="0" display="block">The component diagram for the Entity Verification.</tspan></text></g></g><!--z-index:48--><g   id="j_28"  transform="translate(20,2284)"><g id="v-317"><text  id="v-318" font-size="36px" xml:space="preserve" y="0.8em" font-weight="normal" text-anchor="start" fill="#000000" pointer-events="none" display="block" font-family="Open Sans"><tspan  dy="0" display="block">[Component] Central Digital Platform - Entity Verification</tspan></text></g></g><!--z-index:49--><g   id="j_31"  transform="translate(2400,680)" style=""><g  id="v-323" style="opacity: 1;"><path  d="M 30,0 a 30,150 0,0,1 0 300 a 30,150 0,0,1 0 -300 l 390,0 a 30,150 0,0,1 0 300 l -390,0" id="v-324" stroke="#3c7fc0" stroke-width="2" pointer-events="visiblePainted" fill="#438dd5" style="fill: rgb(67, 141, 213); stroke: rgb(60, 127, 192);"></path><rect  id="v-325" stroke-width="0" pointer-events="visiblePainted" fill="none" stroke="none" width="420" height="300" x="30" y="0"></rect><text  id="v-326" font-size="34" xml:space="preserve" y="0.8em" font-weight="bold" text-anchor="middle" pointer-events="visible" font-family="Open Sans" fill="#ffffff" transform="matrix(1,0,0,1,240,121.9000015258789)" style="fill: rgb(255, 255, 255);"><tspan  dy="0">Message Queue</tspan></text><text  id="v-327" font-size="17" xml:space="preserve" y="0.8em" text-anchor="middle" font-family="Open Sans" fill="#ffffff" transform="matrix(1,0,0,1,240,162.6999969482422)" style="fill: rgb(255, 255, 255);"><tspan  dy="0">[Container: SQS]</tspan></text><text  id="v-328" font-size="24" xml:space="preserve" display="none" y="0.8em" text-anchor="middle" font-family="Open Sans" fill="#ffffff" transform="matrix(1,0,0,1,240,183.10000610351562)" style="fill: rgb(255, 255, 255);"><tspan style="fill-opacity: 0; stroke-opacity: 0;"  dy="0">-</tspan></text><g  id="v-329" font-weight="normal" text-anchor="middle" color="#ffffff" transform="matrix(1,0,0,1,237.5,268)" style="fill: rgb(255, 255, 255);" display="none"><g ></g><g ></g><g ></g><g ></g></g><image  id="v-330"></image></g></g><!--z-index:50--><g   id="j_32"  transform="translate(1019,1889)" style=""><g  id="v-334" style="opacity: 1;"><path  d="M 0,30 a 225,30 0,0,0 450 0 a 225,30 0,0,0 -450 0 l 0,240 a 225,30 0,0,0 450 0 l 0,-240" id="v-335" stroke="#3c7fc0" stroke-width="2" pointer-events="visiblePainted" fill="#438dd5" style="fill: rgb(67, 141, 213); stroke: rgb(60, 127, 192);"></path><rect  id="v-336" stroke-width="0" pointer-events="visiblePainted" fill="none" stroke="none" width="450" height="270" x="0" y="30"></rect><text  id="v-337" font-size="34" xml:space="preserve" y="0.8em" font-weight="bold" text-anchor="middle" pointer-events="visible" font-family="Open Sans" fill="#ffffff" transform="matrix(1,0,0,1,225,124)" style="fill: rgb(255, 255, 255);"><tspan  dy="0">Entity Verification</tspan><tspan dy="1.2em" x="0" >Database</tspan></text><text  id="v-338" font-size="17" xml:space="preserve" y="0.8em" text-anchor="middle" font-family="Open Sans" fill="#ffffff" transform="matrix(1,0,0,1,225,205.60000610351562)" style="fill: rgb(255, 255, 255);"><tspan  dy="0">[Container: PostgreSQL]</tspan></text><text  id="v-339" font-size="24" xml:space="preserve" display="none" y="0.8em" text-anchor="middle" font-family="Open Sans" fill="#ffffff" transform="matrix(1,0,0,1,225,226)" style="fill: rgb(255, 255, 255);"><tspan style="fill-opacity: 0; stroke-opacity: 0;"  dy="0">-</tspan></text><g  id="v-340" font-weight="normal" text-anchor="middle" color="#ffffff" transform="matrix(1,0,0,1,222.5,268)" style="fill: rgb(255, 255, 255);" display="none"><g ></g><g ></g><g ></g><g ></g></g><image  id="v-341"></image></g></g><!--z-index:51--><g   id="j_35"  transform="translate(999,199)" style=""><g id="v-354"><rect  id="v-355" width="1141" height="1357" rx="0" ry="0" fill="#ffffff" stroke="#3c7fc0" stroke-width="1" stroke-dasharray="20,20" pointer-events="none"></rect><text  id="v-356" font-size="24px" xml:space="preserve" y="1318" font-weight="normal" fill="#3c7fc0" text-anchor="start" pointer-events="visible" font-family="Open Sans" transform="matrix(1,0,0,1,15,0)"><tspan  dy="0">Entity Verification</tspan></text><text  id="v-357" font-size="17px" xml:space="preserve" y="1342" font-weight="normal" fill="#3c7fc0" text-anchor="start" pointer-events="visible" font-family="Open Sans" transform="matrix(1,0,0,1,15,0)"><tspan  dy="0">[Container]</tspan></text><image  id="v-358" pointer-events="visible"></image></g></g><!--z-index:52--><g   id="j_34"  transform="translate(1630,660)" style=""><g id="v-349"><rect  id="v-350" width="490" height="394" rx="0" ry="0" fill="#ffffff" stroke="#444444" stroke-width="1" stroke-dasharray="5,5" pointer-events="none"></rect><text  id="v-351" font-size="24px" xml:space="preserve" y="379" font-weight="normal" fill="#444444" text-anchor="start" pointer-events="visible" font-family="Open Sans" transform="matrix(1,0,0,1,15,0)"><tspan  dy="0">Libraries</tspan></text><text  id="v-352" font-size="17px" xml:space="preserve" display="none" y="379" font-weight="normal" fill="#444444" text-anchor="start" pointer-events="visible" font-family="Open Sans" transform="matrix(1,0,0,1,15,0)"><tspan style="fill-opacity: 0; stroke-opacity: 0;"  dy="0">-</tspan></text><image  id="v-353" pointer-events="visible"></image></g></g><!--z-index:53--><g   id="j_36"  transform="translate(1019,219)" style=""><g  id="v-368" style="opacity: 1;"><rect  id="v-369" rx="20" ry="20" stroke="#78a8d8" stroke-width="2" pointer-events="visiblePainted" fill="#85bbf0" width="450" height="300" style="fill: rgb(133, 187, 240); stroke: rgb(120, 168, 216);"></rect><text  id="v-370" font-size="34" xml:space="preserve" y="0.8em" font-weight="bold" text-anchor="middle" pointer-events="visible" font-family="Open Sans" fill="#000000" transform="matrix(1,0,0,1,225,82.0999984741211)" style="fill: rgb(0, 0, 0);"><tspan  dy="0">Entity Verification</tspan><tspan dy="1.2em" x="0" >Endpoint</tspan></text><text  id="v-371" font-size="17" xml:space="preserve" y="0.8em" text-anchor="middle" font-family="Open Sans" fill="#000000" transform="matrix(1,0,0,1,225,163.6999969482422)" style="fill: rgb(0, 0, 0);"><tspan  dy="0">[Component: Asp.Net Core Web API]</tspan></text><text  id="v-372" font-size="24" xml:space="preserve" y="0.8em" text-anchor="middle" font-family="Open Sans" fill="#000000" transform="matrix(1,0,0,1,225,194.10000610351562)" style="fill: rgb(0, 0, 0);"><tspan  dy="0">Queries known identifers.</tspan></text><g  id="v-373" color="#000000" transform="matrix(1,0,0,1,222.5,268)" style="fill: rgb(0, 0, 0);" display="none"><g ></g><g ></g><g ></g><g ></g></g><image  id="v-374"></image></g></g><!--z-index:54--><g   id="j_37"  transform="translate(1019,680)" style=""><g  id="v-375" style="opacity: 1;"><rect  id="v-376" rx="20" ry="20" stroke="#78a8d8" stroke-width="2" pointer-events="visiblePainted" fill="#85bbf0" width="450" height="300" style="fill: rgb(133, 187, 240); stroke: rgb(120, 168, 216);"></rect><text  id="v-377" font-size="34" xml:space="preserve" y="0.8em" font-weight="bold" text-anchor="middle" pointer-events="visible" font-family="Open Sans" fill="#000000" transform="matrix(1,0,0,1,225,121.9000015258789)" style="fill: rgb(0, 0, 0);"><tspan  dy="0">Use Case</tspan></text><text  id="v-378" font-size="17" xml:space="preserve" y="0.8em" text-anchor="middle" font-family="Open Sans" fill="#000000" transform="matrix(1,0,0,1,225,162.6999969482422)" style="fill: rgb(0, 0, 0);"><tspan  dy="0">[Component]</tspan></text><text  id="v-379" font-size="24" xml:space="preserve" display="none" y="0.8em" text-anchor="middle" font-family="Open Sans" fill="#000000" transform="matrix(1,0,0,1,225,183.10000610351562)" style="fill: rgb(0, 0, 0);"><tspan style="fill-opacity: 0; stroke-opacity: 0;"  dy="0">-</tspan></text><g  id="v-380" color="#000000" transform="matrix(1,0,0,1,222.5,268)" style="fill: rgb(0, 0, 0);" display="none"><g ></g><g ></g><g ></g><g ></g></g><image  id="v-381"></image></g></g><!--z-index:55--><g   id="j_38"  transform="translate(1650,1165)" style=""><g  id="v-385" style="opacity: 1;"><rect  id="v-386" rx="20" ry="20" stroke="#78a8d8" stroke-width="2" pointer-events="visiblePainted" fill="#85bbf0" width="450" height="300" style="fill: rgb(133, 187, 240); stroke: rgb(120, 168, 216);"></rect><text  id="v-387" font-size="34" xml:space="preserve" y="0.8em" font-weight="bold" text-anchor="middle" pointer-events="visible" font-family="Open Sans" fill="#000000" transform="matrix(1,0,0,1,225,121.9000015258789)" style="fill: rgb(0, 0, 0);"><tspan  dy="0">Message Subscriber</tspan></text><text  id="v-388" font-size="17" xml:space="preserve" y="0.8em" text-anchor="middle" font-family="Open Sans" fill="#000000" transform="matrix(1,0,0,1,225,162.6999969482422)" style="fill: rgb(0, 0, 0);"><tspan  dy="0">[Component]</tspan></text><text  id="v-389" font-size="24" xml:space="preserve" display="none" y="0.8em" text-anchor="middle" font-family="Open Sans" fill="#000000" transform="matrix(1,0,0,1,225,183.10000610351562)" style="fill: rgb(0, 0, 0);"><tspan style="fill-opacity: 0; stroke-opacity: 0;"  dy="0">-</tspan></text><g  id="v-390" color="#000000" transform="matrix(1,0,0,1,222.5,268)" style="fill: rgb(0, 0, 0);" display="none"><g ></g><g ></g><g ></g><g ></g></g><image  id="v-391"></image></g></g><!--z-index:56--><g   id="j_39"  transform="translate(1019,1159)" style=""><g  id="v-395" style="opacity: 1;"><rect  id="v-396" rx="20" ry="20" stroke="#78a8d8" stroke-width="2" pointer-events="visiblePainted" fill="#85bbf0" width="450" height="300" style="fill: rgb(133, 187, 240); stroke: rgb(120, 168, 216);"></rect><text  id="v-397" font-size="34" xml:space="preserve" y="0.8em" font-weight="bold" text-anchor="middle" pointer-events="visible" font-family="Open Sans" fill="#000000" transform="matrix(1,0,0,1,225,88.0999984741211)" style="fill: rgb(0, 0, 0);"><tspan  dy="0">Persistence</tspan></text><text  id="v-398" font-size="17" xml:space="preserve" y="0.8em" text-anchor="middle" font-family="Open Sans" fill="#000000" transform="matrix(1,0,0,1,225,128.89999389648438)" style="fill: rgb(0, 0, 0);"><tspan  dy="0">[Component: C# Namespace]</tspan></text><text  id="v-399" font-size="24" xml:space="preserve" y="0.8em" text-anchor="middle" font-family="Open Sans" fill="#000000" transform="matrix(1,0,0,1,225,159.3000030517578)" style="fill: rgb(0, 0, 0);"><tspan  dy="0">EntityFramework Core model and</tspan><tspan dy="1.2em" x="0" >repositories</tspan></text><g  id="v-400" color="#000000" transform="matrix(1,0,0,1,222.5,268)" style="fill: rgb(0, 0, 0);" display="none"><g ></g><g ></g><g ></g><g ></g></g><image  id="v-401"></image></g></g><!--z-index:57--><g   id="j_33"  transform="translate(1650,680)" style=""><g  id="v-342" style="opacity: 1;"><rect  id="v-343" rx="20" ry="20" stroke="#78a8d8" stroke-width="2" pointer-events="visiblePainted" fill="#85bbf0" width="450" height="300" style="fill: rgb(133, 187, 240); stroke: rgb(120, 168, 216);"></rect><text  id="v-344" font-size="34" xml:space="preserve" y="0.8em" font-weight="bold" text-anchor="middle" pointer-events="visible" font-family="Open Sans" fill="#000000" transform="matrix(1,0,0,1,225,102.5)" style="fill: rgb(0, 0, 0);"><tspan  dy="0">MQ</tspan></text><text  id="v-345" font-size="17" xml:space="preserve" y="0.8em" text-anchor="middle" font-family="Open Sans" fill="#000000" transform="matrix(1,0,0,1,225,143.3000030517578)" style="fill: rgb(0, 0, 0);"><tspan  dy="0">[Component: C# project]</tspan></text><text  id="v-346" font-size="24" xml:space="preserve" y="0.8em" text-anchor="middle" font-family="Open Sans" fill="#000000" transform="matrix(1,0,0,1,225,173.6999969482422)" style="fill: rgb(0, 0, 0);"><tspan  dy="0">Message Queue client</tspan></text><g  id="v-347" color="#000000" transform="matrix(1,0,0,1,222.5,268)" style="fill: rgb(0, 0, 0);" display="none"><g ></g><g ></g><g ></g><g ></g></g><image  id="v-348"></image></g></g><!--z-index:58--><g   id="j_40"  transform="translate(199,219)" style=""><g  id="v-408" style="opacity: 1;"><rect  id="v-409" rx="10" ry="10" stroke="#3c7fc0" stroke-width="2" pointer-events="visiblePainted" fill="#3c7fc0" width="450" height="300" style="fill: rgb(60, 127, 192); stroke: rgb(60, 127, 192);"></rect><rect  id="v-410" rx="10" ry="10" stroke="#3c7fc0" stroke-width="0" pointer-events="visiblePainted" fill="#438dd5" width="430" height="250" x="10" y="40" style="fill: rgb(67, 141, 213);"></rect><ellipse  id="v-417" fill="#438dd5" cx="20" cy="20" rx="10" ry="10" style="fill: rgb(67, 141, 213);"></ellipse><ellipse  id="v-418" fill="#438dd5" cx="50" cy="20" rx="10" ry="10" style="fill: rgb(67, 141, 213);"></ellipse><ellipse  id="v-419" fill="#438dd5" cx="80" cy="20" rx="10" ry="10" style="fill: rgb(67, 141, 213);"></ellipse><rect  id="v-411" rx="10" ry="10" stroke="#444444" stroke-width="0" pointer-events="visiblePainted" fill="#438dd5" width="340" height="20" x="100" y="10" style="fill: rgb(67, 141, 213);"></rect><text  id="v-412" font-size="34" xml:space="preserve" y="0.8em" font-weight="bold" text-anchor="middle" pointer-events="visible" font-family="Open Sans" fill="#ffffff" transform="matrix(1,0,0,1,225,117.5)" style="fill: rgb(255, 255, 255);"><tspan  dy="0">Organisation App</tspan></text><text  id="v-413" font-size="17" xml:space="preserve" y="0.8em" text-anchor="middle" font-family="Open Sans" fill="#ffffff" transform="matrix(1,0,0,1,225,158.3000030517578)" style="fill: rgb(255, 255, 255);"><tspan  dy="0">[Container: Asp.Net Core MVC]</tspan></text><text  id="v-414" font-size="24" xml:space="preserve" y="0.8em" text-anchor="middle" font-family="Open Sans" fill="#ffffff" transform="matrix(1,0,0,1,225,188.6999969482422)" style="fill: rgb(255, 255, 255);"><tspan  dy="0">Account &amp; data capture frontend</tspan></text><g  id="v-415" font-weight="normal" text-anchor="middle" color="#ffffff" transform="matrix(1,0,0,1,210,258)" style="fill: rgb(255, 255, 255);" display="none"><g  transform="translate(5 0)"><svg xmlns="http://www.w3.org/2000/svg" width="20" height="20" fill="currentColor" viewBox="0 0 16 16"><path fill-rule="evenodd" d="M6.5 12a5.5 5.5 0 1 0 0-11 5.5 5.5 0 0 0 0 11zM13 6.5a6.5 6.5 0 1 1-13 0 6.5 6.5 0 0 1 13 0z"></path><path d="M10.344 11.742c.03.04.062.078.098.115l3.85 3.85a1 1 0 0 0 1.415-1.414l-3.85-3.85a1.007 1.007 0 0 0-.115-.1 6.538 6.538 0 0 1-1.398 1.4z"></path><path fill-rule="evenodd" d="M6.5 3a.5.5 0 0 1 .5.5V6h2.5a.5.5 0 0 1 0 1H7v2.5a.5.5 0 0 1-1 0V7H3.5a.5.5 0 0 1 0-1H6V3.5a.5.5 0 0 1 .5-.5z"></path></svg></g><g ></g><g ></g><g ></g></g><image  id="v-416"></image></g></g><!--z-index:59--><g   id="j_41" ><path  stroke="#707070" d="M 649 369 L 1019 369" id="v-432" stroke-width="2" stroke-dasharray="30 30" fill="none" style="opacity: 1;"></path><path  fill="black" stroke="black" d="M 0 0 0 0" transform="matrix(1,0,0,1,649,369)"></path><path  fill="#707070" stroke="#707070" d="M 20 0 L 0 10 L 20 20 z" id="v-434" transform="matrix(-1,1.2246468525851679e-16,-1.2246468525851679e-16,-1,1019,379)" style="opacity: 1;"></path><path  d="M 649 369 L 1019 369" id="v-433" fill="none" style="cursor: default;"></path><g ><g id="v-423"  label-idx="0" cursor="move" transform="matrix(1,0,0,1,834,369)" style="cursor: default; opacity: 1;"><rect joint-selector="rect" id="v-427" fill="#ffffff" rx="3" ry="3" pointer-events="none" width="58" height="34.49999809265137" transform="matrix(1,0,0,1,-29,-17.299999237060547)"></rect><text joint-selector="text" id="v-426" font-size="24px" xml:space="preserve" y="0.8em" fill="#707070" text-anchor="middle" pointer-events="none" font-family="Open Sans" font-weight="normal" transform="matrix(1,0,0,1,0,-9.5)"><tspan  dy="0">Calls</tspan></text></g><g id="v-424"  label-idx="1" cursor="move" transform="matrix(1,0,0,1,834,395.3999938964844)" style="cursor: default; opacity: 1;"><rect joint-selector="rect" id="v-429" fill="#ffffff" rx="3" ry="3" pointer-events="none" width="105.43540954589844" height="24.4375" transform="matrix(1,0,0,1,-52.70000076293945,-12.199999809265137)"></rect><text joint-selector="text" id="v-428" font-size="17px" xml:space="preserve" y="0.8em" fill="#707070" text-anchor="middle" pointer-events="none" font-family="Open Sans" font-weight="normal" transform="matrix(1,0,0,1,0,-6.699999809265137)"><tspan  dy="0">[HTTPS/json]</tspan></text></g><g id="v-425"  label-idx="2" cursor="move" transform="matrix(1,0,0,1,824,403.79998779296875)" style="cursor: default; opacity: 1;"><rect joint-selector="rect" id="v-431" fill="#ffffff" rx="3" ry="3"  width="0" height="0" transform="matrix(1,0,0,1,0,0)" display="none"></rect><text joint-selector="text" id="v-430" fill="#000000" font-size="14" text-anchor="middle" pointer-events="none"></text></g></g><g  display="none"></g><g  id="v-436" display="none"><g  id="v-421"><path  end="source" d="M 26 0 L 0 13 L 26 26 z"></path></g><g  id="v-422"><path  end="target" d="M 26 0 L 0 13 L 26 26 z"></path></g></g><g  id="v-435" display="none"><g  id="v-420" transform="translate(689, 369) "><g  event="remove"><circle r="11"></circle><path transform="scale(.8) translate(-16, -16)" d="M24.778,21.419 19.276,15.917 24.777,10.415 21.949,7.585 16.447,13.087 10.945,7.585 8.117,10.415 13.618,15.917 8.116,21.419 10.946,24.248 16.447,18.746 21.948,24.248z"></path><title>Remove link.</title></g><g  event="link:options"><circle r="11" transform="translate(25)"></circle><path fill="white" transform="scale(.55) translate(29, -16)" d="M31.229,17.736c0.064-0.571,0.104-1.148,0.104-1.736s-0.04-1.166-0.104-1.737l-4.377-1.557c-0.218-0.716-0.504-1.401-0.851-2.05l1.993-4.192c-0.725-0.91-1.549-1.734-2.458-2.459l-4.193,1.994c-0.647-0.347-1.334-0.632-2.049-0.849l-1.558-4.378C17.165,0.708,16.588,0.667,16,0.667s-1.166,0.041-1.737,0.105L12.707,5.15c-0.716,0.217-1.401,0.502-2.05,0.849L6.464,4.005C5.554,4.73,4.73,5.554,4.005,6.464l1.994,4.192c-0.347,0.648-0.632,1.334-0.849,2.05l-4.378,1.557C0.708,14.834,0.667,15.412,0.667,16s0.041,1.165,0.105,1.736l4.378,1.558c0.217,0.715,0.502,1.401,0.849,2.049l-1.994,4.193c0.725,0.909,1.549,1.733,2.459,2.458l4.192-1.993c0.648,0.347,1.334,0.633,2.05,0.851l1.557,4.377c0.571,0.064,1.148,0.104,1.737,0.104c0.588,0,1.165-0.04,1.736-0.104l1.558-4.377c0.715-0.218,1.399-0.504,2.049-0.851l4.193,1.993c0.909-0.725,1.733-1.549,2.458-2.458l-1.993-4.193c0.347-0.647,0.633-1.334,0.851-2.049L31.229,17.736zM16,20.871c-2.69,0-4.872-2.182-4.872-4.871c0-2.69,2.182-4.872,4.872-4.872c2.689,0,4.871,2.182,4.871,4.872C20.871,18.689,18.689,20.871,16,20.871z"></path><title>Link options.</title></g></g></g></g><!--z-index:60--><g   id="j_42" ><path  stroke="#707070" d="M 1244 519 L 1244 680" id="v-446" stroke-width="2" stroke-dasharray="30 30" fill="none" style="opacity: 1;"></path><path  fill="black" stroke="black" d="M 0 0 0 0" transform="matrix(6.123234262925839e-17,1,-1,6.123234262925839e-17,1244,519)"></path><path  fill="#707070" stroke="#707070" d="M 20 0 L 0 10 L 20 20 z" id="v-448" transform="matrix(-1.8369701465288538e-16,-1,1,-1.8369701465288538e-16,1234,680)" style="opacity: 1;"></path><path  d="M 1244 519 L 1244 680" id="v-447" fill="none" style="cursor: default;"></path><g ><g id="v-440"  label-idx="0" cursor="move" transform="matrix(1,0,0,1,1244,599.5)" style="cursor: default; opacity: 1;"><rect joint-selector="rect" id="v-443" fill="#ffffff" rx="3" ry="3" pointer-events="none" width="105.0999984741211" height="34.49999809265137" transform="matrix(1,0,0,1,-52.5,-17.299999237060547)"></rect><text joint-selector="text" id="v-442" font-size="24px" xml:space="preserve" y="0.8em" fill="#707070" text-anchor="middle" pointer-events="none" font-family="Open Sans" font-weight="normal" transform="matrix(1,0,0,1,0,-9.5)"><tspan  dy="0">Executes</tspan></text></g><g id="v-441"  label-idx="1" cursor="move" transform="matrix(1,0,0,1,1234,625.9000244140625)" style="cursor: default; opacity: 1;"><rect joint-selector="rect" id="v-445" fill="#ffffff" rx="3" ry="3"  width="0" height="0" transform="matrix(1,0,0,1,0,0)" display="none"></rect><text joint-selector="text" id="v-444" fill="#000000" font-size="14" text-anchor="middle" pointer-events="none"></text></g></g><g  display="none"></g><g  id="v-450" display="none"><g  id="v-438"><path  end="source" d="M 26 0 L 0 13 L 26 26 z"></path></g><g  id="v-439"><path  end="target" d="M 26 0 L 0 13 L 26 26 z"></path></g></g><g  id="v-449" display="none"><g  id="v-437" transform="translate(1244, 559) "><g  event="remove"><circle r="11"></circle><path transform="scale(.8) translate(-16, -16)" d="M24.778,21.419 19.276,15.917 24.777,10.415 21.949,7.585 16.447,13.087 10.945,7.585 8.117,10.415 13.618,15.917 8.116,21.419 10.946,24.248 16.447,18.746 21.948,24.248z"></path><title>Remove link.</title></g><g  event="link:options"><circle r="11" transform="translate(25)"></circle><path fill="white" transform="scale(.55) translate(29, -16)" d="M31.229,17.736c0.064-0.571,0.104-1.148,0.104-1.736s-0.04-1.166-0.104-1.737l-4.377-1.557c-0.218-0.716-0.504-1.401-0.851-2.05l1.993-4.192c-0.725-0.91-1.549-1.734-2.458-2.459l-4.193,1.994c-0.647-0.347-1.334-0.632-2.049-0.849l-1.558-4.378C17.165,0.708,16.588,0.667,16,0.667s-1.166,0.041-1.737,0.105L12.707,5.15c-0.716,0.217-1.401,0.502-2.05,0.849L6.464,4.005C5.554,4.73,4.73,5.554,4.005,6.464l1.994,4.192c-0.347,0.648-0.632,1.334-0.849,2.05l-4.378,1.557C0.708,14.834,0.667,15.412,0.667,16s0.041,1.165,0.105,1.736l4.378,1.558c0.217,0.715,0.502,1.401,0.849,2.049l-1.994,4.193c0.725,0.909,1.549,1.733,2.459,2.458l4.192-1.993c0.648,0.347,1.334,0.633,2.05,0.851l1.557,4.377c0.571,0.064,1.148,0.104,1.737,0.104c0.588,0,1.165-0.04,1.736-0.104l1.558-4.377c0.715-0.218,1.399-0.504,2.049-0.851l4.193,1.993c0.909-0.725,1.733-1.549,2.458-2.458l-1.993-4.193c0.347-0.647,0.633-1.334,0.851-2.049L31.229,17.736zM16,20.871c-2.69,0-4.872-2.182-4.872-4.871c0-2.69,2.182-4.872,4.872-4.872c2.689,0,4.871,2.182,4.871,4.872C20.871,18.689,18.689,20.871,16,20.871z"></path><title>Link options.</title></g></g></g></g><!--z-index:61--><g   id="j_43" ><path  stroke="#707070" d="M 1244 980 L 1244 1159" id="v-460" stroke-width="2" stroke-dasharray="30 30" fill="none" style="opacity: 1;"></path><path  fill="black" stroke="black" d="M 0 0 0 0" transform="matrix(6.123234262925839e-17,1,-1,6.123234262925839e-17,1244,980)"></path><path  fill="#707070" stroke="#707070" d="M 20 0 L 0 10 L 20 20 z" id="v-462" transform="matrix(-1.8369701465288538e-16,-1,1,-1.8369701465288538e-16,1234,1159)" style="opacity: 1;"></path><path  d="M 1244 980 L 1244 1159" id="v-461" fill="none" style="cursor: default;"></path><g ><g id="v-454"  label-idx="0" cursor="move" transform="matrix(1,0,0,1,1244,1069.5)" style="cursor: default; opacity: 1;"><rect joint-selector="rect" id="v-457" fill="#ffffff" rx="3" ry="3" pointer-events="none" width="58" height="34.49999809265137" transform="matrix(1,0,0,1,-29,-17.299999237060547)"></rect><text joint-selector="text" id="v-456" font-size="24px" xml:space="preserve" y="0.8em" fill="#707070" text-anchor="middle" pointer-events="none" font-family="Open Sans" font-weight="normal" transform="matrix(1,0,0,1,0,-9.5)"><tspan  dy="0">Calls</tspan></text></g><g id="v-455"  label-idx="1" cursor="move" transform="matrix(1,0,0,1,1234,1095.9000244140625)" style="cursor: default; opacity: 1;"><rect joint-selector="rect" id="v-459" fill="#ffffff" rx="3" ry="3"  width="0" height="0" transform="matrix(1,0,0,1,0,0)" display="none"></rect><text joint-selector="text" id="v-458" fill="#000000" font-size="14" text-anchor="middle" pointer-events="none"></text></g></g><g  display="none"></g><g  id="v-464" display="none"><g  id="v-452"><path  end="source" d="M 26 0 L 0 13 L 26 26 z"></path></g><g  id="v-453"><path  end="target" d="M 26 0 L 0 13 L 26 26 z"></path></g></g><g  id="v-463" display="none"><g  id="v-451" transform="translate(1244, 1020) "><g  event="remove"><circle r="11"></circle><path transform="scale(.8) translate(-16, -16)" d="M24.778,21.419 19.276,15.917 24.777,10.415 21.949,7.585 16.447,13.087 10.945,7.585 8.117,10.415 13.618,15.917 8.116,21.419 10.946,24.248 16.447,18.746 21.948,24.248z"></path><title>Remove link.</title></g><g  event="link:options"><circle r="11" transform="translate(25)"></circle><path fill="white" transform="scale(.55) translate(29, -16)" d="M31.229,17.736c0.064-0.571,0.104-1.148,0.104-1.736s-0.04-1.166-0.104-1.737l-4.377-1.557c-0.218-0.716-0.504-1.401-0.851-2.05l1.993-4.192c-0.725-0.91-1.549-1.734-2.458-2.459l-4.193,1.994c-0.647-0.347-1.334-0.632-2.049-0.849l-1.558-4.378C17.165,0.708,16.588,0.667,16,0.667s-1.166,0.041-1.737,0.105L12.707,5.15c-0.716,0.217-1.401,0.502-2.05,0.849L6.464,4.005C5.554,4.73,4.73,5.554,4.005,6.464l1.994,4.192c-0.347,0.648-0.632,1.334-0.849,2.05l-4.378,1.557C0.708,14.834,0.667,15.412,0.667,16s0.041,1.165,0.105,1.736l4.378,1.558c0.217,0.715,0.502,1.401,0.849,2.049l-1.994,4.193c0.725,0.909,1.549,1.733,2.459,2.458l4.192-1.993c0.648,0.347,1.334,0.633,2.05,0.851l1.557,4.377c0.571,0.064,1.148,0.104,1.737,0.104c0.588,0,1.165-0.04,1.736-0.104l1.558-4.377c0.715-0.218,1.399-0.504,2.049-0.851l4.193,1.993c0.909-0.725,1.733-1.549,2.458-2.458l-1.993-4.193c0.347-0.647,0.633-1.334,0.851-2.049L31.229,17.736zM16,20.871c-2.69,0-4.872-2.182-4.872-4.871c0-2.69,2.182-4.872,4.872-4.872c2.689,0,4.871,2.182,4.871,4.872C20.871,18.689,18.689,20.871,16,20.871z"></path><title>Link options.</title></g></g></g></g><!--z-index:62--><g   id="j_44" ><path  stroke="#707070" d="M 1650 1313 L 1469 1311" id="v-474" stroke-width="2" stroke-dasharray="30 30" fill="none" style="opacity: 1;"></path><path  fill="black" stroke="black" d="M 0 0 0 0" transform="matrix(-0.999954879283905,-0.009502282366156578,0.009502282366156578,-0.999954879283905,1650,1312.8599853515625)"></path><path  fill="#707070" stroke="#707070" d="M 20 0 L 0 10 L 20 20 z" id="v-476" transform="matrix(0.999954879283905,0.009502332657575607,-0.009502332657575607,0.999954879283905,1469.094970703125,1301.140380859375)" style="opacity: 1;"></path><path  d="M 1650 1313 L 1469 1311" id="v-475" fill="none" style="cursor: default;"></path><g ><g id="v-468"  label-idx="0" cursor="move" transform="matrix(1,0,0,1,1559.5,1312)" style="cursor: default; opacity: 1;"><rect joint-selector="rect" id="v-471" fill="#ffffff" rx="3" ry="3" pointer-events="none" width="58" height="34.49999809265137" transform="matrix(1,0,0,1,-29,-17.299999237060547)"></rect><text joint-selector="text" id="v-470" font-size="24px" xml:space="preserve" y="0.8em" fill="#707070" text-anchor="middle" pointer-events="none" font-family="Open Sans" font-weight="normal" transform="matrix(1,0,0,1,0,-9.5)"><tspan  dy="0">Calls</tspan></text></g><g id="v-469"  label-idx="1" cursor="move" transform="matrix(1,0,0,1,1549.5,1338.4000244140625)" style="cursor: default; opacity: 1;"><rect joint-selector="rect" id="v-473" fill="#ffffff" rx="3" ry="3"  width="0" height="0" transform="matrix(1,0,0,1,0,0)" display="none"></rect><text joint-selector="text" id="v-472" fill="#000000" font-size="14" text-anchor="middle" pointer-events="none"></text></g></g><g  display="none"></g><g  id="v-478" display="none"><g  id="v-466"><path  end="source" d="M 26 0 L 0 13 L 26 26 z"></path></g><g  id="v-467"><path  end="target" d="M 26 0 L 0 13 L 26 26 z"></path></g></g><g  id="v-477" display="none"><g  id="v-465" transform="translate(1610.0024417043119, 1312.5580380298818) "><g  event="remove"><circle r="11"></circle><path transform="scale(.8) translate(-16, -16)" d="M24.778,21.419 19.276,15.917 24.777,10.415 21.949,7.585 16.447,13.087 10.945,7.585 8.117,10.415 13.618,15.917 8.116,21.419 10.946,24.248 16.447,18.746 21.948,24.248z"></path><title>Remove link.</title></g><g  event="link:options"><circle r="11" transform="translate(25)"></circle><path fill="white" transform="scale(.55) translate(29, -16)" d="M31.229,17.736c0.064-0.571,0.104-1.148,0.104-1.736s-0.04-1.166-0.104-1.737l-4.377-1.557c-0.218-0.716-0.504-1.401-0.851-2.05l1.993-4.192c-0.725-0.91-1.549-1.734-2.458-2.459l-4.193,1.994c-0.647-0.347-1.334-0.632-2.049-0.849l-1.558-4.378C17.165,0.708,16.588,0.667,16,0.667s-1.166,0.041-1.737,0.105L12.707,5.15c-0.716,0.217-1.401,0.502-2.05,0.849L6.464,4.005C5.554,4.73,4.73,5.554,4.005,6.464l1.994,4.192c-0.347,0.648-0.632,1.334-0.849,2.05l-4.378,1.557C0.708,14.834,0.667,15.412,0.667,16s0.041,1.165,0.105,1.736l4.378,1.558c0.217,0.715,0.502,1.401,0.849,2.049l-1.994,4.193c0.725,0.909,1.549,1.733,2.459,2.458l4.192-1.993c0.648,0.347,1.334,0.633,2.05,0.851l1.557,4.377c0.571,0.064,1.148,0.104,1.737,0.104c0.588,0,1.165-0.04,1.736-0.104l1.558-4.377c0.715-0.218,1.399-0.504,2.049-0.851l4.193,1.993c0.909-0.725,1.733-1.549,2.458-2.458l-1.993-4.193c0.347-0.647,0.633-1.334,0.851-2.049L31.229,17.736zM16,20.871c-2.69,0-4.872-2.182-4.872-4.871c0-2.69,2.182-4.872,4.872-4.872c2.689,0,4.871,2.182,4.871,4.872C20.871,18.689,18.689,20.871,16,20.871z"></path><title>Link options.</title></g></g></g></g><!--z-index:63--><g   id="j_45" ><path  stroke="#707070" d="M 1469 830 L 1650 830" id="v-488" stroke-width="2" stroke-dasharray="30 30" fill="none" style="opacity: 1;"></path><path  fill="black" stroke="black" d="M 0 0 0 0" transform="matrix(1,0,0,1,1469,830)"></path><path  fill="#707070" stroke="#707070" d="M 20 0 L 0 10 L 20 20 z" id="v-490" transform="matrix(-1,1.2246468525851679e-16,-1.2246468525851679e-16,-1,1650,840)" style="opacity: 1;"></path><path  d="M 1469 830 L 1650 830" id="v-489" fill="none" style="cursor: default;"></path><g ><g id="v-482"  label-idx="0" cursor="move" transform="matrix(1,0,0,1,1559.5,830)" style="cursor: default; opacity: 1;"><rect joint-selector="rect" id="v-485" fill="#ffffff" rx="3" ry="3" pointer-events="none" width="58" height="34.49999809265137" transform="matrix(1,0,0,1,-29,-17.299999237060547)"></rect><text joint-selector="text" id="v-484" font-size="24px" xml:space="preserve" y="0.8em" fill="#707070" text-anchor="middle" pointer-events="none" font-family="Open Sans" font-weight="normal" transform="matrix(1,0,0,1,0,-9.5)"><tspan  dy="0">Calls</tspan></text></g><g id="v-483"  label-idx="1" cursor="move" transform="matrix(1,0,0,1,1549.5,856.4000244140625)" style="cursor: default; opacity: 1;"><rect joint-selector="rect" id="v-487" fill="#ffffff" rx="3" ry="3"  width="0" height="0" transform="matrix(1,0,0,1,0,0)" display="none"></rect><text joint-selector="text" id="v-486" fill="#000000" font-size="14" text-anchor="middle" pointer-events="none"></text></g></g><g  display="none"></g><g  id="v-492" display="none"><g  id="v-480"><path  end="source" d="M 26 0 L 0 13 L 26 26 z"></path></g><g  id="v-481"><path  end="target" d="M 26 0 L 0 13 L 26 26 z"></path></g></g><g  id="v-491" display="none"><g  id="v-479" transform="translate(1509, 830) "><g  event="remove"><circle r="11"></circle><path transform="scale(.8) translate(-16, -16)" d="M24.778,21.419 19.276,15.917 24.777,10.415 21.949,7.585 16.447,13.087 10.945,7.585 8.117,10.415 13.618,15.917 8.116,21.419 10.946,24.248 16.447,18.746 21.948,24.248z"></path><title>Remove link.</title></g><g  event="link:options"><circle r="11" transform="translate(25)"></circle><path fill="white" transform="scale(.55) translate(29, -16)" d="M31.229,17.736c0.064-0.571,0.104-1.148,0.104-1.736s-0.04-1.166-0.104-1.737l-4.377-1.557c-0.218-0.716-0.504-1.401-0.851-2.05l1.993-4.192c-0.725-0.91-1.549-1.734-2.458-2.459l-4.193,1.994c-0.647-0.347-1.334-0.632-2.049-0.849l-1.558-4.378C17.165,0.708,16.588,0.667,16,0.667s-1.166,0.041-1.737,0.105L12.707,5.15c-0.716,0.217-1.401,0.502-2.05,0.849L6.464,4.005C5.554,4.73,4.73,5.554,4.005,6.464l1.994,4.192c-0.347,0.648-0.632,1.334-0.849,2.05l-4.378,1.557C0.708,14.834,0.667,15.412,0.667,16s0.041,1.165,0.105,1.736l4.378,1.558c0.217,0.715,0.502,1.401,0.849,2.049l-1.994,4.193c0.725,0.909,1.549,1.733,2.459,2.458l4.192-1.993c0.648,0.347,1.334,0.633,2.05,0.851l1.557,4.377c0.571,0.064,1.148,0.104,1.737,0.104c0.588,0,1.165-0.04,1.736-0.104l1.558-4.377c0.715-0.218,1.399-0.504,2.049-0.851l4.193,1.993c0.909-0.725,1.733-1.549,2.458-2.458l-1.993-4.193c0.347-0.647,0.633-1.334,0.851-2.049L31.229,17.736zM16,20.871c-2.69,0-4.872-2.182-4.872-4.871c0-2.69,2.182-4.872,4.872-4.872c2.689,0,4.871,2.182,4.871,4.872C20.871,18.689,18.689,20.871,16,20.871z"></path><title>Link options.</title></g></g></g></g><!--z-index:64--><g   id="j_46" ><path  stroke="#707070" d="M 2100 830 L 2400 830" id="v-508" stroke-width="2" stroke-dasharray="30 30" fill="none" style="opacity: 1;"></path><path  fill="black" stroke="black" d="M 0 0 0 0" transform="matrix(1,0,0,1,2100,830)"></path><path  fill="#707070" stroke="#707070" d="M 20 0 L 0 10 L 20 20 z" id="v-510" transform="matrix(-1,1.2246468525851679e-16,-1.2246468525851679e-16,-1,2400,840)" style="opacity: 1;"></path><path  d="M 2100 830 L 2400 830" id="v-509" fill="none" style="cursor: default;"></path><g ><g id="v-499"  label-idx="0" cursor="move" transform="matrix(1,0,0,1,2250,830)" style="cursor: default; opacity: 1;"><rect joint-selector="rect" id="v-503" fill="#ffffff" rx="3" ry="3" pointer-events="none" width="157.59999084472656" height="63.299997329711914" transform="matrix(1,0,0,1,-78.80000305175781,-31.700000762939453)"></rect><text joint-selector="text" id="v-502" font-size="24px" xml:space="preserve" y="0.8em" fill="#707070" text-anchor="middle" pointer-events="none" font-family="Open Sans" font-weight="normal" transform="matrix(1,0,0,1,0,-23.899999618530273)"><tspan  dy="0">publishes to /</tspan><tspan dy="1.2em" x="0" >listens to</tspan></text></g><g id="v-500"  label-idx="1" cursor="move" transform="matrix(1,0,0,1,2250,870.7999877929688)" style="cursor: default; opacity: 1;"><rect joint-selector="rect" id="v-505" fill="#ffffff" rx="3" ry="3" pointer-events="none" width="66.15833282470703" height="24.4375" transform="matrix(1,0,0,1,-33.099998474121094,-12.199999809265137)"></rect><text joint-selector="text" id="v-504" font-size="17px" xml:space="preserve" y="0.8em" fill="#707070" text-anchor="middle" pointer-events="none" font-family="Open Sans" font-weight="normal" transform="matrix(1,0,0,1,0,-6.699999809265137)"><tspan  dy="0">[HTTPS]</tspan></text></g><g id="v-501"  label-idx="2" cursor="move" transform="matrix(1,0,0,1,2240,879.2000122070312)" style="cursor: default; opacity: 1;"><rect joint-selector="rect" id="v-507" fill="#ffffff" rx="3" ry="3"  width="0" height="0" transform="matrix(1,0,0,1,0,0)" display="none"></rect><text joint-selector="text" id="v-506" fill="#000000" font-size="14" text-anchor="middle" pointer-events="none"></text></g></g><g  display="none"></g><g  id="v-512" display="none"><g  id="v-497"><path  end="source" d="M 26 0 L 0 13 L 26 26 z"></path></g><g  id="v-498"><path  end="target" d="M 26 0 L 0 13 L 26 26 z"></path></g></g><g  id="v-511" display="none"><g  id="v-496" transform="translate(2140, 830) "><g  event="remove"><circle r="11"></circle><path transform="scale(.8) translate(-16, -16)" d="M24.778,21.419 19.276,15.917 24.777,10.415 21.949,7.585 16.447,13.087 10.945,7.585 8.117,10.415 13.618,15.917 8.116,21.419 10.946,24.248 16.447,18.746 21.948,24.248z"></path><title>Remove link.</title></g><g  event="link:options"><circle r="11" transform="translate(25)"></circle><path fill="white" transform="scale(.55) translate(29, -16)" d="M31.229,17.736c0.064-0.571,0.104-1.148,0.104-1.736s-0.04-1.166-0.104-1.737l-4.377-1.557c-0.218-0.716-0.504-1.401-0.851-2.05l1.993-4.192c-0.725-0.91-1.549-1.734-2.458-2.459l-4.193,1.994c-0.647-0.347-1.334-0.632-2.049-0.849l-1.558-4.378C17.165,0.708,16.588,0.667,16,0.667s-1.166,0.041-1.737,0.105L12.707,5.15c-0.716,0.217-1.401,0.502-2.05,0.849L6.464,4.005C5.554,4.73,4.73,5.554,4.005,6.464l1.994,4.192c-0.347,0.648-0.632,1.334-0.849,2.05l-4.378,1.557C0.708,14.834,0.667,15.412,0.667,16s0.041,1.165,0.105,1.736l4.378,1.558c0.217,0.715,0.502,1.401,0.849,2.049l-1.994,4.193c0.725,0.909,1.549,1.733,2.459,2.458l4.192-1.993c0.648,0.347,1.334,0.633,2.05,0.851l1.557,4.377c0.571,0.064,1.148,0.104,1.737,0.104c0.588,0,1.165-0.04,1.736-0.104l1.558-4.377c0.715-0.218,1.399-0.504,2.049-0.851l4.193,1.993c0.909-0.725,1.733-1.549,2.458-2.458l-1.993-4.193c0.347-0.647,0.633-1.334,0.851-2.049L31.229,17.736zM16,20.871c-2.69,0-4.872-2.182-4.872-4.871c0-2.69,2.182-4.872,4.872-4.872c2.689,0,4.871,2.182,4.871,4.872C20.871,18.689,18.689,20.871,16,20.871z"></path><title>Link options.</title></g></g></g></g><!--z-index:65--><g   id="j_47" ><path  stroke="#707070" d="M 1875 980 L 1875 1165" id="v-522" stroke-width="2" stroke-dasharray="30 30" fill="none" style="opacity: 1;"></path><path  fill="black" stroke="black" d="M 0 0 0 0" transform="matrix(6.123234262925839e-17,1,-1,6.123234262925839e-17,1875,980)"></path><path  fill="#707070" stroke="#707070" d="M 20 0 L 0 10 L 20 20 z" id="v-524" transform="matrix(-1.8369701465288538e-16,-1,1,-1.8369701465288538e-16,1865,1165)" style="opacity: 1;"></path><path  d="M 1875 980 L 1875 1165" id="v-523" fill="none" style="cursor: default;"></path><g ><g id="v-516"  label-idx="0" cursor="move" transform="matrix(1,0,0,1,1875,1072.5)" style="cursor: default; opacity: 1;"><rect joint-selector="rect" id="v-519" fill="#ffffff" rx="3" ry="3" pointer-events="none" width="58" height="34.49999809265137" transform="matrix(1,0,0,1,-29,-17.299999237060547)"></rect><text joint-selector="text" id="v-518" font-size="24px" xml:space="preserve" y="0.8em" fill="#707070" text-anchor="middle" pointer-events="none" font-family="Open Sans" font-weight="normal" transform="matrix(1,0,0,1,0,-9.5)"><tspan  dy="0">Calls</tspan></text></g><g id="v-517"  label-idx="1" cursor="move" transform="matrix(1,0,0,1,1865,1098.9000244140625)" style="cursor: default; opacity: 1;"><rect joint-selector="rect" id="v-521" fill="#ffffff" rx="3" ry="3"  width="0" height="0" transform="matrix(1,0,0,1,0,0)" display="none"></rect><text joint-selector="text" id="v-520" fill="#000000" font-size="14" text-anchor="middle" pointer-events="none"></text></g></g><g  display="none"></g><g  id="v-526" display="none"><g  id="v-514"><path  end="source" d="M 26 0 L 0 13 L 26 26 z"></path></g><g  id="v-515"><path  end="target" d="M 26 0 L 0 13 L 26 26 z"></path></g></g><g  id="v-525" display="none"><g  id="v-513" transform="translate(1875, 1020) "><g  event="remove"><circle r="11"></circle><path transform="scale(.8) translate(-16, -16)" d="M24.778,21.419 19.276,15.917 24.777,10.415 21.949,7.585 16.447,13.087 10.945,7.585 8.117,10.415 13.618,15.917 8.116,21.419 10.946,24.248 16.447,18.746 21.948,24.248z"></path><title>Remove link.</title></g><g  event="link:options"><circle r="11" transform="translate(25)"></circle><path fill="white" transform="scale(.55) translate(29, -16)" d="M31.229,17.736c0.064-0.571,0.104-1.148,0.104-1.736s-0.04-1.166-0.104-1.737l-4.377-1.557c-0.218-0.716-0.504-1.401-0.851-2.05l1.993-4.192c-0.725-0.91-1.549-1.734-2.458-2.459l-4.193,1.994c-0.647-0.347-1.334-0.632-2.049-0.849l-1.558-4.378C17.165,0.708,16.588,0.667,16,0.667s-1.166,0.041-1.737,0.105L12.707,5.15c-0.716,0.217-1.401,0.502-2.05,0.849L6.464,4.005C5.554,4.73,4.73,5.554,4.005,6.464l1.994,4.192c-0.347,0.648-0.632,1.334-0.849,2.05l-4.378,1.557C0.708,14.834,0.667,15.412,0.667,16s0.041,1.165,0.105,1.736l4.378,1.558c0.217,0.715,0.502,1.401,0.849,2.049l-1.994,4.193c0.725,0.909,1.549,1.733,2.459,2.458l4.192-1.993c0.648,0.347,1.334,0.633,2.05,0.851l1.557,4.377c0.571,0.064,1.148,0.104,1.737,0.104c0.588,0,1.165-0.04,1.736-0.104l1.558-4.377c0.715-0.218,1.399-0.504,2.049-0.851l4.193,1.993c0.909-0.725,1.733-1.549,2.458-2.458l-1.993-4.193c0.347-0.647,0.633-1.334,0.851-2.049L31.229,17.736zM16,20.871c-2.69,0-4.872-2.182-4.872-4.871c0-2.69,2.182-4.872,4.872-4.872c2.689,0,4.871,2.182,4.871,4.872C20.871,18.689,18.689,20.871,16,20.871z"></path><title>Link options.</title></g></g></g></g><!--z-index:66--><g   id="j_48" ><path  stroke="#707070" d="M 1244 1459 L 1244 1889" id="v-542" stroke-width="2" stroke-dasharray="30 30" fill="none" style="opacity: 1;"></path><path  fill="black" stroke="black" d="M 0 0 0 0" transform="matrix(6.123234262925839e-17,1,-1,6.123234262925839e-17,1244,1459)"></path><path  fill="#707070" stroke="#707070" d="M 20 0 L 0 10 L 20 20 z" id="v-544" transform="matrix(-1.8369701465288538e-16,-1,1,-1.8369701465288538e-16,1234,1889)" style="opacity: 1;"></path><path  d="M 1244 1459 L 1244 1889" id="v-543" fill="none" style="cursor: default;"></path><g ><g id="v-533"  label-idx="0" cursor="move" transform="matrix(1,0,0,1,1244,1674)" style="cursor: default; opacity: 1;"><rect joint-selector="rect" id="v-537" fill="#ffffff" rx="3" ry="3" pointer-events="none" width="145.54998779296875" height="34.49999809265137" transform="matrix(1,0,0,1,-72.80000305175781,-17.299999237060547)"></rect><text joint-selector="text" id="v-536" font-size="24px" xml:space="preserve" y="0.8em" fill="#707070" text-anchor="middle" pointer-events="none" font-family="Open Sans" font-weight="normal" transform="matrix(1,0,0,1,0,-9.5)"><tspan  dy="0">reads/writes</tspan></text></g><g id="v-534"  label-idx="1" cursor="move" transform="matrix(1,0,0,1,1244,1700.4000244140625)" style="cursor: default; opacity: 1;"><rect joint-selector="rect" id="v-539" fill="#ffffff" rx="3" ry="3" pointer-events="none" width="46.78541564941406" height="24.4375" transform="matrix(1,0,0,1,-23.399999618530273,-12.199999809265137)"></rect><text joint-selector="text" id="v-538" font-size="17px" xml:space="preserve" y="0.8em" fill="#707070" text-anchor="middle" pointer-events="none" font-family="Open Sans" font-weight="normal" transform="matrix(1,0,0,1,0,-6.699999809265137)"><tspan  dy="0">[SQL]</tspan></text></g><g id="v-535"  label-idx="2" cursor="move" transform="matrix(1,0,0,1,1234,1708.800048828125)" style="cursor: default; opacity: 1;"><rect joint-selector="rect" id="v-541" fill="#ffffff" rx="3" ry="3"  width="0" height="0" transform="matrix(1,0,0,1,0,0)" display="none"></rect><text joint-selector="text" id="v-540" fill="#000000" font-size="14" text-anchor="middle" pointer-events="none"></text></g></g><g  display="none"></g><g  id="v-546" display="none"><g  id="v-531"><path  end="source" d="M 26 0 L 0 13 L 26 26 z"></path></g><g  id="v-532"><path  end="target" d="M 26 0 L 0 13 L 26 26 z"></path></g></g><g  id="v-545" display="none"><g  id="v-530" transform="translate(1244.0000000000002, 1499.0000000000002) "><g  event="remove"><circle r="11"></circle><path transform="scale(.8) translate(-16, -16)" d="M24.778,21.419 19.276,15.917 24.777,10.415 21.949,7.585 16.447,13.087 10.945,7.585 8.117,10.415 13.618,15.917 8.116,21.419 10.946,24.248 16.447,18.746 21.948,24.248z"></path><title>Remove link.</title></g><g  event="link:options"><circle r="11" transform="translate(25)"></circle><path fill="white" transform="scale(.55) translate(29, -16)" d="M31.229,17.736c0.064-0.571,0.104-1.148,0.104-1.736s-0.04-1.166-0.104-1.737l-4.377-1.557c-0.218-0.716-0.504-1.401-0.851-2.05l1.993-4.192c-0.725-0.91-1.549-1.734-2.458-2.459l-4.193,1.994c-0.647-0.347-1.334-0.632-2.049-0.849l-1.558-4.378C17.165,0.708,16.588,0.667,16,0.667s-1.166,0.041-1.737,0.105L12.707,5.15c-0.716,0.217-1.401,0.502-2.05,0.849L6.464,4.005C5.554,4.73,4.73,5.554,4.005,6.464l1.994,4.192c-0.347,0.648-0.632,1.334-0.849,2.05l-4.378,1.557C0.708,14.834,0.667,15.412,0.667,16s0.041,1.165,0.105,1.736l4.378,1.558c0.217,0.715,0.502,1.401,0.849,2.049l-1.994,4.193c0.725,0.909,1.549,1.733,2.459,2.458l4.192-1.993c0.648,0.347,1.334,0.633,2.05,0.851l1.557,4.377c0.571,0.064,1.148,0.104,1.737,0.104c0.588,0,1.165-0.04,1.736-0.104l1.558-4.377c0.715-0.218,1.399-0.504,2.049-0.851l4.193,1.993c0.909-0.725,1.733-1.549,2.458-2.458l-1.993-4.193c0.347-0.647,0.633-1.334,0.851-2.049L31.229,17.736zM16,20.871c-2.69,0-4.872-2.182-4.872-4.871c0-2.69,2.182-4.872,4.872-4.872c2.689,0,4.871,2.182,4.871,4.872C20.871,18.689,18.689,20.871,16,20.871z"></path><title>Link options.</title></g></g></g></g><!--z-index:67--><!--z-index:68--><!--z-index:69--><!--z-index:70--><!--z-index:71--><!--z-index:72--><!--z-index:73--><!--z-index:74--><!--z-index:75--><!--z-index:76--><!--z-index:77--><!--z-index:78--></g><g ></g><g ></g><g ></g></g></svg>