<svg xmlns="http://www.w3.org/2000/svg" xmlns:xlink="http://www.w3.org/1999/xlink" version="1.1" viewBox="0 0 2500 500" style="background: #ffffff"><defs><style>@import url(https://fonts.googleapis.com/css?family=Open+Sans:400,700);</style></defs><g transform="translate(25,100)"><rect width="450" height="300" rx="20" ry="20" x="0" y="0" fill="#85bbf0" stroke-width="2" stroke="#78a8d8"/><text x="225" y="132" text-anchor="middle" fill="#000000" font-size="30px" font-family="Open Sans"><tspan x="225" dy="40px">Component</tspan></text></g><g transform="translate(525,100)"><rect width="150" height="75" rx="15" ry="15" x="15" y="0" fill="#438dd5" stroke-width="2" stroke="#3c7fc0"/><rect width="450" height="262.5" rx="6" ry="6" x="0" y="37.5" fill="#438dd5" stroke-width="2" stroke="#3c7fc0"/><text x="225" y="150.75" text-anchor="middle" fill="#ffffff" font-size="30px" font-family="Open Sans"><tspan x="225" dy="40px">Container, File Storage</tspan></text></g><g transform="translate(1025,100)"><rect width="450" height="300" rx="10" ry="10" x="0" y="0" fill="#3c7fc0" stroke-width="5" stroke="#3c7fc0"/><rect width="430" height="250" rx="10" ry="10" x="10" y="40" fill="#438dd5" stroke-width="0"/><rect width="340" height="20" rx="10" ry="10" x="100" y="10" fill="#438dd5" stroke-width="0"/><ellipse cx="20" cy="20" rx="10" ry="10" fill="#438dd5" stroke-width="0"/><ellipse cx="50" cy="20" rx="10" ry="10" fill="#438dd5" stroke-width="0"/><ellipse cx="80" cy="20" rx="10" ry="10" fill="#438dd5" stroke-width="0"/><text x="225" y="142" text-anchor="middle" fill="#ffffff" font-size="30px" font-family="Open Sans"><tspan x="225" dy="40px">Container, WebApp</tspan></text></g><g transform="translate(1525,170)"><path d="M390,0 L390,60 L450,30 L 390,0" style="fill:#707070" stroke-dasharray="" /><path d="M0,30 L390,30" style="stroke:#707070; stroke-width: 6; fill: none; stroke-dasharray: 30 30;" /><text x="225" y="77" text-anchor="middle" fill="#707070" font-size="30px" font-family="Open Sans"><tspan x="225" dy="40px">Relationship</tspan></text></g></svg>