<svg xmlns="http://www.w3.org/2000/svg" xmlns:xlink="http://www.w3.org/1999/xlink" version="1.1" viewBox="0 0 2480 1748" style="background: #ffffff"><defs><style>@import url(https://fonts.googleapis.com/css?family=Open+Sans:400,700);</style></defs><defs joint-selector="defs"></defs><g  joint-selector="layers" transform="matrix(1,0,0,1,0,0)"><g ></g><g ><g   id="j_107"  transform="translate(20,1710.5)"><g id="v-1358"><text  id="v-1359" font-size="22px" xml:space="preserve" y="0.8em" font-weight="normal" text-anchor="start" fill="#aaaaaa" pointer-events="none" display="block" font-family="Open Sans"><tspan  dy="0">Thursday, 6 June 2024 at 12:24 British Summer Time</tspan></text></g></g><g   id="j_106"  transform="translate(20,1683)"><g id="v-1356"><text  id="v-1357" font-size="22px" xml:space="preserve" y="0.8em" font-weight="normal" text-anchor="start" fill="#aaaaaa" pointer-events="none" display="block" font-family="Open Sans"><tspan  dy="0">The component diagram for the Authority service.</tspan></text></g></g><g   id="j_105"  transform="translate(20,1638)"><g id="v-1354"><text  id="v-1355" font-size="36px" xml:space="preserve" y="0.8em" font-weight="normal" text-anchor="start" fill="#000000" pointer-events="none" display="block" font-family="Open Sans"><tspan  dy="0">[Component] Central Digital Platform - Authority</tspan></text></g></g><g   id="j_108"  transform="translate(1145,1285)" style=""><g  id="v-1360" style="opacity: 1;"><rect  id="v-1361" rx="20" ry="20" stroke="#0f5eaa" stroke-width="2" pointer-events="visiblePainted" fill="#1168bd" width="450" height="300" style="fill: rgb(17, 104, 189); stroke: rgb(15, 94, 170);"></rect><text  id="v-1362" font-size="34" xml:space="preserve" y="0.8em" font-weight="bold" text-anchor="middle" pointer-events="visible" font-family="Open Sans" fill="#ffffff" transform="matrix(1,0,0,1,225,113.0999984741211)" style="fill: rgb(255, 255, 255);"><tspan  dy="0">Find a Tender</tspan></text><text  id="v-1363" font-size="17" xml:space="preserve" y="0.8em" text-anchor="middle" font-family="Open Sans" fill="#ffffff" transform="matrix(1,0,0,1,225,155.60000610351562)" style="fill: rgb(255, 255, 255);"><tspan  dy="0">[Software System]</tspan></text><text  id="v-1364" font-size="24" xml:space="preserve" display="none" y="0.8em" text-anchor="middle" font-family="Open Sans" fill="#ffffff" transform="matrix(1,0,0,1,225,186.89999389648438)" style="fill: rgb(255, 255, 255);"><tspan style="fill-opacity: 0; stroke-opacity: 0;"  dy="0">-</tspan></text><g  id="v-1365" color="#ffffff" transform="matrix(1,0,0,1,222.5,196.89999389648438)" style="fill: rgb(255, 255, 255);" display="none"><g ></g><g ></g><g ></g><g ></g></g><image  id="v-1366"></image></g></g><g   id="j_110"  transform="translate(480,635)" style=""><g id="v-1383"><rect  id="v-1384" width="1760" height="411" rx="0" ry="0" fill="#ffffff" stroke="#3c7fc0" stroke-width="1" stroke-dasharray="20,20" pointer-events="none"></rect><text  id="v-1385" font-size="24px" xml:space="preserve" y="372" font-weight="normal" fill="#3c7fc0" text-anchor="start" pointer-events="visible" font-family="Open Sans" transform="matrix(1,0,0,1,15,0)"><tspan  dy="0">Authority</tspan></text><text  id="v-1386" font-size="17px" xml:space="preserve" y="396" font-weight="normal" fill="#3c7fc0" text-anchor="start" pointer-events="visible" font-family="Open Sans" transform="matrix(1,0,0,1,15,0)"><tspan  dy="0">[Container]</tspan></text><image  id="v-1387" pointer-events="visible"></image></g></g><g   id="j_109"  transform="translate(1145,655)" style=""><g  id="v-1376" style="opacity: 1;"><rect  id="v-1377" rx="20" ry="20" stroke="#78a8d8" stroke-width="2" pointer-events="visiblePainted" fill="#85bbf0" width="450" height="300" style="fill: rgb(133, 187, 240); stroke: rgb(120, 168, 216);"></rect><text  id="v-1378" font-size="34" xml:space="preserve" y="0.8em" font-weight="bold" text-anchor="middle" pointer-events="visible" font-family="Open Sans" fill="#000000" transform="matrix(1,0,0,1,225,76.9000015258789)" style="fill: rgb(0, 0, 0);"><tspan  dy="0">OpenID Well-Known</tspan><tspan dy="1.2em" x="0" >Configuration Endpoint</tspan></text><text  id="v-1379" font-size="17" xml:space="preserve" y="0.8em" text-anchor="middle" font-family="Open Sans" fill="#000000" transform="matrix(1,0,0,1,225,161.89999389648438)" style="fill: rgb(0, 0, 0);"><tspan  dy="0">[Component: Asp.Net Core Web API]</tspan></text><text  id="v-1380" font-size="24" xml:space="preserve" y="0.8em" text-anchor="middle" font-family="Open Sans" fill="#000000" transform="matrix(1,0,0,1,225,193.10000610351562)" style="fill: rgb(0, 0, 0);"><tspan  dy="0">Exposes OpenID configuration</tspan></text><g  id="v-1381" color="#000000" transform="matrix(1,0,0,1,222.5,233.10000610351562)" style="fill: rgb(0, 0, 0);" display="none"><g ></g><g ></g><g ></g><g ></g></g><image  id="v-1382"></image></g></g><g   id="j_111"  transform="translate(1770,655)" style=""><g  id="v-1397" style="opacity: 1;"><rect  id="v-1398" rx="20" ry="20" stroke="#78a8d8" stroke-width="2" pointer-events="visiblePainted" fill="#85bbf0" width="450" height="300" style="fill: rgb(133, 187, 240); stroke: rgb(120, 168, 216);"></rect><text  id="v-1399" font-size="34" xml:space="preserve" y="0.8em" font-weight="bold" text-anchor="middle" pointer-events="visible" font-family="Open Sans" fill="#000000" transform="matrix(1,0,0,1,225,55.599998474121094)" style="fill: rgb(0, 0, 0);"><tspan  dy="0">OpenID Well-Known</tspan><tspan dy="1.2em" x="0" >JWKS Configuration</tspan><tspan dy="1.2em" x="0" >Endpoint</tspan></text><text  id="v-1400" font-size="17" xml:space="preserve" y="0.8em" text-anchor="middle" font-family="Open Sans" fill="#000000" transform="matrix(1,0,0,1,225,183.10000610351562)" style="fill: rgb(0, 0, 0);"><tspan  dy="0">[Component: Asp.Net Core Web API]</tspan></text><text  id="v-1401" font-size="24" xml:space="preserve" y="0.8em" text-anchor="middle" font-family="Open Sans" fill="#000000" transform="matrix(1,0,0,1,225,214.39999389648438)" style="fill: rgb(0, 0, 0);"><tspan  dy="0">Exposes Json Web Key Set</tspan></text><g  id="v-1402" color="#000000" transform="matrix(1,0,0,1,222.5,254.39999389648438)" style="fill: rgb(0, 0, 0);" display="none"><g ></g><g ></g><g ></g><g ></g></g><image  id="v-1403"></image></g></g><g   id="j_112"  transform="translate(500,655)" style=""><g  id="v-1410" style="opacity: 1;"><rect  id="v-1411" rx="20" ry="20" stroke="#78a8d8" stroke-width="2" pointer-events="visiblePainted" fill="#85bbf0" width="450" height="300" style="fill: rgb(133, 187, 240); stroke: rgb(120, 168, 216);"></rect><text  id="v-1412" font-size="34" xml:space="preserve" y="0.8em" font-weight="bold" text-anchor="middle" pointer-events="visible" font-family="Open Sans" fill="#000000" transform="matrix(1,0,0,1,225,68.0999984741211)" style="fill: rgb(0, 0, 0);"><tspan  dy="0">Token endpoint</tspan></text><text  id="v-1413" font-size="17" xml:space="preserve" y="0.8em" text-anchor="middle" font-family="Open Sans" fill="#000000" transform="matrix(1,0,0,1,225,110.5999984741211)" style="fill: rgb(0, 0, 0);"><tspan  dy="0">[Component: Asp.Net Core Web API]</tspan></text><text  id="v-1414" font-size="24" xml:space="preserve" y="0.8em" text-anchor="middle" font-family="Open Sans" fill="#000000" transform="matrix(1,0,0,1,225,141.89999389648438)" style="fill: rgb(0, 0, 0);"><tspan  dy="0">Exchanges a valid One Login token</tspan><tspan dy="1.2em" x="0" >to a longer-lived token with</tspan><tspan dy="1.2em" x="0" >additional claims.</tspan></text><g  id="v-1415" color="#000000" transform="matrix(1,0,0,1,222.5,241.89999389648438)" style="fill: rgb(0, 0, 0);" display="none"><g ></g><g ></g><g ></g><g ></g></g><image  id="v-1416"></image></g></g><g   id="j_113"  transform="translate(1145,50)" style=""><g  id="v-1420" style="opacity: 1;"><rect  id="v-1421" rx="10" ry="10" stroke="#3c7fc0" stroke-width="2" pointer-events="visiblePainted" fill="#3c7fc0" width="450" height="300" style="fill: rgb(60, 127, 192); stroke: rgb(60, 127, 192);"></rect><rect  id="v-1422" rx="10" ry="10" stroke="#3c7fc0" stroke-width="0" pointer-events="visiblePainted" fill="#438dd5" width="430" height="250" x="10" y="40" style="fill: rgb(67, 141, 213);"></rect><ellipse  id="v-1429" fill="#438dd5" cx="20" cy="20" rx="10" ry="10" style="fill: rgb(67, 141, 213);"></ellipse><ellipse  id="v-1430" fill="#438dd5" cx="50" cy="20" rx="10" ry="10" style="fill: rgb(67, 141, 213);"></ellipse><ellipse  id="v-1431" fill="#438dd5" cx="80" cy="20" rx="10" ry="10" style="fill: rgb(67, 141, 213);"></ellipse><rect  id="v-1423" rx="10" ry="10" stroke="#444444" stroke-width="0" pointer-events="visiblePainted" fill="#438dd5" width="340" height="20" x="100" y="10" style="fill: rgb(67, 141, 213);"></rect><text  id="v-1424" font-size="34" xml:space="preserve" y="0.8em" font-weight="bold" text-anchor="middle" pointer-events="visible" font-family="Open Sans" fill="#ffffff" transform="matrix(1,0,0,1,225,113.0999984741211)" style="fill: rgb(255, 255, 255);"><tspan  dy="0">Web Application</tspan></text><text  id="v-1425" font-size="17" xml:space="preserve" y="0.8em" text-anchor="middle" font-family="Open Sans" fill="#ffffff" transform="matrix(1,0,0,1,225,155.60000610351562)" style="fill: rgb(255, 255, 255);"><tspan  dy="0">[Container: Asp.Net Core MVC]</tspan></text><text  id="v-1426" font-size="24" xml:space="preserve" y="0.8em" text-anchor="middle" font-family="Open Sans" fill="#ffffff" transform="matrix(1,0,0,1,225,186.89999389648438)" style="fill: rgb(255, 255, 255);"><tspan  dy="0">Account &amp; data capture frontend</tspan></text><g  id="v-1427" font-weight="normal" text-anchor="middle" color="#ffffff" transform="matrix(1,0,0,1,210,226.89999389648438)" style="fill: rgb(255, 255, 255);" display="none"><g  transform="translate(5 0)"><svg xmlns="http://www.w3.org/2000/svg" width="20" height="20" fill="currentColor" viewBox="0 0 16 16"><path fill-rule="evenodd" d="M6.5 12a5.5 5.5 0 1 0 0-11 5.5 5.5 0 0 0 0 11zM13 6.5a6.5 6.5 0 1 1-13 0 6.5 6.5 0 0 1 13 0z"></path><path d="M10.344 11.742c.03.04.062.078.098.115l3.85 3.85a1 1 0 0 0 1.415-1.414l-3.85-3.85a1.007 1.007 0 0 0-.115-.1 6.538 6.538 0 0 1-1.398 1.4z"></path><path fill-rule="evenodd" d="M6.5 3a.5.5 0 0 1 .5.5V6h2.5a.5.5 0 0 1 0 1H7v2.5a.5.5 0 0 1-1 0V7H3.5a.5.5 0 0 1 0-1H6V3.5a.5.5 0 0 1 .5-.5z"></path></svg></g><g ></g><g ></g><g ></g></g><image  id="v-1428"></image></g></g><g   id="j_114" ><path  stroke="#707070" d="M 1210 350 L 885 655" id="v-1447" stroke-width="2" stroke-dasharray="30 30" fill="none" style="opacity: 1;"></path><path  fill="black" stroke="black" d="M 0 0 0 0" transform="matrix(-0.7293552160263062,0.6841351985931396,-0.6841351985931396,-0.7293552160263062,1210.0799560546875,350)"></path><path  fill="#707070" stroke="#707070" d="M 20 0 L 0 10 L 20 20 z" id="v-1449" transform="matrix(0.7293552160263062,-0.6841351985931396,0.6841351985931396,0.7293552160263062,878.0786743164062,647.7064208984375)" style="opacity: 1;"></path><path  d="M 1210 350 L 885 655" id="v-1448" fill="none" style="cursor: default;"></path><g ><g id="v-1438"  label-idx="0" cursor="move" transform="matrix(1,0,0,1,1047.5,502.5)" style="cursor: default; opacity: 1;"><rect joint-selector="rect" id="v-1442" fill="#ffffff" rx="3" ry="3" pointer-events="none" width="172.30038452148438" height="91.21538925170898" transform="matrix(1,0,0,1,-86.19999694824219,-45.599998474121094)"></rect><text joint-selector="text" id="v-1441" font-size="24px" xml:space="preserve" y="0.8em" fill="#707070" text-anchor="middle" pointer-events="none" font-family="Open Sans" font-weight="normal" transform="matrix(1,0,0,1,0,-38.900001525878906)"><tspan  dy="0">Authenticates</tspan><tspan dy="1.2em" x="0" >and authorises</tspan><tspan dy="1.2em" x="0" >with</tspan></text></g><g id="v-1439"  label-idx="1" cursor="move" transform="matrix(1,0,0,1,1047.5,559.5)" style="cursor: default; opacity: 1;"><rect joint-selector="rect" id="v-1444" fill="#ffffff" rx="3" ry="3" pointer-events="none" width="66.15833282470703" height="24.4375" transform="matrix(1,0,0,1,-33.099998474121094,-12.199999809265137)"></rect><text joint-selector="text" id="v-1443" font-size="17px" xml:space="preserve" y="0.8em" fill="#707070" text-anchor="middle" pointer-events="none" font-family="Open Sans" font-weight="normal" transform="matrix(1,0,0,1,0,-6.699999809265137)"><tspan  dy="0">[HTTPS]</tspan></text></g><g id="v-1440"  label-idx="2" cursor="move" transform="matrix(1,0,0,1,1037.5,568.75)" style="cursor: default; opacity: 1;"><rect joint-selector="rect" id="v-1446" fill="#ffffff" rx="3" ry="3"  width="0" height="0" transform="matrix(1,0,0,1,0,0)" display="none"></rect><text joint-selector="text" id="v-1445" fill="#000000" font-size="14" text-anchor="middle" pointer-events="none"></text></g></g><g  display="none"></g><g  id="v-1451" display="none"><g  id="v-1436"><path  end="source" d="M 26 0 L 0 13 L 26 26 z"></path></g><g  id="v-1437"><path  end="target" d="M 26 0 L 0 13 L 26 26 z"></path></g></g><g  id="v-1450" display="none"><g  id="v-1435" transform="translate(1180.8325093304943, 377.3725681667669) "><g  event="remove"><circle r="11"></circle><path transform="scale(.8) translate(-16, -16)" d="M24.778,21.419 19.276,15.917 24.777,10.415 21.949,7.585 16.447,13.087 10.945,7.585 8.117,10.415 13.618,15.917 8.116,21.419 10.946,24.248 16.447,18.746 21.948,24.248z"></path><title>Remove link.</title></g><g  event="link:options"><circle r="11" transform="translate(25)"></circle><path fill="white" transform="scale(.55) translate(29, -16)" d="M31.229,17.736c0.064-0.571,0.104-1.148,0.104-1.736s-0.04-1.166-0.104-1.737l-4.377-1.557c-0.218-0.716-0.504-1.401-0.851-2.05l1.993-4.192c-0.725-0.91-1.549-1.734-2.458-2.459l-4.193,1.994c-0.647-0.347-1.334-0.632-2.049-0.849l-1.558-4.378C17.165,0.708,16.588,0.667,16,0.667s-1.166,0.041-1.737,0.105L12.707,5.15c-0.716,0.217-1.401,0.502-2.05,0.849L6.464,4.005C5.554,4.73,4.73,5.554,4.005,6.464l1.994,4.192c-0.347,0.648-0.632,1.334-0.849,2.05l-4.378,1.557C0.708,14.834,0.667,15.412,0.667,16s0.041,1.165,0.105,1.736l4.378,1.558c0.217,0.715,0.502,1.401,0.849,2.049l-1.994,4.193c0.725,0.909,1.549,1.733,2.459,2.458l4.192-1.993c0.648,0.347,1.334,0.633,2.05,0.851l1.557,4.377c0.571,0.064,1.148,0.104,1.737,0.104c0.588,0,1.165-0.04,1.736-0.104l1.558-4.377c0.715-0.218,1.399-0.504,2.049-0.851l4.193,1.993c0.909-0.725,1.733-1.549,2.458-2.458l-1.993-4.193c0.347-0.647,0.633-1.334,0.851-2.049L31.229,17.736zM16,20.871c-2.69,0-4.872-2.182-4.872-4.871c0-2.69,2.182-4.872,4.872-4.872c2.689,0,4.871,2.182,4.871,4.872C20.871,18.689,18.689,20.871,16,20.871z"></path><title>Link options.</title></g></g></g></g><g   id="j_115" ><path  stroke="#707070" d="M 1216 1285 L 879 955" id="v-1464" stroke-width="2" stroke-dasharray="30 30" fill="none" style="opacity: 1;"></path><path  fill="black" stroke="black" d="M 0 0 0 0" transform="matrix(-0.7153792381286621,-0.6987364292144775,0.6987364292144775,-0.7153792381286621,1216.4300537109375,1285)"></path><path  fill="#707070" stroke="#707070" d="M 20 0 L 0 10 L 20 20 z" id="v-1466" transform="matrix(0.7153791189193726,0.6987364888191223,-0.6987364888191223,0.7153791189193726,885.557373046875,947.84619140625)" style="opacity: 1;"></path><path  d="M 1216 1285 L 879 955" id="v-1465" fill="none" style="cursor: default;"></path><g ><g id="v-1458"  label-idx="0" cursor="move" transform="matrix(1,0,0,1,1047.5,1120)" style="cursor: default; opacity: 1;"><rect joint-selector="rect" id="v-1461" fill="#ffffff" rx="3" ry="3" pointer-events="none" width="179.1527557373047" height="33.61538124084473" transform="matrix(1,0,0,1,-89.5999984741211,-16.799999237060547)"></rect><text joint-selector="text" id="v-1460" font-size="24px" xml:space="preserve" y="0.8em" fill="#707070" text-anchor="middle" pointer-events="none" font-family="Open Sans" font-weight="normal" transform="matrix(1,0,0,1,0,-10.100000381469727)"><tspan  dy="0">Authorizes with</tspan></text></g><g id="v-1459"  label-idx="1" cursor="move" transform="matrix(1,0,0,1,1037.5,1147)" style="cursor: default; opacity: 1;"><rect joint-selector="rect" id="v-1463" fill="#ffffff" rx="3" ry="3"  width="0" height="0" transform="matrix(1,0,0,1,0,0)" display="none"></rect><text joint-selector="text" id="v-1462" fill="#000000" font-size="14" text-anchor="middle" pointer-events="none"></text></g></g><g  display="none"></g><g  id="v-1468" display="none"><g  id="v-1456"><path  end="source" d="M 26 0 L 0 13 L 26 26 z"></path></g><g  id="v-1457"><path  end="target" d="M 26 0 L 0 13 L 26 26 z"></path></g></g><g  id="v-1467" display="none"><g  id="v-1455" transform="translate(1187.420466151858, 1257.0141063208105) "><g  event="remove"><circle r="11"></circle><path transform="scale(.8) translate(-16, -16)" d="M24.778,21.419 19.276,15.917 24.777,10.415 21.949,7.585 16.447,13.087 10.945,7.585 8.117,10.415 13.618,15.917 8.116,21.419 10.946,24.248 16.447,18.746 21.948,24.248z"></path><title>Remove link.</title></g><g  event="link:options"><circle r="11" transform="translate(25)"></circle><path fill="white" transform="scale(.55) translate(29, -16)" d="M31.229,17.736c0.064-0.571,0.104-1.148,0.104-1.736s-0.04-1.166-0.104-1.737l-4.377-1.557c-0.218-0.716-0.504-1.401-0.851-2.05l1.993-4.192c-0.725-0.91-1.549-1.734-2.458-2.459l-4.193,1.994c-0.647-0.347-1.334-0.632-2.049-0.849l-1.558-4.378C17.165,0.708,16.588,0.667,16,0.667s-1.166,0.041-1.737,0.105L12.707,5.15c-0.716,0.217-1.401,0.502-2.05,0.849L6.464,4.005C5.554,4.73,4.73,5.554,4.005,6.464l1.994,4.192c-0.347,0.648-0.632,1.334-0.849,2.05l-4.378,1.557C0.708,14.834,0.667,15.412,0.667,16s0.041,1.165,0.105,1.736l4.378,1.558c0.217,0.715,0.502,1.401,0.849,2.049l-1.994,4.193c0.725,0.909,1.549,1.733,2.459,2.458l4.192-1.993c0.648,0.347,1.334,0.633,2.05,0.851l1.557,4.377c0.571,0.064,1.148,0.104,1.737,0.104c0.588,0,1.165-0.04,1.736-0.104l1.558-4.377c0.715-0.218,1.399-0.504,2.049-0.851l4.193,1.993c0.909-0.725,1.733-1.549,2.458-2.458l-1.993-4.193c0.347-0.647,0.633-1.334,0.851-2.049L31.229,17.736zM16,20.871c-2.69,0-4.872-2.182-4.872-4.871c0-2.69,2.182-4.872,4.872-4.872c2.689,0,4.871,2.182,4.871,4.872C20.871,18.689,18.689,20.871,16,20.871z"></path><title>Link options.</title></g></g></g></g><g   id="j_116" ><path  stroke="#707070" d="M 1370 1285 L 1370 955" id="v-1481" stroke-width="2" stroke-dasharray="30 30" fill="none" style="opacity: 1;"></path><path  fill="black" stroke="black" d="M 0 0 0 0" transform="matrix(-1.8369701465288538e-16,-1,1,-1.8369701465288538e-16,1370,1285)"></path><path  fill="#707070" stroke="#707070" d="M 20 0 L 0 10 L 20 20 z" id="v-1483" transform="matrix(6.123234262925839e-17,1,-1,6.123234262925839e-17,1380,955)" style="opacity: 1;"></path><path  d="M 1370 1285 L 1370 955" id="v-1482" fill="none" style="cursor: default;"></path><g ><g id="v-1475"  label-idx="0" cursor="move" transform="matrix(1,0,0,1,1370,1120)" style="cursor: default; opacity: 1;"><rect joint-selector="rect" id="v-1478" fill="#ffffff" rx="3" ry="3" pointer-events="none" width="200.31321716308594" height="91.21538925170898" transform="matrix(1,0,0,1,-100.19999694824219,-45.599998474121094)"></rect><text joint-selector="text" id="v-1477" font-size="24px" xml:space="preserve" y="0.8em" fill="#707070" text-anchor="middle" pointer-events="none" font-family="Open Sans" font-weight="normal" transform="matrix(1,0,0,1,0,-38.900001525878906)"><tspan  dy="0">Retrieves OpenID</tspan><tspan dy="1.2em" x="0" >configuration</tspan><tspan dy="1.2em" x="0" >from</tspan></text></g><g id="v-1476"  label-idx="1" cursor="move" transform="matrix(1,0,0,1,1360,1177)" style="cursor: default; opacity: 1;"><rect joint-selector="rect" id="v-1480" fill="#ffffff" rx="3" ry="3"  width="0" height="0" transform="matrix(1,0,0,1,0,0)" display="none"></rect><text joint-selector="text" id="v-1479" fill="#000000" font-size="14" text-anchor="middle" pointer-events="none"></text></g></g><g  display="none"></g><g  id="v-1485" display="none"><g  id="v-1473"><path  end="source" d="M 26 0 L 0 13 L 26 26 z"></path></g><g  id="v-1474"><path  end="target" d="M 26 0 L 0 13 L 26 26 z"></path></g></g><g  id="v-1484" display="none"><g  id="v-1472" transform="translate(1370, 1245) "><g  event="remove"><circle r="11"></circle><path transform="scale(.8) translate(-16, -16)" d="M24.778,21.419 19.276,15.917 24.777,10.415 21.949,7.585 16.447,13.087 10.945,7.585 8.117,10.415 13.618,15.917 8.116,21.419 10.946,24.248 16.447,18.746 21.948,24.248z"></path><title>Remove link.</title></g><g  event="link:options"><circle r="11" transform="translate(25)"></circle><path fill="white" transform="scale(.55) translate(29, -16)" d="M31.229,17.736c0.064-0.571,0.104-1.148,0.104-1.736s-0.04-1.166-0.104-1.737l-4.377-1.557c-0.218-0.716-0.504-1.401-0.851-2.05l1.993-4.192c-0.725-0.91-1.549-1.734-2.458-2.459l-4.193,1.994c-0.647-0.347-1.334-0.632-2.049-0.849l-1.558-4.378C17.165,0.708,16.588,0.667,16,0.667s-1.166,0.041-1.737,0.105L12.707,5.15c-0.716,0.217-1.401,0.502-2.05,0.849L6.464,4.005C5.554,4.73,4.73,5.554,4.005,6.464l1.994,4.192c-0.347,0.648-0.632,1.334-0.849,2.05l-4.378,1.557C0.708,14.834,0.667,15.412,0.667,16s0.041,1.165,0.105,1.736l4.378,1.558c0.217,0.715,0.502,1.401,0.849,2.049l-1.994,4.193c0.725,0.909,1.549,1.733,2.459,2.458l4.192-1.993c0.648,0.347,1.334,0.633,2.05,0.851l1.557,4.377c0.571,0.064,1.148,0.104,1.737,0.104c0.588,0,1.165-0.04,1.736-0.104l1.558-4.377c0.715-0.218,1.399-0.504,2.049-0.851l4.193,1.993c0.909-0.725,1.733-1.549,2.458-2.458l-1.993-4.193c0.347-0.647,0.633-1.334,0.851-2.049L31.229,17.736zM16,20.871c-2.69,0-4.872-2.182-4.872-4.871c0-2.69,2.182-4.872,4.872-4.872c2.689,0,4.871,2.182,4.871,4.872C20.871,18.689,18.689,20.871,16,20.871z"></path><title>Link options.</title></g></g></g></g><g   id="j_117" ><path  stroke="#707070" d="M 1519 1285 L 1846 955" id="v-1498" stroke-width="2" stroke-dasharray="30 30" fill="none" style="opacity: 1;"></path><path  fill="black" stroke="black" d="M 0 0 0 0" transform="matrix(0.7042828798294067,-0.7099194526672363,0.7099194526672363,0.7042828798294067,1518.81005859375,1285)"></path><path  fill="#707070" stroke="#707070" d="M 20 0 L 0 10 L 20 20 z" id="v-1500" transform="matrix(-0.7042830586433411,0.709919273853302,-0.709919273853302,-0.7042830586433411,1853.2891845703125,962.0428466796875)" style="opacity: 1;"></path><path  d="M 1519 1285 L 1846 955" id="v-1499" fill="none" style="cursor: default;"></path><g ><g id="v-1492"  label-idx="0" cursor="move" transform="matrix(1,0,0,1,1682.5,1120)" style="cursor: default; opacity: 1;"><rect joint-selector="rect" id="v-1495" fill="#ffffff" rx="3" ry="3" pointer-events="none" width="204.23500061035156" height="62.41538429260254" transform="matrix(1,0,0,1,-102.0999984741211,-31.200000762939453)"></rect><text joint-selector="text" id="v-1494" font-size="24px" xml:space="preserve" y="0.8em" fill="#707070" text-anchor="middle" pointer-events="none" font-family="Open Sans" font-weight="normal" transform="matrix(1,0,0,1,0,-24.5)"><tspan  dy="0">Retrieves Json</tspan><tspan dy="1.2em" x="0" >Web Key Set from</tspan></text></g><g id="v-1493"  label-idx="1" cursor="move" transform="matrix(1,0,0,1,1672.5,1162)" style="cursor: default; opacity: 1;"><rect joint-selector="rect" id="v-1497" fill="#ffffff" rx="3" ry="3"  width="0" height="0" transform="matrix(1,0,0,1,0,0)" display="none"></rect><text joint-selector="text" id="v-1496" fill="#000000" font-size="14" text-anchor="middle" pointer-events="none"></text></g></g><g  display="none"></g><g  id="v-1502" display="none"><g  id="v-1490"><path  end="source" d="M 26 0 L 0 13 L 26 26 z"></path></g><g  id="v-1491"><path  end="target" d="M 26 0 L 0 13 L 26 26 z"></path></g></g><g  id="v-1501" display="none"><g  id="v-1489" transform="translate(1547.1548258075686, 1256.5868730382335) "><g  event="remove"><circle r="11"></circle><path transform="scale(.8) translate(-16, -16)" d="M24.778,21.419 19.276,15.917 24.777,10.415 21.949,7.585 16.447,13.087 10.945,7.585 8.117,10.415 13.618,15.917 8.116,21.419 10.946,24.248 16.447,18.746 21.948,24.248z"></path><title>Remove link.</title></g><g  event="link:options"><circle r="11" transform="translate(25)"></circle><path fill="white" transform="scale(.55) translate(29, -16)" d="M31.229,17.736c0.064-0.571,0.104-1.148,0.104-1.736s-0.04-1.166-0.104-1.737l-4.377-1.557c-0.218-0.716-0.504-1.401-0.851-2.05l1.993-4.192c-0.725-0.91-1.549-1.734-2.458-2.459l-4.193,1.994c-0.647-0.347-1.334-0.632-2.049-0.849l-1.558-4.378C17.165,0.708,16.588,0.667,16,0.667s-1.166,0.041-1.737,0.105L12.707,5.15c-0.716,0.217-1.401,0.502-2.05,0.849L6.464,4.005C5.554,4.73,4.73,5.554,4.005,6.464l1.994,4.192c-0.347,0.648-0.632,1.334-0.849,2.05l-4.378,1.557C0.708,14.834,0.667,15.412,0.667,16s0.041,1.165,0.105,1.736l4.378,1.558c0.217,0.715,0.502,1.401,0.849,2.049l-1.994,4.193c0.725,0.909,1.549,1.733,2.459,2.458l4.192-1.993c0.648,0.347,1.334,0.633,2.05,0.851l1.557,4.377c0.571,0.064,1.148,0.104,1.737,0.104c0.588,0,1.165-0.04,1.736-0.104l1.558-4.377c0.715-0.218,1.399-0.504,2.049-0.851l4.193,1.993c0.909-0.725,1.733-1.549,2.458-2.458l-1.993-4.193c0.347-0.647,0.633-1.334,0.851-2.049L31.229,17.736zM16,20.871c-2.69,0-4.872-2.182-4.872-4.871c0-2.69,2.182-4.872,4.872-4.872c2.689,0,4.871,2.182,4.871,4.872C20.871,18.689,18.689,20.871,16,20.871z"></path><title>Link options.</title></g></g></g></g><g   id="j_118" ><path  stroke="#707070" d="M 1370 350 L 1370 655" id="v-1515" stroke-width="2" stroke-dasharray="30 30" fill="none" style="opacity: 1;"></path><path  fill="black" stroke="black" d="M 0 0 0 0" transform="matrix(6.123234262925839e-17,1,-1,6.123234262925839e-17,1370,350)"></path><path  fill="#707070" stroke="#707070" d="M 20 0 L 0 10 L 20 20 z" id="v-1517" transform="matrix(-1.8369701465288538e-16,-1,1,-1.8369701465288538e-16,1360,655)" style="opacity: 1;"></path><path  d="M 1370 350 L 1370 655" id="v-1516" fill="none" style="cursor: default;"></path><g ><g id="v-1509"  label-idx="0" cursor="move" transform="matrix(1,0,0,1,1370,502.5)" style="cursor: default; opacity: 1;"><rect joint-selector="rect" id="v-1512" fill="#ffffff" rx="3" ry="3" pointer-events="none" width="200.31321716308594" height="91.21538925170898" transform="matrix(1,0,0,1,-100.19999694824219,-45.599998474121094)"></rect><text joint-selector="text" id="v-1511" font-size="24px" xml:space="preserve" y="0.8em" fill="#707070" text-anchor="middle" pointer-events="none" font-family="Open Sans" font-weight="normal" transform="matrix(1,0,0,1,0,-38.900001525878906)"><tspan  dy="0">Retrieves OpenID</tspan><tspan dy="1.2em" x="0" >configuration</tspan><tspan dy="1.2em" x="0" >from</tspan></text></g><g id="v-1510"  label-idx="1" cursor="move" transform="matrix(1,0,0,1,1360,559.5)" style="cursor: default; opacity: 1;"><rect joint-selector="rect" id="v-1514" fill="#ffffff" rx="3" ry="3"  width="0" height="0" transform="matrix(1,0,0,1,0,0)" display="none"></rect><text joint-selector="text" id="v-1513" fill="#000000" font-size="14" text-anchor="middle" pointer-events="none"></text></g></g><g  display="none"></g><g  id="v-1519" display="none"><g  id="v-1507"><path  end="source" d="M 26 0 L 0 13 L 26 26 z"></path></g><g  id="v-1508"><path  end="target" d="M 26 0 L 0 13 L 26 26 z"></path></g></g><g  id="v-1518" display="none"><g  id="v-1506" transform="translate(1370, 390) "><g  event="remove"><circle r="11"></circle><path transform="scale(.8) translate(-16, -16)" d="M24.778,21.419 19.276,15.917 24.777,10.415 21.949,7.585 16.447,13.087 10.945,7.585 8.117,10.415 13.618,15.917 8.116,21.419 10.946,24.248 16.447,18.746 21.948,24.248z"></path><title>Remove link.</title></g><g  event="link:options"><circle r="11" transform="translate(25)"></circle><path fill="white" transform="scale(.55) translate(29, -16)" d="M31.229,17.736c0.064-0.571,0.104-1.148,0.104-1.736s-0.04-1.166-0.104-1.737l-4.377-1.557c-0.218-0.716-0.504-1.401-0.851-2.05l1.993-4.192c-0.725-0.91-1.549-1.734-2.458-2.459l-4.193,1.994c-0.647-0.347-1.334-0.632-2.049-0.849l-1.558-4.378C17.165,0.708,16.588,0.667,16,0.667s-1.166,0.041-1.737,0.105L12.707,5.15c-0.716,0.217-1.401,0.502-2.05,0.849L6.464,4.005C5.554,4.73,4.73,5.554,4.005,6.464l1.994,4.192c-0.347,0.648-0.632,1.334-0.849,2.05l-4.378,1.557C0.708,14.834,0.667,15.412,0.667,16s0.041,1.165,0.105,1.736l4.378,1.558c0.217,0.715,0.502,1.401,0.849,2.049l-1.994,4.193c0.725,0.909,1.549,1.733,2.459,2.458l4.192-1.993c0.648,0.347,1.334,0.633,2.05,0.851l1.557,4.377c0.571,0.064,1.148,0.104,1.737,0.104c0.588,0,1.165-0.04,1.736-0.104l1.558-4.377c0.715-0.218,1.399-0.504,2.049-0.851l4.193,1.993c0.909-0.725,1.733-1.549,2.458-2.458l-1.993-4.193c0.347-0.647,0.633-1.334,0.851-2.049L31.229,17.736zM16,20.871c-2.69,0-4.872-2.182-4.872-4.871c0-2.69,2.182-4.872,4.872-4.872c2.689,0,4.871,2.182,4.871,4.872C20.871,18.689,18.689,20.871,16,20.871z"></path><title>Link options.</title></g></g></g></g><g   id="j_119" ><path  stroke="#707070" d="M 1525 350 L 1840 655" id="v-1532" stroke-width="2" stroke-dasharray="30 30" fill="none" style="opacity: 1;"></path><path  fill="black" stroke="black" d="M 0 0 0 0" transform="matrix(0.7185065746307373,0.6955201625823975,-0.6955201625823975,0.7185065746307373,1524.9599609375,350)"></path><path  fill="#707070" stroke="#707070" d="M 20 0 L 0 10 L 20 20 z" id="v-1534" transform="matrix(-0.7185066342353821,-0.6955201625823975,0.6955201625823975,-0.7185066342353821,1833.0848388671875,662.18505859375)" style="opacity: 1;"></path><path  d="M 1525 350 L 1840 655" id="v-1533" fill="none" style="cursor: default;"></path><g ><g id="v-1526"  label-idx="0" cursor="move" transform="matrix(1,0,0,1,1682.5,502.5)" style="cursor: default; opacity: 1;"><rect joint-selector="rect" id="v-1529" fill="#ffffff" rx="3" ry="3" pointer-events="none" width="204.23500061035156" height="62.41538429260254" transform="matrix(1,0,0,1,-102.0999984741211,-31.200000762939453)"></rect><text joint-selector="text" id="v-1528" font-size="24px" xml:space="preserve" y="0.8em" fill="#707070" text-anchor="middle" pointer-events="none" font-family="Open Sans" font-weight="normal" transform="matrix(1,0,0,1,0,-24.5)"><tspan  dy="0">Retrieves Json</tspan><tspan dy="1.2em" x="0" >Web Key Set from</tspan></text></g><g id="v-1527"  label-idx="1" cursor="move" transform="matrix(1,0,0,1,1672.5,544.5)" style="cursor: default; opacity: 1;"><rect joint-selector="rect" id="v-1531" fill="#ffffff" rx="3" ry="3"  width="0" height="0" transform="matrix(1,0,0,1,0,0)" display="none"></rect><text joint-selector="text" id="v-1530" fill="#000000" font-size="14" text-anchor="middle" pointer-events="none"></text></g></g><g  display="none"></g><g  id="v-1536" display="none"><g  id="v-1524"><path  end="source" d="M 26 0 L 0 13 L 26 26 z"></path></g><g  id="v-1525"><path  end="target" d="M 26 0 L 0 13 L 26 26 z"></path></g></g><g  id="v-1535" display="none"><g  id="v-1523" transform="translate(1553.736731545567, 377.8244543536441) "><g  event="remove"><circle r="11"></circle><path transform="scale(.8) translate(-16, -16)" d="M24.778,21.419 19.276,15.917 24.777,10.415 21.949,7.585 16.447,13.087 10.945,7.585 8.117,10.415 13.618,15.917 8.116,21.419 10.946,24.248 16.447,18.746 21.948,24.248z"></path><title>Remove link.</title></g><g  event="link:options"><circle r="11" transform="translate(25)"></circle><path fill="white" transform="scale(.55) translate(29, -16)" d="M31.229,17.736c0.064-0.571,0.104-1.148,0.104-1.736s-0.04-1.166-0.104-1.737l-4.377-1.557c-0.218-0.716-0.504-1.401-0.851-2.05l1.993-4.192c-0.725-0.91-1.549-1.734-2.458-2.459l-4.193,1.994c-0.647-0.347-1.334-0.632-2.049-0.849l-1.558-4.378C17.165,0.708,16.588,0.667,16,0.667s-1.166,0.041-1.737,0.105L12.707,5.15c-0.716,0.217-1.401,0.502-2.05,0.849L6.464,4.005C5.554,4.73,4.73,5.554,4.005,6.464l1.994,4.192c-0.347,0.648-0.632,1.334-0.849,2.05l-4.378,1.557C0.708,14.834,0.667,15.412,0.667,16s0.041,1.165,0.105,1.736l4.378,1.558c0.217,0.715,0.502,1.401,0.849,2.049l-1.994,4.193c0.725,0.909,1.549,1.733,2.459,2.458l4.192-1.993c0.648,0.347,1.334,0.633,2.05,0.851l1.557,4.377c0.571,0.064,1.148,0.104,1.737,0.104c0.588,0,1.165-0.04,1.736-0.104l1.558-4.377c0.715-0.218,1.399-0.504,2.049-0.851l4.193,1.993c0.909-0.725,1.733-1.549,2.458-2.458l-1.993-4.193c0.347-0.647,0.633-1.334,0.851-2.049L31.229,17.736zM16,20.871c-2.69,0-4.872-2.182-4.872-4.871c0-2.69,2.182-4.872,4.872-4.872c2.689,0,4.871,2.182,4.871,4.872C20.871,18.689,18.689,20.871,16,20.871z"></path><title>Link options.</title></g></g></g></g></g><g ></g><g ></g><g ></g></g></svg>