<svg xmlns="http://www.w3.org/2000/svg" xmlns:xlink="http://www.w3.org/1999/xlink" version="1.1" viewBox="0 0 2500 1000" style="background: #ffffff"><defs><style>@import url(https://fonts.googleapis.com/css?family=Open+Sans:400,700);</style></defs><g transform="translate(25,100)"><rect width="450" height="300" rx="20" ry="20" x="0" y="0" fill="#438dd5" stroke-width="2" stroke="#3c7fc0"/><text x="225" y="132" text-anchor="middle" fill="#ffffff" font-size="30px" font-family="Open Sans"><tspan x="225" dy="40px">Container</tspan></text></g><g transform="translate(525,100)"><path id="keyDatabaseCylinderPath" d="M 0,22.5 a 225,22.5 0,0,0 450 0 a 225,22.5 0,0,0 -450 0 l 0,255 a 225,22.5 0,0,0 450 0 l 0,-255" fill="#438dd5" stroke-width="2" stroke="#3c7fc0"></path><text x="225" y="143.25" text-anchor="middle" fill="#ffffff" font-size="30px" font-family="Open Sans"><tspan x="225" dy="40px">Container, Database</tspan></text></g><g transform="translate(1025,100)"><rect width="150" height="75" rx="15" ry="15" x="15" y="0" fill="#438dd5" stroke-width="2" stroke="#3c7fc0"/><rect width="450" height="262.5" rx="6" ry="6" x="0" y="37.5" fill="#438dd5" stroke-width="2" stroke="#3c7fc0"/><text x="225" y="150.75" text-anchor="middle" fill="#ffffff" font-size="30px" font-family="Open Sans"><tspan x="225" dy="40px">Container, File Storage</tspan></text></g><g transform="translate(1525,100)"><path id="keyMessageQueuePipePath" d="M 22.5,0 a 22.5,150 0,0,1 0 300 a 22.5,150 0,0,1 0 -300 l 405,0 a 22.5,150 0,0,1 0 300 l -405,0" fill="#438dd5" stroke-width="2" stroke="#3c7fc0"></path><text x="225" y="114" text-anchor="middle" fill="#ffffff" font-size="30px" font-family="Open Sans"><tspan x="225" dy="40px">Container, Message</tspan><tspan x="225" dy="40px">Queue</tspan></text></g><g transform="translate(2025,100)"><rect width="450" height="300" rx="10" ry="10" x="0" y="0" fill="#3c7fc0" stroke-width="5" stroke="#3c7fc0"/><rect width="430" height="250" rx="10" ry="10" x="10" y="40" fill="#438dd5" stroke-width="0"/><rect width="340" height="20" rx="10" ry="10" x="100" y="10" fill="#438dd5" stroke-width="0"/><ellipse cx="20" cy="20" rx="10" ry="10" fill="#438dd5" stroke-width="0"/><ellipse cx="50" cy="20" rx="10" ry="10" fill="#438dd5" stroke-width="0"/><ellipse cx="80" cy="20" rx="10" ry="10" fill="#438dd5" stroke-width="0"/><text x="225" y="142" text-anchor="middle" fill="#ffffff" font-size="30px" font-family="Open Sans"><tspan x="225" dy="40px">Container, WebApp</tspan></text></g><g transform="translate(25,525)"><rect x="0" y="180" width="450" height="270" rx="90" fill="#08427b" stroke-width="2" stroke="#073b6f"/><circle cx="225" cy="100" r="100" fill="#08427b" stroke-width="2" stroke="#073b6f"/><line x1="90" y1="300" x2="90" y2="450" stroke-width="2" stroke="#073b6f"/><line x1="360" y1="300" x2="360" y2="450" stroke-width="2" stroke="#073b6f"/><text x="225" y="257" text-anchor="middle" fill="#ffffff" font-size="30px" font-family="Open Sans"><tspan x="225" dy="40px">Person</tspan></text></g><g transform="translate(525,600)"><rect width="450" height="300" rx="20" ry="20" x="0" y="0" fill="#1168bd" stroke-width="2" stroke="#0f5eaa"/><text x="225" y="132" text-anchor="middle" fill="#ffffff" font-size="30px" font-family="Open Sans"><tspan x="225" dy="40px">Software System</tspan></text></g><g transform="translate(1025,670)"><path d="M390,0 L390,60 L450,30 L 390,0" style="fill:#707070" stroke-dasharray="" /><path d="M0,30 L390,30" style="stroke:#707070; stroke-width: 6; fill: none; stroke-dasharray: 30 30;" /><text x="225" y="77" text-anchor="middle" fill="#707070" font-size="30px" font-family="Open Sans"><tspan x="225" dy="40px">Relationship</tspan></text></g></svg>