<svg xmlns="http://www.w3.org/2000/svg" xmlns:xlink="http://www.w3.org/1999/xlink" version="1.1" viewBox="0 0 2480 1748" style="background: #ffffff"><defs><style>@import url(https://fonts.googleapis.com/css?family=Open+Sans:400,700);</style></defs><defs joint-selector="defs"></defs><g  joint-selector="layers" transform="matrix(1,0,0,1,0,0)"><g ></g><g ><!--z-index:0--><!--z-index:1--><!--z-index:2--><!--z-index:3--><!--z-index:4--><!--z-index:5--><!--z-index:6--><!--z-index:7--><!--z-index:8--><!--z-index:9--><!--z-index:10--><!--z-index:11--><!--z-index:12--><!--z-index:13--><!--z-index:14--><g   id="j_250"  transform="translate(20,1711.6)"><g id="v-3158"><text  id="v-3159" font-size="22px" xml:space="preserve" y="0.8em" font-weight="normal" text-anchor="start" fill="#aaaaaa" pointer-events="none" display="block" font-family="Open Sans"><tspan  dy="0">Wednesday, 2 October 2024 at 14:57 British Summer Time</tspan></text></g></g><!--z-index:15--><g   id="j_249"  transform="translate(20,1685.1999999999998)"><g id="v-3156"><text  id="v-3157" font-size="22px" xml:space="preserve" y="0.8em" font-weight="normal" text-anchor="start" fill="#aaaaaa" pointer-events="none" display="block" font-family="Open Sans"><tspan  dy="0">The component diagram for the Data Sharing API.</tspan></text></g></g><!--z-index:16--><g   id="j_248"  transform="translate(20,1641.9999999999998)"><g id="v-3154"><text  id="v-3155" font-size="36px" xml:space="preserve" y="0.8em" font-weight="normal" text-anchor="start" fill="#000000" pointer-events="none" display="block" font-family="Open Sans"><tspan  dy="0">[Component] Central Digital Platform - Data Sharing API</tspan></text></g></g><!--z-index:17--><g   id="j_251"  transform="translate(685,30)" style=""><g  id="v-3163" style="opacity: 1;"><rect  id="v-3164" rx="20" ry="20" stroke="#0f5eaa" stroke-width="2" pointer-events="visiblePainted" fill="#1168bd" width="450" height="300" style="fill: rgb(17, 104, 189); stroke: rgb(15, 94, 170);"></rect><text  id="v-3165" font-size="34" xml:space="preserve" y="0.8em" font-weight="bold" text-anchor="middle" pointer-events="visible" font-family="Open Sans" fill="#ffffff" transform="matrix(1,0,0,1,225,88.0999984741211)" style="fill: rgb(255, 255, 255);"><tspan  dy="0">eSender</tspan></text><text  id="v-3166" font-size="17" xml:space="preserve" y="0.8em" text-anchor="middle" font-family="Open Sans" fill="#ffffff" transform="matrix(1,0,0,1,225,128.89999389648438)" style="fill: rgb(255, 255, 255);"><tspan  dy="0">[Software System]</tspan></text><text  id="v-3167" font-size="24" xml:space="preserve" y="0.8em" text-anchor="middle" font-family="Open Sans" fill="#ffffff" transform="matrix(1,0,0,1,225,159.3000030517578)" style="fill: rgb(255, 255, 255);"><tspan  dy="0">Commercial Software that Buyers</tspan><tspan dy="1.2em" x="0" >use to manage tender processes</tspan></text><g  id="v-3168" color="#ffffff" transform="matrix(1,0,0,1,222.5,268)" style="fill: rgb(255, 255, 255);" display="none"><g ></g><g ></g><g ></g><g ></g></g><image  id="v-3169"></image></g></g><!--z-index:18--><g   id="j_252"  transform="translate(0,0)" style=""><g  id="v-3170" style="opacity: 1;"><rect  id="v-3171" rx="10" ry="10" stroke="#3c7fc0" stroke-width="2" pointer-events="visiblePainted" fill="#438dd5" x="10" y="0" width="150" height="75" style="fill: rgb(67, 141, 213); stroke: rgb(60, 127, 192);"></rect><rect  id="v-3172" rx="5" ry="5" stroke="#3c7fc0" stroke-width="2" pointer-events="visiblePainted" fill="#438dd5" x="0" y="37.5" width="450" height="262.5" style="fill: rgb(67, 141, 213); stroke: rgb(60, 127, 192);"></rect><text  id="v-3173" font-size="34" xml:space="preserve" y="0.8em" font-weight="bold" text-anchor="middle" pointer-events="visible" font-family="Open Sans" fill="#ffffff" transform="matrix(1,0,0,1,225,140.6999969482422)" style="fill: rgb(255, 255, 255);"><tspan  dy="0">File Storage</tspan></text><text  id="v-3174" font-size="17" xml:space="preserve" y="0.8em" text-anchor="middle" font-family="Open Sans" fill="#ffffff" transform="matrix(1,0,0,1,225,181.5)" style="fill: rgb(255, 255, 255);"><tspan  dy="0">[Container: S3]</tspan></text><text  id="v-3175" font-size="24" xml:space="preserve" display="none" y="0.8em" text-anchor="middle" font-family="Open Sans" fill="#ffffff" transform="matrix(1,0,0,1,225,201.89999389648438)" style="fill: rgb(255, 255, 255);"><tspan style="fill-opacity: 0; stroke-opacity: 0;"  dy="0">-</tspan></text><g  id="v-3176" font-weight="normal" text-anchor="middle" color="#ffffff" transform="matrix(1,0,0,1,222.5,268)" style="fill: rgb(255, 255, 255);" display="none"><g ></g><g ></g><g ></g><g ></g></g><image  id="v-3177"></image></g></g><!--z-index:19--><g   id="j_254"  transform="translate(-20,-20)" style=""><g id="v-3191"><rect  id="v-3192" width="1175" height="941" rx="0" ry="0" fill="#ffffff" stroke="#3c7fc0" stroke-width="1" stroke-dasharray="20,20" pointer-events="none"></rect><text  id="v-3193" font-size="24px" xml:space="preserve" y="902" font-weight="normal" fill="#3c7fc0" text-anchor="start" pointer-events="visible" font-family="Open Sans" transform="matrix(1,0,0,1,15,0)"><tspan  dy="0">Data Sharing API</tspan></text><text  id="v-3194" font-size="17px" xml:space="preserve" y="926" font-weight="normal" fill="#3c7fc0" text-anchor="start" pointer-events="visible" font-family="Open Sans" transform="matrix(1,0,0,1,15,0)"><tspan  dy="0">[Container]</tspan></text><image  id="v-3195" pointer-events="visible"></image></g></g><!--z-index:20--><g   id="j_253"  transform="translate(685,530)" style=""><g  id="v-3184" style="opacity: 1;"><rect  id="v-3185" rx="20" ry="20" stroke="#78a8d8" stroke-width="2" pointer-events="visiblePainted" fill="#85bbf0" width="450" height="300" style="fill: rgb(133, 187, 240); stroke: rgb(120, 168, 216);"></rect><text  id="v-3186" font-size="34" xml:space="preserve" y="0.8em" font-weight="bold" text-anchor="middle" pointer-events="visible" font-family="Open Sans" fill="#000000" transform="matrix(1,0,0,1,225,121.9000015258789)" style="fill: rgb(0, 0, 0);"><tspan  dy="0">Data Sharing Endpoint</tspan></text><text  id="v-3187" font-size="17" xml:space="preserve" y="0.8em" text-anchor="middle" font-family="Open Sans" fill="#000000" transform="matrix(1,0,0,1,225,162.6999969482422)" style="fill: rgb(0, 0, 0);"><tspan  dy="0">[Component: Asp.Net Core Web API]</tspan></text><text  id="v-3188" font-size="24" xml:space="preserve" display="none" y="0.8em" text-anchor="middle" font-family="Open Sans" fill="#000000" transform="matrix(1,0,0,1,225,183.10000610351562)" style="fill: rgb(0, 0, 0);"><tspan style="fill-opacity: 0; stroke-opacity: 0;"  dy="0">-</tspan></text><g  id="v-3189" color="#000000" transform="matrix(1,0,0,1,222.5,268)" style="fill: rgb(0, 0, 0);" display="none"><g ></g><g ></g><g ></g><g ></g></g><image  id="v-3190"></image></g></g><!--z-index:21--><g   id="j_255"  transform="translate(0,0)" style=""><g  id="v-3196" style="opacity: 1;"><rect  id="v-3197" rx="20" ry="20" stroke="#78a8d8" stroke-width="2" pointer-events="visiblePainted" fill="#85bbf0" width="450" height="300" style="fill: rgb(133, 187, 240); stroke: rgb(120, 168, 216);"></rect><text  id="v-3198" font-size="34" xml:space="preserve" y="0.8em" font-weight="bold" text-anchor="middle" pointer-events="visible" font-family="Open Sans" fill="#000000" transform="matrix(1,0,0,1,225,121.9000015258789)" style="fill: rgb(0, 0, 0);"><tspan  dy="0">Use Case</tspan></text><text  id="v-3199" font-size="17" xml:space="preserve" y="0.8em" text-anchor="middle" font-family="Open Sans" fill="#000000" transform="matrix(1,0,0,1,225,162.6999969482422)" style="fill: rgb(0, 0, 0);"><tspan  dy="0">[Component]</tspan></text><text  id="v-3200" font-size="24" xml:space="preserve" display="none" y="0.8em" text-anchor="middle" font-family="Open Sans" fill="#000000" transform="matrix(1,0,0,1,225,183.10000610351562)" style="fill: rgb(0, 0, 0);"><tspan style="fill-opacity: 0; stroke-opacity: 0;"  dy="0">-</tspan></text><g  id="v-3201" color="#000000" transform="matrix(1,0,0,1,222.5,268)" style="fill: rgb(0, 0, 0);" display="none"><g ></g><g ></g><g ></g><g ></g></g><image  id="v-3202"></image></g></g><!--z-index:22--><g   id="j_256"  transform="translate(40,530)" style=""><g  id="v-3209" style="opacity: 1;"><rect  id="v-3210" rx="10" ry="10" stroke="#3c7fc0" stroke-width="2" pointer-events="visiblePainted" fill="#3c7fc0" width="450" height="300" style="fill: rgb(60, 127, 192); stroke: rgb(60, 127, 192);"></rect><rect  id="v-3211" rx="10" ry="10" stroke="#3c7fc0" stroke-width="0" pointer-events="visiblePainted" fill="#438dd5" width="430" height="250" x="10" y="40" style="fill: rgb(67, 141, 213);"></rect><ellipse  id="v-3218" fill="#438dd5" cx="20" cy="20" rx="10" ry="10" style="fill: rgb(67, 141, 213);"></ellipse><ellipse  id="v-3219" fill="#438dd5" cx="50" cy="20" rx="10" ry="10" style="fill: rgb(67, 141, 213);"></ellipse><ellipse  id="v-3220" fill="#438dd5" cx="80" cy="20" rx="10" ry="10" style="fill: rgb(67, 141, 213);"></ellipse><rect  id="v-3212" rx="10" ry="10" stroke="#444444" stroke-width="0" pointer-events="visiblePainted" fill="#438dd5" width="340" height="20" x="100" y="10" style="fill: rgb(67, 141, 213);"></rect><text  id="v-3213" font-size="34" xml:space="preserve" y="0.8em" font-weight="bold" text-anchor="middle" pointer-events="visible" font-family="Open Sans" fill="#ffffff" transform="matrix(1,0,0,1,225,117.5)" style="fill: rgb(255, 255, 255);"><tspan  dy="0">Organisation App</tspan></text><text  id="v-3214" font-size="17" xml:space="preserve" y="0.8em" text-anchor="middle" font-family="Open Sans" fill="#ffffff" transform="matrix(1,0,0,1,225,158.3000030517578)" style="fill: rgb(255, 255, 255);"><tspan  dy="0">[Container: Asp.Net Core MVC]</tspan></text><text  id="v-3215" font-size="24" xml:space="preserve" y="0.8em" text-anchor="middle" font-family="Open Sans" fill="#ffffff" transform="matrix(1,0,0,1,225,188.6999969482422)" style="fill: rgb(255, 255, 255);"><tspan  dy="0">Account &amp; data capture frontend</tspan></text><g  id="v-3216" font-weight="normal" text-anchor="middle" color="#ffffff" transform="matrix(1,0,0,1,210,258)" style="fill: rgb(255, 255, 255);" display="none"><g  transform="translate(5 0)"><svg xmlns="http://www.w3.org/2000/svg" width="20" height="20" fill="currentColor" viewBox="0 0 16 16"><path fill-rule="evenodd" d="M6.5 12a5.5 5.5 0 1 0 0-11 5.5 5.5 0 0 0 0 11zM13 6.5a6.5 6.5 0 1 1-13 0 6.5 6.5 0 0 1 13 0z"></path><path d="M10.344 11.742c.03.04.062.078.098.115l3.85 3.85a1 1 0 0 0 1.415-1.414l-3.85-3.85a1.007 1.007 0 0 0-.115-.1 6.538 6.538 0 0 1-1.398 1.4z"></path><path fill-rule="evenodd" d="M6.5 3a.5.5 0 0 1 .5.5V6h2.5a.5.5 0 0 1 0 1H7v2.5a.5.5 0 0 1-1 0V7H3.5a.5.5 0 0 1 0-1H6V3.5a.5.5 0 0 1 .5-.5z"></path></svg></g><g ></g><g ></g><g ></g></g><image  id="v-3217"></image></g></g><!--z-index:23--><g   id="j_257" ><path  stroke="#707070" d="M 490 680 L 685 680" id="v-3233" stroke-width="2" stroke-dasharray="30 30" fill="none" style="opacity: 1;"></path><path  fill="black" stroke="black" d="M 0 0 0 0" transform="matrix(1,0,0,1,490,680)"></path><path  fill="#707070" stroke="#707070" d="M 20 0 L 0 10 L 20 20 z" id="v-3235" transform="matrix(-1,1.2246468525851679e-16,-1.2246468525851679e-16,-1,685,690)" style="opacity: 1;"></path><path  d="M 490 680 L 685 680" id="v-3234" fill="none" style="cursor: default;"></path><g ><g id="v-3224"  label-idx="0" cursor="move" transform="matrix(1,0,0,1,587.5,680)" style="cursor: default; opacity: 1;"><rect joint-selector="rect" id="v-3228" fill="#ffffff" rx="3" ry="3" pointer-events="none" width="56.506683349609375" height="33.70179748535156" transform="matrix(1,0,0,1,-28.299999237060547,-16.799999237060547)"></rect><text joint-selector="text" id="v-3227" font-size="24px" xml:space="preserve" y="0.8em" fill="#707070" text-anchor="middle" pointer-events="none" font-family="Open Sans" font-weight="normal" transform="matrix(1,0,0,1,0,-10.199999809265137)"><tspan  dy="0">Calls</tspan></text></g><g id="v-3225"  label-idx="1" cursor="move" transform="matrix(1,0,0,1,587.5,706.4000244140625)" style="cursor: default; opacity: 1;"><rect joint-selector="rect" id="v-3230" fill="#ffffff" rx="3" ry="3" pointer-events="none" width="105.43540954589844" height="24.4375" transform="matrix(1,0,0,1,-52.70000076293945,-12.199999809265137)"></rect><text joint-selector="text" id="v-3229" font-size="17px" xml:space="preserve" y="0.8em" fill="#707070" text-anchor="middle" pointer-events="none" font-family="Open Sans" font-weight="normal" transform="matrix(1,0,0,1,0,-6.699999809265137)"><tspan  dy="0">[HTTPS/json]</tspan></text></g><g id="v-3226"  label-idx="2" cursor="move" transform="matrix(1,0,0,1,577.5,714.7999877929688)" style="cursor: default; opacity: 1;"><rect joint-selector="rect" id="v-3232" fill="#ffffff" rx="3" ry="3"  width="0" height="0" transform="matrix(1,0,0,1,0,0)" display="none"></rect><text joint-selector="text" id="v-3231" fill="#000000" font-size="14" text-anchor="middle" pointer-events="none"></text></g></g><g  display="none"></g><g  id="v-3237" display="none"><g  id="v-3222"><path  end="source" d="M 26 0 L 0 13 L 26 26 z"></path></g><g  id="v-3223"><path  end="target" d="M 26 0 L 0 13 L 26 26 z"></path></g></g><g  id="v-3236" display="none"><g  id="v-3221" transform="translate(530, 680) "><g  event="remove"><circle r="11"></circle><path transform="scale(.8) translate(-16, -16)" d="M24.778,21.419 19.276,15.917 24.777,10.415 21.949,7.585 16.447,13.087 10.945,7.585 8.117,10.415 13.618,15.917 8.116,21.419 10.946,24.248 16.447,18.746 21.948,24.248z"></path><title>Remove link.</title></g><g  event="link:options"><circle r="11" transform="translate(25)"></circle><path fill="white" transform="scale(.55) translate(29, -16)" d="M31.229,17.736c0.064-0.571,0.104-1.148,0.104-1.736s-0.04-1.166-0.104-1.737l-4.377-1.557c-0.218-0.716-0.504-1.401-0.851-2.05l1.993-4.192c-0.725-0.91-1.549-1.734-2.458-2.459l-4.193,1.994c-0.647-0.347-1.334-0.632-2.049-0.849l-1.558-4.378C17.165,0.708,16.588,0.667,16,0.667s-1.166,0.041-1.737,0.105L12.707,5.15c-0.716,0.217-1.401,0.502-2.05,0.849L6.464,4.005C5.554,4.73,4.73,5.554,4.005,6.464l1.994,4.192c-0.347,0.648-0.632,1.334-0.849,2.05l-4.378,1.557C0.708,14.834,0.667,15.412,0.667,16s0.041,1.165,0.105,1.736l4.378,1.558c0.217,0.715,0.502,1.401,0.849,2.049l-1.994,4.193c0.725,0.909,1.549,1.733,2.459,2.458l4.192-1.993c0.648,0.347,1.334,0.633,2.05,0.851l1.557,4.377c0.571,0.064,1.148,0.104,1.737,0.104c0.588,0,1.165-0.04,1.736-0.104l1.558-4.377c0.715-0.218,1.399-0.504,2.049-0.851l4.193,1.993c0.909-0.725,1.733-1.549,2.458-2.458l-1.993-4.193c0.347-0.647,0.633-1.334,0.851-2.049L31.229,17.736zM16,20.871c-2.69,0-4.872-2.182-4.872-4.871c0-2.69,2.182-4.872,4.872-4.872c2.689,0,4.871,2.182,4.871,4.872C20.871,18.689,18.689,20.871,16,20.871z"></path><title>Link options.</title></g></g></g></g><!--z-index:24--><g   id="j_258" ><path  stroke="#707070" d="M 910 330 L 910 530" id="v-3253" stroke-width="2" stroke-dasharray="30 30" fill="none" style="opacity: 1;"></path><path  fill="black" stroke="black" d="M 0 0 0 0" transform="matrix(6.123234262925839e-17,1,-1,6.123234262925839e-17,910,330)"></path><path  fill="#707070" stroke="#707070" d="M 20 0 L 0 10 L 20 20 z" id="v-3255" transform="matrix(-1.8369701465288538e-16,-1,1,-1.8369701465288538e-16,900,530)" style="opacity: 1;"></path><path  d="M 910 330 L 910 530" id="v-3254" fill="none" style="cursor: default;"></path><g ><g id="v-3244"  label-idx="0" cursor="move" transform="matrix(1,0,0,1,910,430)" style="cursor: default; opacity: 1;"><rect joint-selector="rect" id="v-3248" fill="#ffffff" rx="3" ry="3" pointer-events="none" width="202.8099365234375" height="62.50179862976074" transform="matrix(1,0,0,1,-101.4000015258789,-31.200000762939453)"></rect><text joint-selector="text" id="v-3247" font-size="24px" xml:space="preserve" y="0.8em" fill="#707070" text-anchor="middle" pointer-events="none" font-family="Open Sans" font-weight="normal" transform="matrix(1,0,0,1,0,-24.600000381469727)"><tspan  dy="0">Looks up supplier</tspan><tspan dy="1.2em" x="0" >information</tspan></text></g><g id="v-3245"  label-idx="1" cursor="move" transform="matrix(1,0,0,1,910,470.79998779296875)" style="cursor: default; opacity: 1;"><rect joint-selector="rect" id="v-3250" fill="#ffffff" rx="3" ry="3" pointer-events="none" width="105.43540954589844" height="24.4375" transform="matrix(1,0,0,1,-52.70000076293945,-12.199999809265137)"></rect><text joint-selector="text" id="v-3249" font-size="17px" xml:space="preserve" y="0.8em" fill="#707070" text-anchor="middle" pointer-events="none" font-family="Open Sans" font-weight="normal" transform="matrix(1,0,0,1,0,-6.699999809265137)"><tspan  dy="0">[HTTPS/json]</tspan></text></g><g id="v-3246"  label-idx="2" cursor="move" transform="matrix(1,0,0,1,900,479.20001220703125)" style="cursor: default; opacity: 1;"><rect joint-selector="rect" id="v-3252" fill="#ffffff" rx="3" ry="3"  width="0" height="0" transform="matrix(1,0,0,1,0,0)" display="none"></rect><text joint-selector="text" id="v-3251" fill="#000000" font-size="14" text-anchor="middle" pointer-events="none"></text></g></g><g  display="none"></g><g  id="v-3257" display="none"><g  id="v-3242"><path  end="source" d="M 26 0 L 0 13 L 26 26 z"></path></g><g  id="v-3243"><path  end="target" d="M 26 0 L 0 13 L 26 26 z"></path></g></g><g  id="v-3256" display="none"><g  id="v-3241" transform="translate(910, 370) "><g  event="remove"><circle r="11"></circle><path transform="scale(.8) translate(-16, -16)" d="M24.778,21.419 19.276,15.917 24.777,10.415 21.949,7.585 16.447,13.087 10.945,7.585 8.117,10.415 13.618,15.917 8.116,21.419 10.946,24.248 16.447,18.746 21.948,24.248z"></path><title>Remove link.</title></g><g  event="link:options"><circle r="11" transform="translate(25)"></circle><path fill="white" transform="scale(.55) translate(29, -16)" d="M31.229,17.736c0.064-0.571,0.104-1.148,0.104-1.736s-0.04-1.166-0.104-1.737l-4.377-1.557c-0.218-0.716-0.504-1.401-0.851-2.05l1.993-4.192c-0.725-0.91-1.549-1.734-2.458-2.459l-4.193,1.994c-0.647-0.347-1.334-0.632-2.049-0.849l-1.558-4.378C17.165,0.708,16.588,0.667,16,0.667s-1.166,0.041-1.737,0.105L12.707,5.15c-0.716,0.217-1.401,0.502-2.05,0.849L6.464,4.005C5.554,4.73,4.73,5.554,4.005,6.464l1.994,4.192c-0.347,0.648-0.632,1.334-0.849,2.05l-4.378,1.557C0.708,14.834,0.667,15.412,0.667,16s0.041,1.165,0.105,1.736l4.378,1.558c0.217,0.715,0.502,1.401,0.849,2.049l-1.994,4.193c0.725,0.909,1.549,1.733,2.459,2.458l4.192-1.993c0.648,0.347,1.334,0.633,2.05,0.851l1.557,4.377c0.571,0.064,1.148,0.104,1.737,0.104c0.588,0,1.165-0.04,1.736-0.104l1.558-4.377c0.715-0.218,1.399-0.504,2.049-0.851l4.193,1.993c0.909-0.725,1.733-1.549,2.458-2.458l-1.993-4.193c0.347-0.647,0.633-1.334,0.851-2.049L31.229,17.736zM16,20.871c-2.69,0-4.872-2.182-4.872-4.871c0-2.69,2.182-4.872,4.872-4.872c2.689,0,4.871,2.182,4.871,4.872C20.871,18.689,18.689,20.871,16,20.871z"></path><title>Link options.</title></g></g></g></g><!--z-index:25--><g   id="j_259" ><path  stroke="#707070" d="M 225 150 L 225 150" id="v-3273" stroke-width="2" stroke-dasharray="30 30" fill="none" style="opacity: 1;"></path><path  fill="black" stroke="black" d="M 0 0 0 0" transform="matrix(1,0,0,1,225,150)"></path><path  fill="#707070" stroke="#707070" d="M 20 0 L 0 10 L 20 20 z" id="v-3275" transform="matrix(1,0,0,1,205,140)" style="opacity: 1;"></path><path  d="M 225 150 L 225 150" id="v-3274" fill="none" style="cursor: default;"></path><g ><g id="v-3264"  label-idx="0" cursor="move" transform="matrix(1,0,0,1,225,150)" style="cursor: default; opacity: 1;"><rect joint-selector="rect" id="v-3268" fill="#ffffff" rx="3" ry="3" pointer-events="none" width="185.69691467285156" height="62.50179862976074" transform="matrix(1,0,0,1,-92.80000305175781,-31.200000762939453)"></rect><text joint-selector="text" id="v-3267" font-size="24px" xml:space="preserve" y="0.8em" fill="#707070" text-anchor="middle" pointer-events="none" font-family="Open Sans" font-weight="normal" transform="matrix(1,0,0,1,0,-24.600000381469727)"><tspan  dy="0">writes to / reads</tspan><tspan dy="1.2em" x="0" >from</tspan></text></g><g id="v-3265"  label-idx="1" cursor="move" transform="matrix(1,0,0,1,225,190.8000030517578)" style="cursor: default; opacity: 1;"><rect joint-selector="rect" id="v-3270" fill="#ffffff" rx="3" ry="3" pointer-events="none" width="66.15833282470703" height="24.4375" transform="matrix(1,0,0,1,-33.099998474121094,-12.199999809265137)"></rect><text joint-selector="text" id="v-3269" font-size="17px" xml:space="preserve" y="0.8em" fill="#707070" text-anchor="middle" pointer-events="none" font-family="Open Sans" font-weight="normal" transform="matrix(1,0,0,1,0,-6.699999809265137)"><tspan  dy="0">[HTTPS]</tspan></text></g><g id="v-3266"  label-idx="2" cursor="move" transform="matrix(1,0,0,1,215,240)" style="cursor: default; opacity: 1;"><rect joint-selector="rect" id="v-3272" fill="#ffffff" rx="3" ry="3"  width="0" height="0" transform="matrix(1,0,0,1,0,0)" display="none"></rect><text joint-selector="text" id="v-3271" fill="#000000" font-size="14" text-anchor="middle" pointer-events="none"></text></g></g><g  display="none"></g><g  id="v-3277" display="none"><g  id="v-3262"><path  end="source" d="M 26 0 L 0 13 L 26 26 z"></path></g><g  id="v-3263"><path  end="target" d="M 26 0 L 0 13 L 26 26 z"></path></g></g><g  id="v-3276" display="none"><g  id="v-3261" transform="translate(225, 170.8) scale(.5)"><g  event="remove"><circle r="11"></circle><path transform="scale(.8) translate(-16, -16)" d="M24.778,21.419 19.276,15.917 24.777,10.415 21.949,7.585 16.447,13.087 10.945,7.585 8.117,10.415 13.618,15.917 8.116,21.419 10.946,24.248 16.447,18.746 21.948,24.248z"></path><title>Remove link.</title></g><g  event="link:options"><circle r="11" transform="translate(25)"></circle><path fill="white" transform="scale(.55) translate(29, -16)" d="M31.229,17.736c0.064-0.571,0.104-1.148,0.104-1.736s-0.04-1.166-0.104-1.737l-4.377-1.557c-0.218-0.716-0.504-1.401-0.851-2.05l1.993-4.192c-0.725-0.91-1.549-1.734-2.458-2.459l-4.193,1.994c-0.647-0.347-1.334-0.632-2.049-0.849l-1.558-4.378C17.165,0.708,16.588,0.667,16,0.667s-1.166,0.041-1.737,0.105L12.707,5.15c-0.716,0.217-1.401,0.502-2.05,0.849L6.464,4.005C5.554,4.73,4.73,5.554,4.005,6.464l1.994,4.192c-0.347,0.648-0.632,1.334-0.849,2.05l-4.378,1.557C0.708,14.834,0.667,15.412,0.667,16s0.041,1.165,0.105,1.736l4.378,1.558c0.217,0.715,0.502,1.401,0.849,2.049l-1.994,4.193c0.725,0.909,1.549,1.733,2.459,2.458l4.192-1.993c0.648,0.347,1.334,0.633,2.05,0.851l1.557,4.377c0.571,0.064,1.148,0.104,1.737,0.104c0.588,0,1.165-0.04,1.736-0.104l1.558-4.377c0.715-0.218,1.399-0.504,2.049-0.851l4.193,1.993c0.909-0.725,1.733-1.549,2.458-2.458l-1.993-4.193c0.347-0.647,0.633-1.334,0.851-2.049L31.229,17.736zM16,20.871c-2.69,0-4.872-2.182-4.872-4.871c0-2.69,2.182-4.872,4.872-4.872c2.689,0,4.871,2.182,4.871,4.872C20.871,18.689,18.689,20.871,16,20.871z"></path><title>Link options.</title></g></g></g></g><!--z-index:26--><g   id="j_260" ><path  stroke="#707070" d="M 254 530 L 236 300" id="v-3290" stroke-width="2" stroke-dasharray="30 30" fill="none" style="opacity: 1;"></path><path  fill="black" stroke="black" d="M 0 0 0 0" transform="matrix(-0.07526426017284393,-0.9971635937690735,0.9971635937690735,-0.07526426017284393,253.67999267578125,530)"></path><path  fill="#707070" stroke="#707070" d="M 20 0 L 0 10 L 20 20 z" id="v-3292" transform="matrix(0.07526412606239319,0.9971636533737183,-0.9971636533737183,0.07526412606239319,246.29164123535156,299.24737548828125)" style="opacity: 1;"></path><path  d="M 254 530 L 236 300" id="v-3291" fill="none" style="cursor: default;"></path><g ><g id="v-3281"  label-idx="0" cursor="move" transform="matrix(1,0,0,1,245,415)" style="cursor: default; opacity: 1;"><rect joint-selector="rect" id="v-3285" fill="#ffffff" rx="3" ry="3" pointer-events="none" width="101.6670913696289" height="33.70179748535156" transform="matrix(1,0,0,1,-50.79999923706055,-16.799999237060547)"></rect><text joint-selector="text" id="v-3284" font-size="24px" xml:space="preserve" y="0.8em" fill="#707070" text-anchor="middle" pointer-events="none" font-family="Open Sans" font-weight="normal" transform="matrix(1,0,0,1,0,-10.199999809265137)"><tspan  dy="0">writes to</tspan></text></g><g id="v-3282"  label-idx="1" cursor="move" transform="matrix(1,0,0,1,245,441.3999938964844)" style="cursor: default; opacity: 1;"><rect joint-selector="rect" id="v-3287" fill="#ffffff" rx="3" ry="3" pointer-events="none" width="66.15833282470703" height="24.4375" transform="matrix(1,0,0,1,-33.099998474121094,-12.199999809265137)"></rect><text joint-selector="text" id="v-3286" font-size="17px" xml:space="preserve" y="0.8em" fill="#707070" text-anchor="middle" pointer-events="none" font-family="Open Sans" font-weight="normal" transform="matrix(1,0,0,1,0,-6.699999809265137)"><tspan  dy="0">[HTTPS]</tspan></text></g><g id="v-3283"  label-idx="2" cursor="move" transform="matrix(1,0,0,1,235,449.79998779296875)" style="cursor: default; opacity: 1;"><rect joint-selector="rect" id="v-3289" fill="#ffffff" rx="3" ry="3"  width="0" height="0" transform="matrix(1,0,0,1,0,0)" display="none"></rect><text joint-selector="text" id="v-3288" fill="#000000" font-size="14" text-anchor="middle" pointer-events="none"></text></g></g><g  display="none"></g><g  id="v-3294" display="none"><g  id="v-3279"><path  end="source" d="M 26 0 L 0 13 L 26 26 z"></path></g><g  id="v-3280"><path  end="target" d="M 26 0 L 0 13 L 26 26 z"></path></g></g><g  id="v-3293" display="none"><g  id="v-3278" transform="translate(250.87910799094055, 490.12193543979606) "><g  event="remove"><circle r="11"></circle><path transform="scale(.8) translate(-16, -16)" d="M24.778,21.419 19.276,15.917 24.777,10.415 21.949,7.585 16.447,13.087 10.945,7.585 8.117,10.415 13.618,15.917 8.116,21.419 10.946,24.248 16.447,18.746 21.948,24.248z"></path><title>Remove link.</title></g><g  event="link:options"><circle r="11" transform="translate(25)"></circle><path fill="white" transform="scale(.55) translate(29, -16)" d="M31.229,17.736c0.064-0.571,0.104-1.148,0.104-1.736s-0.04-1.166-0.104-1.737l-4.377-1.557c-0.218-0.716-0.504-1.401-0.851-2.05l1.993-4.192c-0.725-0.91-1.549-1.734-2.458-2.459l-4.193,1.994c-0.647-0.347-1.334-0.632-2.049-0.849l-1.558-4.378C17.165,0.708,16.588,0.667,16,0.667s-1.166,0.041-1.737,0.105L12.707,5.15c-0.716,0.217-1.401,0.502-2.05,0.849L6.464,4.005C5.554,4.73,4.73,5.554,4.005,6.464l1.994,4.192c-0.347,0.648-0.632,1.334-0.849,2.05l-4.378,1.557C0.708,14.834,0.667,15.412,0.667,16s0.041,1.165,0.105,1.736l4.378,1.558c0.217,0.715,0.502,1.401,0.849,2.049l-1.994,4.193c0.725,0.909,1.549,1.733,2.459,2.458l4.192-1.993c0.648,0.347,1.334,0.633,2.05,0.851l1.557,4.377c0.571,0.064,1.148,0.104,1.737,0.104c0.588,0,1.165-0.04,1.736-0.104l1.558-4.377c0.715-0.218,1.399-0.504,2.049-0.851l4.193,1.993c0.909-0.725,1.733-1.549,2.458-2.458l-1.993-4.193c0.347-0.647,0.633-1.334,0.851-2.049L31.229,17.736zM16,20.871c-2.69,0-4.872-2.182-4.872-4.871c0-2.69,2.182-4.872,4.872-4.872c2.689,0,4.871,2.182,4.871,4.872C20.871,18.689,18.689,20.871,16,20.871z"></path><title>Link options.</title></g></g></g></g><!--z-index:27--><!--z-index:28--><!--z-index:29--><!--z-index:30--><!--z-index:31--><!--z-index:32--><!--z-index:33--><!--z-index:34--><!--z-index:35--><!--z-index:36--><!--z-index:37--><!--z-index:38--><!--z-index:39--><!--z-index:40--><!--z-index:41--><!--z-index:42--><!--z-index:43--><!--z-index:44--><!--z-index:45--><!--z-index:46--><!--z-index:47--><!--z-index:48--><!--z-index:49--><!--z-index:50--><!--z-index:51--><!--z-index:52--><!--z-index:53--><!--z-index:54--><!--z-index:55--><!--z-index:56--><!--z-index:57--><!--z-index:58--><!--z-index:59--><!--z-index:60--><!--z-index:61--><!--z-index:62--><!--z-index:63--><!--z-index:64--><!--z-index:65--><!--z-index:66--><!--z-index:67--><!--z-index:68--><!--z-index:69--><!--z-index:70--><!--z-index:71--><!--z-index:72--><!--z-index:73--><!--z-index:74--><!--z-index:75--><!--z-index:76--><!--z-index:77--><!--z-index:78--><!--z-index:79--><!--z-index:80--><!--z-index:81--><!--z-index:82--><!--z-index:83--><!--z-index:84--><!--z-index:85--><!--z-index:86--><!--z-index:87--><!--z-index:88--><!--z-index:89--><!--z-index:90--><!--z-index:91--><!--z-index:92--><!--z-index:93--><!--z-index:94--><!--z-index:95--><!--z-index:96--><!--z-index:97--><!--z-index:98--><!--z-index:99--><!--z-index:100--><!--z-index:101--><!--z-index:102--><!--z-index:103--><!--z-index:104--><!--z-index:105--><!--z-index:106--><!--z-index:107--><!--z-index:108--><!--z-index:109--><!--z-index:110--><!--z-index:111--><!--z-index:112--><!--z-index:113--><!--z-index:114--><!--z-index:115--><!--z-index:116--><!--z-index:117--><!--z-index:118--><!--z-index:119--><!--z-index:120--><!--z-index:121--><!--z-index:122--><!--z-index:123--><!--z-index:124--><!--z-index:125--><!--z-index:126--><!--z-index:127--><!--z-index:128--><!--z-index:129--><!--z-index:130--></g><g ></g><g ></g><g ></g></g></svg>