<svg xmlns="http://www.w3.org/2000/svg" xmlns:xlink="http://www.w3.org/1999/xlink" version="1.1" viewBox="0 0 2870 1900" style="background: #ffffff"><defs><style>@import url(https://fonts.googleapis.com/css?family=Open+Sans:400,700);</style></defs><defs joint-selector="defs"></defs><g  joint-selector="layers" transform="matrix(1,0,0,1,0,0)"><g ></g><g ><!--z-index:0--><!--z-index:1--><!--z-index:2--><!--z-index:3--><!--z-index:4--><!--z-index:5--><!--z-index:6--><!--z-index:7--><!--z-index:8--><!--z-index:9--><!--z-index:10--><!--z-index:11--><!--z-index:12--><!--z-index:13--><!--z-index:14--><!--z-index:15--><g   id="j_594"  transform="translate(20,1863.6)"><g id="v-7668"><text  id="v-7669" font-size="22px" xml:space="preserve" y="0.8em" font-weight="normal" text-anchor="start" fill="#aaaaaa" pointer-events="none" display="block" font-family="Open Sans"><tspan  dy="0">Wednesday, 2 October 2024 at 14:29 British Summer Time</tspan></text></g></g><!--z-index:16--><g   id="j_593"  transform="translate(20,1837.1999999999998)"><g id="v-7666"><text  id="v-7667" font-size="22px" xml:space="preserve" y="0.8em" font-weight="normal" text-anchor="start" fill="#aaaaaa" pointer-events="none" display="block" font-family="Open Sans"><tspan  dy="0">The component diagram for the Organisation API.</tspan></text></g></g><!--z-index:17--><g   id="j_592"  transform="translate(20,1793.9999999999998)"><g id="v-7664"><text  id="v-7665" font-size="36px" xml:space="preserve" y="0.8em" font-weight="normal" text-anchor="start" fill="#000000" pointer-events="none" display="block" font-family="Open Sans"><tspan  dy="0">[Component] Central Digital Platform - Organisation API</tspan></text></g></g><!--z-index:18--><g   id="j_595"  transform="translate(2220,219)" style=""><g  id="v-7673" style="opacity: 1;"><rect  id="v-7674" rx="20" ry="20" stroke="#0f5eaa" stroke-width="2" pointer-events="visiblePainted" fill="#1168bd" width="450" height="300" style="fill: rgb(17, 104, 189); stroke: rgb(15, 94, 170);"></rect><text  id="v-7675" font-size="34" xml:space="preserve" y="0.8em" font-weight="bold" text-anchor="middle" pointer-events="visible" font-family="Open Sans" fill="#ffffff" transform="matrix(1,0,0,1,225,88.0999984741211)" style="fill: rgb(255, 255, 255);"><tspan  dy="0">Gov.uk Notify</tspan></text><text  id="v-7676" font-size="17" xml:space="preserve" y="0.8em" text-anchor="middle" font-family="Open Sans" fill="#ffffff" transform="matrix(1,0,0,1,225,128.89999389648438)" style="fill: rgb(255, 255, 255);"><tspan  dy="0">[Software System]</tspan></text><text  id="v-7677" font-size="24" xml:space="preserve" y="0.8em" text-anchor="middle" font-family="Open Sans" fill="#ffffff" transform="matrix(1,0,0,1,225,159.3000030517578)" style="fill: rgb(255, 255, 255);"><tspan  dy="0">Sends emails, text messages and</tspan><tspan dy="1.2em" x="0" >letters</tspan></text><g  id="v-7678" color="#ffffff" transform="matrix(1,0,0,1,222.5,268)" style="fill: rgb(255, 255, 255);" display="none"><g ></g><g ></g><g ></g><g ></g></g><image  id="v-7679"></image></g></g><!--z-index:19--><g   id="j_596"  transform="translate(200,645)" style=""><g  id="v-7680" style="opacity: 1;"><rect  id="v-7681" rx="20" ry="20" stroke="#0f5eaa" stroke-width="2" pointer-events="visiblePainted" fill="#1168bd" width="450" height="300" style="fill: rgb(17, 104, 189); stroke: rgb(15, 94, 170);"></rect><text  id="v-7682" font-size="34" xml:space="preserve" y="0.8em" font-weight="bold" text-anchor="middle" pointer-events="visible" font-family="Open Sans" fill="#ffffff" transform="matrix(1,0,0,1,225,121.9000015258789)" style="fill: rgb(255, 255, 255);"><tspan  dy="0">Find a Tender</tspan></text><text  id="v-7683" font-size="17" xml:space="preserve" y="0.8em" text-anchor="middle" font-family="Open Sans" fill="#ffffff" transform="matrix(1,0,0,1,225,162.6999969482422)" style="fill: rgb(255, 255, 255);"><tspan  dy="0">[Software System]</tspan></text><text  id="v-7684" font-size="24" xml:space="preserve" display="none" y="0.8em" text-anchor="middle" font-family="Open Sans" fill="#ffffff" transform="matrix(1,0,0,1,225,183.10000610351562)" style="fill: rgb(255, 255, 255);"><tspan style="fill-opacity: 0; stroke-opacity: 0;"  dy="0">-</tspan></text><g  id="v-7685" color="#ffffff" transform="matrix(1,0,0,1,222.5,268)" style="fill: rgb(255, 255, 255);" display="none"><g ></g><g ></g><g ></g><g ></g></g><image  id="v-7686"></image></g></g><!--z-index:20--><g   id="j_597"  transform="translate(1490,920)" style=""><g  id="v-7687" style="opacity: 1;"><path  d="M 30,0 a 30,150 0,0,1 0 300 a 30,150 0,0,1 0 -300 l 390,0 a 30,150 0,0,1 0 300 l -390,0" id="v-7688" stroke="#3c7fc0" stroke-width="2" pointer-events="visiblePainted" fill="#438dd5" style="fill: rgb(67, 141, 213); stroke: rgb(60, 127, 192);"></path><rect  id="v-7689" stroke-width="0" pointer-events="visiblePainted" fill="none" stroke="none" width="420" height="300" x="30" y="0"></rect><text  id="v-7690" font-size="34" xml:space="preserve" y="0.8em" font-weight="bold" text-anchor="middle" pointer-events="visible" font-family="Open Sans" fill="#ffffff" transform="matrix(1,0,0,1,240,121.9000015258789)" style="fill: rgb(255, 255, 255);"><tspan  dy="0">Message Queue</tspan></text><text  id="v-7691" font-size="17" xml:space="preserve" y="0.8em" text-anchor="middle" font-family="Open Sans" fill="#ffffff" transform="matrix(1,0,0,1,240,162.6999969482422)" style="fill: rgb(255, 255, 255);"><tspan  dy="0">[Container: SQS]</tspan></text><text  id="v-7692" font-size="24" xml:space="preserve" display="none" y="0.8em" text-anchor="middle" font-family="Open Sans" fill="#ffffff" transform="matrix(1,0,0,1,240,183.10000610351562)" style="fill: rgb(255, 255, 255);"><tspan style="fill-opacity: 0; stroke-opacity: 0;"  dy="0">-</tspan></text><g  id="v-7693" font-weight="normal" text-anchor="middle" color="#ffffff" transform="matrix(1,0,0,1,237.5,268)" style="fill: rgb(255, 255, 255);" display="none"><g ></g><g ></g><g ></g><g ></g></g><image  id="v-7694"></image></g></g><!--z-index:21--><g   id="j_599"  transform="translate(845,199)" style=""><g id="v-7708"><rect  id="v-7709" width="1105" height="416" rx="0" ry="0" fill="#ffffff" stroke="#3c7fc0" stroke-width="1" stroke-dasharray="20,20" pointer-events="none"></rect><text  id="v-7710" font-size="24px" xml:space="preserve" y="377" font-weight="normal" fill="#3c7fc0" text-anchor="start" pointer-events="visible" font-family="Open Sans" transform="matrix(1,0,0,1,15,0)"><tspan  dy="0">Organisation API</tspan></text><text  id="v-7711" font-size="17px" xml:space="preserve" y="401" font-weight="normal" fill="#3c7fc0" text-anchor="start" pointer-events="visible" font-family="Open Sans" transform="matrix(1,0,0,1,15,0)"><tspan  dy="0">[Container]</tspan></text><image  id="v-7712" pointer-events="visible"></image></g></g><!--z-index:22--><g   id="j_598"  transform="translate(865,224)" style=""><g  id="v-7701" style="opacity: 1;"><rect  id="v-7702" rx="20" ry="20" stroke="#78a8d8" stroke-width="2" pointer-events="visiblePainted" fill="#85bbf0" width="450" height="300" style="fill: rgb(133, 187, 240); stroke: rgb(120, 168, 216);"></rect><text  id="v-7703" font-size="34" xml:space="preserve" y="0.8em" font-weight="bold" text-anchor="middle" pointer-events="visible" font-family="Open Sans" fill="#000000" transform="matrix(1,0,0,1,225,121.9000015258789)" style="fill: rgb(0, 0, 0);"><tspan  dy="0">Organisation Endpoint</tspan></text><text  id="v-7704" font-size="17" xml:space="preserve" y="0.8em" text-anchor="middle" font-family="Open Sans" fill="#000000" transform="matrix(1,0,0,1,225,162.6999969482422)" style="fill: rgb(0, 0, 0);"><tspan  dy="0">[Component: Asp.Net Core Web API]</tspan></text><text  id="v-7705" font-size="24" xml:space="preserve" display="none" y="0.8em" text-anchor="middle" font-family="Open Sans" fill="#000000" transform="matrix(1,0,0,1,225,183.10000610351562)" style="fill: rgb(0, 0, 0);"><tspan style="fill-opacity: 0; stroke-opacity: 0;"  dy="0">-</tspan></text><g  id="v-7706" color="#000000" transform="matrix(1,0,0,1,222.5,268)" style="fill: rgb(0, 0, 0);" display="none"><g ></g><g ></g><g ></g><g ></g></g><image  id="v-7707"></image></g></g><!--z-index:23--><g   id="j_600"  transform="translate(1480,219)" style=""><g  id="v-7713" style="opacity: 1;"><rect  id="v-7714" rx="20" ry="20" stroke="#78a8d8" stroke-width="2" pointer-events="visiblePainted" fill="#85bbf0" width="450" height="300" style="fill: rgb(133, 187, 240); stroke: rgb(120, 168, 216);"></rect><text  id="v-7715" font-size="34" xml:space="preserve" y="0.8em" font-weight="bold" text-anchor="middle" pointer-events="visible" font-family="Open Sans" fill="#000000" transform="matrix(1,0,0,1,225,121.9000015258789)" style="fill: rgb(0, 0, 0);"><tspan  dy="0">Use Case</tspan></text><text  id="v-7716" font-size="17" xml:space="preserve" y="0.8em" text-anchor="middle" font-family="Open Sans" fill="#000000" transform="matrix(1,0,0,1,225,162.6999969482422)" style="fill: rgb(0, 0, 0);"><tspan  dy="0">[Component]</tspan></text><text  id="v-7717" font-size="24" xml:space="preserve" display="none" y="0.8em" text-anchor="middle" font-family="Open Sans" fill="#000000" transform="matrix(1,0,0,1,225,183.10000610351562)" style="fill: rgb(0, 0, 0);"><tspan style="fill-opacity: 0; stroke-opacity: 0;"  dy="0">-</tspan></text><g  id="v-7718" color="#000000" transform="matrix(1,0,0,1,222.5,268)" style="fill: rgb(0, 0, 0);" display="none"><g ></g><g ></g><g ></g><g ></g></g><image  id="v-7719"></image></g></g><!--z-index:24--><g   id="j_601"  transform="translate(200,230)" style=""><g  id="v-7723" style="opacity: 1;"><rect  id="v-7724" rx="10" ry="10" stroke="#3c7fc0" stroke-width="2" pointer-events="visiblePainted" fill="#3c7fc0" width="450" height="300" style="fill: rgb(60, 127, 192); stroke: rgb(60, 127, 192);"></rect><rect  id="v-7725" rx="10" ry="10" stroke="#3c7fc0" stroke-width="0" pointer-events="visiblePainted" fill="#438dd5" width="430" height="250" x="10" y="40" style="fill: rgb(67, 141, 213);"></rect><ellipse  id="v-7732" fill="#438dd5" cx="20" cy="20" rx="10" ry="10" style="fill: rgb(67, 141, 213);"></ellipse><ellipse  id="v-7733" fill="#438dd5" cx="50" cy="20" rx="10" ry="10" style="fill: rgb(67, 141, 213);"></ellipse><ellipse  id="v-7734" fill="#438dd5" cx="80" cy="20" rx="10" ry="10" style="fill: rgb(67, 141, 213);"></ellipse><rect  id="v-7726" rx="10" ry="10" stroke="#444444" stroke-width="0" pointer-events="visiblePainted" fill="#438dd5" width="340" height="20" x="100" y="10" style="fill: rgb(67, 141, 213);"></rect><text  id="v-7727" font-size="34" xml:space="preserve" y="0.8em" font-weight="bold" text-anchor="middle" pointer-events="visible" font-family="Open Sans" fill="#ffffff" transform="matrix(1,0,0,1,225,117.5)" style="fill: rgb(255, 255, 255);"><tspan  dy="0">Web Application</tspan></text><text  id="v-7728" font-size="17" xml:space="preserve" y="0.8em" text-anchor="middle" font-family="Open Sans" fill="#ffffff" transform="matrix(1,0,0,1,225,158.3000030517578)" style="fill: rgb(255, 255, 255);"><tspan  dy="0">[Container: Asp.Net Core MVC]</tspan></text><text  id="v-7729" font-size="24" xml:space="preserve" y="0.8em" text-anchor="middle" font-family="Open Sans" fill="#ffffff" transform="matrix(1,0,0,1,225,188.6999969482422)" style="fill: rgb(255, 255, 255);"><tspan  dy="0">Account &amp; data capture frontend</tspan></text><g  id="v-7730" font-weight="normal" text-anchor="middle" color="#ffffff" transform="matrix(1,0,0,1,210,258)" style="fill: rgb(255, 255, 255);" display="none"><g  transform="translate(5 0)"><svg xmlns="http://www.w3.org/2000/svg" width="20" height="20" fill="currentColor" viewBox="0 0 16 16"><path fill-rule="evenodd" d="M6.5 12a5.5 5.5 0 1 0 0-11 5.5 5.5 0 0 0 0 11zM13 6.5a6.5 6.5 0 1 1-13 0 6.5 6.5 0 0 1 13 0z"></path><path d="M10.344 11.742c.03.04.062.078.098.115l3.85 3.85a1 1 0 0 0 1.415-1.414l-3.85-3.85a1.007 1.007 0 0 0-.115-.1 6.538 6.538 0 0 1-1.398 1.4z"></path><path fill-rule="evenodd" d="M6.5 3a.5.5 0 0 1 .5.5V6h2.5a.5.5 0 0 1 0 1H7v2.5a.5.5 0 0 1-1 0V7H3.5a.5.5 0 0 1 0-1H6V3.5a.5.5 0 0 1 .5-.5z"></path></svg></g><g ></g><g ></g><g ></g></g><image  id="v-7731"></image></g></g><!--z-index:25--><g   id="j_602" ><path  stroke="#707070" d="M 650 378 L 865 376" id="v-7747" stroke-width="2" stroke-dasharray="30 30" fill="none" style="opacity: 1;"></path><path  fill="black" stroke="black" d="M 0 0 0 0" transform="matrix(0.9999592900276184,-0.009022667072713375,0.009022667072713375,0.9999592900276184,650,377.9700012207031)"></path><path  fill="#707070" stroke="#707070" d="M 20 0 L 0 10 L 20 20 z" id="v-7749" transform="matrix(-0.9999592900276184,0.009022933430969715,-0.009022933430969715,-0.9999592900276184,865.0902709960938,386.02960205078125)" style="opacity: 1;"></path><path  d="M 650 378 L 865 376" id="v-7748" fill="none" style="cursor: default;"></path><g ><g id="v-7738"  label-idx="0" cursor="move" transform="matrix(1,0,0,1,757.5,377)" style="cursor: default; opacity: 1;"><rect joint-selector="rect" id="v-7742" fill="#ffffff" rx="3" ry="3" pointer-events="none" width="56.94301986694336" height="34.19023132324219" transform="matrix(1,0,0,1,-28.5,-17.100000381469727)"></rect><text joint-selector="text" id="v-7741" font-size="24px" xml:space="preserve" y="0.8em" fill="#707070" text-anchor="middle" pointer-events="none" font-family="Open Sans" font-weight="normal" transform="matrix(1,0,0,1,0,-9.399999618530273)"><tspan  dy="0">Calls</tspan></text></g><g id="v-7739"  label-idx="1" cursor="move" transform="matrix(1,0,0,1,757.5,403.3999938964844)" style="cursor: default; opacity: 1;"><rect joint-selector="rect" id="v-7744" fill="#ffffff" rx="3" ry="3" pointer-events="none" width="105.43540954589844" height="24.4375" transform="matrix(1,0,0,1,-52.70000076293945,-12.199999809265137)"></rect><text joint-selector="text" id="v-7743" font-size="17px" xml:space="preserve" y="0.8em" fill="#707070" text-anchor="middle" pointer-events="none" font-family="Open Sans" font-weight="normal" transform="matrix(1,0,0,1,0,-6.699999809265137)"><tspan  dy="0">[HTTPS/json]</tspan></text></g><g id="v-7740"  label-idx="2" cursor="move" transform="matrix(1,0,0,1,747.5,411.79998779296875)" style="cursor: default; opacity: 1;"><rect joint-selector="rect" id="v-7746" fill="#ffffff" rx="3" ry="3"  width="0" height="0" transform="matrix(1,0,0,1,0,0)" display="none"></rect><text joint-selector="text" id="v-7745" fill="#000000" font-size="14" text-anchor="middle" pointer-events="none"></text></g></g><g  display="none"></g><g  id="v-7751" display="none"><g  id="v-7736"><path  end="source" d="M 26 0 L 0 13 L 26 26 z"></path></g><g  id="v-7737"><path  end="target" d="M 26 0 L 0 13 L 26 26 z"></path></g></g><g  id="v-7750" display="none"><g  id="v-7735" transform="translate(689.9982694470874, 377.6279230749108) "><g  event="remove"><circle r="11"></circle><path transform="scale(.8) translate(-16, -16)" d="M24.778,21.419 19.276,15.917 24.777,10.415 21.949,7.585 16.447,13.087 10.945,7.585 8.117,10.415 13.618,15.917 8.116,21.419 10.946,24.248 16.447,18.746 21.948,24.248z"></path><title>Remove link.</title></g><g  event="link:options"><circle r="11" transform="translate(25)"></circle><path fill="white" transform="scale(.55) translate(29, -16)" d="M31.229,17.736c0.064-0.571,0.104-1.148,0.104-1.736s-0.04-1.166-0.104-1.737l-4.377-1.557c-0.218-0.716-0.504-1.401-0.851-2.05l1.993-4.192c-0.725-0.91-1.549-1.734-2.458-2.459l-4.193,1.994c-0.647-0.347-1.334-0.632-2.049-0.849l-1.558-4.378C17.165,0.708,16.588,0.667,16,0.667s-1.166,0.041-1.737,0.105L12.707,5.15c-0.716,0.217-1.401,0.502-2.05,0.849L6.464,4.005C5.554,4.73,4.73,5.554,4.005,6.464l1.994,4.192c-0.347,0.648-0.632,1.334-0.849,2.05l-4.378,1.557C0.708,14.834,0.667,15.412,0.667,16s0.041,1.165,0.105,1.736l4.378,1.558c0.217,0.715,0.502,1.401,0.849,2.049l-1.994,4.193c0.725,0.909,1.549,1.733,2.459,2.458l4.192-1.993c0.648,0.347,1.334,0.633,2.05,0.851l1.557,4.377c0.571,0.064,1.148,0.104,1.737,0.104c0.588,0,1.165-0.04,1.736-0.104l1.558-4.377c0.715-0.218,1.399-0.504,2.049-0.851l4.193,1.993c0.909-0.725,1.733-1.549,2.458-2.458l-1.993-4.193c0.347-0.647,0.633-1.334,0.851-2.049L31.229,17.736zM16,20.871c-2.69,0-4.872-2.182-4.872-4.871c0-2.69,2.182-4.872,4.872-4.872c2.689,0,4.871,2.182,4.871,4.872C20.871,18.689,18.689,20.871,16,20.871z"></path><title>Link options.</title></g></g></g></g><!--z-index:26--><g   id="j_603" ><path  stroke="#707070" d="M 650 653 L 865 516" id="v-7764" stroke-width="2" stroke-dasharray="30 30" fill="none" style="opacity: 1;"></path><path  fill="black" stroke="black" d="M 0 0 0 0" transform="matrix(0.844901978969574,-0.5349211096763611,0.5349211096763611,0.844901978969574,650,652.5599975585938)"></path><path  fill="#707070" stroke="#707070" d="M 20 0 L 0 10 L 20 20 z" id="v-7766" transform="matrix(-0.844901978969574,0.5349211096763611,-0.5349211096763611,-0.844901978969574,870.3491821289062,524.8889770507812)" style="opacity: 1;"></path><path  d="M 650 653 L 865 516" id="v-7765" fill="none" style="cursor: default;"></path><g ><g id="v-7755"  label-idx="0" cursor="move" transform="matrix(1,0,0,1,757.5,584.5)" style="cursor: default; opacity: 1;"><rect joint-selector="rect" id="v-7759" fill="#ffffff" rx="3" ry="3" pointer-events="none" width="56.94301986694336" height="34.19023132324219" transform="matrix(1,0,0,1,-28.5,-17.100000381469727)"></rect><text joint-selector="text" id="v-7758" font-size="24px" xml:space="preserve" y="0.8em" fill="#707070" text-anchor="middle" pointer-events="none" font-family="Open Sans" font-weight="normal" transform="matrix(1,0,0,1,0,-9.399999618530273)"><tspan  dy="0">Calls</tspan></text></g><g id="v-7756"  label-idx="1" cursor="move" transform="matrix(1,0,0,1,757.5,610.9000244140625)" style="cursor: default; opacity: 1;"><rect joint-selector="rect" id="v-7761" fill="#ffffff" rx="3" ry="3" pointer-events="none" width="105.43540954589844" height="24.4375" transform="matrix(1,0,0,1,-52.70000076293945,-12.199999809265137)"></rect><text joint-selector="text" id="v-7760" font-size="17px" xml:space="preserve" y="0.8em" fill="#707070" text-anchor="middle" pointer-events="none" font-family="Open Sans" font-weight="normal" transform="matrix(1,0,0,1,0,-6.699999809265137)"><tspan  dy="0">[HTTPS/json]</tspan></text></g><g id="v-7757"  label-idx="2" cursor="move" transform="matrix(1,0,0,1,747.5,619.2999877929688)" style="cursor: default; opacity: 1;"><rect joint-selector="rect" id="v-7763" fill="#ffffff" rx="3" ry="3"  width="0" height="0" transform="matrix(1,0,0,1,0,0)" display="none"></rect><text joint-selector="text" id="v-7762" fill="#000000" font-size="14" text-anchor="middle" pointer-events="none"></text></g></g><g  display="none"></g><g  id="v-7768" display="none"><g  id="v-7753"><path  end="source" d="M 26 0 L 0 13 L 26 26 z"></path></g><g  id="v-7754"><path  end="target" d="M 26 0 L 0 13 L 26 26 z"></path></g></g><g  id="v-7767" display="none"><g  id="v-7752" transform="translate(683.7335322119544, 631.504679474243) "><g  event="remove"><circle r="11"></circle><path transform="scale(.8) translate(-16, -16)" d="M24.778,21.419 19.276,15.917 24.777,10.415 21.949,7.585 16.447,13.087 10.945,7.585 8.117,10.415 13.618,15.917 8.116,21.419 10.946,24.248 16.447,18.746 21.948,24.248z"></path><title>Remove link.</title></g><g  event="link:options"><circle r="11" transform="translate(25)"></circle><path fill="white" transform="scale(.55) translate(29, -16)" d="M31.229,17.736c0.064-0.571,0.104-1.148,0.104-1.736s-0.04-1.166-0.104-1.737l-4.377-1.557c-0.218-0.716-0.504-1.401-0.851-2.05l1.993-4.192c-0.725-0.91-1.549-1.734-2.458-2.459l-4.193,1.994c-0.647-0.347-1.334-0.632-2.049-0.849l-1.558-4.378C17.165,0.708,16.588,0.667,16,0.667s-1.166,0.041-1.737,0.105L12.707,5.15c-0.716,0.217-1.401,0.502-2.05,0.849L6.464,4.005C5.554,4.73,4.73,5.554,4.005,6.464l1.994,4.192c-0.347,0.648-0.632,1.334-0.849,2.05l-4.378,1.557C0.708,14.834,0.667,15.412,0.667,16s0.041,1.165,0.105,1.736l4.378,1.558c0.217,0.715,0.502,1.401,0.849,2.049l-1.994,4.193c0.725,0.909,1.549,1.733,2.459,2.458l4.192-1.993c0.648,0.347,1.334,0.633,2.05,0.851l1.557,4.377c0.571,0.064,1.148,0.104,1.737,0.104c0.588,0,1.165-0.04,1.736-0.104l1.558-4.377c0.715-0.218,1.399-0.504,2.049-0.851l4.193,1.993c0.909-0.725,1.733-1.549,2.458-2.458l-1.993-4.193c0.347-0.647,0.633-1.334,0.851-2.049L31.229,17.736zM16,20.871c-2.69,0-4.872-2.182-4.872-4.871c0-2.69,2.182-4.872,4.872-4.872c2.689,0,4.871,2.182,4.871,4.872C20.871,18.689,18.689,20.871,16,20.871z"></path><title>Link options.</title></g></g></g></g><!--z-index:27--><g   id="j_604" ><path  stroke="#707070" d="M 1707 519 L 1713 920" id="v-7784" stroke-width="2" stroke-dasharray="30 30" fill="none" style="opacity: 1;"></path><path  fill="black" stroke="black" d="M 0 0 0 0" transform="matrix(0.014262874610722065,0.9998982548713684,-0.9998982548713684,0.014262874610722065,1707.1400146484375,519)"></path><path  fill="#707070" stroke="#707070" d="M 20 0 L 0 10 L 20 20 z" id="v-7786" transform="matrix(-0.014262874610722065,-0.9998982548713684,0.9998982548713684,-0.014262874610722065,1702.861083984375,920.1426391601562)" style="opacity: 1;"></path><path  d="M 1707 519 L 1713 920" id="v-7785" fill="none" style="cursor: default;"></path><g ><g id="v-7775"  label-idx="0" cursor="move" transform="matrix(1,0,0,1,1710,719.5)" style="cursor: default; opacity: 1;"><rect joint-selector="rect" id="v-7779" fill="#ffffff" rx="3" ry="3" pointer-events="none" width="156.4610137939453" height="62.99023246765137" transform="matrix(1,0,0,1,-78.19999694824219,-31.5)"></rect><text joint-selector="text" id="v-7778" font-size="24px" xml:space="preserve" y="0.8em" fill="#707070" text-anchor="middle" pointer-events="none" font-family="Open Sans" font-weight="normal" transform="matrix(1,0,0,1,0,-23.799999237060547)"><tspan  dy="0">publishes to /</tspan><tspan dy="1.2em" x="0" >listens to</tspan></text></g><g id="v-7776"  label-idx="1" cursor="move" transform="matrix(1,0,0,1,1710,760.2999877929688)" style="cursor: default; opacity: 1;"><rect joint-selector="rect" id="v-7781" fill="#ffffff" rx="3" ry="3" pointer-events="none" width="66.15833282470703" height="24.4375" transform="matrix(1,0,0,1,-33.099998474121094,-12.199999809265137)"></rect><text joint-selector="text" id="v-7780" font-size="17px" xml:space="preserve" y="0.8em" fill="#707070" text-anchor="middle" pointer-events="none" font-family="Open Sans" font-weight="normal" transform="matrix(1,0,0,1,0,-6.699999809265137)"><tspan  dy="0">[HTTPS]</tspan></text></g><g id="v-7777"  label-idx="2" cursor="move" transform="matrix(1,0,0,1,1700,768.7000122070312)" style="cursor: default; opacity: 1;"><rect joint-selector="rect" id="v-7783" fill="#ffffff" rx="3" ry="3"  width="0" height="0" transform="matrix(1,0,0,1,0,0)" display="none"></rect><text joint-selector="text" id="v-7782" fill="#000000" font-size="14" text-anchor="middle" pointer-events="none"></text></g></g><g  display="none"></g><g  id="v-7788" display="none"><g  id="v-7773"><path  end="source" d="M 26 0 L 0 13 L 26 26 z"></path></g><g  id="v-7774"><path  end="target" d="M 26 0 L 0 13 L 26 26 z"></path></g></g><g  id="v-7787" display="none"><g  id="v-7772" transform="translate(1707.598436755625, 558.9955231675937) "><g  event="remove"><circle r="11"></circle><path transform="scale(.8) translate(-16, -16)" d="M24.778,21.419 19.276,15.917 24.777,10.415 21.949,7.585 16.447,13.087 10.945,7.585 8.117,10.415 13.618,15.917 8.116,21.419 10.946,24.248 16.447,18.746 21.948,24.248z"></path><title>Remove link.</title></g><g  event="link:options"><circle r="11" transform="translate(25)"></circle><path fill="white" transform="scale(.55) translate(29, -16)" d="M31.229,17.736c0.064-0.571,0.104-1.148,0.104-1.736s-0.04-1.166-0.104-1.737l-4.377-1.557c-0.218-0.716-0.504-1.401-0.851-2.05l1.993-4.192c-0.725-0.91-1.549-1.734-2.458-2.459l-4.193,1.994c-0.647-0.347-1.334-0.632-2.049-0.849l-1.558-4.378C17.165,0.708,16.588,0.667,16,0.667s-1.166,0.041-1.737,0.105L12.707,5.15c-0.716,0.217-1.401,0.502-2.05,0.849L6.464,4.005C5.554,4.73,4.73,5.554,4.005,6.464l1.994,4.192c-0.347,0.648-0.632,1.334-0.849,2.05l-4.378,1.557C0.708,14.834,0.667,15.412,0.667,16s0.041,1.165,0.105,1.736l4.378,1.558c0.217,0.715,0.502,1.401,0.849,2.049l-1.994,4.193c0.725,0.909,1.549,1.733,2.459,2.458l4.192-1.993c0.648,0.347,1.334,0.633,2.05,0.851l1.557,4.377c0.571,0.064,1.148,0.104,1.737,0.104c0.588,0,1.165-0.04,1.736-0.104l1.558-4.377c0.715-0.218,1.399-0.504,2.049-0.851l4.193,1.993c0.909-0.725,1.733-1.549,2.458-2.458l-1.993-4.193c0.347-0.647,0.633-1.334,0.851-2.049L31.229,17.736zM16,20.871c-2.69,0-4.872-2.182-4.872-4.871c0-2.69,2.182-4.872,4.872-4.872c2.689,0,4.871,2.182,4.871,4.872C20.871,18.689,18.689,20.871,16,20.871z"></path><title>Link options.</title></g></g></g></g><!--z-index:28--><g   id="j_605" ><path  stroke="#707070" d="M 1930 369 L 2220 369" id="v-7804" stroke-width="2" stroke-dasharray="30 30" fill="none" style="opacity: 1;"></path><path  fill="black" stroke="black" d="M 0 0 0 0" transform="matrix(1,0,0,1,1930,369)"></path><path  fill="#707070" stroke="#707070" d="M 20 0 L 0 10 L 20 20 z" id="v-7806" transform="matrix(-1,1.2246468525851679e-16,-1.2246468525851679e-16,-1,2220,379)" style="opacity: 1;"></path><path  d="M 1930 369 L 2220 369" id="v-7805" fill="none" style="cursor: default;"></path><g ><g id="v-7795"  label-idx="0" cursor="move" transform="matrix(1,0,0,1,2075,369)" style="cursor: default; opacity: 1;"><rect joint-selector="rect" id="v-7799" fill="#ffffff" rx="3" ry="3" pointer-events="none" width="197.08226013183594" height="62.99023246765137" transform="matrix(1,0,0,1,-98.5,-31.5)"></rect><text joint-selector="text" id="v-7798" font-size="24px" xml:space="preserve" y="0.8em" fill="#707070" text-anchor="middle" pointer-events="none" font-family="Open Sans" font-weight="normal" transform="matrix(1,0,0,1,0,-23.799999237060547)"><tspan  dy="0">sends</tspan><tspan dy="1.2em" x="0" >notifications with</tspan></text></g><g id="v-7796"  label-idx="1" cursor="move" transform="matrix(1,0,0,1,2075,409.79998779296875)" style="cursor: default; opacity: 1;"><rect joint-selector="rect" id="v-7801" fill="#ffffff" rx="3" ry="3" pointer-events="none" width="66.15833282470703" height="24.4375" transform="matrix(1,0,0,1,-33.099998474121094,-12.199999809265137)"></rect><text joint-selector="text" id="v-7800" font-size="17px" xml:space="preserve" y="0.8em" fill="#707070" text-anchor="middle" pointer-events="none" font-family="Open Sans" font-weight="normal" transform="matrix(1,0,0,1,0,-6.699999809265137)"><tspan  dy="0">[HTTPS]</tspan></text></g><g id="v-7797"  label-idx="2" cursor="move" transform="matrix(1,0,0,1,2065,418.20001220703125)" style="cursor: default; opacity: 1;"><rect joint-selector="rect" id="v-7803" fill="#ffffff" rx="3" ry="3"  width="0" height="0" transform="matrix(1,0,0,1,0,0)" display="none"></rect><text joint-selector="text" id="v-7802" fill="#000000" font-size="14" text-anchor="middle" pointer-events="none"></text></g></g><g  display="none"></g><g  id="v-7808" display="none"><g  id="v-7793"><path  end="source" d="M 26 0 L 0 13 L 26 26 z"></path></g><g  id="v-7794"><path  end="target" d="M 26 0 L 0 13 L 26 26 z"></path></g></g><g  id="v-7807" display="none"><g  id="v-7792" transform="translate(1970, 368.99999999999994) "><g  event="remove"><circle r="11"></circle><path transform="scale(.8) translate(-16, -16)" d="M24.778,21.419 19.276,15.917 24.777,10.415 21.949,7.585 16.447,13.087 10.945,7.585 8.117,10.415 13.618,15.917 8.116,21.419 10.946,24.248 16.447,18.746 21.948,24.248z"></path><title>Remove link.</title></g><g  event="link:options"><circle r="11" transform="translate(25)"></circle><path fill="white" transform="scale(.55) translate(29, -16)" d="M31.229,17.736c0.064-0.571,0.104-1.148,0.104-1.736s-0.04-1.166-0.104-1.737l-4.377-1.557c-0.218-0.716-0.504-1.401-0.851-2.05l1.993-4.192c-0.725-0.91-1.549-1.734-2.458-2.459l-4.193,1.994c-0.647-0.347-1.334-0.632-2.049-0.849l-1.558-4.378C17.165,0.708,16.588,0.667,16,0.667s-1.166,0.041-1.737,0.105L12.707,5.15c-0.716,0.217-1.401,0.502-2.05,0.849L6.464,4.005C5.554,4.73,4.73,5.554,4.005,6.464l1.994,4.192c-0.347,0.648-0.632,1.334-0.849,2.05l-4.378,1.557C0.708,14.834,0.667,15.412,0.667,16s0.041,1.165,0.105,1.736l4.378,1.558c0.217,0.715,0.502,1.401,0.849,2.049l-1.994,4.193c0.725,0.909,1.549,1.733,2.459,2.458l4.192-1.993c0.648,0.347,1.334,0.633,2.05,0.851l1.557,4.377c0.571,0.064,1.148,0.104,1.737,0.104c0.588,0,1.165-0.04,1.736-0.104l1.558-4.377c0.715-0.218,1.399-0.504,2.049-0.851l4.193,1.993c0.909-0.725,1.733-1.549,2.458-2.458l-1.993-4.193c0.347-0.647,0.633-1.334,0.851-2.049L31.229,17.736zM16,20.871c-2.69,0-4.872-2.182-4.872-4.871c0-2.69,2.182-4.872,4.872-4.872c2.689,0,4.871,2.182,4.871,4.872C20.871,18.689,18.689,20.871,16,20.871z"></path><title>Link options.</title></g></g></g></g><!--z-index:29--><!--z-index:30--><!--z-index:31--><!--z-index:32--><!--z-index:33--><!--z-index:34--><!--z-index:35--><!--z-index:36--><!--z-index:37--><!--z-index:38--><!--z-index:39--><!--z-index:40--><!--z-index:41--><!--z-index:42--><!--z-index:43--><!--z-index:44--><!--z-index:45--><!--z-index:46--><!--z-index:47--><!--z-index:48--><!--z-index:49--><!--z-index:50--><!--z-index:51--><!--z-index:52--><!--z-index:53--><!--z-index:54--><!--z-index:55--><!--z-index:56--><!--z-index:57--><!--z-index:58--><!--z-index:59--><!--z-index:60--><!--z-index:61--><!--z-index:62--><!--z-index:63--><!--z-index:64--><!--z-index:65--><!--z-index:66--><!--z-index:67--><!--z-index:68--><!--z-index:69--><!--z-index:70--><!--z-index:71--><!--z-index:72--><!--z-index:73--><!--z-index:74--><!--z-index:75--><!--z-index:76--><!--z-index:77--><!--z-index:78--><!--z-index:79--><!--z-index:80--><!--z-index:81--><!--z-index:82--><!--z-index:83--><!--z-index:84--><!--z-index:85--><!--z-index:86--><!--z-index:87--><!--z-index:88--><!--z-index:89--><!--z-index:90--><!--z-index:91--><!--z-index:92--><!--z-index:93--><!--z-index:94--><!--z-index:95--><!--z-index:96--><!--z-index:97--><!--z-index:98--><!--z-index:99--><!--z-index:100--><!--z-index:101--><!--z-index:102--><!--z-index:103--><!--z-index:104--><!--z-index:105--><!--z-index:106--><!--z-index:107--><!--z-index:108--><!--z-index:109--><!--z-index:110--><!--z-index:111--><!--z-index:112--><!--z-index:113--><!--z-index:114--><!--z-index:115--><!--z-index:116--><!--z-index:117--><!--z-index:118--><!--z-index:119--><!--z-index:120--><!--z-index:121--><!--z-index:122--><!--z-index:123--><!--z-index:124--><!--z-index:125--><!--z-index:126--><!--z-index:127--><!--z-index:128--><!--z-index:129--><!--z-index:130--></g><g ></g><g ></g><g ></g></g></svg>